<svg xmlns="http://www.w3.org/2000/svg" xmlns:xlink="http://www.w3.org/1999/xlink" width="80" height="80" viewBox="0 0 80 80"><defs><style>.a{fill:#01a3ff;}.b{clip-path:url(#a);}</style><clipPath id="a"><rect class="a" width="80" height="80" transform="translate(1381 759)"/></clipPath></defs><g class="b" transform="translate(-1381 -759)"><g transform="translate(1381 759)"><path class="a" d="M21.833,66.944l-4.5-1.285V63.965A6.637,6.637,0,0,0,20,58.667V57.333A1.333,1.333,0,0,0,21.333,56V54.667a8,8,0,0,0-16,0V56a1.333,1.333,0,0,0,1.333,1.333v1.333a6.637,6.637,0,0,0,2.667,5.3v1.693l-4.5,1.285A6.7,6.7,0,0,0,0,73.36v5.307A1.333,1.333,0,0,0,1.333,80h24a1.333,1.333,0,0,0,1.333-1.333V73.36A6.7,6.7,0,0,0,21.833,66.944Zm-8.5-17.611a5.333,5.333,0,0,1,5.333,5.3,1.334,1.334,0,0,1-.88-.7l-.593-1.189a1.334,1.334,0,0,0-1.934-.515l-1.984,1.323a6.649,6.649,0,0,1-3.7,1.12H8a5.334,5.334,0,0,1,5.333-5.333Zm-3.756,8a9.3,9.3,0,0,0,5.177-1.568l.73-.487a3.939,3.939,0,0,0,1.848,1.667v1.721a4,4,0,1,1-8,0V57.333Zm3.756,8a6.645,6.645,0,0,0,1.333-.133v1.467a1.322,1.322,0,0,0,.46.987L13.333,69,11.54,67.654a1.322,1.322,0,0,0,.46-.987V65.2a6.645,6.645,0,0,0,1.333.133ZM24,77.333H21.333v-4H18.667v4H8v-4H5.333v4H2.667V73.36a4.019,4.019,0,0,1,2.9-3.852l2.9-.826,4.066,3.051a1.332,1.332,0,0,0,1.6,0L18.2,68.682l2.9.827A4.017,4.017,0,0,1,24,73.36Zm0,0"/><path class="a" d="M75.167,66.944l-4.5-1.285V63.965a6.637,6.637,0,0,0,2.667-5.3V57.333A1.333,1.333,0,0,0,74.667,56V54.667a8,8,0,0,0-16,0V56A1.333,1.333,0,0,0,60,57.333v1.333a6.637,6.637,0,0,0,2.667,5.3v1.693l-4.5,1.285a6.7,6.7,0,0,0-4.835,6.416v5.307A1.333,1.333,0,0,0,54.667,80h24A1.333,1.333,0,0,0,80,78.667V73.36A6.7,6.7,0,0,0,75.167,66.944Zm-8.5-17.611A5.333,5.333,0,0,1,72,54.631a1.334,1.334,0,0,1-.88-.7l-.593-1.189a1.334,1.334,0,0,0-1.934-.515l-1.984,1.323a6.649,6.649,0,0,1-3.7,1.12H61.333a5.334,5.334,0,0,1,5.333-5.333Zm-3.756,8a9.3,9.3,0,0,0,5.177-1.568l.73-.487a3.939,3.939,0,0,0,1.848,1.667v1.721a4,4,0,1,1-8,0V57.333Zm3.756,8A6.645,6.645,0,0,0,68,65.2v1.467a1.322,1.322,0,0,0,.46.987L66.667,69l-1.794-1.346a1.322,1.322,0,0,0,.46-.987V65.2a6.645,6.645,0,0,0,1.333.133Zm10.667,12H74.667v-4H72v4H61.333v-4H58.667v4H56V73.36a4.019,4.019,0,0,1,2.9-3.852l2.9-.826,4.066,3.051a1.332,1.332,0,0,0,1.6,0l4.066-3.051,2.9.827a4.017,4.017,0,0,1,2.9,3.851Zm0,0"/><path class="a" d="M40,13.333a4,4,0,1,0-4-4A4,4,0,0,0,40,13.333ZM40,8a1.333,1.333,0,1,1-1.333,1.333A1.333,1.333,0,0,1,40,8Zm0,0"/><path class="a" d="M43.931,31.092l.848-2.545.693,1.387a1.334,1.334,0,0,0,1.195.733H51.41a2.667,2.667,0,0,0,2.5-3.6L51.23,19.932A4.016,4.016,0,0,0,48,17.373V9.58a6.6,6.6,0,0,0-1.148-3.742C42.859,0,40.706,0,40,0s-2.859,0-6.852,5.837A6.6,6.6,0,0,0,32,9.58v7.793a4.015,4.015,0,0,0-3.23,2.556l-2.676,7.137a2.667,2.667,0,0,0,2.5,3.6h4.743a1.334,1.334,0,0,0,1.193-.738l.693-1.386.848,2.545a5.3,5.3,0,0,0-1.4,3.579c0,2.747,2.077,8,5.333,8s5.333-5.253,5.333-8a5.3,5.3,0,0,0-1.4-3.575Zm-5.636-1.758L37.85,28h4.3l-.445,1.333Zm10.438-8.468L51.41,28H47.491l-.117-.232a1.31,1.31,0,0,0,.626-1.1V20.119a1.324,1.324,0,0,1,.733.747ZM34.667,9.58a3.947,3.947,0,0,1,.682-2.236C37.88,3.644,39.5,2.667,40,2.667s2.12.977,4.652,4.677a3.947,3.947,0,0,1,.682,2.236V25.333h-4v-8H38.667v8h-4ZM28.591,28l2.675-7.135A1.333,1.333,0,0,1,32,20.119v6.548a1.31,1.31,0,0,0,.626,1.1L32.509,28ZM40,40c-1,0-2.667-3.333-2.667-5.333a2.667,2.667,0,1,1,5.333,0C42.667,36.667,41,40,40,40Zm0,0"/><path class="a" d="M30.667,40a4.008,4.008,0,0,0-3.775,2.673,4,4,0,1,0-.225,7.993V48a1.333,1.333,0,1,1,0-2.667,1.3,1.3,0,0,1,.674.184,1.334,1.334,0,0,0,2.011-1.295A1.589,1.589,0,0,1,29.333,44,1.333,1.333,0,0,1,32,44h2.667a4,4,0,0,0-4-4Zm0,0"/><path class="a" d="M54.667,46.667A1.333,1.333,0,0,1,53.333,48v2.667a4,4,0,1,0-.225-7.993A4,4,0,0,0,45.333,44H48a1.333,1.333,0,0,1,2.667,0,1.588,1.588,0,0,1-.019.223,1.334,1.334,0,0,0,2.011,1.295,1.3,1.3,0,0,1,.674-.184,1.333,1.333,0,0,1,1.333,1.333Zm0,0"/><path class="a" d="M70.667,22.667v20h2.667v-20A6.675,6.675,0,0,0,66.667,16H61.333v2.667h5.333A4,4,0,0,1,70.667,22.667Zm0,0"/><path class="a" d="M76,21.333h2.667V24H76Zm0,0"/><path class="a" d="M76,26.667h2.667v2.667H76Zm0,0"/><path class="a" d="M76,32h2.667v2.667H76Zm0,0"/><path class="a" d="M76,37.333h2.667V40H76Zm0,0"/><path class="a" d="M9.333,22.667a4,4,0,0,1,4-4h5.333V16H13.333a6.675,6.675,0,0,0-6.667,6.667v20H9.333Zm0,0"/><path class="a" d="M1.333,21.333H4V24H1.333Zm0,0"/><path class="a" d="M1.333,26.667H4v2.667H1.333Zm0,0"/><path class="a" d="M1.333,32H4v2.667H1.333Zm0,0"/><path class="a" d="M1.333,37.333H4V40H1.333Zm0,0"/></g></g></svg>