<svg xmlns="http://www.w3.org/2000/svg" xmlns:xlink="http://www.w3.org/1999/xlink" width="236.4" height="197" viewBox="0 0 236.4 197"><defs><style>.a{fill:#fff;}.b{clip-path:url(#a);}.c{fill:#4055ec;}.aq,.d,.f,.o{opacity:0.5;}.e,.f{fill:#6c98e3;}.g{fill:#9fd7fd;}.h{fill:#83c2f5;opacity:0.57;}.i{fill:url(#b);}.j{fill:#cff1f9;}.k{fill:url(#c);}.l{fill:#d1e1fc;}.m{fill:#b3cdfa;}.n{fill:url(#h);}.o,.q{fill:#ffcd39;}.p{fill:url(#i);}.aq,.r{fill:#3a3c4e;}.s{fill:#9496a4;opacity:0.1;}.t{fill:#4d5068;}.ag,.u{opacity:0.2;}.aa,.v{fill:#191c3c;}.w{fill:#ffcebd;}.x{fill:#ff5722;}.y{fill:#f50;}.al,.z{fill:#a58877;}.ak,.z{opacity:0.4;}.aa,.ae{opacity:0.3;}.ab{fill:url(#k);}.ac{fill:url(#l);}.ad{opacity:0.55;}.af,.ag{fill:#272834;}.ah{fill:url(#m);}.ai{fill:#342dec;}.aj{fill:#1553a6;}.am{fill:url(#n);}.an{fill:url(#o);}.ao{fill:#f7f7f7;}.ap{fill:#717386;}.ar{fill:url(#q);}.as{fill:url(#r);}.at{fill:url(#s);}</style><clipPath id="a"><rect class="a" width="236.4" height="197" transform="translate(1579.193 698.266)"/></clipPath><linearGradient id="b" y1="0.5" x2="1" y2="0.5" gradientUnits="objectBoundingBox"><stop offset="0" stop-color="#eef4fe"/><stop offset="0.85" stop-color="#f4f8ff"/></linearGradient><linearGradient id="c" x1="0" y1="0.5" x2="1" y2="0.5" xlink:href="#b"/><linearGradient id="h" y1="0.5" x2="1" y2="0.5" gradientUnits="objectBoundingBox"><stop offset="0" stop-color="#fc7318"/><stop offset="0.24" stop-color="#fd8d1c"/><stop offset="0.5" stop-color="#fda320"/><stop offset="0.76" stop-color="#feb022"/><stop offset="1" stop-color="#feb423"/></linearGradient><linearGradient id="i" x1="0" y1="0.5" x2="1" y2="0.5" xlink:href="#h"/><linearGradient id="k" y1="0.5" x2="1" y2="0.5" gradientUnits="objectBoundingBox"><stop offset="0" stop-color="#cedffc"/><stop offset="1" stop-color="#b3cdfa"/></linearGradient><linearGradient id="l" x1="0" y1="0.5" y2="0.5" xlink:href="#k"/><linearGradient id="m" y1="0.5" x2="1" y2="0.5" gradientUnits="objectBoundingBox"><stop offset="0" stop-color="#a5cbef"/><stop offset="0.85" stop-color="#f4f8ff"/></linearGradient><linearGradient id="n" x1="0" y1="0.501" x2="1" y2="0.501" xlink:href="#m"/><linearGradient id="o" x1="0" y1="0.5" x2="1" y2="0.5" xlink:href="#b"/><linearGradient id="q" y1="0.5" x2="1" y2="0.5" gradientUnits="objectBoundingBox"><stop offset="0" stop-color="#fec55e"/><stop offset="1" stop-color="#ff5722"/></linearGradient><linearGradient id="r" y1="0.5" x2="1" y2="0.5" gradientUnits="objectBoundingBox"><stop offset="0" stop-color="#e3edfe"/><stop offset="1" stop-color="#b3cdfa"/></linearGradient><linearGradient id="s" x1="0" y1="0.5" x2="1" y2="0.5" xlink:href="#q"/></defs><g class="b" transform="translate(-1579.193 -698.266)"><g transform="translate(1579.267 715.448)"><g transform="translate(0)"><path class="c" d="M180.11,150.328l.364-.384a5.1,5.1,0,0,1,.467-.438,3.147,3.147,0,0,1,.31-.258l.374-.276a10.242,10.242,0,0,1,2.063-1.155,13.982,13.982,0,0,1,2.966-.867c.279-.059.565-.085.859-.132s.593-.059.9-.09c.611-.039,1.243-.059,1.893-.044l.49.013.5.034.258.015.258.023.5.049c.691.072,1.372.186,2.063.328a18.911,18.911,0,0,1,2.1.552,16.129,16.129,0,0,1,2.094.828,15.621,15.621,0,0,1,2,1.14l.477.34c.155.116.307.24.462.359l.116.09.111.1.106.088.113.1c.152.134.291.258.433.4a22.555,22.555,0,0,1,2.894,3.482c.415.6.838,1.235,1.2,1.854l.279.464c.09.155.175.312.258.469.17.312.348.619.5.934a34.52,34.52,0,0,1,1.648,3.688c.464,1.194.82,2.352,1.122,3.425.139.539.284,1.052.387,1.548.057.258.108.488.163.722s.088.464.132.686c.088.441.162.856.219,1.243.028.193.057.377.085.555s.044.346.062.516c.09.64.129,1.145.16,1.491s.041.529.041.529-.049-.178-.144-.516c-.044-.168-.1-.371-.165-.614s-.15-.516-.237-.823l-.139-.487c-.054-.168-.108-.346-.168-.516s-.116-.377-.175-.575-.132-.4-.2-.614-.142-.428-.214-.653-.163-.451-.245-.686c-.163-.469-.351-.959-.544-1.468-.4-1.014-.841-2.1-1.375-3.224s-1.117-2.29-1.805-3.451c-.16-.3-.351-.578-.516-.872-.088-.147-.173-.294-.258-.438l-.284-.433c-.188-.291-.377-.585-.578-.861l-.294-.426c-.1-.142-.2-.286-.31-.431a23.532,23.532,0,0,0-2.726-3.214c-.124-.119-.258-.24-.377-.348l-.093-.083-.1-.09-.1-.083-.1-.08-.4-.317-.407-.328a15.742,15.742,0,0,0-1.762-1.045,19.126,19.126,0,0,0-3.8-1.4c-.64-.163-1.29-.3-1.909-.408l-.485-.08-.232-.036-.232-.028-.464-.062-.459-.046a19.345,19.345,0,0,0-3.441-.049,15.055,15.055,0,0,0-2.873.487,11.511,11.511,0,0,0-2.11.815l-.4.209c-.126.067-.235.142-.34.2a5.125,5.125,0,0,0-.529.346Z" transform="translate(-180.11 -33.357)"/><path class="c" d="M187.171,145.372l.457-.206.258-.108c.093-.041.2-.072.31-.116.224-.077.485-.181.774-.258l.472-.129c.165-.041.34-.075.516-.113s.374-.08.573-.1.408-.057.622-.083a16.151,16.151,0,0,1,2.909-.026,20.965,20.965,0,0,1,3.4.562,27.275,27.275,0,0,1,3.65,1.189,18.059,18.059,0,0,1,1.867.869c.31.165.616.343.921.536l.227.147.235.163.209.15.1.075.111.085a16.351,16.351,0,0,1,3.046,3.116c.219.286.426.58.629.872l.152.222.085.126.07.111.279.436c.186.291.374.575.547.9s.361.622.516.934l.477.936c.155.312.284.632.428.944.067.157.139.315.206.472l.186.475.183.472c.062.157.121.315.17.472A27.891,27.891,0,0,1,212.8,162.2c.1.6.222,1.181.281,1.751.034.284.064.562.1.838s.039.544.059.81c.044.516.039,1.032.049,1.517v.7c0,.23-.018.449-.026.663-.054.854-.132,1.6-.232,2.2s-.2,1.076-.258,1.4-.108.488-.108.488v-.5c0-.325.023-.8,0-1.408s-.041-1.333-.1-2.167a26.419,26.419,0,0,0-.353-2.773c-.044-.258-.088-.516-.134-.774s-.113-.516-.173-.789c-.106-.539-.258-1.086-.408-1.648a32.243,32.243,0,0,0-2.876-6.964c-.335-.57-.65-1.117-1.032-1.7l-.284-.436-.07-.108-.059-.085-.144-.206c-.193-.273-.389-.544-.591-.807a16.151,16.151,0,0,0-2.677-2.824l-.09-.072-.1-.077-.2-.155-.181-.129-.193-.137c-.258-.178-.516-.346-.8-.516-.547-.32-1.112-.6-1.682-.872a28.113,28.113,0,0,0-6.551-2.18,18.2,18.2,0,0,0-2.749-.307c-.413,0-.8-.013-1.161,0-.178,0-.353.013-.516.026l-.469.052c-.3.026-.56.08-.792.113-.116.021-.222.034-.32.054l-.258.062Z" transform="translate(-181.716 -32.788)"/><path class="c" d="M202.261,128.407l.4.322c.258.209.642.516,1.112.939s1.032.931,1.646,1.548c.312.31.629.65.967,1.008s.676.753,1.032,1.166a34.641,34.641,0,0,1,4.145,6.152l.119.227.031.057.031.064.057.113c.075.15.15.3.227.454.147.3.3.634.444.954.284.64.565,1.29.818,1.958.516,1.331.97,2.7,1.385,4.08s.774,2.762,1.127,4.127c.175.681.343,1.352.516,2.027s.317,1.346.441,2.022a26.592,26.592,0,0,1,.423,3.923c.044,1.243.046,2.4.026,3.482-.013.539-.031,1.055-.059,1.548s-.067.957-.108,1.393c-.077.874-.193,1.63-.3,2.249s-.222,1.1-.3,1.426-.132.5-.132.5,0-.181.028-.516c0-.168.018-.374.028-.616s0-.516.018-.831c0-.622,0-1.375-.028-2.236s-.1-1.831-.183-2.889c-.044-.531-.09-1.076-.147-1.651s-.113-1.158-.186-1.756a29.971,29.971,0,0,0-.642-3.686c-.152-.632-.325-1.29-.516-1.932s-.374-1.328-.562-2c-.382-1.346-.756-2.713-1.163-4.062s-.833-2.688-1.29-3.985c-.232-.647-.48-1.29-.727-1.911-.129-.307-.258-.609-.387-.918-.07-.155-.137-.31-.206-.462l-.049-.116-.021-.049-.026-.057-.106-.222a44.43,44.43,0,0,0-3.549-6.229c-1.184-1.751-2.29-3.142-3.074-4.109-.4-.475-.7-.861-.926-1.112Z" transform="translate(-185.147 -29.202)"/><path class="c" d="M211.819,130.908l.093.08a3.369,3.369,0,0,1,.258.237,9.59,9.59,0,0,1,.934,1.008,13.576,13.576,0,0,1,1.2,1.777,25.62,25.62,0,0,1,1.217,2.492c.108.258.193.475.3.72l.3.738.3.774.291.807.3.833c.1.281.2.567.289.856.186.58.364,1.174.549,1.78.34,1.217.681,2.479.954,3.779.152.647.276,1.305.4,1.965.059.33.119.663.181.993l.152,1,.144,1c.049.333.08.668.119,1,.075.668.157,1.333.2,2s.106,1.318.129,1.971.041,1.29.062,1.924,0,1.254,0,1.86v.454a3.729,3.729,0,0,1-.018.449c-.013.3-.026.588-.039.877s-.028.575-.044.856-.041.555-.064.825c-.049.544-.09,1.068-.142,1.568l-.186,1.437c-.059.454-.116.885-.191,1.29-.144.8-.258,1.509-.389,2.081s-.235,1.032-.3,1.328-.113.467-.113.467v-.482c0-.315.021-.774.052-1.357.018-.291.026-.614.028-.965s.018-.732.028-1.137c0-.2,0-.41.015-.627s0-.436,0-.663c0-.454,0-.931.013-1.426s-.015-1.016-.021-1.548v-.818c0-.276-.021-.555-.031-.838-.023-1.137-.1-2.321-.168-3.567-.049-.614-.1-1.241-.147-1.875-.021-.317-.062-.634-.093-.957s-.064-.64-.1-.962c-.054-.647-.157-1.29-.23-1.945-.041-.325-.075-.653-.124-.978l-.15-.978-.139-.978-.17-.97c-.116-.645-.212-1.29-.348-1.927-.062-.317-.126-.634-.188-.949s-.119-.632-.191-.941c-.139-.619-.273-1.233-.408-1.836s-.3-1.192-.436-1.769-.307-1.135-.446-1.684c-.072-.273-.144-.542-.214-.807l-.235-.789-.433-1.491c-.289-.949-.578-1.805-.872-2.548a15.882,15.882,0,0,0-.874-1.878,12.207,12.207,0,0,0-.717-1.137Z" transform="translate(-187.321 -29.77)"/><path class="c" d="M219.207,134.016l.258.284c.085.09.183.209.3.353.057.072.121.147.186.23l.2.273a12.9,12.9,0,0,1,.895,1.452,18.573,18.573,0,0,1,.916,2.017c.292.758.57,1.589.828,2.471s.516,1.805.758,2.783.472,1.991.647,3.043a26.984,26.984,0,0,1,.361,3.232,22.9,22.9,0,0,1-.1,3.268q-.075.8-.186,1.568c-.039.258-.075.516-.111.774s-.083.5-.121.743c-.168.993-.356,1.94-.552,2.837s-.408,1.738-.616,2.51-.42,1.478-.619,2.1-.389,1.153-.544,1.594-.294.774-.384,1.014l-.144.356.044-.382c.036-.258.072-.614.139-1.073.119-.918.289-2.231.5-3.807.1-.774.2-1.633.307-2.533s.206-1.847.307-2.822q.07-.735.144-1.493t.119-1.514a27.336,27.336,0,0,0,.039-3.049c-.021-.516-.054-1.032-.106-1.529s-.108-1.019-.178-1.522-.147-1.006-.227-1.5-.17-.988-.258-1.473c-.181-.97-.353-1.909-.516-2.8s-.333-1.718-.516-2.479a21.422,21.422,0,0,0-1.137-3.611c-.09-.212-.173-.4-.258-.56s-.142-.3-.2-.413Z" transform="translate(-189.001 -30.477)"/><path class="c" d="M230.891,135.208a3.442,3.442,0,0,1-.041.438c-.041.286-.067.707-.132,1.238s-.142,1.181-.258,1.919c-.054.371-.114.774-.175,1.179s-.142.849-.217,1.3-.16.923-.258,1.411-.2.99-.3,1.506c-.206,1.032-.451,2.115-.707,3.237-.132.557-.273,1.125-.415,1.7s-.294,1.153-.451,1.733c-.3,1.168-.655,2.345-1,3.521s-.722,2.345-1.114,3.485c-.188.573-.377,1.14-.58,1.7s-.4,1.1-.591,1.646c-.4,1.076-.8,2.115-1.2,3.1l-.586,1.419-.57,1.315c-.188.42-.366.823-.539,1.2l-.516,1.078c-.32.676-.609,1.259-.854,1.738s-.441.851-.573,1.107l-.209.389s.039-.15.113-.428.183-.686.338-1.2l.539-1.854c.214-.712.454-1.517.717-2.394,1.063-3.492,2.481-8.15,3.9-12.806l3.822-12.832c.258-.874.516-1.679.722-2.391l.575-1.844c.155-.516.291-.913.379-1.186Z" transform="translate(-189.095 -30.748)"/><path class="c" d="M220.853,172.649l.1-.472c.07-.3.152-.756.3-1.323.07-.284.147-.6.232-.941s.191-.709.3-1.1.237-.807.366-1.248.289-.892.444-1.372.335-.97.516-1.48.389-1.032.611-1.566c.431-1.073.936-2.185,1.493-3.319.284-.565.575-1.14.892-1.707s.647-1.143.985-1.715c.691-1.137,1.452-2.259,2.252-3.353l.619-.8c.2-.258.423-.516.64-.789.428-.536.885-1.032,1.328-1.524s.91-.972,1.39-1.419c.237-.227.464-.459.707-.673l.717-.642a33.212,33.212,0,0,1,2.894-2.249c.475-.338.954-.637,1.419-.931.227-.15.464-.276.694-.41l.673-.387c.451-.232.88-.459,1.29-.66s.815-.377,1.194-.539.738-.3,1.068-.42.645-.222.921-.317c.552-.2,1.006-.3,1.308-.384l.464-.121-.431.217c-.279.142-.691.335-1.2.616-.258.139-.542.284-.843.457s-.627.366-.972.567l-1.086.678-1.171.787c-.8.575-1.661,1.2-2.523,1.922s-1.746,1.5-2.631,2.342-1.744,1.772-2.6,2.726c-.415.487-.841.978-1.241,1.478-.2.258-.4.49-.606.774l-.6.774c-.774,1.047-1.514,2.125-2.216,3.2s-1.344,2.172-1.95,3.245-1.166,2.123-1.669,3.136-.972,1.976-1.4,2.873l-.593,1.29-.516,1.176c-.322.743-.606,1.39-.838,1.922l-.534,1.246Z" transform="translate(-189.375 -32.015)"/><path class="c" d="M214.807,176.179l-.168-.3-.469-.851-.335-.6c-.129-.214-.258-.451-.4-.7-.291-.5-.624-1.058-.993-1.658s-.774-1.246-1.233-1.911-.941-1.357-1.455-2.063-1.076-1.413-1.656-2.12-1.189-1.411-1.826-2.089l-.116-.129-.116-.126-.242-.258c-.157-.165-.315-.33-.477-.493-.328-.322-.647-.647-.98-.949a20.072,20.072,0,0,0-2.032-1.656c-.346-.258-.7-.464-1.032-.673-.175-.1-.351-.2-.516-.294l-.132-.07h-.018l-.036-.018-.07-.034-.279-.134a10.975,10.975,0,0,0-1.032-.418c-.343-.126-.683-.219-1.011-.3a9.464,9.464,0,0,0-3.3-.258,9,9,0,0,0-.947.155l-.335.077.3-.173c.1-.059.224-.116.374-.188a4.676,4.676,0,0,1,.516-.217,7.876,7.876,0,0,1,1.509-.377,8.769,8.769,0,0,1,2.04-.049,10.188,10.188,0,0,1,1.161.173,11.239,11.239,0,0,1,1.23.33,12.807,12.807,0,0,1,2.448,1.145,13.928,13.928,0,0,1,1.186.789c.389.279.774.583,1.135.9s.732.647,1.078.99c.175.17.348.348.516.516l.258.258.126.132.124.137c.658.717,1.29,1.465,1.865,2.223l.431.573c.139.188.271.387.408.578.273.379.516.774.774,1.153a25.925,25.925,0,0,1,1.29,2.275c.2.369.369.735.539,1.086s.317.7.459,1.032.258.658.384.967.224.6.317.88.178.542.258.774.134.469.191.673c.121.4.181.727.235.947Z" transform="translate(-183.177 -35.762)"/><g class="d" transform="translate(36.946 108.764)"><path class="e" d="M249.085,141l.431-.217-.464.121c-.209.062-.5.129-.833.23-.846.408-1.687.838-2.515,1.29a39.9,39.9,0,0,0-4.821,3.082,28.686,28.686,0,0,0-4.238,3.869,20.8,20.8,0,0,0-3.2,4.681l-.093.193-.026.046.026-.046a15.861,15.861,0,0,1,1.192-2.03c.121-.178-.1.2.041.031s.371-.516.5-.694-.077.209.077.059.684-.815.849-.957c.222-.23.16-.142-.013.059l-.653.774c.152-.15-.258.33-.258.346s.031.023.113-.046.235-.219.534-.516c.152-.15.039.034.057.046q.418-.446.864-.89c.653-.712,1.313-1.4,1.983-2.048.885-.841,1.756-1.64,2.631-2.342s1.723-1.346,2.523-1.922l1.171-.787,1.086-.678c.346-.2.673-.387.972-.567s.588-.317.843-.457C248.386,141.332,248.8,141.138,249.085,141Z" transform="translate(-229.159 -140.78)"/><path class="e" d="M233.247,152.1a17.1,17.1,0,0,1,1.465-1.612c.516-.516,1.065-.99,1.6-1.473.89-.8,1.9-1.651,2.925-2.486l2.345-1.922c-.157.09-.315.181-.469.281-.464.294-.944.593-1.419.931a33.212,33.212,0,0,0-2.894,2.249l-.717.642c-.242.214-.469.446-.707.673-.48.446-.929.934-1.39,1.419s-.9.988-1.328,1.524c-.217.258-.441.529-.64.789l-.619.8q-.774,1.076-1.509,2.182c0,.018,0,.016.057-.039.147-.191.653-1.006.815-1.189.214-.289.155-.183,0,.067l-.622.952c.147-.188-.258.4-.237.418s.057.034.632-.733c.147-.186.041.028.062.041.415-.58.861-1.161,1.31-1.751S232.788,152.674,233.247,152.1Z" transform="translate(-228.376 -141.65)"/><path class="e" d="M228.651,161.114l-.139.235a12.275,12.275,0,0,0-.5,1.478c-.028.111-.046.183-.057.232h0A11.988,11.988,0,0,1,228.651,161.114Z" transform="translate(-227.938 -145.404)"/><path class="e" d="M227.954,163.631h0a.136.136,0,0,1-.021.057C227.925,163.7,227.943,163.657,227.954,163.631Z" transform="translate(-227.931 -145.976)"/></g><g class="d" transform="translate(36.7 105.3)"><path class="e" d="M230.363,144.645c-.433,1.7-.861,3.4-1.308,5.1s-.905,3.381-1.367,5.063c-.026.093-.041.152-.052.193v0c.108-.382.222-.774.33-1.122s.2-.691.3-.972c.057-.191-.028.2.046.018s.183-.567.24-.758,0,.209.093.031.328-.936.413-1.119c.106-.279.085-.181.015.057s-.2.614-.3.9c.088-.181-.132.377-.113.382s.075.026.395-.707c.085-.181.049.016.07.023.23-.555.433-1.13.647-1.71s.4-1.174.586-1.769c.371-1.192.684-2.4.947-3.565a.2.2,0,0,1,0-.041,1.124,1.124,0,0,1,.041-.206c.1-.516.2-1.019.3-1.506s.173-.959.258-1.411.152-.887.217-1.3.121-.807.175-1.179c.108-.738.188-1.385.258-1.919.039-.315.067-.591.09-.823-.33,1.076-.64,2.161-.939,3.247C231.229,141.238,230.8,142.935,230.363,144.645Z" transform="translate(-227.618 -136.296)"/><path class="e" d="M227.626,160.53l-.013.028A.3.3,0,0,0,227.626,160.53Z" transform="translate(-227.613 -141.807)"/></g><path class="f" d="M224.029,145.608c-.1-.477-.214-.949-.33-1.408-.242-.975-.5-1.9-.758-2.783-.191-.653-.395-1.29-.6-1.867a18.948,18.948,0,0,0-1.352-2.432c-.307-.485-.774-1.235-1.091-1.689l.049.108.144.219c-.046-.062-.088-.126-.132-.191l.036.085a19.385,19.385,0,0,1,.892,2.628c.075.152.15.307.222.462a17.02,17.02,0,0,1,1.05,2.8c.258.967.472,1.978.689,2.976a56.642,56.642,0,0,1,1,6.03,31.141,31.141,0,0,1,.067,6.084.891.891,0,0,1-.016.232c-.015.049,0,.039,0,.057a.435.435,0,0,1,0-.057c.1-.926.152-1.852.188-2.543.013-.23.023.232.052,0s.021-.694.028-.926.057.235.1,0c.021-.116.028-.408.036-.7s0-.58,0-.7c0-.351.023-.235.031.057s0,.756,0,1.106c.015-.116,0,0,0,.144a2.809,2.809,0,0,0,0,.32c.039,0,.09,0,.175-.929.026-.235.049,0,.072,0a25.888,25.888,0,0,0-.121-4.343C224.364,147.437,224.21,146.511,224.029,145.608Z" transform="translate(-189.158 -30.798)"/><g class="d" transform="translate(26.022 103.722)"><path class="e" d="M221.23,159.892h0v.057A.14.14,0,0,0,221.23,159.892Z" transform="translate(-215.483 -140.084)"/><path class="e" d="M218.264,147.923c.516,1.934.854,3.933,1.23,5.914.021.108.036.175.044.224h0c-.157-.905-.309-1.805-.41-2.494-.036-.227.07.222.052,0l-.144-.908c0-.23.1.219.1-.013s-.16-1.137-.178-1.367c-.046-.343-.015-.232.041.052s.126.738.17,1.078c0-.23.062.457.08.454s.083,0,.013-.934c-.015-.232.049,0,.072,0a24.1,24.1,0,0,0-.82-4.217c-.4-1.393-.859-2.747-1.333-4.047-.4-1.083-.82-2.288-1.318-3.467a24.158,24.158,0,0,0-1.679-3.3l-.387-.65c.116.258.235.539.353.836.294.743.583,1.6.872,2.548l.433,1.491.235.789c.07.258.142.534.214.807l.062.232q.209.606.415,1.217l.983,2.876C217.684,146,218,146.956,218.264,147.923Z" transform="translate(-213.792 -134.253)"/></g><g class="d" transform="translate(17.995 99.923)"><path class="e" d="M218.429,153.449Z" transform="translate(-206.82 -134.819)"/><path class="e" d="M217.224,155h0v.018Z" transform="translate(-206.546 -135.171)"/><path class="e" d="M214.43,149.694h0c-.333-.836-.655-1.677-.872-2.321-.075-.211.108.2.049-.015l-.291-.831c-.041-.224.132.193.09-.031s-.328-1.073-.387-1.29c-.106-.322-.054-.222.046.041s.24.691.338,1.016c-.044-.222.129.428.15.423s.075-.023-.132-.9c-.049-.222.046-.015.07-.023-.088-.33-.186-.663-.307-1a9.242,9.242,0,0,0-.423-.988c-.315-.642-.671-1.241-.962-1.852-.593-1.225-1.06-2.548-1.674-3.781a17.98,17.98,0,0,0-.869-1.581,16.785,16.785,0,0,0-1.088-1.548,23.588,23.588,0,0,0-2.476-2.641c-.214-.2-.482-.451-.753-.7.665.843,1.444,1.878,2.262,3.1A44.426,44.426,0,0,1,210.749,141l.106.222.026.057.021.049.049.116c.07.152.137.307.206.462.137.309.258.611.387.918.144.366.289.735.428,1.107l.093.15a9.994,9.994,0,0,1,.65,1.29c.188.446.359.91.534,1.375.353.923.714,1.844,1.094,2.755C214.383,149.586,214.409,149.65,214.43,149.694Z" transform="translate(-203.752 -129.868)"/><path class="e" d="M204.032,129.88c-.232-.206-.444-.389-.629-.544,1.011,1.112,2.009,2.234,2.987,3.379,1.266,1.483,2.523,3,3.7,4.547a23.637,23.637,0,0,1,1.609,2.4,21.1,21.1,0,0,1,1.23,2.615q.542,1.328,1.1,2.644c-.157-.446-.32-.892-.49-1.331-.258-.665-.534-1.318-.818-1.958-.147-.32-.3-.65-.444-.954-.077-.152-.152-.3-.227-.454l-.057-.114-.031-.064-.031-.057-.119-.227a34.64,34.64,0,0,0-4.145-6.149c-.351-.413-.691-.8-1.032-1.166s-.655-.7-.967-1.008C205.066,130.811,204.5,130.3,204.032,129.88Z" transform="translate(-203.402 -129.335)"/><path class="e" d="M217.23,155.021v.036A.13.13,0,0,0,217.23,155.021Z" transform="translate(-206.547 -135.177)"/></g><g class="d" transform="translate(7.72 111.393)"><path class="e" d="M215,156.036h0l.026.052Z" transform="translate(-195.764 -146.878)"/><path class="e" d="M207.886,151.275c-.15-.173.175.152.039-.031l-.3-.348-.312-.338c-.132-.188.2.126.072-.064a5.528,5.528,0,0,0-.462-.516c-.2-.206-.413-.4-.487-.493-.258-.258-.152-.178.062.015a10.936,10.936,0,0,1,.774.774c-.07-.093,0,0,.106.1a2.6,2.6,0,0,0,.217.232c.026-.023.072-.062-.516-.774-.15-.181.036-.036.052-.052a20.117,20.117,0,0,0-2.953-2.628c-.175-.1-.351-.2-.516-.3a18.057,18.057,0,0,0-1.867-.869,27.267,27.267,0,0,0-3.65-1.189,20.965,20.965,0,0,0-3.4-.562,16.147,16.147,0,0,0-2.909.026c-.214.026-.42.057-.622.083s-.389.064-.573.1-.359.072-.516.113H190.1c.351-.064.7-.111,1.057-.142a18.147,18.147,0,0,1,2.994.026c.5.039,1,.09,1.506.147s1,.119,1.478.211a12.849,12.849,0,0,1,2.8.9,21.688,21.688,0,0,1,2.636,1.421c.851.536,1.695,1.1,2.5,1.7a15.665,15.665,0,0,1,4.153,4.312c.059.093.1.155.121.2h0A13.57,13.57,0,0,0,207.886,151.275Z" transform="translate(-190.102 -144.183)"/></g><g class="d" transform="translate(0.036 113.313)"><path class="e" d="M203.042,148.732h0l.044.015Z" transform="translate(-185.361 -147.137)"/><path class="e" d="M212.964,157.672l.039.054Z" transform="translate(-187.618 -149.17)"/><path class="e" d="M180.18,151.318l-.023.036h0l.036-.052Z" transform="translate(-180.157 -147.722)"/><path class="e" d="M203.585,152.988c-.186-.188.206.168.036-.034a10.269,10.269,0,0,0-.753-.745c-.2-.178.237.139.07-.067a6.624,6.624,0,0,0-.57-.56c-.258-.222-.516-.433-.6-.516-.3-.258-.193-.186.072.018a11.959,11.959,0,0,1,.954.833c-.173-.2.382.374.395.364s.028-.031-.052-.139a6.3,6.3,0,0,0-.627-.707c-.188-.193.031-.036.046-.054a12.313,12.313,0,0,0-1.953-1.548,13.409,13.409,0,0,0-2.277-1.158,18.83,18.83,0,0,0-4.87-1.156c-1.341-.147-2.811-.258-4.294-.294a16.425,16.425,0,0,0-3.812.33,17.442,17.442,0,0,1,2.94-.516,20.822,20.822,0,0,1,4.72.144,32.632,32.632,0,0,1,4.668,1.032l.175.049h0c-.7-.222-1.4-.418-1.922-.575-.175-.046.186.018.015-.046s-.516-.15-.7-.2.193,0,.026-.093a.822.822,0,0,0-.132-.052c-.258-.062-.5-.121-.745-.168-.7-.142-1.382-.258-2.063-.328l-.5-.049-.258-.023-.258-.015-.5-.034-.49-.013c-.65-.016-1.29,0-1.893.044-.3.031-.606.054-.9.09s-.58.072-.859.132a13.984,13.984,0,0,0-2.966.867,10.241,10.241,0,0,0-2.063,1.156l-.374.276c-.116.088-.214.186-.31.258a5.112,5.112,0,0,0-.467.438l-.157.165c-.036.046-.075.1-.119.155l.064-.044c.1-.121.193-.242.3-.359-.113.129-.2.242-.284.346l.258-.186a1.14,1.14,0,0,1,.106-.08l.07-.07c.186-.157.4-.328.531-.423l.013.018s0,.013-.034.031l-.1.072c-.083.059-.188.137-.289.222,0,0-.031.034-.057.057l.085-.052c.15-.119.3-.23.464-.335-.16.111-.294.212-.415.3l.15-.09c.106-.062.214-.137.34-.2l.4-.209a11.512,11.512,0,0,1,2.11-.815,15.054,15.054,0,0,1,2.873-.487,19.343,19.343,0,0,1,3.441.049l.459.046.464.062.232.028.232.036.485.08.258.046c.4.041.81.09,1.212.147a19.164,19.164,0,0,1,6.564,1.983,14.927,14.927,0,0,1,2.786,2.017,28.815,28.815,0,0,1,2.406,2.515l.175.2h0C204.843,154.347,204.129,153.563,203.585,152.988Zm-22-3.794c-.124.083-.242.168-.359.258.142-.111.284-.222.428-.322s.23-.15.343-.222a3.9,3.9,0,0,1,.382-.212v.023C182.156,148.84,181.867,149.01,181.586,149.194Z" transform="translate(-180.173 -146.668)"/></g><g class="d" transform="translate(10.676 121.491)"><path class="e" d="M208.738,165.831l.116.134h0c-.436-.552-.908-1.068-1.256-1.46-.116-.126.144.108.039-.031s-.353-.387-.475-.516.168.085.072-.064-.588-.65-.694-.792c-.173-.2-.1-.144.052,0s.4.41.573.606c-.1-.147.232.258.258.258s.062-.054-.366-.622c-.106-.144.036-.034.054-.052a28.952,28.952,0,0,0-2.244-2.378c-.284-.273-.573-.549-.877-.815l.258.183q.965.689,1.922,1.382c.635.464,1.272.931,1.87,1.424l.077.064c-.147-.165-.294-.33-.444-.493l-.124-.137-.126-.132-.258-.258c-.173-.175-.346-.353-.516-.516-.346-.343-.707-.673-1.078-.99s-.745-.622-1.135-.9a13.916,13.916,0,0,0-1.186-.789,12.805,12.805,0,0,0-2.448-1.145,11.238,11.238,0,0,0-1.23-.33,10.191,10.191,0,0,0-1.161-.173,8.769,8.769,0,0,0-2.04.049,7.873,7.873,0,0,0-1.509.377l-.2.077a6.7,6.7,0,0,1,1.032-.147,10.061,10.061,0,0,1,1.805.077c-.3-.026-.593-.044-.874-.054s-.627-.034-.97-.015a2.726,2.726,0,0,0-.836.157,3.522,3.522,0,0,1,.542-.1,4.953,4.953,0,0,0-.8.2,2.525,2.525,0,0,0-.629.33l.054-.013a2.648,2.648,0,0,1,.258-.147,2.579,2.579,0,0,1,.593-.219v.026a3.1,3.1,0,0,0-.588.214,1.853,1.853,0,0,0-.212.116,8.594,8.594,0,0,1,.913-.15,9.463,9.463,0,0,1,3.3.258c.328.085.668.178,1.011.3a10.977,10.977,0,0,1,1.032.418l.279.134.07.034.036.018h.018l.132.07a9.359,9.359,0,0,1,1.1.5,8.053,8.053,0,0,1,.921.588c.3.217.585.459.874.707l1.756,1.517a28.886,28.886,0,0,1,3.263,3.224Zm-7.676-7.39-.031-.023c-.165-.108-.1-.088.044,0l.175.1Zm1.125.464c-.137-.067-.279-.132-.423-.193-.036-.036-.085-.083-.155-.142a6.06,6.06,0,0,1,.709.377l.206.132C202.414,159.016,202.3,158.959,202.187,158.905Z" transform="translate(-193.928 -157.253)"/><path class="e" d="M213.248,168.529h0l.023.036Z" transform="translate(-198.322 -159.817)"/></g><path class="g" d="M223.276,187.794h-8.914A2.089,2.089,0,0,1,212.3,186l-2.36-16.391h17.235l-1.826,16.327a2.089,2.089,0,0,1-2.071,1.857Z" transform="translate(-186.894 -38.572)"/><path class="h" d="M225.787,183.135l1.284-11.478H210.24l.181,1.243Z" transform="translate(-186.962 -39.037)"/><rect class="g" width="19.484" height="2.649" transform="translate(21.926 130.293)"/><rect class="i" width="19.778" height="21.738" transform="translate(153.378 11.645)"/><path class="g" d="M390.511,16.949a5.1,5.1,0,1,0,5.1,5.1h-5.1Z" transform="translate(-226.796 -3.855)"/><rect class="j" width="13.964" height="1.346" transform="translate(156.733 24.42)"/><rect class="j" width="13.964" height="1.346" transform="translate(156.733 27.113)"/><rect class="j" width="8.911" height="1.346" transform="translate(156.733 29.806)"/><rect class="k" width="19.778" height="21.738" transform="translate(202.961 12.04)"/><rect class="j" width="5.829" height="7.694" transform="translate(206.319 14.33)"/><rect class="j" width="13.964" height="1.346" transform="translate(206.319 23.85)"/><rect class="j" width="13.964" height="1.346" transform="translate(206.319 27.025)"/><rect class="j" width="8.911" height="1.346" transform="translate(206.319 30.198)"/><rect class="j" width="6.982" height="1.346" transform="translate(213.299 14.33)"/><rect class="j" width="6.982" height="1.346" transform="translate(213.299 17.505)"/><rect class="j" width="6.982" height="1.346" transform="translate(213.299 20.678)"/><rect class="i" width="19.778" height="21.738" transform="translate(178.169 11.841)"/><rect class="g" width="18.001" height="1.346" transform="translate(179.387 30.002)"/><rect class="g" width="2.383" height="4.519" transform="translate(180.117 24.614)"/><rect class="g" width="2.383" height="8.3" transform="translate(183.632 20.833)"/><rect class="g" width="2.383" height="13.515" transform="translate(187.148 15.617)"/><rect class="g" width="2.383" height="10.155" transform="translate(190.663 18.978)"/><rect class="g" width="2.383" height="13.515" transform="translate(194.179 15.617)"/><rect class="i" width="80.431" height="42.155" rx="0.654" transform="translate(107.918 50.146)"/><rect class="j" width="4.676" height="2.373" transform="translate(111.945 53.558)"/><rect class="g" width="35.932" height="2.373" transform="translate(147.358 57.36)"/><rect class="g" width="35.932" height="2.373" transform="translate(147.358 64.053)"/><rect class="g" width="35.932" height="2.373" transform="translate(147.358 70.744)"/><rect class="g" width="20.588" height="2.373" transform="translate(147.358 77.437)"/><rect class="l" width="4.676" height="2.373" transform="translate(111.945 60.112)"/><rect class="l" width="4.676" height="2.373" transform="translate(111.945 66.663)"/><rect class="l" width="4.676" height="2.373" transform="translate(111.945 73.217)"/><rect class="l" width="4.676" height="2.373" transform="translate(111.945 79.768)"/><rect class="l" width="4.676" height="2.373" transform="translate(111.945 86.322)"/><path class="g" d="M351.5,70.188V81.193h0l7.769,7.794a10.967,10.967,0,0,0,3.234-7.771v-.034A11.008,11.008,0,0,0,351.5,70.188Z" transform="translate(-219.086 -15.962)"/><path class="c" d="M339.8,73.4a10.967,10.967,0,0,0-3.232,7.771l11,.028V70.188A10.97,10.97,0,0,0,339.8,73.4Z" transform="translate(-215.69 -15.962)"/><path class="g" d="M347.577,85.123h0l-11-.026v.021a11.006,11.006,0,0,0,18.78,7.792Z" transform="translate(-215.692 -19.352)"/><rect class="i" width="57.878" height="34.129" transform="translate(89.637 10.869)"/><rect class="g" width="57.878" height="7.606" transform="translate(89.637 10.869)"/><path class="g" d="M298.765,46.94H351.16c-.085,0,.131-12.442-.028-13.7-1.906,1-3.353,2.92-5.378,3.918a9.2,9.2,0,0,1-5.416.988c-1.7-.286-3.1-1.571-4.844-1.689-2.272-.152-3.812,1.7-5.434,2.971-2.28,1.782-5.158,3.946-8.107,4.385a4.852,4.852,0,0,1-4.6-1.986c-1.524-1.847-2.3-3.523-4.9-3.869a8.1,8.1,0,0,0-5.888,1.483c-1.983,1.548-3.165,4.083-5.442,5.159-.807.379-.65.531-1.547.459-.58-.046-.2-.836-.72-.387C298.507,45,298.765,46.435,298.765,46.94Z" transform="translate(-207.073 -7.56)"/><rect class="i" width="61.115" height="26.12" rx="1.439" transform="translate(45.611 30.783)"/><rect class="g" width="1.114" height="18.865" transform="translate(49.145 34.412)"/><rect class="g" width="1.114" height="18.865" transform="translate(52 34.412)"/><rect class="g" width="1.114" height="18.865" transform="translate(54.855 34.412)"/><rect class="g" width="1.114" height="18.865" transform="translate(57.713 34.412)"/><rect class="g" width="1.114" height="18.865" transform="translate(60.569 34.412)"/><rect class="g" width="1.112" height="18.865" transform="translate(63.424 34.412)"/><rect class="c" width="1.114" height="8.305" transform="translate(49.145 44.972)"/><rect class="c" width="1.114" height="11.754" transform="translate(52 41.523)"/><rect class="c" width="1.114" height="13.508" transform="translate(54.855 39.769)"/><rect class="c" width="1.114" height="11.754" transform="translate(57.713 41.523)"/><rect class="c" width="1.114" height="15.202" transform="translate(60.569 38.072)"/><rect class="c" width="1.112" height="17.075" transform="translate(63.424 36.202)"/><path class="g" d="M278.275,47.77a3.1,3.1,0,1,1-3.1-3.1,3.1,3.1,0,0,1,3.1,3.1Z" transform="translate(-201.026 -10.16)"/><rect class="g" width="24.952" height="0.831" transform="translate(78.897 35.013)"/><rect class="g" width="24.952" height="0.831" transform="translate(78.897 37.433)"/><rect class="g" width="10.454" height="0.831" transform="translate(78.897 39.855)"/><path class="g" d="M278.275,63.207a3.1,3.1,0,1,1-3.1-3.1,3.1,3.1,0,0,1,3.1,3.1Z" transform="translate(-201.026 -13.67)"/><rect class="g" width="24.952" height="0.831" transform="translate(78.897 46.94)"/><rect class="g" width="24.952" height="0.831" transform="translate(78.897 49.362)"/><rect class="m" width="10.454" height="0.831" transform="translate(78.897 51.781)"/><path class="n" d="M384.777,52A10.544,10.544,0,1,1,374.233,41.46,10.544,10.544,0,0,1,384.777,52Z" transform="translate(-221.858 -9.429)"/><path class="o" d="M383.963,52.344a9.391,9.391,0,1,1-9.391-9.391A9.391,9.391,0,0,1,383.963,52.344Z" transform="translate(-222.198 -9.768)"/><path class="p" d="M383.183,52.668a8.29,8.29,0,1,1-8.289-8.29,8.29,8.29,0,0,1,8.289,8.29Z" transform="translate(-222.521 -10.092)"/><g class="d" transform="translate(149.094 37.206)"><path class="q" d="M377.451,58.02h-3.072a1.29,1.29,0,0,1-1.29-1.29V56.1h1.824v.113h2.53a.882.882,0,0,0,.88-.882.573.573,0,0,0-.573-.573h-2.262a2.4,2.4,0,0,1-2.4-2.4v-.328a2.708,2.708,0,0,1,2.706-2.706h3.085a1.29,1.29,0,0,1,1.29,1.29v.745h-1.824v-.2h-2.528a.882.882,0,0,0-.882.882v.328a.575.575,0,0,0,.575.575h2.262a2.4,2.4,0,0,1,2.4,2.4A2.706,2.706,0,0,1,377.451,58.02Z" transform="translate(-373.09 -48.422)"/><rect class="q" width="1.824" height="10.74" transform="translate(2.626)"/></g><path class="r" d="M445.058,191.432l1.973,2.927,3.748,2.146a2.321,2.321,0,0,1,1.171,2.02v.059H442.9l-5.52-1.308.2-7.145Z" transform="translate(-238.617 -43.239)"/><path class="r" d="M422.391,191.432l-1.971,2.927-3.748,2.146a2.321,2.321,0,0,0-1.171,2.02v.059h9.048l5.52-1.308-.2-7.145Z" transform="translate(-233.641 -43.239)"/><path class="s" d="M419.279,196.505l3.748-2.146L425,191.432l4.9-.849v-.451l-7.48,1.29-1.971,2.927L416.7,196.5a2.321,2.321,0,0,0-1.171,2.02v.059h2.6v-.059a2.321,2.321,0,0,1,1.15-2.009Z" transform="translate(-233.647 -43.239)"/><path class="s" d="M448.234,196.505l-3.748-2.146-1.971-2.927-4.9-.849.013-.451,7.48,1.29,1.971,2.927,3.75,2.146a2.321,2.321,0,0,1,1.171,2.02v.059h-2.6v-.059a2.321,2.321,0,0,0-1.163-2.009Z" transform="translate(-238.67 -43.239)"/><path class="a" d="M440.794,95.529H417.545V61.547l9.608-10.085,13.642,2.719Z" transform="translate(-234.106 -11.703)"/><path class="t" d="M417.545,100.645l2.494,39.295,2.817,31.142h7.477l-1.163-30.559,1.163-26.873,3.691,28.444-1.091,28.988h7.614l1.292-28.988.689-41.449Z" transform="translate(-234.106 -22.888)"/><g class="u" transform="translate(183.514 77.751)"><path class="v" d="M417.642,101.786l2.422,38.155,2.817,31.139H425.4a65.585,65.585,0,0,1-.665-8.679c-.054-4.97.454-9.946.1-14.9-.583-8.143-3.484-16.162-2.621-24.278.433-4.067,1.805-7.975,2.489-12.006.6-3.536.627-7.356-.859-10.575H420.19Z" transform="translate(-417.642 -100.638)"/></g><g class="u" transform="translate(200.271 77.757)"><path class="v" d="M446.793,142.093l.689-41.449h-6.17a16.935,16.935,0,0,0-1.981,7.936c0,5.2,2.388,10.082,3.232,15.218,1.321,8.019-1.161,16.371.624,24.3a33.182,33.182,0,0,1,.867,4.08,19.358,19.358,0,0,1-.057,3.188q-.487,6.6-.97,13.2a6.989,6.989,0,0,0,.139,2.523H445.5Z" transform="translate(-439.332 -100.645)"/></g><path class="w" d="M458.4,113.869v1.924l.815.794a1.888,1.888,0,0,1,.57,1.349V120.9l-.129.284a1.318,1.318,0,0,1-1.2.774H455.8a1.7,1.7,0,0,1-1.081-.387l-.281-.227a1.522,1.522,0,0,1-.555-1.174v-1.656l-.712-.609V116.02l.712-.475.949-.593.121-1.094Z" transform="translate(-242.208 -25.893)"/><rect class="r" width="23.301" height="2.063" transform="translate(183.439 77.757)"/><rect class="n" width="6.02" height="2.063" transform="translate(191.259 77.757)"/><path class="w" d="M438.255,51.806l-4.137,3.033-4.137-3.033v-6.93h8.274Z" transform="translate(-236.934 -10.205)"/><path class="x" d="M428.024,44.812l-.018-.028-.072-.041Z" transform="translate(-236.469 -10.175)"/><path class="y" d="M439.5,32.9c-.1-.831-.426-1.628-.482-2.463a3.52,3.52,0,0,0-.137-1.068c-.322-.8-1.4-1.06-1.787-1.829a3.637,3.637,0,0,0-.258-.516,1.173,1.173,0,0,0-.516-.379,2.435,2.435,0,0,0-1.733-.044,2.286,2.286,0,0,1-.653.193c-.544.023-.962-.516-1.5-.606s-1.109.3-1.687.348c-.694.057-1.432-.389-2.063-.083-.583.289-.993.944-1.576,1.29a2.115,2.115,0,0,0-1.032,1.158c-.258.57-.774,1.081-.774,1.718,0,.72.516,1.364.384,2.1-.059.361-.258.681-.335,1.032-.15.774.358,1.22.616,1.867a7.158,7.158,0,0,1,.214,1.628,7.062,7.062,0,0,0,1.223,3.3,10.261,10.261,0,0,0,3.072,1.362,10.683,10.683,0,0,0,2.693.085A4.616,4.616,0,0,0,436.349,41a4.551,4.551,0,0,0,.714-1.117l.8-1.581a8.449,8.449,0,0,0,.557-1.248,9.13,9.13,0,0,0,.258-1.088C438.91,34.882,439.656,34.1,439.5,32.9Z" transform="translate(-235.872 -5.953)"/><path class="w" d="M441.428,38s1.22-.73,1.22-.08a5.231,5.231,0,0,1-.075,1.854,2.19,2.19,0,0,1-1.393,1.483h0l-.774-1.983Z" transform="translate(-239.305 -8.561)"/><path class="z" d="M429.994,49.5a3.1,3.1,0,0,0,1.475.387h.91a4.9,4.9,0,0,0,2.93-.967l.8-.593a5.674,5.674,0,0,0,2.154-3.34v-.113h-8.272Z" transform="translate(-236.937 -10.205)"/><path class="w" d="M426.877,35.513l.214,4.147a7.206,7.206,0,0,0,1.72,4.32h0a3.113,3.113,0,0,0,2.37,1.094h.91a4.9,4.9,0,0,0,2.93-.967l.8-.593a5.674,5.674,0,0,0,2.277-4.127l.279-3.663a5.734,5.734,0,0,0-2.355-5.107,5.976,5.976,0,0,0-3.926-1.192A5.755,5.755,0,0,0,426.877,35.513Z" transform="translate(-236.227 -6.69)"/><path class="y" d="M426.162,33.335c0,1.1-.191,2.185-.137,3.294a2.508,2.508,0,0,0,.637,1.805c.183.17.516.273.66.08a.48.48,0,0,0,.08-.31,6.005,6.005,0,0,0-.3-1.413c-.258-1-.472-2.063.258-2.889a3.968,3.968,0,0,0,.931-1.367,1.807,1.807,0,0,1,.162-.539c.237-.382.8-.359,1.228-.211a2.144,2.144,0,0,0,1.305.235c.276-.088.547-.32.815-.211a.959.959,0,0,1,.294.258,1.45,1.45,0,0,0,1.594.289c.193-.09.366-.222.565-.294a1.482,1.482,0,0,1,1.4.366,2.6,2.6,0,0,1,.9,2.007,1.393,1.393,0,0,0,.064.686c.227.444.936.426,1.192.854a.983.983,0,0,1-.09.944c-.157.294-.542.745-.371,1.1.227.469.616.211.825-.15a2.641,2.641,0,0,0,.2-1.63,3.9,3.9,0,0,1-.046-1.638,6.361,6.361,0,0,0,.5-1.579,3.39,3.39,0,0,0-1.658-2.837,14.882,14.882,0,0,0-3.144-1.37,4.76,4.76,0,0,0-1.9-.464,4.227,4.227,0,0,0-1.725.632l-1.6.869a3.016,3.016,0,0,0-.774.516c-.307.325-.459.774-.8,1.076-.2.173-.446.276-.634.457A1.971,1.971,0,0,0,426.162,33.335Z" transform="translate(-236.032 -6.446)"/><path class="aa" d="M417.545,61.546V95.527h.384v.057l3.786-2.636a7,7,0,0,0,2.559-8.055c-2.471-7.121-3.951-18.947,3.18-32.354l-.049-1.032-.258-.052Z" transform="translate(-234.106 -11.702)"/><path class="t" d="M419.754,51.459l-4.08,2.819-3.817.616a3.25,3.25,0,0,0-1.852.99L399.54,67.131a2.553,2.553,0,0,1-3.1.516l-9.159-4.978L384.965,66.8l10.895,8.463a3.848,3.848,0,0,0,4.274.3l6.5-5.179,1.56,7.64L404.477,98.3l7.7-4.875a7,7,0,0,0,2.917-7.96c-2.143-7.222-3.1-19.107,4.643-32.174Z" transform="translate(-226.697 -11.703)"/><path class="w" d="M381.345,69.525l-1.664-1.272h-6.358l-3.611-.794L368.049,65.8h0a1.243,1.243,0,0,1,1.736-.289l1.011.722,4.643.384a1.439,1.439,0,0,0,.774-.157,4.421,4.421,0,0,1,2.027-.544h3.577l1.122.774Z" transform="translate(-222.85 -14.845)"/><path class="aa" d="M446.894,96.889l.116-6.9h-1.733V54.711l-4.6-.918c-2.177,14.7-3.059,24.9-3.4,31.32a11.109,11.109,0,0,0,7.784,11.2Z" transform="translate(-238.589 -12.233)"/><path class="t" d="M440.266,49.029l3.469,3.722,10.113,3.575-5.561,19.386,6.211,21.15-6.987-1.625a11.117,11.117,0,0,1-8.6-10.575C438.767,77.633,438.912,66.088,440.266,49.029Z" transform="translate(-238.955 -11.15)"/><path class="ab" d="M433.8,56.879l-3.2,3.252-2.017-4.369,1.076-1.916Z" transform="translate(-236.618 -12.245)"/><path class="ac" d="M435.336,56.944,436.87,60.2l2-1.628.3-4.439Z" transform="translate(-238.152 -12.31)"/><path class="y" d="M434.568,57.772l-2.608,2.651h3.859Z" transform="translate(-237.384 -13.138)"/><path class="y" d="M431.608,61.2s-5.228,15.408-4.191,25.127l3.433,3.353,3.214-3.546s-4.385-12.213-.108-24.939Z" transform="translate(-236.32 -13.917)"/><g class="ad" transform="translate(205.293 60.633)"><g class="ae" transform="translate(4.057)"><path class="af" d="M452.128,78.481a3.9,3.9,0,0,0-.944,3.536l.975-3.394Z" transform="translate(-451.083 -78.481)"/></g><g class="ae" transform="translate(0 3.644)"><path class="af" d="M450.835,87.807a23.071,23.071,0,0,1,.665,2.878,4.589,4.589,0,0,0,1.155,2.252l-2.778-9.456.08-.284a16.335,16.335,0,0,1-4.127.642,10.645,10.645,0,0,1,4.147,1.29l-.972.23A5.465,5.465,0,0,1,450.835,87.807Z" transform="translate(-445.832 -83.198)"/></g></g><g class="ad" transform="translate(180.302 62.632)"><g class="ae" transform="translate(0.438)"><path class="af" d="M415.4,82.873a3.539,3.539,0,0,1-1.352-1.805l.748,3.657-.039.212,2.339-.346a1.106,1.106,0,0,0-.534-1.112C416.209,83.229,415.778,83.1,415.4,82.873Z" transform="translate(-414.053 -81.068)"/></g><g class="ae" transform="translate(0 6.092)"><path class="af" d="M414.416,89.374a.469.469,0,0,1-.188-.42L413.485,93a23.5,23.5,0,0,1,1.625-3.841.493.493,0,0,1-.694.214Z" transform="translate(-413.485 -88.953)"/></g><g class="ae" transform="translate(0.779 3.913)"><path class="af" d="M414.573,88.01a.965.965,0,0,1,.32-.186l1.867-.774a8.037,8.037,0,0,0-1.9-.918l-.369,2.022a.406.406,0,0,1,.08-.144Z" transform="translate(-414.493 -86.132)"/></g></g><path class="r" d="M438.923,84.658c0,.24.026.475.046.709l.059.544.023.147,5.195-27.6-1.9-2.651,2.693-1.527-4.777-5.254C438.913,66.088,438.768,77.633,438.923,84.658Z" transform="translate(-238.956 -11.15)"/><path class="r" d="M421.077,57.265s-5.13,9.752,1.805,28.212c-2.143-7.222-3.1-19.107,4.643-32.174V51.459l-4.08,2.819,1.677,1.006Z" transform="translate(-234.494 -11.703)"/><g class="ae" transform="translate(210.98 72.348)"><path class="aa" d="M453.84,93.644l-.647,12.29,4.57,1.065Z" transform="translate(-453.193 -93.644)"/></g><path class="t" d="M456.843,58.473l4.914,22.973L458.8,101.575l-4.769.077,1.083-20.567L452,69.889Z" transform="translate(-241.943 -13.298)"/><g class="u" transform="translate(165.534 52.691)"><path class="af" d="M394.534,69.554c-.054.046-.113.085-.165.137.41.137.82.281,1.225.438Z" transform="translate(-394.369 -68.509)"/><path class="af" d="M402.526,70.938a2.553,2.553,0,0,1-3.1.516l-1.29-.7c.065.052.139.09.2.144.338.291.629.632.959.934a10.909,10.909,0,0,0,2.713,1.664,2.607,2.607,0,0,0-.186-1.132,8.337,8.337,0,0,0,.941,1.715c.031-.774.062-1.524.09-2.288.018.335.039.671.057,1.006a30.443,30.443,0,0,1,2.151-4.6Z" transform="translate(-395.227 -68.201)"/></g><path class="ag" d="M456.883,86.983c.371-.212,1.2-.567.735-.668-.129-.028-1.277.23-1.4.2.227-.224,1.261-.923.939-1.14L454.959,83.9l.438,1.591.132.085-.1.039.348,1.256h0l.129.049c-.046.034-.09.075-.137.108l-.062,1.15.193.034a.974.974,0,0,0-.077.1,1.594,1.594,0,0,0-.137.258l-.157,3.028a.426.426,0,0,0,.549-.258c.258-.6.33-1.22.544-1.805.258-.714.872-.861,1.4-1.326C458.338,87.924,457.273,87.05,456.883,86.983Z" transform="translate(-242.614 -19.079)"/><rect class="w" width="4.681" height="7.846" transform="matrix(0.699, -0.715, 0.715, 0.699, 158.712, 145.131)"/><rect class="w" width="4.681" height="7.846" transform="matrix(0.956, 0.293, -0.293, 0.956, 135.514, 142.441)"/><path class="t" d="M320.908,161.065l-4.294,30.652,1.511.039,8.009-31.653H321Z" transform="translate(-211.153 -36.41)"/><path class="t" d="M361.727,161.065l4.292,30.652-1.511.039L356.5,160.1h5.135Z" transform="translate(-220.224 -36.41)"/><path class="ah" d="M318.795,155.5h36.367a1.228,1.228,0,0,1,1.228,1.228v3.291H317.565v-3.291a1.228,1.228,0,0,1,1.23-1.228Z" transform="translate(-211.369 -35.363)"/><path class="ai" d="M319.648,143.721,348.718,157.1l24.934,22.45,4.663-4.637-21.457-23.938-21.606-15.365Z" transform="translate(-211.843 -30.84)"/><path class="ai" d="M317.391,137.625V143.1a8.581,8.581,0,0,0,8.586,8.584h27.082c-4.865,5.878-7.653,24.836-7.653,24.836l6.1,1.666,10.776-27.577a7.779,7.779,0,0,0-7.268-10.549h-19.4l.139-2.432Z" transform="translate(-211.33 -31.298)"/><path class="t" d="M350.986,192.3l-1.5,3.791v2.992h18.349v-.828a1.6,1.6,0,0,0-1.233-1.56l-2.956-.7-6.19-3.691h-1.1l-.5,1.1h-3.191l-.3-1.1Z" transform="translate(-218.63 -43.731)"/><path class="a" d="M349.49,199v1.6h18.349v-.828a1.591,1.591,0,0,0-.2-.774Z" transform="translate(-218.63 -45.255)"/><path class="t" d="M390.807,191.2l2.146,3.467,2.4,1.79,11.393-14.7-.663-.5a1.609,1.609,0,0,0-1.989.054l-2.321,1.95-7.077,2.752-.655.88.58,1.055-1.909,2.538-1.058-.418Z" transform="translate(-228.025 -41.149)"/><path class="a" d="M395.034,195.5l1.29.954,11.393-14.7-.665-.5a1.576,1.576,0,0,0-.74-.315Z" transform="translate(-228.987 -41.149)"/><g class="d" transform="translate(106.061 109.701)"><path class="aj" d="M355.437,151.359a5.863,5.863,0,0,0-2.623-2.819,15.834,15.834,0,0,0-9.422-1.891c-1.661.137-3.3.454-4.96.637a30.868,30.868,0,0,1-9.432-.41c-1.253-.258-2.77-.931-2.724-2.208l-8.886-2.677v2.1a8.581,8.581,0,0,0,8.586,8.584h27.082c-4.864,5.878-7.653,24.836-7.653,24.836l3.033.828q.077-2.61.157-5.22a16.684,16.684,0,0,1,.348-3.459,19.107,19.107,0,0,1,2.014-4.478,64.131,64.131,0,0,0,3.982-8.929C355.515,154.676,356.015,152.933,355.437,151.359Z" transform="translate(-317.391 -141.991)"/></g><path class="a" d="M328.451,103.626l5.058.954A10.023,10.023,0,0,1,340.649,110l4.127,8.408-4.129,9.327-.42,4.189s-20.079,8.9-25.019,4.864l-.23-21.408,7.58-11.091Z" transform="translate(-210.781 -23.566)"/><g class="ae" transform="translate(104.207 92.198)"><path class="e" d="M315.218,140.368c1.95,1.6,6.273,1.168,10.784.067a4.71,4.71,0,0,0-.931-1.9c-.745-.947-1.725-1.684-2.525-2.579a17.886,17.886,0,0,1-2.386-3.825,5.064,5.064,0,0,1-.74-2.29,2.6,2.6,0,0,1,2.187-2.471c.242-.031.542-.064.632-.291.116-.289-.224-.542-.516-.658-1.844-.74-4.057-1.125-5.133-2.8-.831-1.29-.735-3.033-1.6-4.284Z" transform="translate(-314.991 -119.337)"/></g><path class="w" d="M323.32,95.6s1.6,7.2,1.266,11.4h5.878s-.606-7.152.609-8.328Z" transform="translate(-212.678 -21.741)"/><path class="w" d="M333.231,86.431a10.966,10.966,0,0,0-1.158-3.758l-.219.108a5.341,5.341,0,0,0-5.042-1.163,7.115,7.115,0,0,0-4.127,3.286,8.6,8.6,0,0,0-.642,7.408,8.408,8.408,0,0,0,5.5,4.986,3.344,3.344,0,0,0,2.943-.31,4.091,4.091,0,0,0,.8-.949,8,8,0,0,0,1.39-2.837,18.211,18.211,0,0,0,.1-2.52A40.55,40.55,0,0,0,333.231,86.431Z" transform="translate(-212.262 -18.516)"/><path class="t" d="M329.934,80.064a16.439,16.439,0,0,0-2.174-1.586,8.091,8.091,0,0,0-1.983-.681,3.933,3.933,0,0,0-4.207,1,5.541,5.541,0,0,0-1.695,3.7,3.489,3.489,0,0,1-.093.941,3.422,3.422,0,0,1-.586.941,6.308,6.308,0,0,0-.733,5.811,4.214,4.214,0,0,0,1.6,2.262c.64.366,2.306.647,2.621,1.421a7.968,7.968,0,0,1-.549-3.727,2,2,0,0,1,.258-.939.82.82,0,0,1,.843-.382,1.821,1.821,0,0,1,.586.382,1.984,1.984,0,0,0,1.176.4.823.823,0,0,0,.477-.116.874.874,0,0,0,.309-.578,6.767,6.767,0,0,0-.5-3.317c-.294-.856-.351-1.973.774-1.9,1.032.064,2.063.691,3.162.751a9.138,9.138,0,0,0,6.231-1.958A12.953,12.953,0,0,1,329.934,80.064Z" transform="translate(-211.485 -17.646)"/><path class="ai" d="M330.207,108.7l1.707-5.6,1.008.188,1.068,8.991Z" transform="translate(-214.244 -23.447)"/><path class="w" d="M319.544,103.626l-5.378,1.016A8,8,0,0,0,308.3,109.4L302.3,123.682a3.069,3.069,0,0,0,2.837,4.261l21.485-1.073.99-3.041-2.365.8L311.8,123.494a1.419,1.419,0,0,1-1.032-2.247l9-12.427S321.365,104.379,319.544,103.626Z" transform="translate(-207.842 -23.566)"/><g class="ak" transform="translate(94.191 81.182)"><path class="al" d="M326.61,127.115a4.189,4.189,0,0,0-.418-.279,10.148,10.148,0,0,0-4.932-.975,81.151,81.151,0,0,0-10.077.451,9.444,9.444,0,0,1-3.73-.067,3,3,0,0,1-2.277-2.659,6.451,6.451,0,0,1,1.13-2.693c1.052-2.027,1.032-4.519,2.306-6.422a14.11,14.11,0,0,1,1.364-1.622,15.219,15.219,0,0,0,3.136-4.916,9.312,9.312,0,0,0,.562-2.855,8,8,0,0,0-5.4,4.643l-6.007,14.286a3.069,3.069,0,0,0,2.837,4.261l21.485-1.073Z" transform="translate(-302.026 -105.078)"/></g><path class="a" d="M320.158,103.626l-5.378,1.016a8,8,0,0,0-5.863,4.754l-4.163,8.829c3.245-.338,6.608,3.036,8.919,1.217l6.691-10.608S321.979,104.379,320.158,103.626Z" transform="translate(-208.456 -23.566)"/><path class="ai" d="M324.193,103.172l4.307,5.545L325.46,112.7l-2.757-9.18Z" transform="translate(-212.538 -23.463)"/><g class="ae" transform="translate(96.299 81.182)"><path class="e" d="M307.654,118.993a15.708,15.708,0,0,1,1.589-4.521,14.109,14.109,0,0,1,1.364-1.622,15.22,15.22,0,0,0,3.136-4.916,9.327,9.327,0,0,0,.562-2.855,8,8,0,0,0-5.4,4.643l-4.15,8.834A6.918,6.918,0,0,1,307.654,118.993Z" transform="translate(-304.755 -105.078)"/></g><path class="z" d="M331.675,101.509s-1.362,1.156-3.338-1.192L331.023,104l.467-1.527Z" transform="translate(-213.819 -22.814)"/><path class="t" d="M267.991,137.309l-9.143,51.747h1.586L273.41,136.94Z" transform="translate(-198.016 -31.142)"/><path class="t" d="M455.034,137.309l9.143,51.747h-1.586L449.617,136.94Z" transform="translate(-241.4 -31.142)"/><rect class="am" width="181.677" height="2.458" transform="translate(51.01 109.087)"/><path class="an" d="M246.135,139.623l10.075-5.347H431.451l-3.6,5.347Z" transform="translate(-195.125 -30.536)"/><path class="ao" d="M481.289,142.081l3.639-5.13v-2.675l-3.6,5.347Z" transform="translate(-248.602 -30.536)"/><rect class="t" width="12.491" height="1.638" transform="translate(100.56 107.003)"/><path class="t" d="M346.493,135.82h-25.71l6.061-15.687a.977.977,0,0,1,.91-.616H351.37a.978.978,0,0,1,.911,1.331Z" transform="translate(-212.101 -27.18)"/><path class="ap" d="M342.63,129.591a1.6,1.6,0,1,1-.468-1.134A1.6,1.6,0,0,1,342.63,129.591Z" transform="translate(-216.34 -29.106)"/><rect class="i" width="19.778" height="21.738" transform="translate(61.028)"/><path class="g" d="M270.981,1.876a5.1,5.1,0,1,0,5.109,5.1h-5.109Z" transform="translate(-199.616 -0.427)"/><rect class="g" width="13.964" height="1.346" transform="translate(64.383 12.775)"/><rect class="g" width="13.964" height="1.346" transform="translate(64.383 15.468)"/><rect class="g" width="8.911" height="1.346" transform="translate(64.383 18.158)"/><path class="w" d="M291.276,78.961l8.295,11.679a4.852,4.852,0,0,0,.446.5l6.224,5.223,2.925-1.032a2.391,2.391,0,0,1,1.847.1l3.869,2.739-1.184.271-1.586.562.24.5,1.45-.083a1.21,1.21,0,0,1,1.243.905l.065.237-3.056.4c-1.223.593-2.621-.258-3.794-.42l-2.208-.163-.555-.186-7.531-4.864a8.414,8.414,0,0,1-2.123-1.7l-6.363-6.257Z" transform="translate(-204.982 -17.957)"/><g class="ak" transform="translate(84.592 67.744)"><path class="al" d="M312.085,102.951l.477-.062a4.431,4.431,0,0,0-1.068-.335l-2.992-.622a10.638,10.638,0,0,1-2.982-.926,14.124,14.124,0,0,1-2.708-2.228c-3.33-3.1-7.609-5.215-10.206-8.94-.5-.709-.923-1.47-1.457-2.154L289.6,89.441l6.283,6.164a8.415,8.415,0,0,0,2.107,1.713l7.531,4.872.555.186,2.208.162C309.464,102.688,310.862,103.545,312.085,102.951Z" transform="translate(-289.602 -87.685)"/></g><path class="w" d="M234.651,190.795l.632,9,4.044,1.156-.653-8.094,3.3-4.733-4.1-2.288-1.308,2.332-.482.049Z" transform="translate(-192.513 -42.261)"/><path class="t" d="M234.411,188.914a7.8,7.8,0,0,0-3.025,1.192,1.805,1.805,0,0,0-.774,1.223l-.144.97a6.08,6.08,0,0,1-.609,1.9l-2.566,5.009.655.364,2.969-4.965h0a.774.774,0,0,1,.678.645l.851,5.649a2.667,2.667,0,0,0,1.336,1.932l2.164,1.207a2.468,2.468,0,0,0,.606.258l3.353.882a.415.415,0,0,0,.472-.2h0a.624.624,0,0,0-.181-.813l-1.272-.91-1.2-1.924-1.21-.168a2.1,2.1,0,0,1-1.251-.655h0a2.1,2.1,0,0,1-.56-1.364Z" transform="translate(-190.84 -42.962)"/><path class="t" d="M262.554,137.1l-5.788,14.222-13.443,20.541-5.207-2.953,12.012-24.542,1.31-31.611Z" transform="translate(-193.301 -25.643)"/><path class="w" d="M262.992,197.381l4.937,7.547,4.1-.962-4.516-6.75.57-5.739h-4.692l-.005,2.675-.4.279Z" transform="translate(-198.957 -43.545)"/><path class="aq" d="M254.645,126.056c.064.181.132.359.191.544l2.579,20.041-1.225,11.645,4.346-6.964,5.778-14.219L255.2,112.76Z" transform="translate(-197.06 -25.643)"/><path class="t" d="M252.472,105.9l-1.914,4.844c0,5.643,2.837,8.937,4.609,14.292l4.766,19.04.232,27.936h5.716l3.317-28.343-.42-30.861Z" transform="translate(-196.131 -24.084)"/><g class="d" transform="translate(57.107 82.562)"><path class="r" d="M254.027,107.759a28.176,28.176,0,0,1,10.082,22.068c-.067,2.713-.516,5.44-.142,8.125a51.075,51.075,0,0,0,1.447,5.553c1.161,4.441,1.135,9.092,1.1,13.683a71.345,71.345,0,0,1-.97,13.67c-.093.457-.193.918-.289,1.382h1.408l3.317-28.343-.418-30.868-14.544-6.164Z" transform="translate(-254.027 -106.864)"/></g><path class="ar" d="M300.857,80.784a4.931,4.931,0,0,0,1.635.637,16.365,16.365,0,0,1-2.017-8.184c.023-1.29.374-2.515.5-3.773.155-1.548-.111-3.16-.054-4.715l-.493-1.38a10.205,10.205,0,0,0-4.777,0,4.872,4.872,0,0,0-1.78.516,4.808,4.808,0,0,0-1.462,1.666,15.1,15.1,0,0,0-1.419,2.579c-.916,2.321-.044,4.588-.317,6.946-.276,2.409-1.413,4.4-.874,6.825a12.772,12.772,0,0,0,10.485,9.884,38.15,38.15,0,0,1-2.837-6.464,5.226,5.226,0,0,0,3.825,1.831,11.05,11.05,0,0,1-2.283-8.419A5.014,5.014,0,0,0,300.857,80.784Z" transform="translate(-205.022 -14.345)"/><path class="t" d="M305.788,95.775l-5.8-4.9a4.854,4.854,0,0,1-.459-.516l-8.715-11.831L288.961,87.2l6.567,6.448a8.725,8.725,0,0,0,2.187,1.759l7.769,5.024Z" transform="translate(-204.864 -17.858)"/><g class="d" transform="translate(84.28 67.744)"><path class="r" d="M305.537,102.5l.09-1.4c-.064-.031-.132-.062-.2-.1a14.127,14.127,0,0,1-2.708-2.228c-3.33-3.1-7.609-5.215-10.206-8.94-.5-.709-.923-1.47-1.457-2.154l-1.86,1.767,6.381,6.265a8.725,8.725,0,0,0,2.187,1.759Z" transform="translate(-289.198 -87.685)"/></g><path class="w" d="M297.463,69.692s-4.444,2.177-5.079,4.042l-1.968-7.047,6.213-4.258Z" transform="translate(-205.195 -14.197)"/><path class="as" d="M277.742,65.422l-.036.018c-6.683,3.92-11.491,9.285-15.935,15.633l-11.7,15.285c-1.4,10.7,10.624,15.512,19.587,12.437l3.611-12.079a7.333,7.333,0,0,1,3.162-4.127l1.991-2.368c1.548-.957,3.294-1.143,4.217-2.579,2.081-3.27.132-6.987.859-11.607l-.317-1.95-1.968-10.155Z" transform="translate(-195.995 -14.539)"/><path class="t" d="M277.5,65.419h-.722c-6.685,3.918-11.759,9.252-16.2,15.6L248.968,97.1c-1.4,10.7,17.887,22.752,26.847,19.677l-1.547-17.691c.516-1.718.4-5.563,1.922-6.507,0,0,5.674-9.394,5.048-13.262l1.7-5.244-2.3-10.154Z" transform="translate(-195.753 -14.536)"/><path class="t" d="M277.5,65.419h-.722c-6.685,3.918-11.759,9.252-16.2,15.6L248.968,97.1c-1.4,10.7,17.887,22.752,26.847,19.677l-1.547-17.691c.516-1.718.4-5.563,1.922-6.507,0,0,5.674-9.394,5.048-13.262l1.7-5.244-2.3-10.154Z" transform="translate(-195.753 -14.536)"/><path class="t" d="M277.5,65.419h-.722c-6.685,3.918-11.759,9.252-16.2,15.6L248.968,97.1c-1.4,10.7,17.887,22.752,26.847,19.677l-1.547-17.691c.516-1.718.4-5.563,1.922-6.507,0,0,5.674-9.394,5.048-13.262l1.7-5.244-2.3-10.154Z" transform="translate(-195.753 -14.536)"/><path class="w" d="M297.066,59.572c1.805-1.447,6.363-2.28,8.052-.129.962,1.228.642,2.987-.083,4.661a5.013,5.013,0,0,0-.31,2.909c.046.193-1.38.085-1.48.242a9.725,9.725,0,0,1-.588.815,4.685,4.685,0,0,1-2.169,1.878,3.407,3.407,0,0,1-3.433-1.153,8.228,8.228,0,0,1-1.62-3.436,7.945,7.945,0,0,1-.3-1.548,5.128,5.128,0,0,1,1.934-4.24Z" transform="translate(-206.267 -13.221)"/><path class="at" d="M296.938,61.193c-.815.562-1.578,1.256-2.424,1.769a7.361,7.361,0,0,1-5.863.745,9.224,9.224,0,0,0-3.3-.828,32.036,32.036,0,0,1,.895-5.06c.6-2.321,2.218-5.228,4.614-6.09a7.692,7.692,0,0,1,3.441-.132c3.936.454,7.351,1.6,10.082,4.581a2.744,2.744,0,0,1,.56,3.237,3.113,3.113,0,0,1-2.822,1.032,13.913,13.913,0,0,0-3.131-.173A5.174,5.174,0,0,0,296.938,61.193Z" transform="translate(-204.044 -11.705)"/><path class="z" d="M297.42,71.889s-1.6-1.217-1.511-2.138l-1.29,4.021A19.04,19.04,0,0,1,297.42,71.889Z" transform="translate(-206.151 -15.862)"/><path class="t" d="M262.321,195.3a7.814,7.814,0,0,0-2.063,2.512,1.805,1.805,0,0,0-.072,1.442l.348.918a6.163,6.163,0,0,1,.392,1.953l.2,5.625h.743l.17-5.783h0a.774.774,0,0,1,.908.232l3.495,4.516a2.67,2.67,0,0,0,2.11,1.032h2.476a2.647,2.647,0,0,0,.653-.083l3.353-.856a.426.426,0,0,0,.315-.408h0a.627.627,0,0,0-.557-.622l-1.548-.175-1.973-1.088-1.148.446a2.11,2.11,0,0,1-1.413.039h0a2.1,2.1,0,0,1-1.153-.921Z" transform="translate(-198.294 -44.414)"/><path class="r" d="M291.115,67.588s.054.315-1.22-.258l.4,9.4,2.86-2.167Z" transform="translate(-205.077 -15.312)"/><path class="aq" d="M265.314,103.87l.013.433,6.092,2.731-3.271,6.874-2.494.428.01.34,3.075-.529,3.425-7.206Z" transform="translate(-199.487 -23.621)"/><g class="d" transform="translate(67.28 62.738)"><path class="r" d="M276.412,81.2c-2.118,3.869-2.063,8.576-1.362,12.938.219,1.372.413,3.01-.622,3.936-.516.469-1.331.712-1.548,1.382a1.658,1.658,0,0,0,.8,1.7,4.436,4.436,0,0,1,1.437,1.362c.49,1.032-.214,2.179-.457,3.286a29.923,29.923,0,0,0-.059,3.73,11.3,11.3,0,0,1-1.844,4.6,5.706,5.706,0,0,1-2.285,2.528,13.88,13.88,0,0,0-2.463.851,2.27,2.27,0,0,0-.818,1.153c4.617,2.221,9.414,3.188,12.767,2.038l-1.548-17.691c.516-1.718.4-5.563,1.922-6.507a36.188,36.188,0,0,1,2.167-7.333C279.768,86.242,277.954,84.885,276.412,81.2Z" transform="translate(-267.194 -81.205)"/></g><path class="w" d="M291.792,128.073l2.8,6.577-1.893.013-1.934-3.652Z" transform="translate(-205.274 -29.126)"/><path class="w" d="M278.611,80.221V98.106a2.9,2.9,0,0,0,.054.56l5.994,16.616a3.655,3.655,0,0,1-.237,2.161l-1.72,3.931-.384,1.094a.8.8,0,0,0,.815,1.057l4.643-.371a1.135,1.135,0,0,0,1.032-.918l.849-4.488-6.19-19.84,3.495-17.059a4.2,4.2,0,0,0-4.341-4.826h0A4.194,4.194,0,0,0,278.611,80.221Z" transform="translate(-202.511 -17.287)"/><g class="ak" transform="translate(76.101 59.526)"><path class="al" d="M285.382,111.61q-2.6-6.342-4.689-12.876a5.218,5.218,0,0,1-.31-1.406,9.731,9.731,0,0,1,.4-2.159c.4-1.937-.108-3.931-.258-5.906a69.936,69.936,0,0,1,.294-7.415,15.684,15.684,0,0,0-.472-4.8,4.189,4.189,0,0,0-1.733,3.407V98.34a2.9,2.9,0,0,0,.054.56l5.994,16.616a3.654,3.654,0,0,1-.237,2.161l-1.72,3.931-.384,1.094a.8.8,0,0,0,.258.89l.093-.039a2.172,2.172,0,0,0,.722-.658c1.767-2.205,3.374-4.841,3.1-7.653A13.09,13.09,0,0,0,285.382,111.61Z" transform="translate(-278.611 -77.048)"/></g><path class="t" d="M288.709,114.874l-5.073-17.327,3.428-17.17a4.677,4.677,0,0,0-4.6-5.3h0a4.325,4.325,0,0,0-4.127,4.32l-.181,18.4a4.853,4.853,0,0,0,0,.725l5.857,17Z" transform="translate(-202.405 -17.074)"/></g></g></g></svg>