<svg xmlns="http://www.w3.org/2000/svg" width="311.528" height="266" viewBox="0 0 311.528 266"><defs><style>.a{fill:#0b58e0;}.b{fill:#57fcc2;}.c{fill:#ffcc57;}.d{fill:#babae2;}.e{fill:#ddaa35;}.f{fill:#8686b7;}.g{fill:#e9e9ff;}.h{fill:#cccaf4;}.i{fill:#010165;}.j{fill:#e5a7bc;}.k{fill:none;}.l{fill:#f50;}.m{fill:#ff7f00;}.n{fill:#ffe5e3;}.o{fill:#fff;}.p{fill:#ffbbd2;}.q{fill:#050082;}.r{fill:#080973;}.s{fill:#3fd49f;}.t{fill:#0600a0;}.u{fill:#f9b;}</style></defs><path class="a" d="M96.3,197.128C-37.2,160.565-4.655,16.238,33.4,2.4s39.933,35.835,101.836,52.79S216.927-4.982,252.9,25.808C288.878,56.546,229.786,233.691,96.3,197.128Z" transform="translate(46.028 0)"/><g transform="translate(0 159.414)"><path class="b" d="M11.259,21.417c-4.648-6.509-3.6-5.259-3.6-5.259l1.567-.1s17.547,20.775,27.47,40.77A330.768,330.768,0,0,1,52.2,93.011l-1.567.729s-8.3-30.3-26.9-55.3c-3.551-4.79-7.1-9.581-10.654-14.423-.94-1.25-1.776-2.6-2.716-3.8A17.706,17.706,0,0,0,8.7,18.449c-.366-.364-.783-.677-1.149-1.041a12.189,12.189,0,0,1-1.306-1.562A42.338,42.338,0,0,1,.918,6.213,9.9,9.9,0,0,1,.03,1.683,2.057,2.057,0,0,1,.814.173a1.359,1.359,0,0,1,1.1-.1,4.049,4.049,0,0,1,.836.364,5.531,5.531,0,0,1,.888,1.041,45.277,45.277,0,0,1,3.551,6.4c.47,1.146.836,2.447,1.2,3.645.94,3.124,1.88,6.3,2.82,9.424" transform="translate(3.368 0)"/><path class="b" d="M.049,6.047A10.22,10.22,0,0,1,.214,4.266a10.962,10.962,0,0,1,1.043-2.62C1.587,1.017,1.971.284,2.685.074a1.873,1.873,0,0,1,2.2,1.31,5.112,5.112,0,0,1-.055,2.725c-.22,1.048-.384,2.043-.6,3.039-.165.786-.329,1.572-.549,2.358A23.71,23.71,0,0,1,1.916,13.33C1.7,13.7,1.257,15.06.6,14.431c-.439-.367-.384-2.148-.439-2.672A39.821,39.821,0,0,1,.049,6.047Z" transform="translate(16.278 8.42)"/><path class="b" d="M0,14.433A37.369,37.369,0,0,1,1.4,5.345c.1-.465.25-.929.35-1.394a7.7,7.7,0,0,1,1.3-3.1A2.211,2.211,0,0,1,6,.388a3,3,0,0,1,.6,2.995A17.249,17.249,0,0,1,5.452,6.43c-1.4,2.995-2.9,5.886-4.5,8.726" transform="translate(21.33 14.033)"/><path class="b" d="M.446,9.109c.215-.628.377-1.2.592-1.832A25.973,25.973,0,0,1,2.6,3.455,7.571,7.571,0,0,1,5.4.471,3.081,3.081,0,0,1,7.063,0,.939.939,0,0,1,7.44.052a.856.856,0,0,1,.377.576c.269,1.728-.807,3.3-1.775,4.712A12.229,12.229,0,0,1,4.589,7.172,32.058,32.058,0,0,1,2.06,9.162a4.782,4.782,0,0,0-1.022,1.047c-.161.209-.43.89-.646.995C-.468,11.465.339,9.423.446,9.109Z" transform="translate(25.259 21.891)"/><path class="b" d="M0,8.792A28.573,28.573,0,0,1,3.323,2.838c.2-.322.352-.59.554-.858A5.068,5.068,0,0,1,5.588.21,1.564,1.564,0,0,1,7.7.693,2.437,2.437,0,0,1,7.35,2.946,10.612,10.612,0,0,1,5.739,4.769,65.622,65.622,0,0,1,.4,9.542" transform="translate(39.854 48.273)"/><path class="b" d="M.824,4.267c.313-.349.575-.7.888-1A12.859,12.859,0,0,1,3.75,1.226,5.9,5.9,0,0,1,6.361.03a2.475,2.475,0,0,1,1.2.1c.1.05.157.05.209.15a.477.477,0,0,1,.052.449A4.74,4.74,0,0,1,5.369,3.27a13.753,13.753,0,0,1-1.463.847c-.679.3-1.41.4-2.142.648a5.256,5.256,0,0,0-.94.4c-.157.1-.522.449-.679.449C-.377,5.563.667,4.417.824,4.267Z" transform="translate(40.976 55.57)"/><path class="b" d="M0,12.733c.206-.676.36-1.3.565-1.976.154-.572.36-1.144.565-1.716.308-.624.719-1.2,1.028-1.82A39.557,39.557,0,0,1,4.213,3.374a12.292,12.292,0,0,1,3.8-3.12C8.376.046,8.787-.11,9.095.1a.932.932,0,0,1,.257.364A3.109,3.109,0,0,1,9.2,2.906a15.917,15.917,0,0,1-5.19,6.083,15.347,15.347,0,0,0-1.387,1.2A17.486,17.486,0,0,0,.154,14.033" transform="translate(29.75 26.943)"/><path class="b" d="M.727,11.788A8.861,8.861,0,0,1,3.116,8.472a41.934,41.934,0,0,1,4.1-2.631A6.191,6.191,0,0,0,10.074,2a2.117,2.117,0,0,0-.623-2C8.308,1,6.75,1.368,5.556,2.368A11.524,11.524,0,0,0,3.843,4.21,18.67,18.67,0,0,0,0,11.156" transform="translate(33.118 34.24)"/><path class="b" d="M0,8.792c.778-1.019,1.608-1.984,2.385-3a30.308,30.308,0,0,0,2.7-3.7C5.6,1.233,6.119.268,7.053.054a1.081,1.081,0,0,1,.985.161A1.187,1.187,0,0,1,8.4,1.233a5.853,5.853,0,0,1-1.763,4.4A17.322,17.322,0,0,1,2.748,8.417c-.674.375-1.348.8-2.022,1.126" transform="translate(35.924 40.976)"/><path class="b" d="M10.375,0A.963.963,0,0,0,9.63.321,5.033,5.033,0,0,0,9.1.857a2.247,2.247,0,0,1-1.011.321c-.692.107-1.383.268-2.128.375A11.15,11.15,0,0,0,2.077,2.679,3.8,3.8,0,0,0,0,5.893C0,6,0,6.054.055,6.108c.106.107.213.054.372.054C.8,6.108,1.066,6,1.438,5.947a26.126,26.126,0,0,0,9.788-4.607" transform="translate(25.821 50.519)"/><path class="b" d="M7.744,0a.772.772,0,0,0-.572.212,2.428,2.428,0,0,0-.364.372A2.93,2.93,0,0,1,6.082.8a14.808,14.808,0,0,1-1.611.212,12.323,12.323,0,0,0-2.91.69A2.287,2.287,0,0,0,0,3.717a.2.2,0,0,0,.052.159.383.383,0,0,0,.26.053c.26-.053.468-.106.727-.159A20.474,20.474,0,0,0,8.42.9" transform="translate(33.679 60.622)"/><path class="b" d="M14.033,1.115c-.261-.053-.417.159-.626.319a7.672,7.672,0,0,1-2.66,1.805c-.469.212-.991.372-1.46.584a19.233,19.233,0,0,0-2.451,1.54A27.792,27.792,0,0,1,4.073,6.85c-.678.372-1.3.637-1.982,1.009C1.674,7.752,1.2,7.646.735,7.54a.987.987,0,0,1-.521-.265A1.324,1.324,0,0,1,0,6.8a2.911,2.911,0,0,1,.73-1.912A11.027,11.027,0,0,1,4.646,1.646,18.065,18.065,0,0,1,9.861.265,21.426,21.426,0,0,1,13.042,0" transform="translate(19.085 44.344)"/><path class="b" d="M10.665.961a.455.455,0,0,0-.466.253A6.427,6.427,0,0,1,8.181,2.478c-.362.152-.776.253-1.087.4-.673.3-1.242.708-1.863,1.062-.673.354-1.4.708-2.122,1.011-.517.253-1.035.4-1.552.657C1.2,5.512.885,5.461.523,5.36.368,5.31.213,5.31.161,5.209a.454.454,0,0,1-.155-.354A2.124,2.124,0,0,1,.575,3.489,8.127,8.127,0,0,1,3.628,1.214,15.212,15.212,0,0,1,7.664.2,20.582,20.582,0,0,1,10.1,0" transform="translate(29.188 56.132)"/><path class="b" d="M15.156.949a2.039,2.039,0,0,0-1.1.316C11.24,2.69,8.787,4.8,6.072,6.328A18.9,18.9,0,0,1,.643,8.385a.486.486,0,0,1-.47-.053.39.39,0,0,1-.1-.316,5.065,5.065,0,0,1,.783-3.9,7.758,7.758,0,0,1,2.715-1.74A33.659,33.659,0,0,1,7.429,1a41.514,41.514,0,0,1,6.734-1" transform="translate(13.472 37.608)"/><path class="b" d="M15.717,1.473c-1.474,1.21-3.474,1.631-5.212,2.473-.579.316-1.158.631-1.737,1C7.873,5.473,7.031,6,6.188,6.525A16.1,16.1,0,0,1,3.03,8.1,7.038,7.038,0,0,1,.924,8.42a.855.855,0,0,1-.737-.263A2,2,0,0,1,.029,7.63,4.641,4.641,0,0,1,.187,5.736,3.55,3.55,0,0,1,1.661,3.947,16.356,16.356,0,0,1,3.82,2.894,42.418,42.418,0,0,1,8.979,1.158c.421-.105.895-.21,1.263-.263C11.769.579,13.348.316,14.822,0" transform="translate(7.858 30.311)"/><path class="b" d="M14.594,1.507a14.921,14.921,0,0,1-3.223,2.329c-.832.433-1.715.812-2.5,1.137-2.547,1.083-5.25,2.058-8,1.679a1.306,1.306,0,0,1-.624-.271A1.65,1.65,0,0,1,.04,5.948,3.8,3.8,0,0,1,1.392,2.59,9.36,9.36,0,0,1,4.666.966,26.092,26.092,0,0,1,13.347.045" transform="translate(5.613 25.259)"/><path class="b" d="M13.2,4.009a106.92,106.92,0,0,1-11.574.471A1.328,1.328,0,0,1,1,4.376c-.367-.157-.471-.524-.576-.89A13.116,13.116,0,0,1,.052,2.124,1.769,1.769,0,0,1,.1,1.077,1.976,1.976,0,0,1,1.519.186,9.428,9.428,0,0,1,4.242.029a33.848,33.848,0,0,1,6.075.786c1,.262,1.99.471,2.985.838.628.209,1.728.367,1.833,1.2C15.345,3.852,13.878,3.957,13.2,4.009Z" transform="translate(0 18.523)"/></g><g transform="translate(39.623 194.826)"><g transform="translate(0 0)"><path class="c" d="M1.441,29.6C.034,11.433-.331,2.247.295,1.777c.886-.626,33.827-2.3,34.713-1.618.573.47.938,9.76.938,27.819Z" transform="translate(0)"/></g></g><g transform="translate(144.82 178.499)"><path class="b" d="M35.707,18.55c4.061-5.67,3.112-4.578,3.112-4.578l-1.371-.1S22.152,31.92,13.5,49.294A286.959,286.959,0,0,0,0,80.767l1.371.624S8.6,55.069,24.789,33.324C27.9,29.163,30.96,25,34.072,20.787c.791-1.092,1.53-2.289,2.373-3.277.475-.572.949-1.04,1.424-1.561.316-.312.686-.572,1-.884a14.336,14.336,0,0,0,1.16-1.353,36.217,36.217,0,0,0,4.641-8.375,7.285,7.285,0,0,0,.738-3.9,1.691,1.691,0,0,0-.686-1.3,1.508,1.508,0,0,0-.949-.1,3.14,3.14,0,0,0-.738.312,3.246,3.246,0,0,0-.738.936,41.514,41.514,0,0,0-3.112,5.566,28.062,28.062,0,0,0-1.055,3.173c-.791,2.757-1.635,5.462-2.479,8.167" transform="translate(0 0)"/><path class="b" d="M3.872,5.126a14.841,14.841,0,0,0-.1-1.484,13.519,13.519,0,0,0-.8-2.252C2.725.827,2.426.213,1.878.059,1.18-.2.383.417.133,1.185a4.512,4.512,0,0,0,.05,2.3c.15.87.3,1.74.5,2.559a14.361,14.361,0,0,0,.449,2,20.013,20.013,0,0,0,1.346,3.224c.15.307.5,1.433,1.047.972.349-.307.3-1.842.349-2.3C3.971,8.35,3.922,6.712,3.872,5.126Z" transform="translate(30.311 7.297)"/><path class="b" d="M6.172,12.836a31.993,31.993,0,0,0-1.285-8.1c-.107-.424-.214-.794-.321-1.218A7.067,7.067,0,0,0,3.388.764,2.1,2.1,0,0,0,.658.341,2.575,2.575,0,0,0,.123,2.988a11.859,11.859,0,0,0,1.071,2.7q1.927,3.971,4.175,7.783" transform="translate(23.575 11.788)"/><path class="b" d="M6.382,7.7c-.16-.561-.32-1.02-.534-1.58A17.11,17.11,0,0,0,4.514,2.906a6.15,6.15,0,0,0-2.4-2.5A2.775,2.775,0,0,0,.672,0a.705.705,0,0,0-.32.051.861.861,0,0,0-.32.51c-.213,1.427.694,2.8,1.494,4.027a9.117,9.117,0,0,0,1.227,1.58c.64.612,1.441,1.122,2.134,1.682a4.431,4.431,0,0,1,.854.867c.107.153.374.765.534.816C7.182,9.686,6.488,7.953,6.382,7.7Z" transform="translate(19.646 19.085)"/><path class="b" d="M7.3,7.2a20.438,20.438,0,0,0-3.088-4.89,3.629,3.629,0,0,0-.542-.713A4.1,4.1,0,0,0,2.1.167,1.551,1.551,0,0,0,.145.574,1.776,1.776,0,0,0,.47,2.408,9.718,9.718,0,0,0,1.933,3.885,61.38,61.38,0,0,0,6.918,7.858" transform="translate(6.736 42.099)"/><path class="b" d="M6.05,3.873a11.288,11.288,0,0,1-.732-.922A11.921,11.921,0,0,0,3.539,1.107,4.374,4.374,0,0,0,1.29.031a1.844,1.844,0,0,0-1.046.1.4.4,0,0,0-.157.1.394.394,0,0,0-.052.41A4.289,4.289,0,0,0,2.127,2.951a10.183,10.183,0,0,0,1.255.769,19.013,19.013,0,0,0,1.831.564A3.641,3.641,0,0,1,6,4.642a2,2,0,0,0,.575.41C7.1,5,6.207,4.027,6.05,3.873Z" transform="translate(5.613 48.273)"/><path class="b" d="M8.42,11.145c-.157-.576-.314-1.152-.523-1.727a6.975,6.975,0,0,0-.523-1.466c-.261-.576-.627-1.047-.941-1.623A25.892,25.892,0,0,0,4.6,2.98,11.221,11.221,0,0,0,1.31.206C1,.049.63-.108.369.1A.667.667,0,0,0,.16.415a3.045,3.045,0,0,0,.1,2.146A13.546,13.546,0,0,0,4.813,7.9a11.493,11.493,0,0,1,1.2,1.047,14.565,14.565,0,0,1,2.2,3.4" transform="translate(14.033 23.575)"/><path class="b" d="M8.334,10.1a7.963,7.963,0,0,0-2.1-2.85C5.1,6.321,3.752,5.8,2.566,4.974A5.172,5.172,0,0,1,.032,1.71,1.785,1.785,0,0,1,.571,0C1.6.829,3,1.192,4.075,2.021A8.786,8.786,0,0,1,5.585,3.627a15.151,15.151,0,0,1,3.4,5.959" transform="translate(10.665 29.75)"/><path class="b" d="M7.3,7.3c-.681-.816-1.415-1.632-2.044-2.5A26.677,26.677,0,0,1,2.894,1.737C2.422,1.022,1.95.257,1.164.053a.965.965,0,0,0-.839.1A.96.96,0,0,0,.011.971,4.582,4.582,0,0,0,1.583,4.593a14.13,14.13,0,0,0,3.407,2.3c.577.306,1.153.663,1.782.969" transform="translate(10.104 35.924)"/><path class="b" d="M.681,0A.89.89,0,0,1,1.31.249,3.913,3.913,0,0,1,1.782.7a2.328,2.328,0,0,0,.839.249c.577.1,1.153.2,1.835.3a8.63,8.63,0,0,1,3.3.948A3.1,3.1,0,0,1,9.54,4.84c0,.1,0,.1-.052.15-.1.1-.157.05-.315.05-.315-.05-.524-.1-.839-.15A22.29,22.29,0,0,1,0,1.148" transform="translate(16.84 43.783)"/><path class="b" d="M.573,0a.976.976,0,0,1,.521.163l.313.326a2.126,2.126,0,0,0,.625.163A12.4,12.4,0,0,0,3.439.815a8.937,8.937,0,0,1,2.5.6A2.064,2.064,0,0,1,7.294,3.2c0,.054,0,.109-.052.109-.052.054-.1.054-.208.054a2.518,2.518,0,0,0-.625-.109A17.578,17.578,0,0,1,0,.706" transform="translate(11.788 52.202)"/><path class="b" d="M0,1.044c.214-.052.374.1.534.261A5.852,5.852,0,0,0,2.885,2.82a13.222,13.222,0,0,1,1.282.522A17.9,17.9,0,0,1,6.305,4.647,21.652,21.652,0,0,0,8.763,5.9c.588.313,1.176.574,1.763.835.374-.1.748-.157,1.176-.261a1.92,1.92,0,0,0,.481-.209c.107-.1.107-.261.16-.418A2.527,2.527,0,0,0,11.7,4.177,8.918,8.918,0,0,0,8.229,1.41a15.7,15.7,0,0,0-4.6-1.2A25.828,25.828,0,0,0,.8,0" transform="translate(19.646 38.17)"/><path class="b" d="M0,.7C.161.645.321.806.429.914A6.63,6.63,0,0,0,2.25,2.1a5.146,5.146,0,0,1,.964.376A10.613,10.613,0,0,1,4.875,3.493c.589.322,1.232.645,1.875.967.482.215.911.376,1.393.591.321-.107.589-.107.964-.215.107-.054.268-.054.321-.107.107-.107.107-.161.107-.322A1.719,1.719,0,0,0,9,3.171a7.6,7.6,0,0,0-2.732-2.1A11.767,11.767,0,0,0,2.679.161,15.1,15.1,0,0,0,.482,0" transform="translate(13.472 48.835)"/><path class="b" d="M0,.842a1.467,1.467,0,0,1,.926.263C3.344,2.316,5.4,4.158,7.718,5.473a16.607,16.607,0,0,0,4.631,1.789.4.4,0,0,0,.412-.053.293.293,0,0,0,.1-.263,4.624,4.624,0,0,0-.669-3.421A5.677,5.677,0,0,0,9.878,2.052C8.8,1.631,7.666,1.158,6.586.842A29.867,29.867,0,0,0,.823,0" transform="translate(23.575 32.556)"/><path class="b" d="M0,1.365c1.255,1.05,2.981,1.417,4.445,2.1.523.262.994.577,1.464.84.732.472,1.464.945,2.249,1.365a12,12,0,0,0,2.719,1.365,6.7,6.7,0,0,0,1.83.262.762.762,0,0,0,.628-.21.708.708,0,0,0,.1-.472,4.562,4.562,0,0,0-.1-1.68A3.142,3.142,0,0,0,12.081,3.36a11.807,11.807,0,0,0-1.83-.892A25.408,25.408,0,0,0,5.857,1a8.091,8.091,0,0,0-1.1-.21C3.452.525,2.092.262.784,0" transform="translate(28.066 26.382)"/><path class="b" d="M0,1.238A11.522,11.522,0,0,0,2.874,3.158c.745.363,1.49.675,2.236.986,2.289.882,4.684,1.713,7.08,1.4a1.617,1.617,0,0,0,.532-.208c.106-.1.106-.26.16-.363a3.2,3.2,0,0,0-1.171-2.8A7.928,7.928,0,0,0,8.783.822,23.947,23.947,0,0,0,1.118.044" transform="translate(30.872 21.891)"/><path class="b" d="M1.709,3.5a88.646,88.646,0,0,0,9.807.415.927.927,0,0,0,.516-.1c.31-.1.413-.467.516-.778.1-.363.206-.778.31-1.192a1.451,1.451,0,0,0-.052-.933A1.592,1.592,0,0,0,11.62.135,8.64,8.64,0,0,0,9.3.031,28.721,28.721,0,0,0,4.135.7a23.174,23.174,0,0,0-2.529.726c-.516.156-1.445.311-1.6,1.037C-.1,3.4,1.142,3.453,1.709,3.5Z" transform="translate(35.363 15.717)"/></g><g transform="translate(139.207 226.772)"><path class="d" d="M.272.126C.01,4.815,2.89,8.662,5.719,11.717,7.185,13.3,8.7,14.826,10.013,16.512A18.021,18.021,0,0,1,13.051,22.1a20.439,20.439,0,0,1,.943,7.534.106.106,0,1,1-.209,0,18.89,18.89,0,0,0-.733-6.849,19.027,19.027,0,0,0-3.142-6.059C7.29,13.351,3.938,10.716,1.791,6.87A12.812,12.812,0,0,1,.01.073C.062-.032.272-.032.272.126Z" transform="translate(3.929 3.368)"/><path class="d" d="M4.8,5.889a6.147,6.147,0,0,0,1.94-1.741.892.892,0,0,1-.808.051,6.123,6.123,0,0,1-.916-.256A5.04,5.04,0,0,0,6.089,1.229C5.443,1.741,4.8,2.253,4.1,2.714A11.493,11.493,0,0,1,4.257,0,5.941,5.941,0,0,0,2.479,2.714c-.269-.358-.593-.615-.862-.922A1.738,1.738,0,0,1,1.078.666a5.106,5.106,0,0,0,.7,3.073,1.14,1.14,0,0,1-.916,0A2.775,2.775,0,0,1,0,3.278c.162.1.269.41.377.563A5.385,5.385,0,0,0,.808,4.4a5.66,5.66,0,0,0,1.024.922,5.579,5.579,0,0,0,1.724.717A1.117,1.117,0,0,0,4.8,5.889Z" transform="translate(0)"/></g><g transform="translate(30.077 221.832)"><g transform="translate(0 0)"><path class="e" d="M.144,2.871c.68-.628,50.015-3.245,50.9-2.826.889.471,3.244,33.916,2.145,34.858-1.151.89-49.544,3.873-50.643,3.245C1.347,37.415-.536,3.5.144,2.871Z" transform="translate(0)"/></g></g><g transform="translate(12.419 231.872)"><g transform="translate(0 0)"><path class="c" d="M1.441,29.037C.034,11.217-.331,2.2.295,1.744,1.181,1.129,34.122-.509,35.008.156c.573.461.938,9.576.938,27.294Z" transform="translate(0)"/></g></g><g transform="translate(20.207 72.971)"><path class="f" d="M59.557,184.673h65.472c6.6,0,14.613-9.8,12.793-16.419L89.926,16.106C88.054,9.486,81.19,4.066,74.533,4.066L7.137,0C3.185,2.867-1.443,9.486.429,16.21L44.164,172.685C45.984,179.252,52.9,184.673,59.557,184.673Z" transform="translate(0 1.684)"/><path class="g" d="M59.564,180.183h65.46c6.6,0,10.5-5.41,8.683-12.016L89.981,12.016C88.109,5.41,81.246,0,74.59,0H9.13C2.527,0-1.373,5.41.447,12.016L44.174,168.167C46.046,174.773,52.961,180.183,59.564,180.183Z" transform="translate(3.929 0)"/><path class="h" d="M117.877,137.523H38.411L0,0H79.414Z" transform="translate(10.665 19.646)"/><path class="f" d="M15.053,1.684H1.183A1.26,1.26,0,0,1,.041.842h0A.621.621,0,0,1,.664,0h13.87a1.26,1.26,0,0,1,1.143.842h0A.621.621,0,0,1,15.053,1.684Z" transform="translate(42.66 9.542)"/><ellipse class="f" cx="0.78" cy="0.988" rx="0.78" ry="0.988" transform="translate(38.906 10.394) rotate(-48.99)"/><path class="h" d="M5.19,13.722c2.872,0,5.2-3.08,5.21-6.869S8.082,0,5.21,0,.006,3.08,0,6.869,2.318,13.727,5.19,13.722Z" transform="translate(88.312 167.678) rotate(-48.99)"/></g><g transform="translate(74.22 46.028)"><g transform="translate(0 200.39)"><g transform="translate(0 0)"><path class="i" d="M18.374,4.978a5.907,5.907,0,0,0,3.4,3.746c2.09.77,5.749-.565,7.369,1.642,1.725,2.207,0,5.9-1.463,6.569s-7.526,1.129-10.818-.975C13.566,13.908,2.121,10.572.449,8.417-.7,6.98.344,4.208,3.741,0a24.48,24.48,0,0,0,6.689,3.49A27.653,27.653,0,0,0,18.374,4.978Z"/></g></g><g transform="translate(32.028 21.352)"><g transform="translate(0.821 0)"><path class="j" d="M.024,1.279C.341,3.464,1.345,10.7.447,11.58c-.581,5.254.9,7.8,4.332,7.8a68.912,68.912,0,0,0,9.562-.572A10.585,10.585,0,0,1,12.7,15.325,77.373,77.373,0,0,1,12.6,4.869C4.726-.646-.4-.906.024,1.279Z" transform="translate(0 0)"/></g><g transform="translate(0 7.21)"><g transform="translate(0 0)"><rect class="k" width="17.751" height="13.786"/></g></g></g><g transform="translate(1.205 111.193)"><g transform="translate(0 0)"><path class="l" d="M31,4.172c3.81,15.018-.626,36.084-3.079,43.436C25.522,54.96,17.85,63.512,0,90.47A41.592,41.592,0,0,0,8.664,93.7a46.163,46.163,0,0,0,10.178,1.46c15.084-20.91,11.848-14.548,27.3-38.274,7.411-11.367,13-38.8,12.787-56.889Z"/></g></g><g transform="translate(32.026 111.193)"><g transform="translate(0 0)"><path class="m" d="M0,4.163,27.646,0C38.255,20.711,44.056,34.294,45.1,40.85q1.568,9.757-10.766,54.433L19.754,99.81c.888-3.851,2.09-9.575,3.292-16.444,3.4-18.994,5.435-22.9,4.547-31.588C27.123,45.534,6.324,22.585,0,4.163Z"/></g></g><g transform="translate(68.788 16.528)"><g transform="translate(0 0)"><path class="c" d="M1.763,37.254C.037,14.375-.433,2.727.4,2.153,1.554,1.369,43.136-.668,44.287.22c.732.575,1.151,12.275,1.151,35.1Z" transform="translate(0 0)"/></g></g><g transform="translate(56.595 50.606)"><g transform="translate(0 0)"><path class="n" d="M.181,3.442C1.069,2.664,63.048-.5,64.2.068s3.968,42.408,2.611,43.55C65.346,44.76,4.515,48.342,3.1,47.563,1.591,46.681-.655,4.273.181,3.442Z" transform="translate(0 0)"/></g></g><g transform="translate(21.094 32.556)"><g transform="translate(0 0)"><path class="o" d="M8.376,84.343C2.612,49.191-.243,27.612.016,19.4.276,11.284,4.378,4.732,12.322,0c4.725,2.756,8.048,4.68,9.813,5.616,2.233,1.3,4.517,1.768,5.088,2.912.415.78,4.984,24.076,13.655,69.627a100.179,100.179,0,0,1-15.68,4.16A107.693,107.693,0,0,1,8.376,84.343Z"/></g></g><g transform="translate(30.342 65.897)"><g transform="translate(0 0)"><path class="p" d="M0,4.63C1.152,12.143,2.827,17,5.131,19.24c3.4,3.392,26.493,7.775,35.08,11.479s8.011,5.9,14.189,5.9c4.032,0,6.649-1.931,7.592-5.9a19.366,19.366,0,0,1-6.807-2.244c-3.246-1.774-3.665-3.966-5.655-4.748-1.937-.783-7.382.783-9.32,0S15.917,10.265,14.451,8.856c-.995-.991-1.2-3.392-.785-7.253A9.908,9.908,0,0,0,6.074.247,7.958,7.958,0,0,0,0,4.63Z"/></g></g><g transform="translate(53.412 206.261)"><g transform="translate(0 0)"><path class="q" d="M13.11,0a66.6,66.6,0,0,0,9.022,4.958c2.99,1.188,6.4-1.188,8.445,1.188,2.046,2.324.262,5.681-2.2,6.145-2.413.465-25.806.465-27.694,0C-.632,11.981.417,8.831.1,4.131Z" transform="translate(0)"/></g></g><path class="r" d="M8.71,29.592s-2.986.787-3.825-1.154C4.1,26.5,3.157,22.93,1.48,20.308c-1.729-2.623-2.41-6.976.576-8.708C.537,5.987,5.567,3.574,9.339,2.525a10.753,10.753,0,0,1,6.182-.157s2.672-2.2,4.925-2.36C22.7-.1,23.851.9,24.113,2.788a2.943,2.943,0,0,1,2.829,2.675c.052,1.206-2.829,5.455-2.829,5.455L14.054,22.353Z" transform="translate(25.133 0)"/><path class="p" d="M6.388,18.668s.988,5.26,2.651,6.549c1.716,1.186,7.954,1.444,9.826.877,1.872-.619,2.392-3.2,2.651-5.569s0-4.486.884-5.208.884-1.908-.468-3.507-.884-3.661-1.2-5.415S17.253,0,17.253,0a6.37,6.37,0,0,1-2.6,1.65c-1.4.361-6.5-.98-6.5-.98S9.663,5.157,6.8,7.22a6.221,6.221,0,0,1,.78,5.518l-1.872.619s-2.651-2.733-3.847-2.63S-.319,12.583.1,14.181s2.236,4.074,3.951,4.332,2.08-.309,2.08-.309Z" transform="translate(31.869 7.297)"/></g><g transform="translate(195.9 3.368)"><path class="i" d="M0,2.545S2.273-.241,3.2.017C4.081.275,6.147,1.1,8.265,4.661c2.118,3.612,4.649,5.573,6.56,8.824,1.86,3.251,5.785,7.534,5.94,10.527.155,3.045-4.752,1.393-7.025,1.084S0,9.254,0,9.254V2.545Z" transform="translate(55.57 157.169)"/><path class="s" d="M19.9,1.892C21.615,1.064,24.88-.542,25.658.183s3.68,8.856,3.525,9.84S0,22.453,0,22.453Z" transform="translate(30.311 158.291)"/><path class="j" d="M0,2.82,1.671,13.472s11.753-2.559,15.3-2.089,8.619,1.566,8.828-.313C26.117,9.242,21.991,0,21.991,0Z" transform="translate(25.259 128.542)"/><path class="p" d="M26.382,63.386c-1.872-3.663-5.2-11.2-5.252-15.332-.1-4.134-2.444-9.681-5.512-17.739C12.55,22.308,12.55,19.22,11.51,16.761c-1.092-2.459-4.524-3.715-4.368-6.7A55.033,55.033,0,0,0,7.09.748C6.83-1.345,2.461,1.324,1.317,4.2A19.382,19.382,0,0,0,.225,13.935C.8,17.022,4.749,17.807,6,19.953s4.368,21.926,5.772,28.571c1.4,6.541,7.176,22.763,7.176,22.763Z" transform="translate(0 0)"/><path class="t" d="M26.731,36S22.3,37.713,19.752,37.4s-3.281-2.238-5.26-1.874c-1.979.312-7.239,1.874-7.812,1.093-.573-.729,1.823-2.394,1.406-3.435-.417-.989-3.281.1-6.2-1.093s-2.083-1.874,0-3.071c2.083-1.145-.1-2.654-.1-4.06s6.771-1.405,8.073-3.851c1.3-2.55.677-7.234,3.073-9.941,2.448-2.706-.156-6.193,4.115-7.6s6.354-.729,9.739-2.082C30.169.084,36.314-.593,37.669.656A35.211,35.211,0,0,0,43.45,5.445c2.969,1.822,8.229,6.818,9.531,12.023,1.3,5.1,4.844,10.305,5.937,17.644.99,7.338,1.979,5.985,0,11.294-1.979,5.361-2.083,5.517-2.552,8.223s.833,7.234-3.8,3.383c-4.635-3.8-8.75-9.212-13.281-11.45C34.8,44.323,26.731,36,26.731,36Z" transform="translate(7.858 43.221)"/><path class="o" d="M4.7,5.432a49.653,49.653,0,0,1,1.678,5.445c.315,1.885-1.993,3.822-2.99,5.55-1,1.832-4.721,4.45-2.885,10.419,1.888,5.864,3.3,4.869,3.462,9.005S3.7,55.9,5.222,59.306c1.416,3.4,1.731,1.152,2.885,1.1s14.372-.471,18.149-.838c3.829-.314,5.245.314,5.822-.157.577-.576-3.882-10-3.462-14.136s9.966-26.649,11.592-29.424c1.678-2.722,2.465-7.644,1.416-10.419C40.523,2.6,35.592-.379,34.333.04a7.73,7.73,0,0,0-3.252,2.147,32,32,0,0,1-4.878,3.3c-.892.576-.734-.681-1.469-.262s-5.4,3.874-7.029,2.565c-1.678-1.309-2.728-4.136-6.4-4.241A12.415,12.415,0,0,0,4.7,5.432Z" transform="translate(17.962 72.971)"/><path class="j" d="M5.415.786S5.1,6.739,3.862,8.462C2.568,10.185-.331,10.76.031,12.117c.311,1.305,4.5,2.245,7.765,0s7.921-6.005,7.921-6.005a3.18,3.18,0,0,1-1.4-2.82C14.526,1.2,6.554-1.3,5.415.786Z" transform="translate(28.066 72.41)"/><path class="u" d="M7.7,0A11.175,11.175,0,0,0,2.849,5.185,23.956,23.956,0,0,0,0,16.444c0,2.985,1.161,5.447,3.271,6.546s4.273,1.99,6.277,1.623c2.427-.471,6.752-3.09,8.968-8.484.107-3.784-.013-8.121-1.957-11.078C14.682,2.2,11.044.669,7.7,0Z" transform="translate(31.434 53.886)"/><path class="p" d="M25.432,39.57c9.816-8.532,14.358-19.628,23.5-27.479,2.611-2.617,7.832-1.309,9.816-3.3A16.415,16.415,0,0,0,65.113,0c-.94.052-2.976,1.2-4.542,2.983-2.088,2.3-8.093,4.554-10.651,5.862S42.4,13.975,35.822,21.2C29.3,28.421,20.629,37.948,18.54,41.14,16.452,44.281.632,56.476.214,57.471s-.157,5.234.209,7.642a37.455,37.455,0,0,0,11.33-7.171C17.6,53.336,20.211,45.485,25.432,39.57Z" transform="translate(49.957 17.962)"/><path class="j" d="M64.551,0a14.857,14.857,0,0,1-6.228,8.2c-1.982,1.981-7.2.678-9.807,3.285C39.386,19.3,33.892,31.126,24.137,39.573c-5.217,5.892-6.921,13.559-12.816,18.1A35.863,35.863,0,0,1,0,64.811v.156c.313,1.825,1.878,4.067,4.643,3.389C7.46,67.627,21.128,51.1,24.779,46.093c3.652-5.11,2.713-6.622,8.816-11.315s12.52-17,13.929-19.292,7.356-1.564,11.32-3.285C62.809,10.376,65.209,1.043,65.1.261,65.157.052,64.812,0,64.551,0Z" transform="translate(50.519 17.962)"/><path class="b" d="M27.067,1.318S46.431-.35,47.677.067s3.374,1.3,4.257,7.087c.986,5.784,2.388,12.611-5.762,19.386A92.05,92.05,0,0,0,33.92,38.474s15.782-6.2,17.91-7.5,3.53-1.094,4.828,1.98,1.3,11.048.986,12.611S50.273,47.7,43,50.772c-7.32,3.075-27.67,11.361-36.7,8.807C-2.731,57.13-1.745,48.219,7.288,34.2c9.033-13.914,14.847-17.145,15.366-20.584s-.156-9.745.26-10.631C23.433,1.943,26.133,1.37,27.067,1.318Z" transform="translate(2.245 138.645)"/><path class="q" d="M0,2.414S3.865,0,6.111,0c2.3,0,3.291,2.152,3.97,4.093s5.38,10.286,6.842,15.848,1.306,8.449,0,9.026-3.552,0-4.858-1.469S7.208,19.259,5.85,18.472C4.544,17.737,1.2,15.638,1.2,15.638Z" transform="translate(56.693 167.272)"/></g><ellipse class="a" cx="54" cy="5.5" rx="54" ry="5.5" transform="translate(180 255)"/></svg>