<svg xmlns="http://www.w3.org/2000/svg" xmlns:xlink="http://www.w3.org/1999/xlink" width="70" height="70" viewBox="0 0 70 70">
  <defs>
    <clipPath id="clip-path">
      <rect id="Rectangle_37" data-name="Rectangle 37" width="70" height="70" transform="translate(558 860)" fill="#fff"/>
    </clipPath>
  </defs>
  <g id="Mask_Group_3" data-name="Mask Group 3" transform="translate(-558 -860)" clip-path="url(#clip-path)">
    <g id="coin" transform="translate(557.952 860)">
      <path id="Path_228" data-name="Path 228" d="M65.86,9.873a1.373,1.373,0,0,0-2.249,1.575A20.377,20.377,0,0,1,46.909,43.5a20.375,20.375,0,0,1,0-40.751,20.175,20.175,0,0,1,8.974,2.077,1.373,1.373,0,0,0,1.211-2.464A22.9,22.9,0,0,0,46.909,0a23.147,23.147,0,0,0-23.12,23.12c0,.216,0,.432.01.648-.2-.005-.406-.009-.609-.009a23.12,23.12,0,1,0,23.12,23.12c0-.216,0-.431-.01-.647q.3.008.609.008A23.124,23.124,0,0,0,65.86,9.873Zm-28.068,34.5q.256.11.514.213c.108.044.466.181.536.207.137.051.475.172.506.183a16.272,16.272,0,1,1-16.16-14.367q.537,0,1.073.036.268.018.537.044c.062.006.217-.007.268.029s.064.179.08.223c.225.624.473,1.241.753,1.843A23.053,23.053,0,0,0,37.687,44.327l.1.044ZM43.544,46c.013.3.02.591.02.883A20.375,20.375,0,1,1,23.189,26.5q.317,0,.636.011c.05,0,.16-.018.2.017s.041.119.045.169a10.818,10.818,0,0,0,.211,1.195q-.546-.032-1.094-.033A19.017,19.017,0,1,0,42.205,46.88q0-.562-.034-1.126l.758.144c.105.018.595.1.616.1Zm0,0" fill="#fff"/>
      <path id="Path_229" data-name="Path 229" d="M29.724,47.68a1.372,1.372,0,0,0-1.753.834,4.846,4.846,0,0,1-2.51,2.765,5,5,0,0,1-.9.327V42.143c.147.037.294.081.441.133a4.9,4.9,0,0,1,2.035,1.379A1.372,1.372,0,1,0,29.1,41.843a7.608,7.608,0,0,0-4.538-2.5V37.965a1.373,1.373,0,1,0-2.745,0v1.446a7.628,7.628,0,0,0,0,14.939v1.444a1.373,1.373,0,1,0,2.745,0V54.41a7.737,7.737,0,0,0,2.08-.652,7.575,7.575,0,0,0,3.917-4.325,1.373,1.373,0,0,0-.834-1.753Zm-7.991,3.8a4.883,4.883,0,0,1,.084-9.233v9.261l-.084-.028Zm0,0" fill="#fff"/>
      <path id="Path_230" data-name="Path 230" d="M29.275,23.12A17.633,17.633,0,1,0,46.909,5.487,17.654,17.654,0,0,0,29.275,23.12Zm32.521,0A14.888,14.888,0,1,1,46.908,8.232,14.905,14.905,0,0,1,61.8,23.12Zm0,0" fill="#fff"/>
      <path id="Path_231" data-name="Path 231" d="M45.536,14.206v1.452a7.734,7.734,0,0,0-1.723.584,7.618,7.618,0,0,0,.72,14.069,7.752,7.752,0,0,0,1,.28v1.444a1.373,1.373,0,1,0,2.745,0v-1.38a7.636,7.636,0,0,0,6-4.981,1.373,1.373,0,0,0-2.587-.919,4.885,4.885,0,0,1-3.409,3.1V18.384c.148.037.3.082.441.133A4.9,4.9,0,0,1,50.757,19.9a1.373,1.373,0,0,0,2.063-1.812,7.61,7.61,0,0,0-4.538-2.5V14.206a1.373,1.373,0,1,0-2.745,0Zm-.084,13.518a4.873,4.873,0,0,1-.459-9,5.022,5.022,0,0,1,.543-.219v9.25l-.084-.027Zm0,0" fill="#fff"/>
      <path id="Path_232" data-name="Path 232" d="M59.8,7.122a1.372,1.372,0,1,0,.515-1.671A1.387,1.387,0,0,0,59.8,7.122Zm0,0" fill="#fff"/>
    </g>
  </g>
</svg>
