<svg xmlns="http://www.w3.org/2000/svg" xmlns:xlink="http://www.w3.org/1999/xlink" width="21" height="23" viewBox="0 0 21 23"><defs><style>.a{fill:#7c7c7c;}.b{clip-path:url(#a);}</style><clipPath id="a"><rect class="a" width="21" height="23"/></clipPath></defs><g class="b"><g transform="translate(0.323)"><path class="a" d="M17.858,1.8H16.91V0H15.33V1.8H4.9V0H3.319V1.8H2.371A2.552,2.552,0,0,0,0,4.492V20.3A2.552,2.552,0,0,0,2.371,23H17.858a2.552,2.552,0,0,0,2.371-2.7V4.492A2.552,2.552,0,0,0,17.858,1.8Zm.79,18.508a.851.851,0,0,1-.79.9H2.371a.851.851,0,0,1-.79-.9V8.445H18.649Zm0-13.656H1.58V4.492a.851.851,0,0,1,.79-.9h.948v1.8H4.9v-1.8H15.33v1.8h1.58v-1.8h.948a.851.851,0,0,1,.79.9Z"/><g transform="translate(3.003 10.332)"><rect class="a" width="1.58" height="1.797"/></g><g transform="translate(6.163 10.332)"><rect class="a" width="1.58" height="1.797"/></g><g transform="translate(9.324 10.332)"><rect class="a" width="1.58" height="1.797"/></g><g transform="translate(12.485 10.332)"><rect class="a" width="1.58" height="1.797"/></g><g transform="translate(15.646 10.332)"><rect class="a" width="1.58" height="1.797"/></g><g transform="translate(3.003 13.926)"><rect class="a" width="1.58" height="1.797"/></g><g transform="translate(6.163 13.926)"><rect class="a" width="1.58" height="1.797"/></g><g transform="translate(9.324 13.926)"><rect class="a" width="1.58" height="1.797"/></g><g transform="translate(12.485 13.926)"><rect class="a" width="1.58" height="1.797"/></g><g transform="translate(3.003 17.52)"><rect class="a" width="1.58" height="1.797"/></g><g transform="translate(6.163 17.52)"><rect class="a" width="1.58" height="1.797"/></g><g transform="translate(9.324 17.52)"><rect class="a" width="1.58" height="1.797"/></g><g transform="translate(12.485 17.52)"><rect class="a" width="1.58" height="1.797"/></g><g transform="translate(15.646 13.926)"><rect class="a" width="1.58" height="1.797"/></g></g></g></svg>