<svg xmlns="http://www.w3.org/2000/svg" xmlns:xlink="http://www.w3.org/1999/xlink" width="454" height="284" viewBox="0 0 454 284"><defs><style>.a,.f{fill:#fff;}.ad,.b{fill:#00092a;}.c{fill:none;}.d{clip-path:url(#a);}.e{clip-path:url(#b);}.aa,.ab,.ac,.ad,.f,.g,.h,.i,.j,.k,.p,.r,.t,.u,.v,.w,.x,.y,.z{fill-rule:evenodd;}.g{fill:#83c2f5;}.h{fill:#e9e8ff;}.i{fill:#cff1f9;}.j{fill:#6184f6;}.k{fill:#7965ff;}.l{fill:#e1ff00;}.m{fill:#ff9cec;}.n{fill:#66b3ff;}.o{fill:#ff6672;}.p{fill:#45e5b6;}.q{fill:#ffd500;}.aj,.r{fill:#f9e537;}.s{clip-path:url(#c);}.ao,.t{fill:#f9ca37;}.ae,.u{fill:#f50;}.v{fill:#909090;}.w{fill:#b5b5b5;}.x{fill:#2845aa;}.af,.y{fill:#21388a;}.aa{fill:#ffabab;}.ab{fill:#ff7f00;}.ac{fill:#f68484;}.ag{fill:#e48868;}.ah{fill:#ece0d3;}.ai{fill:#393762;}.ak{clip-path:url(#d);}.al{clip-path:url(#e);}.am{fill:#b77053;}.an{fill:#c55469;}.ap{fill:#e8a12b;}</style><clipPath id="a"><rect class="a" width="454" height="284" transform="translate(1449 285)"/></clipPath><clipPath id="b"><rect width="404.889" height="281.933"/></clipPath><clipPath id="c"><path d="M385.356,56.256a12.717,12.717,0,0,0-12.719-12.719H273.129A12.717,12.717,0,0,0,260.41,56.256v177.88a12.717,12.717,0,0,0,12.719,12.719h99.509a12.717,12.717,0,0,0,12.719-12.719Z" transform="translate(-260.41 -43.537)"/></clipPath><clipPath id="d"><path class="b" d="M0,0H32.945V30.608H0Z"/></clipPath><clipPath id="e"><path class="c" d="M0,0H11.027V15.72H0Z"/></clipPath></defs><g class="d" transform="translate(-1449 -285)"><g transform="translate(1305.1 247)"><g transform="translate(194.011 38)"><g class="e"><path class="f" d="M345.993,177.045s-129.309,22.076-142.32,26.8c-13.011,4.754,265.268,10.236,332.848,6.48s16.911-31.161,4.891-33.311C529.424,174.925,345.993,177.045,345.993,177.045Z" transform="translate(-187.782 55.295)"/><path class="g" d="M507.256,68.954a12.693,12.693,0,0,0-3.488-8.812,11.614,11.614,0,0,0-8.388-3.664H292.419a11.5,11.5,0,0,0-8.388,3.664,12.824,12.824,0,0,0-3.488,8.812v192.6a12.693,12.693,0,0,0,3.488,8.812,11.614,11.614,0,0,0,8.388,3.664H495.38a11.5,11.5,0,0,0,8.388-3.664,12.823,12.823,0,0,0,3.488-8.812Z" transform="translate(-135.55 -25.517)"/><path class="f" d="M288.27,158.887c-13.173,0-21.682-9.236-19.108-20.259,0,0,10.629-45.636,16.019-68.863a17.135,17.135,0,0,1,16.686-13.233H328l-12.749,82.1c-1.726,11.023-13.839,20.259-26.982,20.259" transform="translate(-143.549 -25.48)"/><path class="h" d="M317.23,158.887h0c-13.173,0-22.379-9.236-20.683-20.259l12.749-82.1H349l-6.359,82.1c-.848,11.023-12.234,20.259-25.407,20.259" transform="translate(-124.875 -25.48)"/><path class="f" d="M346.25,158.887c-13.173,0-23.106-9.236-22.258-20.259l6.359-82.1h39.7v82.1c.03,11.023-10.629,20.259-23.8,20.259" transform="translate(-106.23 -25.48)"/><path class="i" d="M375.311,158.887h0c-13.173,0-23.832-9.236-23.832-20.259v-82.1h39.7l6.359,82.1c.878,11.023-9.085,20.259-22.227,20.259" transform="translate(-87.627 -25.48)"/><path class="f" d="M406.939,158.887c-13.173,0-24.559-9.236-25.407-20.259l-6.359-82.1h39.7l12.749,82.1c1.726,11.023-7.51,20.259-20.683,20.259" transform="translate(-71.62 -25.48)"/><path class="j" d="M416.948,142.916A9.551,9.551,0,0,0,414.1,136.1a9.715,9.715,0,0,0-6.874-2.816H376.218a9.667,9.667,0,0,0-9.721,9.63v79.189h50.421V142.916Z" transform="translate(-77.48 26.375)"/><path class="k" d="M301.773,138.283a4.993,4.993,0,0,1,1.454-3.543,4.923,4.923,0,0,1,3.513-1.454h21.773a4.963,4.963,0,0,1,4.966,5V160a4.993,4.993,0,0,1-1.454,3.543,4.923,4.923,0,0,1-3.513,1.454h-21.8a4.963,4.963,0,0,1-4.966-5V138.283Z" transform="translate(-121.228 26.375)"/><path class="j" d="M331.454,138.283a4.993,4.993,0,0,1,1.454-3.543,4.923,4.923,0,0,1,3.513-1.454h21.773a4.963,4.963,0,0,1,4.966,5V160a4.993,4.993,0,0,1-1.454,3.543,4.923,4.923,0,0,1-3.513,1.454H336.421a4.963,4.963,0,0,1-4.966-5Z" transform="translate(-101.155 26.375)"/><rect class="l" width="10.599" height="6.42" transform="translate(141.941 175.193) rotate(-42.167)"/><rect class="m" width="10.599" height="6.42" transform="translate(31.131 179.951)"/><rect class="n" width="6.42" height="10.599" transform="translate(99.751 130.106)"/><rect class="o" width="10.599" height="6.42" transform="translate(199.683 110.059)"/><path class="p" d="M354.443,69.493l1.151-6.329,12.325,2.241L366.8,71.734Z" transform="translate(-85.624 -20.999)"/><rect class="q" width="6.42" height="20.138" transform="translate(268.841 106.306) rotate(-79.292)"/><path class="i" d="M406.939,158.887c-13.173,0-24.559-9.236-25.407-20.259L370.567,56.764h39.779l17.275,81.864c1.726,11.023-7.51,20.259-20.683,20.259" transform="translate(-27.62 -25.48)"/></g></g><g transform="translate(305.269 47.278)"><path class="r" d="M385.356,56.256a12.717,12.717,0,0,0-12.719-12.719H273.129A12.717,12.717,0,0,0,260.41,56.256v177.88a12.717,12.717,0,0,0,12.719,12.719h99.509a12.717,12.717,0,0,0,12.719-12.719Z" transform="translate(-260.41 -43.537)"/><g class="s"><g transform="translate(-26.596 37.725)"><g transform="translate(123.253)"><path class="t" d="M345.553,57.024H294.873a4.134,4.134,0,0,0-4.151,4.129V107.7a4.134,4.134,0,0,0,4.151,4.129h50.679Z" transform="translate(-290.723 -57.024)"/></g><g transform="translate(54.83 54.801) rotate(180)"><path class="t" d="M54.83,54.8H4.151A4.134,4.134,0,0,1,0,50.671V4.129A4.134,4.134,0,0,1,4.151,0H54.83Z" transform="translate(0 0)"/></g></g></g><g transform="translate(19.382 135.707)"><path class="u" d="M914.652,454.93a10.244,10.244,0,0,0-10.258-10.247H838.771a10.262,10.262,0,0,0-10.258,10.247h0a10.244,10.244,0,0,0,10.258,10.247h65.623a10.244,10.244,0,0,0,10.258-10.247Z" transform="translate(-828.513 -444.683)"/></g><g transform="translate(53.55 141.583)"><g transform="translate(0 0)"><path class="a" d="M112.212,11.36h3.049c2.033,0,3.049-1.016,3.049-2.033h0c0-1.016,0-1.016-1.016-2.033,0,0,0,0,0-1.016h0V5.262a3.549,3.549,0,0,0-2.033-1.016h-3.049Zm4.065-5.082a1,1,0,0,1-1.016,1.016h-1.016V5.262l2.033,1.016Zm0,3.049h0c0,1.016,0,1.016-1.016,1.016h-2.033V8.311h2.033C116.278,8.311,116.278,8.311,116.278,9.328Z" transform="translate(-112.212 -4.246)"/></g><g transform="translate(6.917 2.033)"><path class="a" d="M113.4,10.541c1.016,0,1.016,0,2.033-1.016v1.016h1.016V5.459h-1.016V8.508c0,1.016,0,1.016-1.016,1.016s-1.016,0-1.016-1.016V5.459h-1.016V8.508C111.366,9.524,112.382,10.541,113.4,10.541Z" transform="translate(-111.961 -5.459)"/></g><g transform="translate(12.654 2.033)"><path class="a" d="M114.655,8.508l-1.016-3.049h-2.033l2.033,5.082h-2.033v1.016h1.016c1.016,0,1.016,0,2.033-1.016l2.033-5.082h-2.033Z" transform="translate(-111.606 -5.459)"/></g></g><g transform="translate(46.986 108.169)"><path class="v" d="M945.8,416.725a1.767,1.767,0,0,0-.515-1.242,1.715,1.715,0,0,0-1.242-.515H912.822a1.767,1.767,0,0,0-1.242.515,1.715,1.715,0,0,0-.515,1.242h0a1.767,1.767,0,0,0,.515,1.242,1.715,1.715,0,0,0,1.242.515h31.221a1.767,1.767,0,0,0,1.242-.515,1.821,1.821,0,0,0,.515-1.242Z" transform="translate(-911.065 -414.968)"/></g><g transform="translate(37.467 116.806)"><path class="w" d="M1406.523,416.49a1.788,1.788,0,0,0-.516-1.242,1.687,1.687,0,0,0-1.221-.515H1354.43a1.687,1.687,0,0,0-1.221.515,1.734,1.734,0,0,0-.517,1.242h0a1.787,1.787,0,0,0,.517,1.242,1.687,1.687,0,0,0,1.221.515h50.356a1.688,1.688,0,0,0,1.221-.515,1.788,1.788,0,0,0,.516-1.242Z" transform="translate(-1352.692 -414.733)"/></g><path class="u" d="M341.285,69.29a5.415,5.415,0,0,0-5.421-5.421H284.626a5.415,5.415,0,0,0-5.421,5.421v51.238a5.415,5.415,0,0,0,5.421,5.421h51.238a5.415,5.415,0,0,0,5.421-5.421Z" transform="translate(-247.712 -29.801)"/><path class="f" d="M295.432,77.891a9.391,9.391,0,0,1,17.291-2.847,9.383,9.383,0,0,1,1.09,2.816h2.6a3.18,3.18,0,0,1,3.149,2.847s1.454,15.02,2.12,21.773a2.9,2.9,0,0,1-.757,2.271,2.932,2.932,0,0,1-2.18.969H290.5a2.961,2.961,0,0,1-2.937-3.24c.545-5.481,1.605-16.565,2.12-21.773a3.158,3.158,0,0,1,3.149-2.847h2.6Zm16.353,0a7.635,7.635,0,0,0-7.056-5.481h-.182a7.722,7.722,0,0,0-7.147,5.481Z" transform="translate(-242.074 -25.381)"/></g><g transform="translate(202.257 102.736)"><g transform="translate(14.433 75.787)"><g transform="translate(22.26 0.03)"><path class="x" d="M220.831,129.211V167s.7,2.6,1.454,6.874A131.526,131.526,0,0,1,224.5,198.1a206.759,206.759,0,0,0,2.15,30.707h0c.061.424.091.757.121,1.03a21.575,21.575,0,0,1-.485,7.631c-.606,2.907.818,3.028.818,3.028h19.139c1.242-1.09-.7-4.33-4.966-5.057-4.27-.757-3.634-3.785-4-6.238a2.006,2.006,0,0,1-.03-.454c-.03-1,.03-2.968.182-5.784.454-8.358,1.544-24.044,2.392-42.7,1.181-26.164,0-54.3,0-54.3l-2.544-4.088Z" transform="translate(-220.831 -121.883)"/><path class="y" d="M226.18,228.175a21.577,21.577,0,0,1-.484,7.631c-.606,2.907.818,3.028.818,3.028h19.139c1.242-1.09-.7-4.33-4.966-5.057-4.27-.757-3.634-3.785-4-6.238a2,2,0,0,1-.03-.454c-.03-1,.03-2.968.182-5.784-9.569-1.363-5.511-31.312-7.207-43.667a83.856,83.856,0,0,1,0-23.287s12.416-35.764,0-29.192c-5.36,2.847-7.359,23.954-7.934,47.089a131.536,131.536,0,0,1,2.211,24.226,206.757,206.757,0,0,0,2.15,30.707h0C226.12,227.569,226.15,227.9,226.18,228.175Z" transform="translate(-220.245 -120.217)"/><path class="z" d="M224.98,197.5h19.139c1.242-1.09-.7-4.33-4.966-5.057-4.27-.757-3.634-3.785-4-6.238a2.006,2.006,0,0,1-.03-.454c-6.692,1.484-10.417-.212-10.417-.212a3.136,3.136,0,0,1-.182.3h0c.061.424.091.757.121,1.03a21.576,21.576,0,0,1-.485,7.631C223.557,197.375,224.98,197.5,224.98,197.5Z" transform="translate(-218.681 -78.88)"/></g><path class="x" d="M208.811,240.5h19.351c.848-3.059-3.846-3.967-7.449-6.632-1.423-1.06-1.817-2.725-1.575-5,.394-3.482,2.392-8.328,4.754-14.445.757-2,1.605-4.785,2.513-8.055,3.6-13.264,7.873-34.674,9.69-45.242,2.271-13.173,5.178-33.644,5.178-33.644l-23.439-4.906-3.331-.7s-1.332,18.382-1.393,26.921-3.634,61.352-3.725,70.468c-.03,3.513-.273,6.783-.575,9.63-.485,4.512-1.09,7.873-1.211,9.266C207.3,240.378,208.811,240.5,208.811,240.5Z" transform="translate(-207.537 -121.852)"/><path class="y" d="M208.8,240.512h19.351c.848-3.059-3.846-3.967-7.449-6.632-1.423-1.06-1.817-2.725-1.575-5,.394-3.482,2.392-8.328,4.754-14.445.757-2,1.6-4.785,2.513-8.055-5.178,3.876-11.356,5.542-8.57-11.6,8.146-50.542,6.6-66.622,6.6-66.622-2.513-2.271-4.694-4.118-6.571-5.6l-3.331-.7s-1.332,18.382-1.393,26.921-3.634,61.353-3.725,70.468c-.03,3.513-.273,6.783-.575,9.63-.485,4.512-1.09,7.873-1.211,9.266C207.288,240.391,208.8,240.512,208.8,240.512Z" transform="translate(-207.528 -121.865)"/><path class="z" d="M208.82,197.362h19.351c.848-3.059-3.846-3.967-7.449-6.632-1.423-1.06-1.817-2.725-1.575-5a13.271,13.271,0,0,1-10.357,0c-.485,4.512-1.09,7.873-1.211,9.266C207.306,197.241,208.82,197.362,208.82,197.362Z" transform="translate(-207.546 -78.715)"/></g><g transform="translate(0 24.861)"><path class="aa" d="M245.217,102.371a21.863,21.863,0,0,1,4.754-.515c1.726-.091,2.756-2.574.939-4.391s-4.6-1.514-5.269,0a9.084,9.084,0,0,1-1.666,2.513l-1.06,1.151C242.886,101.129,244.158,102.734,245.217,102.371Z" transform="translate(-169.217 -88.269)"/><path class="ab" d="M199.377,121.2h0a30.438,30.438,0,0,0,2.3,5.663c4.633,9.3,15.414,21.379,15.414,21.379a5.264,5.264,0,0,0,1.787-.878l1.484,1.938a11.028,11.028,0,0,0,1.847.273c.121,0,.242.03.363.03,4.6.3,13.506-.121,20.108.454,7.964.7,12.083-2.12,11.931-3.6-.061-.666-.575-4.361-1.151-8.176-.666-4.452-1.332-9.085-1.393-9.357h0s4,3.785,9.781,0a36.125,36.125,0,0,0,5.845-5.451c5.663-6.208,11.962-14.838,11.962-14.838-1.454-3.664-5.239-6.147-6.3-5.3s-16.686,10.145-16.686,10.145-2.029-3.543-4.3-7.692c-1.756-3.21-3.694-6.783-4.936-9.327-2.877-5.845-10.569-4.936-10.569-4.936l-1.423.182-4.452.575s-7.026-1.06-12.113.848a1.076,1.076,0,0,0-.273.121h0c-5,2.059-9.781,9.024-14.808,15.414C199.862,113.569,198.015,116.173,199.377,121.2Zm16.474-.151c-.03-.061-.061-.091-.061-.151l-.363-.787h.03l3.24-1.332.485,9.9Z" transform="translate(-198.932 -91.472)"/><path class="u" d="M199.2,110.212h0a30.437,30.437,0,0,0,2.3,5.663c4.633,9.3,15.414,21.379,15.414,21.379a5.264,5.264,0,0,0,1.787-.878l1.484,1.938a11.029,11.029,0,0,0,1.847.273c.121-.121.273-.212.394-.333,2.483-2.12,4.149-4.391,3.906-5.572-.575-2.937-4.27-8.964-4.27-8.964a3.323,3.323,0,0,1-.212.515c-.485,1.09-1.756,3.452-3.785,2.362-2.6-1.363-9.206-18.321-14.687-18.836A3.7,3.7,0,0,0,199.2,110.212Z" transform="translate(-198.753 -80.484)"/><path class="u" d="M210.656,93.137a9.1,9.1,0,0,1,5.511,2.271c5.269,4.179,9.872.3,11.538-1.332.363-.363.3-1.332-.212-2.483l-4.452.575s-7.026-1.06-12.113.848C210.838,93.046,210.747,93.107,210.656,93.137Z" transform="translate(-191.012 -91.39)"/><path class="u" d="M212.267,111.215l.485,9.9-3.331-7.6c1.423,3.392,4.209,9.721,6.178,14.2,1.272,2.877,2.211,5,2.211,5a2.635,2.635,0,0,1-.787,2.18s-.606,3.725-.878,6.874c0,.121-.03.242-.03.363,4.6.3,13.506-.121,20.108.454,7.964.7,12.083-2.12,11.931-3.6-.061-.666-.575-4.361-1.151-8.176-4.6,4.966-10.841.3-12.355-3-1.544-3.3-2.6-9.085-9.418-10.69s-4.361-2.7-5.178-8.752c-.363-2.847-.575-6.814-3.089-5.481-2.816,1.514-8.509,8.388-8.509,8.388.03.121.212.606.515,1.332Z" transform="translate(-192.501 -83.939)"/><path class="u" d="M231.784,123.491s4,3.785,9.781,0a36.125,36.125,0,0,0,5.845-5.451,4.469,4.469,0,0,0-.394-1.06c-2.574-5.027-9.418.757-11.386-2.271-2-3.028.787-6.632.787-6.632s-2.029-3.543-4.3-7.692c-1.635-.848-2.968-1.242-3.089-.606C228.695,101.294,231.784,123.491,231.784,123.491Z" transform="translate(-178.616 -86.071)"/><path class="aa" d="M209.752,127.709l2.725,3.6c4.452,3.664,8.54,1,7.449-1.666s-3.755-7.783-3.755-7.783A15.766,15.766,0,0,1,209.752,127.709Z" transform="translate(-191.622 -70.939)"/><path class="f" d="M247.843,110.632c.878-.151,12.386-9.115,12.022-10.054s-4.118-5.966-4.573-5.542c-.182.151-2.15,1.787-4.421,3.664-1.787,1.454-3.725,3.089-5.178,4.27-1.272,1.06-2.12,1.756-2.12,1.756C242.968,105.333,246.935,110.753,247.843,110.632Z" transform="translate(-168.815 -89.081)"/><path class="aa" d="M244.8,101.5a36.047,36.047,0,0,1,3.876-.3c1.605-.061,2.6-2.241,1.272-4C248.217,98.679,246.249,100.314,244.8,101.5Z" transform="translate(-167.947 -87.605)"/></g><g transform="translate(27.582)"><path class="aa" d="M220.012,96.58l.242.242a2.587,2.587,0,0,1,.575.878c.969,2.15-1,4.573-1,4.573a30.09,30.09,0,0,0,5.451,3.149c2.423.939,4.785.7,4.664-2.18-.091-2.423.727-3.149,3.513-3.816.485-.121,1-.242,1.6-.333,4.088-.818,3.967-3.3,2.937-10.478-.666-4.542-1.272-6.814-2.847-9.478a.229.229,0,0,1-.061-.121c-2.907-4.785-16.231-2.029-18.866,5.3C213.653,91.432,217.772,94.309,220.012,96.58Z" transform="translate(-215.383 -76.635)"/><path class="ac" d="M218.048,95.861a30.091,30.091,0,0,0,5.451,3.149c2.423.939,4.785.7,4.664-2.18-.091-2.423.727-3.149,3.513-3.816a1.727,1.727,0,0,0-.394-.03c-3.664.03-4.179-6.147-6.6-5.511a4.493,4.493,0,0,1-4.179-1.3s-1.09,1.908-2.271,3.967l.242.242a2.588,2.588,0,0,1,.575.878C220.016,93.408,218.048,95.861,218.048,95.861Z" transform="translate(-213.6 -70.192)"/><g transform="translate(0 0.03)"><path class="y" d="M220.265,96.811a2.588,2.588,0,0,1,.575.878,11.141,11.141,0,0,1,3.21.787c1.878-.757,2.332-4.542,2.332-4.542-.666-.061-2.907.182-3.028-2.029s1.393-2.877,3.664-2.937c1.272-.03,1.211-.908,1.06-1.817-.121-.7-.273-1.454.061-1.847,1.09-1.332,5.148-1.666,6.3-4.391.182-.454.424-1.06.7-1.756a.23.23,0,0,1-.061-.121c-2.907-4.785-16.231-2.029-18.866,5.3a14,14,0,0,0-.787,3.422C215.056,92.662,218.478,94.9,220.265,96.811Z" transform="translate(-215.393 -76.653)"/><g transform="translate(0 10.345)"><path class="ad" d="M220.265,92.639a2.588,2.588,0,0,1,.575.878,11.141,11.141,0,0,1,3.21.787c1.878-.757,2.332-4.542,2.332-4.542-.666-.061-2.907.182-3.028-2.029s1.393-2.877,3.664-2.937c1.272-.03,1.211-.908,1.06-1.817A5.669,5.669,0,0,0,222.9,84.4c-2.3,2-5.784,1.151-7.48-.818C215.056,88.491,218.478,90.732,220.265,92.639Z" transform="translate(-215.393 -82.827)"/></g></g></g></g></g><g transform="translate(1728.364 363.201)"><path class="ae" d="M41.289,0,52.407,55.821,0,59.329,21.119,12.017Z" transform="translate(38.564 68.461)"/><path class="af" d="M50.862,0,70.206,90.92l-6.472,2.028L48.234,44.6,36.065,23.013,25.132,56.994,4.767,92.489,0,88.382l16.581-46.3L21.936,0Z" transform="translate(27.192 84.777)"/><g transform="translate(0 0)"><path class="ag" d="M9.193,27.234l3.031-6.89s2.588.7,3.726-.4c.428-.413.86-2.619,1.076-5.367q.039-.492.068-1.005c.02-.355,1.442.6,1.453.239.025-.743-1.372-2.819-1.385-3.572C17.1,6.767,16.6,3.4,15.3,2.134,12.337-.759,1.962-1.184.548,3.857A14.577,14.577,0,0,0,4.629,18.5L1.822,25.65Z" transform="translate(57.105 9.273)"/><path class="ah" d="M2.505,1.253A1.253,1.253,0,1,1,1.253,0,1.253,1.253,0,0,1,2.505,1.253" transform="translate(64.72 24.665)"/><path class="ag" d="M0,24.558,4.8,28.99s9.166-19.907,9.592-20.4,1.147-4.815,1.19-5.226-3.067.075-3.067.075a21.457,21.457,0,0,0-.8-2.455c-.159-.312-1.188-1.643-1.28-.566L10.4,3.494,9.641,4.676a17.023,17.023,0,0,0-.279,3.885Z" transform="translate(87.511 33.147)"/><path class="ai" d="M0,13.608.35,6.044.689,0,2.9.314,1.832,13.4Z" transform="translate(99.837 27.015)"/><path class="ag" d="M1.6,2.946C1.777,2.059.436-.273.172.026s-.1,1.632-.1,1.632l.472.705S-.015,2.291,0,2.481s.021,1.1.021,1.1L.307,5.255Z" transform="translate(101.492 33.56)"/><path class="ae" d="M24.625,2.929,15.039,21.74C14.626,18.825,13.8,20.5,13.8,20.5S8.12,3.449,2.235.269c-6.656-3.6,3.678,30.047,3.678,30.047s8.963,4.975,12.127,3.6c3.013-1.308,11.454-18.136,14.555-26.211C30.609,6.5,26.686,4,24.625,2.929" transform="translate(69.742 38.863)"/><path class="aj" d="M.664,55.808l29.787,4.027L27.567,44.89s2.789-5.495,4.348-8.716c.985-2.035,1.339-5.729-2.478-12.763a102.953,102.953,0,0,1-5.9-12.828l1.2-3.466L11.5,0l-1.4,5.044S1.86,15.475.453,18.087,1.344,43.609,1.545,45.82Z" transform="translate(48.435 28.548)"/><g transform="translate(46.757)"><path class="c" d="M0,0H32.945V30.608H0Z" transform="translate(0)"/><g class="ak" transform="translate(0)"><path class="b" d="M0,16.536a16.28,16.28,0,0,0,1.518,6.4c1.687,3.686,4.73,7.933,9.172,7.664,2.245-.135,3.677-1.491,5.338-2.787a41.1,41.1,0,0,0,5.616-4.978c.939-1.057,1.661-2.239,2.52-3.335,2.081-2.648,6.578-1.936,8.207-5.082,1.711-3.305-.75-6.765-3.06-9.216C23.353-1.13,14.2-1.521,7.433,3.158A17.546,17.546,0,0,0,.358,13.219,12.916,12.916,0,0,0,0,16.536" transform="translate(0 0)"/></g></g><path class="ai" d="M3.582,0,6.1,9.156s7.754.565,7.973,1.209L2.913,14.056,0,1.185Z" transform="translate(90.794 168.816)"/><g transform="translate(24.511 167.939)"><path class="c" d="M0,0H11.027V15.72H0Z" transform="translate(0 0)"/><g class="al" transform="translate(0 0)"><path class="ai" d="M11.027,15.72H4.636L0,11.392,5.75,0l3.17,2.335L5.136,10.828l1.179,3.4Z"/></g></g><path class="ae" d="M20.011,0S27.882,2.136,29.9,5.955,12.73,92.931,12.73,92.931L0,93.786l9.294-43.71.624-10.385s-1.753-23.711-.624-26.35C10.688,10.086,20.011,0,20.011,0" transform="translate(38.518 33.592)"/><path class="am" d="M12.63,1.094C10.414-.676,5,.058,4.214.821S.636,12.325,0,14.981l.808.2C.723,14.88,3.768,1.272,5.683.83s6.233.581,6.777.974.294,14.571.294,14.571l1.234.183S13.819,2.044,12.63,1.094" transform="translate(19.079 105.713)"/><path class="af" d="M6.462,0,27.293,2.969,24.661,34.038,0,31.092Z" transform="translate(9.026 119.036)"/><path class="ah" d="M13.937,2.736C12.295.423,6.892-.365,5.924.152S1.343,6.869,0,9.246l.723.413c0-.31,4.647-9.2,6.609-9.094s5.831,2.278,6.247,2.8-1.7,10.733-1.7,10.733l1.136.517s1.806-10.643.926-11.884" transform="translate(17.761 105.113)"/><path class="ag" d="M3.474,2.714S1.1,8.966.375,10.31s-.413,2.17,1.033,1.757.827,1.3,2.067.772.886,1.372,1.859,1.023c1.446-.516,1.342.187,1.961.177s.515-5.063.515-5.063A1.452,1.452,0,0,0,7.81,7c-.826-1.24,4.647-7,4.647-7Z" transform="translate(23.686 95.368)"/><path class="ae" d="M20.652,2.357C17.1,5.838,0,53.506,0,53.506l7.021,3.05s4.13-10,6.816-12.749,3.511-3.9,3.1-8.387,11.771-17.7,13.218-22.977-1.859-17.578-9.5-10.086" transform="translate(27.159 44.576)"/><path class="an" d="M.311,26.718a.305.305,0,0,1-.2-.07.309.309,0,0,1-.044-.437,67.15,67.15,0,0,0,6.241-9.182c1.78-3.061,2.745-5.442,2.4-8.553A10.013,10.013,0,0,0,3.593.586.31.31,0,1,1,3.875.034,10.632,10.632,0,0,1,9.324,8.409c.367,3.281-.631,5.759-2.478,8.934A67.766,67.766,0,0,1,.55,26.6a.305.305,0,0,1-.239.113" transform="translate(48.126 44.161)"/><path class="an" d="M.7,2.548a.31.31,0,0,1-.3-.254L.046.367A.31.31,0,1,1,.656.256l.352,1.926a.312.312,0,0,1-.249.361A.274.274,0,0,1,.7,2.548" transform="translate(79.427 68.307)"/><path class="ao" d="M14.767,0,33.974,7.956,20.86,38.027,0,28.934Z" transform="translate(0 111.775)"/><path class="ao" d="M13.114,0,5.06,31.828,2.825,30.071H0L7.021,9.713Z" transform="translate(20.86 119.731)"/><path class="ap" d="M.31,27.139a.305.305,0,0,1-.123-.025.31.31,0,0,1-.162-.407L11.468,0l.579.215L5.029,22.474a.31.31,0,0,1-.59-.187L9.581,5.972.593,26.952a.308.308,0,0,1-.284.187" transform="translate(21.082 121.428)"/></g></g></g></svg>