<svg xmlns="http://www.w3.org/2000/svg" xmlns:xlink="http://www.w3.org/1999/xlink" width="50" height="50" viewBox="0 0 50 50">
  <defs>
    <clipPath id="clip-path">
      <rect id="Rectangle_1980" data-name="Rectangle 1980" width="50" height="50" transform="translate(1186.396 156.906)" fill="#fff"/>
    </clipPath>
  </defs>
  <g id="comissão_branco" data-name="comissão branco" transform="translate(-1186.396 -156.906)" clip-path="url(#clip-path)">
    <g id="money-bag" transform="translate(1186.139 157.121)">
      <g id="Group_531" data-name="Group 531" transform="translate(4.511 35.881)">
        <g id="Group_530" data-name="Group 530">
          <path id="Path_6686" data-name="Path 6686" d="M5.04,28.706,3.6,29.423a12.432,12.432,0,0,0,4.739,5.128l.829-1.381A10.822,10.822,0,0,1,5.04,28.706Z" transform="translate(-3.597 -28.706)" fill="#fff"/>
        </g>
      </g>
      <g id="Group_533" data-name="Group 533" transform="translate(3.391 32.884)">
        <g id="Group_532" data-name="Group 532">
          <path id="Path_6687" data-name="Path 6687" d="M4.293,26.316,2.7,26.583a12.3,12.3,0,0,0,.42,1.723l1.533-.492A10.56,10.56,0,0,1,4.293,26.316Z" transform="translate(-2.705 -26.316)" fill="#fff"/>
        </g>
      </g>
      <g id="Group_535" data-name="Group 535" transform="translate(13.69 23.354)">
        <g id="Group_534" data-name="Group 534">
          <path id="Path_6688" data-name="Path 6688" d="M18.971,24.353v-.4a3.616,3.616,0,0,0-3.221-3.583V18.716H14.14v1.652a3.614,3.614,0,0,0,.4,7.207h.805a2.013,2.013,0,0,1,0,4.027h-.805a2.016,2.016,0,0,1-2.013-2.013v-.4H10.918v.4A3.616,3.616,0,0,0,14.14,33.17v1.652H15.75V33.17a3.614,3.614,0,0,0-.4-7.207h-.805a2.013,2.013,0,1,1,0-4.027h.805a2.016,2.016,0,0,1,2.013,2.013v.4Z" transform="translate(-10.918 -18.716)" fill="#fff"/>
        </g>
      </g>
      <g id="Group_537" data-name="Group 537">
        <g id="Group_536" data-name="Group 536">
          <path id="Path_6689" data-name="Path 6689" d="M50.156,50.02l-2.013-8.053H42.5l-1.61-6.443H34.814a15.575,15.575,0,0,0-3.953-15.375l-3.233-3.233a2.387,2.387,0,0,0-.059-3.135,2.4,2.4,0,0,0-.581-3.685l1.529-2.549a3.328,3.328,0,0,0-2.854-5.04H25.51a3.321,3.321,0,0,0-2.769,1.482L22.4,4.5a.943.943,0,0,1-1.715-.368l-.3-1.784a2.707,2.707,0,0,0-5.34,0l-.3,1.782a.944.944,0,0,1-1.715.368l-.342-.515A3.323,3.323,0,0,0,9.924,2.506H9.771a3.327,3.327,0,0,0-2.854,5.04l1.529,2.549a2.4,2.4,0,0,0-.581,3.686,2.389,2.389,0,0,0-.06,3.136L4.572,20.15A15.6,15.6,0,0,0,15.081,46.771l-.812,3.249ZM16.333,48.409l1.208-4.832h5.185l1.208,4.832Zm6.442-6.443,1.209-4.832h5.185l1.208,4.832Zm4.783,6.443H25.593l-1.208-4.832h4.38Zm1.659,0,1.208-4.832h5.186l1.208,4.832Zm17.667-4.832,1.209,4.832H38.478L37.27,43.577Zm-7.248-6.443,1.209,4.832H32.036l-1.208-4.832ZM8.3,6.718a1.718,1.718,0,0,1,1.474-2.6h.153a1.712,1.712,0,0,1,1.429.765L11.7,5.4a2.554,2.554,0,0,0,4.643-1l.3-1.782a1.1,1.1,0,0,1,2.163,0l.3,1.783a2.554,2.554,0,0,0,4.643,1l.343-.515a1.713,1.713,0,0,1,1.429-.764h.153a1.717,1.717,0,0,1,1.473,2.6L25.314,9.754H10.12ZM25.77,14.586a.805.805,0,1,1,0,1.611H9.664a.805.805,0,0,1,0-1.611H12.08V12.975H9.664a.805.805,0,0,1,0-1.611H25.77a.805.805,0,1,1,0,1.611H13.69v1.611Zm-24.16,16.6a13.909,13.909,0,0,1,4.1-9.9l3.524-3.524a2.422,2.422,0,0,0,.428.043H25.77a2.422,2.422,0,0,0,.428-.043l3.524,3.524a13.949,13.949,0,0,1,3.4,14.236h-10.4l-1.61,6.443H16.283l-.8,3.215A14.013,14.013,0,0,1,1.611,31.188Z" transform="translate(0 -0.09)" fill="#fff"/>
        </g>
      </g>
    </g>
  </g>
</svg>
