<svg xmlns="http://www.w3.org/2000/svg" xmlns:xlink="http://www.w3.org/1999/xlink" width="25" height="25" viewBox="0 0 25 25">
  <defs>
    <clipPath id="clip-path">
      <rect id="Rectangle_1956" data-name="Rectangle 1956" width="25" height="25" transform="translate(572 771)" fill="#5e5e5e" stroke="#707070" stroke-width="1"/>
    </clipPath>
  </defs>
  <g id="copy" transform="translate(-572 -771)" clip-path="url(#clip-path)">
    <path id="copy-2" data-name="copy" d="M13.232,25H3.906A3.911,3.911,0,0,1,0,21.094V7.861A3.911,3.911,0,0,1,3.906,3.955h9.326a3.911,3.911,0,0,1,3.906,3.906V21.094A3.911,3.911,0,0,1,13.232,25ZM3.906,5.908A1.955,1.955,0,0,0,1.953,7.861V21.094a1.955,1.955,0,0,0,1.953,1.953h9.326a1.955,1.955,0,0,0,1.953-1.953V7.861a1.955,1.955,0,0,0-1.953-1.953ZM21.045,18.652V3.906A3.911,3.911,0,0,0,17.139,0H6.3a.977.977,0,0,0,0,1.953h10.84a1.955,1.955,0,0,1,1.953,1.953V18.652a.977.977,0,0,0,1.953,0Zm0,0" transform="translate(573.978 771)" fill="#5e5e5e"/>
  </g>
</svg>
