<svg xmlns="http://www.w3.org/2000/svg" xmlns:xlink="http://www.w3.org/1999/xlink" width="357.854" height="284.467" viewBox="0 0 357.854 284.467"><defs><style>.a{fill:#ccedff;}.b{fill:#188eee;}.c{clip-path:url(#a);}.d{fill:#ffa080;}.d,.e,.f,.g,.h,.i,.j,.k,.l,.m,.n,.p,.q,.r,.s,.t{fill-rule:evenodd;}.e{fill:#dd8568;}.f{fill:#010165;}.g{fill:#050082;}.h{fill:#342dec;}.i{fill:#4052f2;}.j{fill:#ffa70a;}.k{fill:#ff870a;}.l{fill:#f6b546;}.m{fill:#9fd7fd;}.n{fill:#41467f;}.o,.p{fill:#6184f6;}.q{fill:#83c2f5;}.r{fill:#cff1f9;}.s{fill:#f50;}.t{fill:#fff;}</style><clipPath id="a"><rect width="318.941" height="284.467"/></clipPath></defs><g transform="translate(-379.503 -271.863)"><path class="a" d="M1158.945,978.992c-13.2-18.059-24.707-47.6-27.76-71.114-11.551-88.983,77.262-144.46,137.534-160.532q7.9-2.1,15.919-3.459c20.672-3.471,47.1-5.507,65.33,9.03,11.35,9.055,14.014,22.852,11.088,38.074-3.573,18.577-5.488,38.873,6.524,54.018,12.8,16.138,33.382,14.543,49.526,23.175a59.748,59.748,0,0,1,28.991,34.834c10.223,33.354-32.021,67.284-55.24,75.974Z" transform="translate(-710.309 -457.305)"/><g transform="translate(379.503 271.863)"><g transform="translate(15.889)"><ellipse class="b" cx="118.813" cy="7.911" rx="118.813" ry="7.911" transform="translate(53.566 245.741)"/></g><g transform="translate(0 29.127)"><path class="d" d="M19.613,5.473S16.2-.334,14.156.015c-2.019.349-1.271,1.121-6.8.274A6.661,6.661,0,0,0,0,4.376S10.193,7.841,11.713,9.834,19.613,5.473,19.613,5.473Z" transform="translate(34.316 23.981)"/><path class="d" d="M1.423,13.106S-.321,7.9.052,6.3,1.971,5.48,1.971,5.48,2.968-.4,7.155.022C11.342.47,10.819,4.981,8.8,8.744a11.345,11.345,0,0,0-1.371,7.078Z" transform="translate(112.717 0)"/><g transform="translate(79.936 30.987)"><path class="d" d="M.026,10.143A24.251,24.251,0,0,0,5.11,22.5a17.752,17.752,0,0,0,7,5.134c4.959,2.043,7.6,1.744,8.9.623h0a3,3,0,0,0,.773-1.022A5.5,5.5,0,0,0,21.733,23c-.773-1.445-3.389-4.386-5.009-7.427-1.271-2.367,1.445-4.162,1.77-6.629a3.787,3.787,0,0,0-.424-2.293C16.126,2.841,9.2,0,9.2,0S-.572,5.209.026,10.143Z" transform="translate(0)"/></g><g transform="translate(83.873 39.921)"><path class="e" d="M1.184,13.557a17.751,17.751,0,0,0,7,5.134c4.959,2.044,7.6,1.745,8.9.623h0c.249-.349.523-.7.773-1.022a5.5,5.5,0,0,0-.05-4.237C17.034,12.61,14.417,9.67,12.8,6.629,11.526,4.262,14.243,2.467,14.567,0a4.886,4.886,0,0,0-.3.523c-2.766,5.832-12.561.8-12.561.8S-1.757,4.012,1.184,13.557Z" transform="translate(0)"/></g><path class="f" d="M4.089,0S-.1,23.551,0,24.523c.1.947,1.121,1.47,9.545,1.371,8.424-.125,10.068-.274,10.068-.274s1.57-2.044-.548-3.265c-2.118-1.246-7.526-3.315-7.9-6.53-.374-3.24,3.539-13.906,3.539-13.906Z" transform="translate(80.345 198.648)"/><path class="f" d="M0,2.991,4.087,15.8l26.691,8.723s2.941-1.371-.274-4.635-10.841-7.327-11.439-7.9S10.891,0,10.891,0Z" transform="translate(159.896 185.838)"/><g transform="translate(0 27.655)"><path class="f" d="M2.167,48.624C7.849,64.349,20.933,75.016,41.02,72.673a57.5,57.5,0,0,0,8.548-1.695C74.515,64.1,85.256,45.633,85.256,45.633l6.006-16.075a41.137,41.137,0,0,0-4.635-9.545c3.19-2.741,2.692-5.657,0-10.068a10.172,10.172,0,0,0,2.716-6.529,8.8,8.8,0,0,0-5.283-.424,7.624,7.624,0,0,0-.947.249,5.2,5.2,0,0,0-.573.2c-.025-.025-.05-.025-.1-.05-8.2-4.436-13.532-4.062-17.1-1.5A13.437,13.437,0,0,0,62.1,5.36c-2.567,3.888-6.255,2.417-10.941,1.2a28.953,28.953,0,0,0-4.86-.922c-6.978-.623-10.093,7.177-10.068,12.536A8.735,8.735,0,0,1,33.519,24.2c-2.966,2.941-8.349,4.486-16,1.221l-.374-.15C4.634,19.615-4.313,30.78,2.167,48.624Z" transform="translate(0 0.029)"/><g transform="translate(0 0)"><path class="g" d="M.947,0A7.638,7.638,0,0,0,0,.249C.324.174.648.075.947,0Z" transform="translate(83.113 2.996)"/><path class="g" d="M0,1.874a15.417,15.417,0,0,1,5.209.748A23.168,23.168,0,0,0,17.1,3.395C8.9-1.041,3.564-.668,0,1.874Z" transform="translate(65.344 0)"/><path class="g" d="M9.5,9.555a22.128,22.128,0,0,1,8.149-8.6,28.961,28.961,0,0,0-4.86-.922C5.807-.588,2.692,7.213,2.716,12.571A8.734,8.734,0,0,1,0,18.6C5.283,17.256,7.053,14.54,9.5,9.555Z" transform="translate(33.544 5.603)"/><path class="g" d="M2.167,24.859C7.849,40.584,20.933,51.251,41.02,48.908c-3.04-1.77-1.944-4.935-2.891-8.5C36.858,35.625,26.017,34.5,17.967,26.5c-7.6-7.526-13.906-23.152-.449-24.9l-.374-.15C4.634-4.15-4.313,7.015,2.167,24.859Z" transform="translate(0 23.794)"/></g></g><g transform="translate(83.586 99.734)"><path class="h" d="M.025,101.9s7.551,5.732,10.891,2.168c7.377-17.52,11.364-29.806,13.607-38.4h0c.2-.723.374-1.445.523-2.118l.224-.972c.648-2.766,1.1-5.084,1.445-7,1.346-7.825,3.24-26.841,3.265-27.239h0l46.3,62.653s10.268,4.262,12.536-2.717c-.15-.274-.3-.573-.449-.847C66.79,45.432,44.136,0,44.136,0L16.05,7.626h0L0,11.987S2.093,44.759,2.716,57.22C3.389,69.656.025,101.9.025,101.9Z" transform="translate(0)"/><g transform="translate(0.032 7.633)"><g transform="translate(25.296 97.594) rotate(180)"><path class="i" d="M.245.061V0C.153.337.092.675,0,.981A2.828,2.828,0,0,0,.245.061Z" transform="translate(0 41.667)"/><path class="i" d="M24.468,3.34S16.925-2.393,13.583,1.163C6.193,18.671,2.207,30.967,0,39.552c2.882-7.727,13.368-2.146,11.988,13.062C10.517,68.956,8.462,97.257,8.432,97.594L24.468,93.24s-2.085-32.777-2.729-45.226S24.468,3.34,24.468,3.34Z" transform="translate(0.828 0)"/></g><g transform="translate(88.827 84.656) rotate(180)"><path class="i" d="M58.84,63.928h0L12.541,1.287S2.269-2.976,0,4.015c.153.276.306.583.429.859C2.361,2.912,8.217-.093,19.685,17.047,34.157,38.663,50.868,65.4,53.474,72.054a17.4,17.4,0,0,1,0,12.479l3.005-1.686L58.84,63.928Z" transform="translate(0 0)"/></g></g></g><g transform="translate(44.1 11.728)"><g transform="translate(0 0)"><path class="j" d="M37.084,65.962a34.346,34.346,0,0,1-1.645,13.333,35.57,35.57,0,0,0-1.894,8.424h0c-.474,4.411-.125,8.748,1.346,11.19,2.442,4.087,10.791,6.355,22.6,1.645a30.288,30.288,0,0,1,8.174-2.193c5.308-.548,7.925,1.271,13.333,0,7.626-1.769,7.377-8.3,6.8-11.987s-5.857-6.928-12.262-13.632a21.988,21.988,0,0,1-6.006-14.978v-.025a78.67,78.67,0,0,0,8.448-15.626h0c6.579-16.722,3.639-29.856.523-40.722C74.142-1.377,69.158.841,69.158.841l-.274,17.171S65.1,27.458,60.709,37.352a16.892,16.892,0,0,1-3.265,5.034s2.293,9.969-10.617,1.794H46.8a10.628,10.628,0,0,0-5.134-.274S26.392,30.972,10.891,17.763a8.815,8.815,0,0,0-6.554-.2A9.5,9.5,0,0,0,0,21.053c1.769,4.486,20.211,23.4,25.345,29.956,5.134,6.53,11.738,14.928,11.738,14.953Z" transform="translate(0 0)"/></g><g transform="translate(0.02 17.489)"><g transform="translate(33.302 62.899)"><path class="k" d="M1.563,18.52c2.442,4.087,10.791,6.355,22.6,1.645a30.285,30.285,0,0,1,8.174-2.193c-2.916-3.115-4.81-7.377-7.377-11.987-4.511-8.075-8.4-8.324-13.358,1.371C7.993,14.408,3.183,11.692.168,7.33-.256,11.742.093,16.053,1.563,18.52Z" transform="translate(0 0)"/></g><g transform="translate(0 0)"><path class="k" d="M0,3.514C1.769,8,20.212,26.915,25.345,33.47c5.134,6.579,11.713,14.978,11.713,14.978v.025c2.542,1.944,5.009,3.838,6.255,4.611,3.09,1.969,8.274-2.816,2.168-8.723-6.081-5.881-9.4-10.592-15.526-17.445C25.2,21.607,10.642,6.529,4.311,0A9.66,9.66,0,0,0,0,3.514Z" transform="translate(0)"/></g><g transform="translate(76.615 40.249) rotate(180)"><path class="k" d="M11.954,10.026A23.548,23.548,0,0,1,9.041,0,78.672,78.672,0,0,0,.579,15.637h0c-.153.828-2.023,11.682,1.9,7.788C6.588,19.378,11.954,10.026,11.954,10.026Z" transform="translate(0)"/></g></g></g></g><g transform="translate(172.396 124.194)"><g transform="translate(117.13 0)"><path class="l" d="M341.988,56.042a2.514,2.514,0,0,0-2.454,2.454c0,5.323-.042,10.688,0,16.011a2.543,2.543,0,0,0,2.454,2.454c5.531.042,11.02.042,16.551,0a2.543,2.543,0,0,0,2.454-2.454c.042-5.323.042-10.688,0-16.011a2.543,2.543,0,0,0-2.454-2.454C353.05,55.959,347.519,56,341.988,56.042Zm16.51.582a1.918,1.918,0,0,1,1.871,1.871c0,5.323.042,10.646,0,16.011a1.948,1.948,0,0,1-1.871,1.871c-5.489,0-11.02.042-16.51,0a1.948,1.948,0,0,1-1.871-1.871c0-5.323-.042-10.646,0-16.011a1.948,1.948,0,0,1,1.871-1.871Z" transform="translate(-339.516 -55.994)"/><path class="l" d="M367.474,78.841a.672.672,0,0,0-.665-.582h-4.575a.672.672,0,0,0-.665.582c-.291,1.622-1.123,6.238-1.456,8.151a.52.52,0,0,0,.166.541.671.671,0,0,0,.541.25h7.444a.732.732,0,0,0,.541-.25.914.914,0,0,0,.166-.541C368.6,85.079,367.765,80.463,367.474,78.841Z" transform="translate(-353.773 -71.432)"/><path class="l" d="M370.033,72.291a2.24,2.24,0,0,0-2.079,1.5,2.307,2.307,0,0,0-.125.707.492.492,0,0,0,.665.374.682.682,0,0,0,.291-.457,1.348,1.348,0,0,1,.915-1.164,1.264,1.264,0,0,1,1.206.291,1.29,1.29,0,0,1,.374.915.6.6,0,0,0,.083.291.472.472,0,0,0,.665.083.625.625,0,0,0,.166-.457,2.2,2.2,0,0,0-2.079-2.079Z" transform="translate(-359.368 -67.294)"/></g><path class="f" d="M814.414,996.338a9.315,9.315,0,1,0,9.315,9.315A9.3,9.3,0,0,0,814.414,996.338Z" transform="translate(-715.564 -882.676)"/><path class="f" d="M798.835,762.746h0l-22.29-79.18a2.357,2.357,0,0,0-1.331-1.414,2.709,2.709,0,0,0-1-.083,2.106,2.106,0,0,0-1.788,2.121,2.08,2.08,0,0,0,.083.5l22.29,79.18,5.573,20.253a3.141,3.141,0,0,0,.541.956,1.99,1.99,0,0,0,.956.541c.166.042.374.042.541.083h47.907a2.232,2.232,0,0,0,1.955-1.372,2.179,2.179,0,0,0-1.456-2.786,2.02,2.02,0,0,0-.5-.042H803.95l-5.115-18.755Z" transform="translate(-734.21 -664.762)"/><path class="f" d="M1006.375,685.02a1.607,1.607,0,0,1,.458-1.123,1.51,1.51,0,0,1,1.081-.457h35.639a1.51,1.51,0,0,1,1.081.457,1.606,1.606,0,0,1,.457,1.123v.957a1.606,1.606,0,0,1-.457,1.123,1.51,1.51,0,0,1-1.081.457h-35.639a1.51,1.51,0,0,1-1.081-.457,1.606,1.606,0,0,1-.458-1.123Z" transform="translate(-998.64 -665.718)"/><path class="m" d="M1060.22,685.02a1.775,1.775,0,0,1,.416-1.123,1.489,1.489,0,0,1,1.04-.457h15.678a1.418,1.418,0,0,1,1.04.457,1.569,1.569,0,0,1,.416,1.123v.957a1.774,1.774,0,0,1-.416,1.123,1.489,1.489,0,0,1-1.04.457h-15.678a1.351,1.351,0,0,1-1.04-.457,1.57,1.57,0,0,1-.416-1.123Z" transform="translate(-1048.867 -665.718)"/><path class="m" d="M879.465,683.519a2.106,2.106,0,0,0-1.788,2.121,2.1,2.1,0,0,0,.083.5l24.37,89.41a15.69,15.69,0,0,0,15.1,11.561h37.469a2.233,2.233,0,0,0,1.955-1.372,2.179,2.179,0,0,0-1.456-2.786,2.023,2.023,0,0,0-.5-.042c-12.517,0-24.993.042-37.511,0a11.814,11.814,0,0,1-10.979-8.442l-24.37-89.41A2.551,2.551,0,0,0,880.5,683.6,2.217,2.217,0,0,0,879.465,683.519Z" transform="translate(-870.857 -665.755)"/><path class="n" d="M666.558,846.644c-.333.166-.457.166-.707.5a1.713,1.713,0,0,0,.333,2.37,1.5,1.5,0,0,0,.832.249h92.945a1.5,1.5,0,0,0,.832-.249A1.583,1.583,0,0,0,760,846.6H667.057C666.849,846.6,666.683,846.644,666.558,846.644Z" transform="translate(-610.5 -778.852)"/><path class="n" d="M679.986,898.59c-.333.166-.457.166-.707.5a1.713,1.713,0,0,0,.333,2.37,1.5,1.5,0,0,0,.832.25H757a1.5,1.5,0,0,0,.832-.25,1.583,1.583,0,0,0-.79-2.911h-76.6C680.277,898.549,680.11,898.59,679.986,898.59Z" transform="translate(-611.659 -814.871)"/><rect class="o" width="31.314" height="44.414" transform="translate(63.906 104.268) rotate(-157.014)"/><path class="p" d="M949.743,760.613a8.308,8.308,0,0,0-8.109,7.735v4.7a1.247,1.247,0,0,0,2,.915,1.35,1.35,0,0,0,.416-.749v-.166c0-1.58-.083-3.119,0-4.7a5.79,5.79,0,0,1,3.576-4.949,5.951,5.951,0,0,1,6.57,1.705,5.761,5.761,0,0,1,1.289,3.535v4.408a1.3,1.3,0,0,0,1.58,1.164,1.157,1.157,0,0,0,.832-1v-.166c0-2.412.291-4.907-.458-7.07a8.326,8.326,0,0,0-7.693-5.365Z" transform="translate(-891.647 -719.228)"/><path class="f" d="M742.31,730.91h44.206l3.992,72.277H738.234Zm37.968,10.022a2.5,2.5,0,1,0-2.5-2.5A2.45,2.45,0,0,0,780.278,740.932Z" transform="translate(-661.84 -698.633)"/><path class="m" d="M1097.247,685.02a1.775,1.775,0,0,1,.416-1.123,1.489,1.489,0,0,1,1.04-.457h15.678a1.351,1.351,0,0,1,1.039.457,1.569,1.569,0,0,1,.416,1.123v.957a1.774,1.774,0,0,1-.416,1.123,1.488,1.488,0,0,1-1.039.457H1098.7a1.351,1.351,0,0,1-1.04-.457,1.571,1.571,0,0,1-.416-1.123Z" transform="translate(-1097.247 -665.718)"/><path class="m" d="M943.4,996.338a9.315,9.315,0,1,0,9.315,9.315A9.3,9.3,0,0,0,943.4,996.338Z" transform="translate(-884.096 -882.676)"/><g transform="translate(53.605 117.321)"><path class="p" d="M950.225,1008.273a5.7,5.7,0,1,0,5.7,5.7A5.706,5.706,0,0,0,950.225,1008.273Z" transform="translate(-944.527 -1008.273)"/></g><path class="q" d="M651.342,854.718a2.257,2.257,0,0,0-2.079,1.872,2.181,2.181,0,0,0,1.58,2.329,2.023,2.023,0,0,0,.5.042c16.676,0,33.352.042,50.028,0a12.35,12.35,0,0,0,11.478-8.442l.125-.374,11.686-40.755a1.869,1.869,0,0,0,.042-.956,2.17,2.17,0,0,0-1.123-1.5,1.8,1.8,0,0,0-.956-.208H667.769c-.166,0-.333.042-.5.042a2.37,2.37,0,0,0-1.456,1.289,2.155,2.155,0,0,0,1,2.62,2.092,2.092,0,0,0,1,.249H684.9L681.991,822.7h-13.1l-.416.042a1.6,1.6,0,0,0-.707.458,1.565,1.565,0,0,0,.333,2.246,1.936,1.936,0,0,0,.832.25h12.31L678.082,838.5H664.4l-.416.042a1.605,1.605,0,0,0-.707.458,1.565,1.565,0,0,0,.333,2.246,1.935,1.935,0,0,0,.832.25h12.933l-3.244,13.224H651.342Zm29.069-13.224h15.3l-3.244,13.224h-15.3Zm30.649,0c-.707,2.5-1.455,4.99-2.162,7.527a8.064,8.064,0,0,1-7.569,5.7H695.59l3.244-13.224Zm4.533-15.8c-1.206,4.283-2.454,8.525-3.66,12.809H699.582l3.161-12.809Zm-31.314,0h15.3L696.422,838.5h-15.3Zm22.082-14.763h13.432c-1.123,3.909-2.246,7.818-3.368,11.769H703.45Zm-18.423,0h15.3L700.331,822.7h-15.3Z" transform="translate(-568.794 -751.203)"/><path class="m" d="M815.248,802.741l-.166-.541a2.357,2.357,0,0,0-1.331-1.414,2.046,2.046,0,0,0-1-.083,2.7,2.7,0,0,0-.957.374,2.162,2.162,0,0,0-.832,1.247,2.011,2.011,0,0,0,.042,1l10.979,39.923a15.777,15.777,0,0,0,15.179,11.519h37.261c1.081,0,2.2.042,3.285,0h2.869a2.446,2.446,0,0,0,1.83-1.04,13.089,13.089,0,0,0,7.4-8.276l11.519-39.964a1.871,1.871,0,0,0,.042-.957,2.17,2.17,0,0,0-1.123-1.5,1.8,1.8,0,0,0-.956-.208H815.248Zm23.205,47.783L831.3,821.663h17.217l7.153,28.9C849.931,850.565,844.193,850.565,838.454,850.524Zm20.336.042-7.153-28.9h16.51l7.153,28.861h-.915C869.186,850.524,863.987,850.524,858.789,850.565Zm12.476-28.9h16.3l1.83,7.444a1.226,1.226,0,0,0,.333.624c.042.042.083.125.166.166-1.372,4.824-2.786,9.606-4.159,14.43a8.973,8.973,0,0,1-7.319,6.155Zm-50.818,0h7.735l7.111,28.694a11.813,11.813,0,0,1-9.232-8.276Zm70.239,0h1.58l-.832,2.953Zm-74.273-14.722h8.109l2.911,11.686h-7.818Zm11.228,0h17.217l2.911,11.686H830.552Zm20.336,0h16.51l2.911,11.686h-16.51Zm19.629,0h16.3l2.911,11.686h-16.3Zm19.421,0h9.44c-1.123,3.909-2.246,7.777-3.369,11.686h-3.2Z" transform="translate(-795.038 -747.009)"/><path class="r" d="M844.613,908.94c-.333.166-.457.166-.707.5a1.713,1.713,0,0,0,.333,2.371,1.5,1.5,0,0,0,.832.249h67a1.678,1.678,0,0,0,1.5-1.83,1.659,1.659,0,0,0-.665-1.123,1.5,1.5,0,0,0-.832-.25H845.029C844.9,908.9,844.78,908.9,844.613,908.94Z" transform="translate(-817.208 -822.018)"/><g transform="translate(69.532 3.624)"><path class="s" d="M802.251,642.826a5.348,5.348,0,0,1,1.539-3.784,5.291,5.291,0,0,1,3.743-1.58h28.944a5.291,5.291,0,0,1,3.743,1.58,5.348,5.348,0,0,1,1.539,3.784v31.605a5.347,5.347,0,0,1-1.539,3.784,5.291,5.291,0,0,1-3.743,1.58H807.533a5.29,5.29,0,0,1-3.743-1.58,5.348,5.348,0,0,1-1.539-3.784Z" transform="translate(-802.251 -637.461)"/><path class="t" d="M822.068,688.377a.676.676,0,0,1-.278-.04,2.518,2.518,0,0,1-1.829-3.141,2.748,2.748,0,0,1,.4-.755l.2-.2,20.792-20.793a2.564,2.564,0,0,1,3.459,0,2.526,2.526,0,0,1,.2,3.22l-.2.2-20.793,20.793A2.356,2.356,0,0,1,822.068,688.377Z" transform="translate(-813.247 -654.664)"/><path class="t" d="M830.8,669.606a3.459,3.459,0,1,1,3.459-3.459A3.461,3.461,0,0,1,830.8,669.606Z" transform="translate(-804.208 -635.853)"/><path class="t" d="M890.072,729.012a3.459,3.459,0,1,1,3.459-3.459A3.461,3.461,0,0,1,890.072,729.012Z" transform="translate(-880.854 -712.673)"/></g></g></g></g></svg>