<svg xmlns="http://www.w3.org/2000/svg" xmlns:xlink="http://www.w3.org/1999/xlink" width="50" height="50" viewBox="0 0 50 50">
  <defs>
    <clipPath id="clip-path">
      <rect id="Rectangle_2101" data-name="Rectangle 2101" width="50" height="50" transform="translate(1441 140)" fill="#fff" stroke="#707070" stroke-width="1"/>
    </clipPath>
  </defs>
  <g id="Mask_Group_33" data-name="Mask Group 33" transform="translate(-1441 -140)" clip-path="url(#clip-path)">
    <g id="sale" transform="translate(1441 140.184)">
      <path id="Path_7063" data-name="Path 7063" d="M20.121,21.552l0,.032a5.4,5.4,0,0,0,3.08,5.148l.02.01a3.628,3.628,0,0,1,1.643,1.58l.008.015a5.639,5.639,0,0,0,5.3,2.957l.034,0a3.859,3.859,0,0,1,2.281.593,5.784,5.784,0,0,0,6.135,0,3.859,3.859,0,0,1,2.281-.593l.034,0a5.642,5.642,0,0,0,5.3-2.96l.005-.01a3.635,3.635,0,0,1,1.648-1.584l.016-.008a5.4,5.4,0,0,0,3.08-5.149l0-.03a3.453,3.453,0,0,1,.6-2.14,5.309,5.309,0,0,0,0-6,3.453,3.453,0,0,1-.6-2.139l0-.032A5.4,5.4,0,0,0,47.9,6.09l-.018-.009a3.625,3.625,0,0,1-1.641-1.575l-.01-.02a5.643,5.643,0,0,0-5.3-2.957l-.034,0a3.856,3.856,0,0,1-2.28-.593h0a5.784,5.784,0,0,0-6.135,0,3.862,3.862,0,0,1-2.281.593l-.034,0a5.639,5.639,0,0,0-5.3,2.957l-.008.014a3.631,3.631,0,0,1-1.645,1.583L23.2,6.09a5.4,5.4,0,0,0-3.08,5.149l0,.03a3.451,3.451,0,0,1-.6,2.14,5.309,5.309,0,0,0,0,6,3.45,3.45,0,0,1,.6,2.14Zm.932-7.087a5.322,5.322,0,0,0,.927-3.3l0-.032a3.539,3.539,0,0,1,2.033-3.366l.016-.008a5.481,5.481,0,0,0,2.483-2.39l.009-.017a3.775,3.775,0,0,1,3.552-1.964H30.1a5.7,5.7,0,0,0,3.374-.877,3.912,3.912,0,0,1,4.15,0A5.716,5.716,0,0,0,41,3.389l.033,0a3.769,3.769,0,0,1,3.55,1.96l.012.023a5.481,5.481,0,0,0,2.48,2.387l.015.008a3.54,3.54,0,0,1,2.035,3.367l0,.033a5.321,5.321,0,0,0,.928,3.3,3.438,3.438,0,0,1,0,3.89,5.327,5.327,0,0,0-.927,3.3l0,.031a3.541,3.541,0,0,1-2.035,3.368l-.014.006a5.488,5.488,0,0,0-2.485,2.394l-.007.014a3.773,3.773,0,0,1-3.552,1.964l-.032,0a5.714,5.714,0,0,0-3.375.877,3.913,3.913,0,0,1-4.149,0,5.7,5.7,0,0,0-3.058-.886q-.157,0-.316.009h-.033a3.771,3.771,0,0,1-3.553-1.965l-.01-.018a5.475,5.475,0,0,0-2.479-2.386l-.017-.009a3.539,3.539,0,0,1-2.035-3.367l0-.033a5.326,5.326,0,0,0-.928-3.3,3.438,3.438,0,0,1,0-3.889Zm0,0" transform="translate(-5.312 -0.056)" fill="#fff"/>
      <path id="Path_7064" data-name="Path 7064" d="M33.754,28.669a.931.931,0,0,0,1.282-.3L46.063,10.706a.931.931,0,1,0-1.58-.986L33.457,27.386a.931.931,0,0,0,.3,1.283Zm0,0" transform="translate(-9.519 -2.69)" fill="#fff"/>
      <path id="Path_7065" data-name="Path 7065" d="M33.668,19.267a4.433,4.433,0,0,0,4.111-4.688,4.433,4.433,0,0,0-4.111-4.688,4.433,4.433,0,0,0-4.111,4.688A4.433,4.433,0,0,0,33.668,19.267Zm0-7.514a2.591,2.591,0,0,1,2.25,2.826,2.591,2.591,0,0,1-2.25,2.826,2.591,2.591,0,0,1-2.249-2.826A2.591,2.591,0,0,1,33.668,11.753Zm0,0" transform="translate(-8.445 -2.866)" fill="#fff"/>
      <path id="Path_7066" data-name="Path 7066" d="M43.608,27.579a4.433,4.433,0,0,0,4.111,4.688,4.433,4.433,0,0,0,4.111-4.688,4.433,4.433,0,0,0-4.111-4.688A4.432,4.432,0,0,0,43.608,27.579Zm6.36,0a2.591,2.591,0,0,1-2.25,2.826,2.591,2.591,0,0,1-2.249-2.826,2.591,2.591,0,0,1,2.249-2.826A2.59,2.59,0,0,1,49.968,27.579Zm0,0" transform="translate(-12.459 -6.581)" fill="#fff"/>
      <path id="Path_7067" data-name="Path 7067" d="M49.879,48.855a4.7,4.7,0,0,0-6.21-1.893l-7.292,3.445a5.94,5.94,0,0,0-5.064-3.124L24.582,47.1a7.116,7.116,0,0,1-3.06-.79l-.685-.355a12.082,12.082,0,0,0-11.191.012l.043-1.552a.931.931,0,0,0-.9-.956l-7.382-.2a.931.931,0,0,0-.956.9L0,60.358a.931.931,0,0,0,.9.956l7.382.2h.026a.932.932,0,0,0,.93-.905l.021-.775,1.918-1.027a3.291,3.291,0,0,1,2.455-.269l11.451,3.214.06.015a12.26,12.26,0,0,0,2.517.26A12.42,12.42,0,0,0,32.855,60.9a.913.913,0,0,0,.115-.063l16.6-10.74a.93.93,0,0,0,.305-1.24ZM1.887,59.478l.395-14.338,5.521.152L7.408,59.63Zm30.129-.244a10.551,10.551,0,0,1-6.455.72l-11.421-3.2a5.145,5.145,0,0,0-3.837.42l-.98.525.263-9.533a10.232,10.232,0,0,1,10.395-.555l.685.355a8.986,8.986,0,0,0,3.865,1l6.732.185a4.082,4.082,0,0,1,3.88,3.253l-10.027-.276a.931.931,0,0,0-.051,1.861l11.066.3h.026a.932.932,0,0,0,.93-.905A5.94,5.94,0,0,0,37,52.174l7.478-3.534.022-.01a2.843,2.843,0,0,1,3.216.45Zm0,0" transform="translate(0 -12.398)" fill="#fff"/>
    </g>
  </g>
</svg>
