<svg xmlns="http://www.w3.org/2000/svg" xmlns:xlink="http://www.w3.org/1999/xlink" width="25" height="25" viewBox="0 0 25 25"><defs><style>.a{fill:#fff;}.b{clip-path:url(#a);}</style><clipPath id="a"><rect class="a" width="25" height="25" transform="translate(1349 460)"/></clipPath></defs><g class="b" transform="translate(-1349 -460)"><g transform="translate(1349 460)"><path class="a" d="M22.07,3.32H2.93A2.933,2.933,0,0,0,0,6.25v12.5a2.933,2.933,0,0,0,2.93,2.93H22.07A2.933,2.933,0,0,0,25,18.75V6.25A2.933,2.933,0,0,0,22.07,3.32Zm.977,15.43a.978.978,0,0,1-.977.977H2.93a.978.978,0,0,1-.977-.977V6.25a.978.978,0,0,1,.977-.977H22.07a.978.978,0,0,1,.977.977Z"/><path class="a" d="M22.881,4.538,12.5,12.259,2.119,4.538.953,6.105,12.5,14.694,24.047,6.105Z"/></g></g></svg>