<svg xmlns="http://www.w3.org/2000/svg" width="341.889" height="225.998" viewBox="0 0 341.889 225.998"><defs><style>.a{fill:#83c2f5;}.a,.b,.c,.d,.e,.f,.g,.h,.i,.j,.k,.l,.m,.o,.p,.q,.r{fill-rule:evenodd;}.b{fill:#faaa6d;}.c{fill:#e18462;}.e{fill:#010165;}.f{fill:#050082;}.g{fill:#4052f2;}.h{fill:#ea9f66;}.i{fill:#9fd7fd;}.j{fill:#342dec;}.k{fill:#fff;}.l{fill:#fffefe;}.m{fill:#41467f;}.n,.o{fill:#6184f6;}.p{fill:#f50;}.q{fill:#f6b546;}.r{fill:#f5f4ff;}.s{fill:#e1ff00;}.t{fill:#ff9cec;}.u{fill:#66b3ff;}.v{fill:#ff6672;}.w{fill:#45e5b6;}.x{fill:#ffa70a;}</style></defs><g transform="translate(-774.842 -90.295)"><g transform="translate(788.166 299.201)"><path class="a" d="M1073.8,1062.56c0,4.73,78.065,8.532,174.361,8.532,39.032,0,75.071-.619,104.127-1.689,1.844-3.182,11.959.285,22.273-5.049,0-11.738-16.2-7.143-15.712-8.41-7.619-.31-15.782-.591-24.429-.817-25.427-.7-54.875-1.126-86.258-1.126C1151.865,1054,1073.8,1057.829,1073.8,1062.56Z" transform="translate(-1073.8 -1054)"/></g><g transform="translate(807.487 135.166)"><g transform="translate(119.14)"><path class="b" d="M1290.106,497.4s7.152,11.713,10.052,5.744c2.928-5.969,4.7-3.717,8.306-2.393a5.7,5.7,0,0,0,.929.253c3.21.535,5.857-2.506,6.251-10.587a25.231,25.231,0,0,0-3.886-14.332c-.338-.507-.535-.788-.535-.788-1.239-2.816-10.925-5.8-15.515-1.887-4.562,3.914-4.449,7.8-2.872,13.769a10.4,10.4,0,0,1,.338,2.2,8.952,8.952,0,0,1-.113,1.971A11.745,11.745,0,0,1,1290.106,497.4Z" transform="translate(-1290.106 -471.503)"/><g transform="translate(0)"><path class="c" d="M1312.4,543s7.152,11.713,10.052,5.744c2.928-5.969,4.7-3.717,8.306-2.393a5.7,5.7,0,0,0,.929.253,4.566,4.566,0,0,1-2.45-2.562c-2.422-5.519-3.294-6.927-6.5-7.968a26.215,26.215,0,0,0-7.293-1.07,8.951,8.951,0,0,1-.113,1.971A11.573,11.573,0,0,1,1312.4,543Z" transform="translate(-1312.4 -517.101)"/><path class="d" d="M1305.075,487.106a10.169,10.169,0,0,1,.225,4.167h0c3.463,2.675,5.434,2.928,5.857,2.2s1.549-3.125,1.549-3.125-1.886-.7-2.252-2.253,1.3-5.237,3.773-3.463,2.506,0,2.7-3.6c.2-3.632,1.915-3.182,4.28-3.182a2.451,2.451,0,0,0,2.788-1.858c-.338-.507-.535-.788-.535-.788-1.239-2.816-10.925-5.8-15.515-1.887C1303.385,477.223,1303.526,481.137,1305.075,487.106Z" transform="translate(-1302.372 -471.431)"/></g></g><g transform="translate(0 64.594)"><path class="e" d="M1510.255,808.161c1.492,2.844,5.1,3.21,7.152,3.21h5.8c1.3-.788-.366-3.323-2.985-3.97-2.619-.619-3.069-4.449-2.816-8.25a5.15,5.15,0,0,1,1.07-3.463c1.3-1.408,4.224-2.224,11.122-3.069,9.6-1.154,24.694-3.829,34.661-11.6a28.441,28.441,0,0,0,4.759-4.618c7.068-8.729,15.824-31.029,19.541-40.912,1.126-3.013,1.774-4.871,1.774-4.871s-.056-.873-.225-2.281c-.45-4.336-1.746-13.966-4.477-20.583-2.59-6.223-6.476-9.8-12.22-3.942h0c-12.727,13.037-15.543,51.7-24.074,60.228a5.476,5.476,0,0,1-2.45,1.521c-10.587,2.9-16.359,9.742-23.68,12.417a59.441,59.441,0,0,0-11.122,5.125h0a24.678,24.678,0,0,0-2.844,2.084,19.193,19.193,0,0,0-1.718,1.661C1504.821,792.843,1508.763,805.317,1510.255,808.161Z" transform="translate(-1506.588 -700.835)"/><path class="f" d="M1499.388,848.326a28.432,28.432,0,0,0,4.759-4.618c7.068-8.729,15.824-31.029,19.541-40.912,1.521.732,3.069,1.464,4.618,2.168.929-5.237-.648-7.969-3.069-9.32-4.308-2.422-11.291-.422-11.291-.422s-.2.788-.591,2.084c-1.323,4.561-4.815,15.627-9.376,23.37C1498.093,830.671,1490.772,847.115,1499.388,848.326Z" transform="translate(-1441.688 -768.088)"/><path class="f" d="M1651.889,946.6a6.7,6.7,0,0,0,3.379,1.38,2.969,2.969,0,0,0,1.014-.084c6-1.633,19.119-4.674,29-10.474,6.7-3.914,7.124-9.067,6.7-12.023a5.475,5.475,0,0,1-2.45,1.521c-10.587,2.9-16.359,9.742-23.68,12.417a59.441,59.441,0,0,0-11.122,5.125h0A32.569,32.569,0,0,0,1651.889,946.6Z" transform="translate(-1649.263 -862.169)"/><path class="e" d="M1322.779,737.93c.31.2.648.422.986.62,2.816,1.633,6,3.266,9.32,4.871,1.521.732,3.069,1.464,4.618,2.168,14.135,6.476,29,11.995,28.608,13.206-.563,1.633-4.9,1.746-11.6,15.6-6.673,13.769-12.164,28.974-15.627,35.281-.028.056-.056.084-.084.141-3.463,6.251-5.913,9.686,0,9.433s27.313,0,27.313,0,.2-2.534-3.351-3.717c-3.548-1.154-9.461-3.632-9.855-4.674s18.809-25.313,24.637-33.169c.789-1.07,1.689-2.224,2.647-3.491,6.138-8.081,14.135-19.851,2.647-30.044-8.222-7.321-23.934-17.373-36.942-23.342-6.364-2.928-12.079-4.9-15.937-5.1a7.743,7.743,0,0,0-2.506.2l-9.714-4.111h0C1317.795,712.025,1308.644,728.779,1322.779,737.93Z" transform="translate(-1251.14 -708.713)"/><path class="d" d="M1747.072,1018.2c1.492,2.844,5.1,3.21,7.152,3.21h5.8c1.3-.788-.366-3.323-2.984-3.97-2.619-.619-3.069-4.449-2.816-8.25a5.15,5.15,0,0,1,1.07-3.463,16.757,16.757,0,0,1-5.885-9.067,18.57,18.57,0,0,1-.535-3.463,24.677,24.677,0,0,0-2.844,2.084,19.191,19.191,0,0,0-1.718,1.661C1741.637,1002.886,1745.579,1015.36,1747.072,1018.2Z" transform="translate(-1743.404 -910.878)"/><g transform="translate(94.147 12.099)"><path class="f" d="M1320.068,745.483s1.8,7.574,19.231,18.668c17.4,11.066,14.332,14.36,10.474,19.654-3.492,4.787-3.857,14.388,5.406,13.881,6.138-8.081,14.135-19.851,2.675-30.044-8.222-7.321-23.934-17.373-36.942-23.342A4.09,4.09,0,0,0,1320.068,745.483Z" transform="translate(-1320.068 -744.3)"/></g><path class="d" d="M1398.567,1068.974c5.913-.253,27.313,0,27.313,0s.2-2.534-3.351-3.717c-3.548-1.155-9.461-3.632-9.855-4.674a15.19,15.19,0,0,1-14.022-1.183c-.028.056-.056.084-.084.141C1395.1,1065.792,1392.654,1069.227,1398.567,1068.974Z" transform="translate(-1310.71 -958.438)"/></g><path class="g" d="M1404.941,557.1s-34.408,2-32.353,19.372C1374.644,593.873,1403.674,569.011,1404.941,557.1Z" transform="translate(-1283.436 -532.978)"/><path class="h" d="M1236.041,703.448l3.491-1.492s1.408.535,5.068-2.337,6.955-1.126,8.278,2.337-.957,5.941-4.2,5.969c0,0,.113,2.365-2.731,2.056a27.118,27.118,0,0,1-6.448-1.915Z" transform="translate(-1093.333 -634.331)"/><path class="a" d="M1280.311,601.537s1.887,9.714,14.9,13.093,17.007-.113,17.852-.9,3.407-8.278,6.589-12.192a.592.592,0,0,0,.113-.169,27.578,27.578,0,0,1,5.631-5.406s5.406,6.645,16.134,9.968c10.728,3.351,18.161,1.689,18.161,1.689s2.844-2.478,0-6.11c0,0-12.755-4.28-18.668-9.207-.113-.084-.225-.2-.338-.282-5.772-5.04-3.745-11.009,0-17.007,3.745-6.026,4.787-8.87,2.45-12.671-1.323-2.14-4.083-3.942-8.588-3.942-3.492,0-8.025,1.1-13.769,3.942-13.149,6.561-32.3,24.018-37.28,32.24A22.85,22.85,0,0,0,1280.311,601.537Z" transform="translate(-1213.487 -533.912)"/><g transform="translate(116.159 24.516)"><path class="i" d="M1340.172,587.3c2.337,3.886,7.405,4.871,10.39,5.1-.113-.084-.225-.2-.338-.282-5.772-5.04-3.745-11.009,0-17.007,3.745-6.026,4.787-8.87,2.45-12.671-1.323-2.14-4.083-3.942-8.588-3.942,3.154.282,4.28,5.012,1.718,7.912C1343.213,569.34,1336.736,581.617,1340.172,587.3Z" transform="translate(-1339.189 -558.5)"/></g><path class="g" d="M1416.374,625.986s-3.1-9.01,0-15.909c2.731-6.11-21.371,12.671-2.759,27.594a27.582,27.582,0,0,1,5.631-5.406Z" transform="translate(-1307.315 -570.187)"/></g><g transform="translate(946.406 189.395)"><g transform="translate(107.563 0)"><path class="j" d="M65.779,62.753a2.308,2.308,0,0,0-2.253,2.253c0,4.888-.038,9.815,0,14.7a2.335,2.335,0,0,0,2.253,2.253c5.079.038,10.12.038,15.2,0a2.335,2.335,0,0,0,2.253-2.253c.038-4.888.038-9.815,0-14.7a2.335,2.335,0,0,0-2.253-2.253C75.937,62.715,70.858,62.753,65.779,62.753Zm15.161.573a1.762,1.762,0,0,1,1.719,1.719c0,4.888.038,9.777,0,14.7a1.789,1.789,0,0,1-1.719,1.719c-5.041,0-10.12.038-15.161,0a1.789,1.789,0,0,1-1.719-1.719c0-4.888-.038-9.777,0-14.7a1.789,1.789,0,0,1,1.719-1.719C70.858,63.288,75.9,63.326,80.94,63.326Z" transform="translate(-63.509 -62.736)"/><path class="j" d="M90.864,85.439a.617.617,0,0,0-.611-.535h-4.2a.617.617,0,0,0-.611.535c-.267,1.489-1.031,5.728-1.337,7.485a.477.477,0,0,0,.153.5.616.616,0,0,0,.5.229H91.59a.672.672,0,0,0,.5-.229.84.84,0,0,0,.153-.5C91.9,91.206,91.131,86.928,90.864,85.439Z" transform="translate(-78.283 -78.662)"/><path class="j" d="M93.846,79.072a2.057,2.057,0,0,0-1.909,1.375,2.118,2.118,0,0,0-.115.649.451.451,0,0,0,.611.344.626.626,0,0,0,.267-.42,1.238,1.238,0,0,1,.84-1.069,1.161,1.161,0,0,1,1.108.267,1.185,1.185,0,0,1,.344.84.547.547,0,0,0,.076.267.434.434,0,0,0,.611.076.574.574,0,0,0,.153-.42,2.023,2.023,0,0,0-1.909-1.909Z" transform="translate(-84.052 -74.473)"/></g><path class="e" d="M537.511,1002.984a8.555,8.555,0,1,0,8.555,8.554A8.54,8.54,0,0,0,537.511,1002.984Z" transform="translate(-446.697 -898.633)"/><path class="e" d="M520.671,762.937h0L500.2,690.224a2.165,2.165,0,0,0-1.222-1.3,2.491,2.491,0,0,0-.917-.076,1.934,1.934,0,0,0-1.642,1.948,1.918,1.918,0,0,0,.076.458l20.47,72.713,5.117,18.6a2.886,2.886,0,0,0,.5.878,1.827,1.827,0,0,0,.878.5c.153.038.344.038.5.076H567.95a2.05,2.05,0,0,0,1.795-1.26,2,2,0,0,0-1.337-2.559,1.865,1.865,0,0,0-.458-.038H525.407l-4.736-17.224Z" transform="translate(-461.325 -672.945)"/><path class="e" d="M730.406,691.672a1.475,1.475,0,0,1,.42-1.031,1.387,1.387,0,0,1,.993-.42h32.729a1.387,1.387,0,0,1,.993.42,1.475,1.475,0,0,1,.42,1.031v.878a1.476,1.476,0,0,1-.42,1.031,1.387,1.387,0,0,1-.993.42H731.781a1.387,1.387,0,0,1-.993-.42,1.476,1.476,0,0,1-.42-1.031v-.878Z" transform="translate(-723.303 -673.935)"/><path class="k" d="M784.213,691.672a1.63,1.63,0,0,1,.382-1.031,1.367,1.367,0,0,1,.955-.42h14.4a1.3,1.3,0,0,1,.955.42,1.442,1.442,0,0,1,.382,1.031v.878a1.63,1.63,0,0,1-.382,1.031,1.367,1.367,0,0,1-.955.42h-14.4a1.241,1.241,0,0,1-.955-.42,1.442,1.442,0,0,1-.382-1.031Z" transform="translate(-773.787 -673.935)"/><path class="l" d="M603.312,690.221a1.934,1.934,0,0,0-1.642,1.948,1.916,1.916,0,0,0,.076.458l22.379,82.108a14.408,14.408,0,0,0,13.863,10.617H672.4a2.05,2.05,0,0,0,1.795-1.26,2,2,0,0,0-1.337-2.559,1.864,1.864,0,0,0-.458-.038c-11.5,0-22.952.038-34.447,0a10.849,10.849,0,0,1-10.082-7.753l-22.379-82.108a2.342,2.342,0,0,0-1.222-1.337A4.032,4.032,0,0,0,603.312,690.221Z" transform="translate(-595.407 -673.935)"/><path class="m" d="M390.466,853.422c-.306.153-.42.153-.649.458a1.573,1.573,0,0,0,.306,2.177,1.378,1.378,0,0,0,.764.229H476.24a1.378,1.378,0,0,0,.764-.229,1.454,1.454,0,0,0-.726-2.673H390.925A1.575,1.575,0,0,0,390.466,853.422Z" transform="translate(-338.987 -791.156)"/><path class="m" d="M403.894,905.368c-.306.153-.42.153-.649.458A1.573,1.573,0,0,0,403.55,908a1.378,1.378,0,0,0,.764.229h70.307a1.378,1.378,0,0,0,.764-.229,1.454,1.454,0,0,0-.726-2.673H404.314A1.433,1.433,0,0,0,403.894,905.368Z" transform="translate(-341.148 -828.476)"/><rect class="n" width="24.212" height="48.424" transform="translate(41.321 47.181)"/><path class="o" d="M673.073,767.259a7.629,7.629,0,0,0-7.447,7.1v4.315a1.145,1.145,0,0,0,1.833.84,1.239,1.239,0,0,0,.382-.687v-.153c0-1.451-.076-2.864,0-4.315a5.317,5.317,0,0,1,3.284-4.545,5.465,5.465,0,0,1,6.034,1.566,5.292,5.292,0,0,1,1.184,3.246v4.048a1.2,1.2,0,0,0,1.451,1.069,1.062,1.062,0,0,0,.764-.917v-.153c0-2.215.267-4.506-.42-6.492a7.646,7.646,0,0,0-7.065-4.926h0Z" transform="translate(-619.722 -729.281)"/><path class="i" d="M465.97,737.692h40.6l3.666,66.374h-48Z" transform="translate(-392.073 -708.04)"/><g transform="translate(129.043 36.297)"><path class="p" d="M283.678,761.711a1.014,1.014,0,0,1,.84-.42H317.17a1.066,1.066,0,0,1,.764.305,1.136,1.136,0,0,1,.306.764v16.192a1.067,1.067,0,0,1-.306.764,1.136,1.136,0,0,1-.764.305H284.556a1.014,1.014,0,0,1-.84-.42c-1.375-1.795-6.76-8.86-6.76-8.86S282.3,763.468,283.678,761.711Z" transform="translate(-276.956 -761.291)"/></g><path class="q" d="M399.089,788.01a2.094,2.094,0,0,0-2.1,2.1,2.071,2.071,0,0,0,2.1,2.1,2.1,2.1,0,1,0,0-4.2Z" transform="translate(-264.662 -744.19)"/><path class="r" d="M489.746,753.967a2.291,2.291,0,1,0,2.291,2.291A2.3,2.3,0,0,0,489.746,753.967Z" transform="translate(-380.982 -719.732)"/><path class="k" d="M403.646,759.916a.857.857,0,0,0-.42,1.451c2.788,2.482,5.538,4.965,8.325,7.447a8.062,8.062,0,0,0,5.194,1.986H428.47a.877.877,0,0,0,.573-1.451c-.153-.153-.229-.191-.573-.229H416.707a6.374,6.374,0,0,1-4.124-1.566l-8.287-7.409A.65.65,0,0,0,403.646,759.916Z" transform="translate(-294.424 -724.001)"/><path class="k" d="M821.24,691.672a1.629,1.629,0,0,1,.382-1.031,1.367,1.367,0,0,1,.955-.42h14.4a1.241,1.241,0,0,1,.955.42,1.442,1.442,0,0,1,.382,1.031v.878a1.63,1.63,0,0,1-.382,1.031,1.367,1.367,0,0,1-.955.42h-14.4a1.3,1.3,0,0,1-.955-.42,1.442,1.442,0,0,1-.382-1.031Z" transform="translate(-821.24 -673.935)"/><path class="k" d="M666.63,1002.984a8.555,8.555,0,1,0,8.555,8.554A8.54,8.54,0,0,0,666.63,1002.984Z" transform="translate(-612.172 -898.633)"/><g transform="translate(49.226 107.712)"><path class="o" d="M673.752,1014.919a5.232,5.232,0,1,0,5.232,5.232A5.24,5.24,0,0,0,673.752,1014.919Z" transform="translate(-668.52 -1014.919)"/></g><path class="a" d="M375.164,857.444a2.073,2.073,0,0,0-1.909,1.719,2,2,0,0,0,1.451,2.139,1.864,1.864,0,0,0,.458.038c15.314,0,30.628.038,45.942,0a11.341,11.341,0,0,0,10.54-7.752l.115-.344,10.731-37.426a1.717,1.717,0,0,0,.038-.878,1.993,1.993,0,0,0-1.031-1.375,1.657,1.657,0,0,0-.878-.191H390.249c-.153,0-.306.038-.458.038a2.177,2.177,0,0,0-1.337,1.184,1.979,1.979,0,0,0,.917,2.406,1.917,1.917,0,0,0,.917.229h15.7l-2.673,10.808H391.318l-.382.038a1.473,1.473,0,0,0-.649.42,1.438,1.438,0,0,0,.305,2.062,1.78,1.78,0,0,0,.764.229h11.3l-2.9,11.762H387.194l-.382.038a1.475,1.475,0,0,0-.649.42,1.438,1.438,0,0,0,.306,2.062,1.776,1.776,0,0,0,.764.229h11.877l-2.979,12.144H375.164Zm26.695-12.106h14.054l-2.979,12.144H398.88Zm28.146,0c-.649,2.291-1.337,4.583-1.986,6.912a7.406,7.406,0,0,1-6.951,5.232H415.8l2.979-12.144Zm4.163-14.55c-1.107,3.933-2.253,7.829-3.361,11.762H419.464l2.9-11.762Zm-28.757,0h14.054l-2.9,11.762H402.546Zm20.279-13.557h12.335c-1.031,3.59-2.062,7.18-3.093,10.808H423.016Zm-16.918,0h14.054l-2.673,10.808H406.1Z" transform="translate(-299.358 -762.411)"/><path class="l" d="M539.023,809.354l-.153-.5a2.165,2.165,0,0,0-1.222-1.3,1.881,1.881,0,0,0-.917-.076,2.482,2.482,0,0,0-.878.344,1.986,1.986,0,0,0-.764,1.146,1.847,1.847,0,0,0,.038.917l10.082,36.662a14.488,14.488,0,0,0,13.939,10.579h34.218c.993,0,2.024.038,3.017,0h2.6a2.246,2.246,0,0,0,1.68-.955,12.02,12.02,0,0,0,6.8-7.6l10.578-36.7a1.715,1.715,0,0,0,.038-.878,1.992,1.992,0,0,0-1.031-1.375,1.656,1.656,0,0,0-.878-.191H539.023Zm21.31,43.88-6.569-26.5h15.811l6.569,26.542C570.873,853.234,565.6,853.234,560.333,853.234Zm18.675,0-6.569-26.542H587.6l6.569,26.5h-.84C588.555,853.234,583.782,853.234,579.008,853.234Zm11.457-26.542h14.97l1.68,6.836a1.128,1.128,0,0,0,.305.573c.038.038.076.115.153.153-1.26,4.43-2.559,8.822-3.819,13.252a8.24,8.24,0,0,1-6.721,5.652Zm-46.668,0h7.1l6.53,26.351a10.848,10.848,0,0,1-8.478-7.6Zm64.5,0h1.451l-.764,2.711Zm-68.207-13.481h7.447l2.673,10.731h-7.18Zm10.311,0h15.81l2.673,10.731h-15.81Zm18.675,0H584.24l2.673,10.731H571.752Zm18.026,0h14.97l2.673,10.731h-14.97Zm17.835,0h8.669c-1.031,3.59-2.062,7.141-3.093,10.731h-2.941Z" transform="translate(-520.463 -758.163)"/><path class="k" d="M568.521,915.579c-.305.153-.42.153-.649.458a1.573,1.573,0,0,0,.306,2.177,1.378,1.378,0,0,0,.764.229h61.523a1.541,1.541,0,0,0,1.375-1.68,1.524,1.524,0,0,0-.611-1.031,1.377,1.377,0,0,0-.764-.229H568.9A1.129,1.129,0,0,1,568.521,915.579Z" transform="translate(-543.354 -835.784)"/><g transform="translate(63.853 3.301)"><path class="p" d="M526.244,649.033a4.911,4.911,0,0,1,1.413-3.475,4.859,4.859,0,0,1,3.437-1.451h26.58a4.859,4.859,0,0,1,3.437,1.451,4.911,4.911,0,0,1,1.413,3.475v29.024a4.911,4.911,0,0,1-1.413,3.475,4.859,4.859,0,0,1-3.437,1.451h-26.58a4.859,4.859,0,0,1-3.437-1.451,4.912,4.912,0,0,1-1.413-3.475Z" transform="translate(-526.244 -644.107)"/><path class="k" d="M2.13,0a.649.649,0,0,0-.267.038A2.419,2.419,0,0,0,.106,3.059a2.641,2.641,0,0,0,.382.726l.191.191L20.652,23.949a2.463,2.463,0,0,0,3.323,0,2.427,2.427,0,0,0,.191-3.093l-.191-.191L4,.692A2.389,2.389,0,0,0,2.13,0Z" transform="translate(30.9 7.523) rotate(90)"/><path class="k" d="M3.322,0A3.323,3.323,0,1,0,6.645,3.323,3.325,3.325,0,0,0,3.322,0Z" transform="translate(30.896 23.402) rotate(90)"/><path class="k" d="M3.322,0A3.322,3.322,0,1,0,6.645,3.322,3.325,3.325,0,0,0,3.322,0Z" transform="translate(14.207 6.713) rotate(90)"/></g></g><g transform="translate(1078.32 149.963) rotate(150)"><rect class="s" width="10.869" height="6.589" transform="translate(147.076 141.235) rotate(-137.833)"/><rect class="t" width="10.869" height="6.589" transform="translate(254.212 141.232)"/><rect class="u" width="6.589" height="10.869" transform="translate(188.127 90.155)"/><rect class="v" width="10.869" height="6.589" transform="translate(81.468 69.6)"/><rect class="w" width="6.589" height="12.84" transform="translate(8.839 8.767) rotate(-100.241)"/><rect class="x" width="6.589" height="20.639" transform="translate(1.224 69.606) rotate(-100.702)"/></g></g></svg>