<svg xmlns="http://www.w3.org/2000/svg" xmlns:xlink="http://www.w3.org/1999/xlink" width="20" height="20" viewBox="0 0 20 20"><defs><style>.a{fill:#b19a9a;}.b{clip-path:url(#a);}.c{fill:#ffd15c;}.d{fill:#f8b64c;}.e{fill:#40596b;}.f{fill:#f2f2f2;}.g{fill:#cdd6e0;}.h{fill:#ff7058;}</style><clipPath id="a"><rect class="a" width="20" height="20" transform="translate(35 111)"/></clipPath></defs><g class="b" transform="translate(-35 -111)"><g transform="translate(35.01 111)"><path class="c" d="M19.992,20.911a.847.847,0,0,1-.25.624.9.9,0,0,1-.583.208H.845a1,1,0,0,1-.583-.208.847.847,0,0,1-.25-.624V8.715H19.992v12.2Z" transform="translate(-0.013 -1.743)"/><path class="d" d="M19.8,22.648a.9.9,0,0,1-.583.208H.908a1,1,0,0,1-.583-.208l9.74-8.366Z" transform="translate(-0.075 -2.856)"/><path class="e" d="M19.992,6.972l-2.83,2.04-6.618,4.745a.937.937,0,0,1-1.124,0L2.843,9.011.013,6.972l2.83-2.04L9,.52,9.462.187a.937.937,0,0,1,1.124,0l.458.333L14,2.643l1.457,1.041,1.707,1.249Z" transform="translate(-0.013 0)"/><path class="f" d="M17.869,3.231v5.91l-6.618,4.745a.937.937,0,0,1-1.124,0L3.551,9.142V1.483A.835.835,0,0,1,4.383.65H15.247Z" transform="translate(-0.721 -0.13)"/><path class="g" d="M18.223,2.565a.657.657,0,0,0,.666.666H20.8L18.223.65V2.565Z" transform="translate(-3.655 -0.13)"/><path class="h" d="M14.175,9.912h.666a2.2,2.2,0,0,1-1,1.041,3.67,3.67,0,0,1-1.873.416,4.106,4.106,0,0,1-1.831-.375A2.455,2.455,0,0,1,8.972,9.912,3.241,3.241,0,0,1,8.6,8.372a3.454,3.454,0,0,1,.416-1.707A2.628,2.628,0,0,1,10.179,5.5a3.807,3.807,0,0,1,1.707-.375,3.265,3.265,0,0,1,1.457.333,2.043,2.043,0,0,1,.957.916,2.7,2.7,0,0,1,.333,1.29,2.494,2.494,0,0,1-.5,1.5,1.872,1.872,0,0,1-1.623.832,1.044,1.044,0,0,1-.416-.083.421.421,0,0,1-.167-.291,1.2,1.2,0,0,1-.874.375,1.075,1.075,0,0,1-.874-.375,1.35,1.35,0,0,1-.375-1,2.544,2.544,0,0,1,.416-1.415,1.548,1.548,0,0,1,1.332-.749,1.031,1.031,0,0,1,.874.458l.083-.375h.874l-.5,2.331a1.1,1.1,0,0,0-.042.291.153.153,0,0,0,.042.125c.042.042.042.042.083.042a.942.942,0,0,0,.416-.208,1.737,1.737,0,0,0,.541-.666,2.237,2.237,0,0,0,.208-.874,1.731,1.731,0,0,0-.583-1.332,2.19,2.19,0,0,0-1.623-.541,2.86,2.86,0,0,0-1.5.375,2.352,2.352,0,0,0-.916,1,3.016,3.016,0,0,0-.291,1.374A2.543,2.543,0,0,0,9.555,9.7a2.065,2.065,0,0,0,.957.832,3.734,3.734,0,0,0,1.415.25,4.26,4.26,0,0,0,1.332-.208A2.483,2.483,0,0,0,14.175,9.912ZM10.637,8.58A.93.93,0,0,0,10.8,9.2a.578.578,0,0,0,.416.208.784.784,0,0,0,.333-.083,1.1,1.1,0,0,0,.25-.208,1.52,1.52,0,0,0,.291-.583,2.309,2.309,0,0,0,.125-.708.881.881,0,0,0-.167-.583.578.578,0,0,0-.416-.208.768.768,0,0,0-.5.208,1.143,1.143,0,0,0-.375.624A2.31,2.31,0,0,0,10.637,8.58Z" transform="translate(-1.73 -1.025)"/></g></g></svg>