<svg xmlns="http://www.w3.org/2000/svg" xmlns:xlink="http://www.w3.org/1999/xlink" width="167" height="105" viewBox="0 0 167 105"><defs><style>.a,.f{fill:#fff;}.ad,.b{fill:#00092a;}.c{fill:none;}.d{clip-path:url(#a);}.e{clip-path:url(#b);}.aa,.ab,.ac,.ad,.f,.g,.h,.i,.j,.k,.p,.r,.t,.u,.v,.w,.x,.y,.z{fill-rule:evenodd;}.g{fill:#83c2f5;}.h{fill:#e9e8ff;}.i{fill:#cff1f9;}.j{fill:#6184f6;}.k{fill:#7965ff;}.l{fill:#e1ff00;}.m{fill:#ff9cec;}.n{fill:#66b3ff;}.o{fill:#ff6672;}.p{fill:#45e5b6;}.q{fill:#ffd500;}.aj,.r{fill:#f9e537;}.s{clip-path:url(#c);}.ao,.t{fill:#f9ca37;}.ae,.u{fill:#f50;}.v{fill:#909090;}.w{fill:#b5b5b5;}.x{fill:#2845aa;}.af,.y{fill:#21388a;}.aa{fill:#ffabab;}.ab{fill:#ff7f00;}.ac{fill:#f68484;}.ag{fill:#e48868;}.ah{fill:#ece0d3;}.ai{fill:#393762;}.ak{clip-path:url(#d);}.al{clip-path:url(#e);}.am{fill:#b77053;}.an{fill:#c55469;}.ap{fill:#e8a12b;}</style><clipPath id="a"><rect class="a" width="167" height="105" transform="translate(0 -0.15)"/></clipPath><clipPath id="b"><rect width="148.976" height="103.735"/></clipPath><clipPath id="c"><path d="M306.383,48.217a4.679,4.679,0,0,0-4.68-4.68H265.09a4.679,4.679,0,0,0-4.68,4.68v65.45a4.679,4.679,0,0,0,4.68,4.68H301.7a4.679,4.679,0,0,0,4.68-4.68Z" transform="translate(-260.41 -43.537)"/></clipPath><clipPath id="d"><path class="b" d="M0,0H12.122V11.262H0Z"/></clipPath><clipPath id="e"><path class="c" d="M0,0H4.057V5.784H0Z"/></clipPath></defs><g class="d" transform="translate(0 0.15)"><g transform="translate(18.355 0.431)"><g transform="translate(0 0)"><g class="e"><path class="f" d="M255.76,176.443s-47.579,8.123-52.366,9.861,97.6,3.766,122.469,2.384,6.222-11.465,1.8-12.257C323.252,175.663,255.76,176.443,255.76,176.443Z" transform="translate(-197.547 -90.956)"/><path class="g" d="M363.961,61.068a4.67,4.67,0,0,0-1.283-3.242,4.273,4.273,0,0,0-3.086-1.348H284.913a4.23,4.23,0,0,0-3.086,1.348,4.718,4.718,0,0,0-1.283,3.242v70.865a4.671,4.671,0,0,0,1.283,3.242,4.273,4.273,0,0,0,3.086,1.348h74.678a4.23,4.23,0,0,0,3.086-1.348,4.718,4.718,0,0,0,1.283-3.242Z" transform="translate(-227.194 -45.086)"/><path class="f" d="M275.9,94.192c-4.847,0-7.978-3.4-7.031-7.454,0,0,3.911-16.791,5.894-25.338a6.3,6.3,0,0,1,6.139-4.869h9.616L285.83,86.738c-.635,4.056-5.092,7.454-9.928,7.454" transform="translate(-222.653 -45.106)"/><path class="h" d="M304.029,94.192h0c-4.847,0-8.234-3.4-7.61-7.454l4.691-30.207h14.607l-2.34,30.207c-.312,4.056-4.5,7.454-9.348,7.454" transform="translate(-233.254 -45.106)"/><path class="f" d="M332.15,94.192c-4.847,0-8.5-3.4-8.19-7.454l2.34-30.207h14.608V86.738c.011,4.056-3.911,7.454-8.758,7.454" transform="translate(-243.836 -45.106)"/><path class="i" d="M360.248,94.192h0c-4.847,0-8.769-3.4-8.769-7.454V56.532h14.608l2.34,30.207c.323,4.056-3.343,7.454-8.178,7.454" transform="translate(-254.396 -45.106)"/><path class="f" d="M386.86,94.192c-4.847,0-9.036-3.4-9.348-7.454l-2.34-30.207H389.78l4.691,30.207c.635,4.056-2.763,7.454-7.61,7.454" transform="translate(-263.482 -45.106)"/><path class="j" d="M385.06,136.83a3.514,3.514,0,0,0-1.047-2.507,3.574,3.574,0,0,0-2.529-1.036h-11.41a3.557,3.557,0,0,0-3.577,3.543v29.137h18.552V136.83Z" transform="translate(-260.155 -74.54)"/><path class="k" d="M301.754,135.125a1.837,1.837,0,0,1,.535-1.3,1.812,1.812,0,0,1,1.293-.535h8.011a1.826,1.826,0,0,1,1.827,1.838v7.989a1.837,1.837,0,0,1-.535,1.3,1.812,1.812,0,0,1-1.292.535H303.57a1.826,1.826,0,0,1-1.827-1.838v-7.989Z" transform="translate(-235.323 -74.54)"/><path class="j" d="M331.454,135.125a1.837,1.837,0,0,1,.535-1.3,1.811,1.811,0,0,1,1.293-.535h8.011a1.826,1.826,0,0,1,1.827,1.838v7.989a1.837,1.837,0,0,1-.535,1.3,1.811,1.811,0,0,1-1.293.535h-8.011a1.826,1.826,0,0,1-1.827-1.838Z" transform="translate(-246.717 -74.54)"/><rect class="l" width="3.9" height="2.362" transform="translate(52.226 64.461) rotate(-42.167)"/><rect class="m" width="3.9" height="2.362" transform="translate(11.454 66.212)"/><rect class="n" width="2.362" height="3.9" transform="translate(36.703 47.872)"/><rect class="o" width="3.9" height="2.362" transform="translate(73.472 40.495)"/><path class="p" d="M354.443,65.493l.423-2.329,4.535.825-.412,2.329Z" transform="translate(-255.533 -47.65)"/><rect class="q" width="2.362" height="7.41" transform="translate(98.918 39.115) rotate(-79.292)"/><path class="i" d="M383.95,94.339c-4.847,0-9.036-3.4-9.348-7.454l-4.034-30.121H385.2l6.356,30.121c.635,4.056-2.763,7.454-7.61,7.454" transform="translate(-244.382 -45.253)"/></g></g><g transform="translate(40.937 3.414)"><path class="r" d="M306.383,48.217a4.679,4.679,0,0,0-4.68-4.68H265.09a4.679,4.679,0,0,0-4.68,4.68v65.45a4.679,4.679,0,0,0,4.68,4.68H301.7a4.679,4.679,0,0,0,4.68-4.68Z" transform="translate(-260.41 -43.537)"/><g class="s"><g transform="translate(-9.786 13.881)"><g transform="translate(45.35)"><path class="t" d="M310.9,57.024H292.25a1.521,1.521,0,0,0-1.527,1.519V75.669a1.521,1.521,0,0,0,1.527,1.519H310.9Z" transform="translate(-290.723 -57.024)"/></g><g transform="translate(20.174 20.164) rotate(180)"><path class="t" d="M20.174,20.164H1.527A1.521,1.521,0,0,1,0,18.644V1.519A1.521,1.521,0,0,1,1.527,0H20.174Z"/></g></g></g><g transform="translate(7.132 49.933)"><path class="u" d="M860.207,448.453a3.769,3.769,0,0,0-3.774-3.77H832.288a3.776,3.776,0,0,0-3.774,3.77h0a3.769,3.769,0,0,0,3.774,3.77h24.145a3.769,3.769,0,0,0,3.774-3.77Z" transform="translate(-828.513 -444.683)"/></g><g transform="translate(19.703 52.095)"><g transform="translate(0 0)"><path class="a" d="M112.212,6.864h1.122c.748,0,1.122-.374,1.122-.748h0c0-.374,0-.374-.374-.748,0,0,0,0,0-.374h0V4.62a1.306,1.306,0,0,0-.748-.374h-1.122Zm1.5-1.87a.366.366,0,0,1-.374.374h-.374V4.62l.748.374Zm0,1.122h0c0,.374,0,.374-.374.374h-.748V5.742h.748C113.708,5.742,113.708,5.742,113.708,6.116Z" transform="translate(-112.212 -4.246)"/></g><g transform="translate(2.545 0.748)"><path class="a" d="M112.49,7.329c.374,0,.374,0,.748-.374v.374h.374V5.459h-.374V6.581c0,.374,0,.374-.374.374s-.374,0-.374-.374V5.459h-.374V6.581C111.742,6.955,112.116,7.329,112.49,7.329Z" transform="translate(-111.961 -5.459)"/></g><g transform="translate(4.656 0.748)"><path class="a" d="M112.728,6.581l-.374-1.122h-.748l.748,1.87h-.748V7.7h.374c.374,0,.374,0,.748-.374l.748-1.87h-.748Z" transform="translate(-111.606 -5.459)"/></g></g><g transform="translate(17.288 39.8)"><path class="v" d="M923.845,415.615a.65.65,0,0,0-.189-.457.631.631,0,0,0-.457-.189H911.711a.65.65,0,0,0-.457.189.631.631,0,0,0-.19.457h0a.65.65,0,0,0,.19.457.631.631,0,0,0,.457.189H923.2a.65.65,0,0,0,.457-.189.67.67,0,0,0,.189-.457Z" transform="translate(-911.065 -414.968)"/></g><g transform="translate(13.786 42.978)"><path class="w" d="M1372.5,415.38a.657.657,0,0,0-.19-.457.62.62,0,0,0-.449-.189h-18.528a.621.621,0,0,0-.449.189.638.638,0,0,0-.19.457h0a.657.657,0,0,0,.19.457.621.621,0,0,0,.449.189h18.528a.62.62,0,0,0,.449-.189.657.657,0,0,0,.19-.457Z" transform="translate(-1352.692 -414.733)"/></g><path class="u" d="M302.048,65.864a1.992,1.992,0,0,0-1.994-1.994H281.2a1.992,1.992,0,0,0-1.995,1.994V84.716a1.992,1.992,0,0,0,1.995,1.994h18.853a1.992,1.992,0,0,0,1.994-1.994Z" transform="translate(-267.618 -51.334)"/><path class="f" d="M290.451,73.164a3.455,3.455,0,0,1,6.362-1.047,3.453,3.453,0,0,1,.4,1.036h.958a1.17,1.17,0,0,1,1.159,1.047s.535,5.527.78,8.011a1.067,1.067,0,0,1-.279.836,1.079,1.079,0,0,1-.8.357h-10.4a1.09,1.09,0,0,1-1.081-1.192c.2-2.017.591-6.095.78-8.011a1.162,1.162,0,0,1,1.159-1.047h.958Zm6.017,0a2.809,2.809,0,0,0-2.6-2.017H293.8a2.841,2.841,0,0,0-2.63,2.017Z" transform="translate(-270.818 -53.843)"/></g><g transform="translate(3.034 23.819)"><g transform="translate(5.311 27.885)"><g transform="translate(8.191 0.011)"><path class="x" d="M220.831,124.579v13.906s.256.958.535,2.529a48.394,48.394,0,0,1,.813,8.914,76.08,76.08,0,0,0,.791,11.3h0c.022.156.033.279.045.379a7.938,7.938,0,0,1-.178,2.808c-.223,1.07.3,1.114.3,1.114h7.042c.457-.4-.256-1.593-1.827-1.861s-1.337-1.393-1.471-2.3a.739.739,0,0,1-.011-.167c-.011-.368.011-1.092.067-2.128.167-3.075.568-8.847.88-15.711.435-9.627,0-19.978,0-19.978l-.936-1.5Z" transform="translate(-220.831 -121.883)"/><path class="y" d="M223.347,162.55a7.939,7.939,0,0,1-.178,2.808c-.223,1.07.3,1.114.3,1.114h7.042c.457-.4-.256-1.593-1.827-1.861s-1.337-1.393-1.471-2.3a.737.737,0,0,1-.011-.167c-.011-.368.011-1.092.067-2.128-3.521-.5-2.028-11.521-2.652-16.067a30.854,30.854,0,0,1,0-8.568s4.568-13.159,0-10.741c-1.972,1.047-2.708,8.814-2.919,17.326a48.4,48.4,0,0,1,.813,8.914,76.077,76.077,0,0,0,.791,11.3h0C223.325,162.327,223.336,162.45,223.347,162.55Z" transform="translate(-221.164 -122.828)"/><path class="z" d="M224.369,189.936h7.042c.457-.4-.256-1.593-1.827-1.861s-1.337-1.393-1.471-2.3a.738.738,0,0,1-.011-.167,6.508,6.508,0,0,1-3.833-.078,1.156,1.156,0,0,1-.067.111h0c.022.156.033.279.045.379a7.939,7.939,0,0,1-.178,2.808C223.845,189.891,224.369,189.936,224.369,189.936Z" transform="translate(-222.051 -146.292)"/></g><path class="x" d="M208.02,165.527h7.12c.312-1.125-1.415-1.46-2.741-2.44a1.846,1.846,0,0,1-.579-1.838,26.552,26.552,0,0,1,1.749-5.315c.279-.735.591-1.76.925-2.964,1.326-4.88,2.9-12.758,3.566-16.647.836-4.847,1.905-12.379,1.905-12.379l-8.624-1.805-1.226-.256s-.49,6.763-.513,9.906-1.337,22.574-1.37,25.928c-.011,1.293-.1,2.5-.212,3.543-.178,1.66-.4,2.9-.446,3.41C207.463,165.482,208.02,165.527,208.02,165.527Z" transform="translate(-207.551 -121.871)"/><path class="y" d="M208.025,165.52h7.12c.312-1.125-1.415-1.46-2.741-2.44a1.846,1.846,0,0,1-.579-1.838,26.554,26.554,0,0,1,1.749-5.315c.279-.735.591-1.76.925-2.964-1.905,1.426-4.178,2.039-3.153-4.268,3-18.6,2.429-24.513,2.429-24.513-.925-.836-1.727-1.515-2.418-2.061l-1.226-.256s-.49,6.763-.513,9.906-1.337,22.574-1.371,25.928c-.011,1.292-.1,2.5-.212,3.543-.178,1.66-.4,2.9-.446,3.41C207.468,165.475,208.025,165.52,208.025,165.52Z" transform="translate(-207.556 -121.865)"/><path class="z" d="M208.015,190.012h7.12c.312-1.125-1.415-1.46-2.741-2.44a1.846,1.846,0,0,1-.579-1.838,4.883,4.883,0,0,1-3.811,0c-.178,1.66-.4,2.9-.446,3.41C207.458,189.968,208.015,190.012,208.015,190.012Z" transform="translate(-207.546 -146.357)"/></g><g transform="translate(0 9.147)"><path class="aa" d="M243.762,98.479a8.043,8.043,0,0,1,1.749-.189c.635-.033,1.014-.947.345-1.616s-1.694-.557-1.939,0a3.342,3.342,0,0,1-.613.925l-.39.423C242.9,98.022,243.373,98.613,243.762,98.479Z" transform="translate(-215.799 -93.29)"/><path class="ab" d="M199.1,102.41h0a11.2,11.2,0,0,0,.847,2.084,46.575,46.575,0,0,0,5.671,7.866,1.937,1.937,0,0,0,.657-.323l.546.713a4.057,4.057,0,0,0,.68.1c.045,0,.089.011.134.011,1.694.111,4.969-.045,7.4.167,2.93.256,4.446-.78,4.39-1.326-.022-.245-.212-1.6-.423-3.008-.245-1.638-.49-3.343-.513-3.443h0a2.865,2.865,0,0,0,3.6,0,13.292,13.292,0,0,0,2.15-2.006c2.084-2.284,4.4-5.46,4.4-5.46-.535-1.348-1.928-2.262-2.318-1.95s-6.139,3.733-6.139,3.733-.747-1.3-1.582-2.83c-.646-1.181-1.359-2.5-1.816-3.432-1.059-2.15-3.889-1.816-3.889-1.816l-.524.067-1.638.212a10.6,10.6,0,0,0-4.457.312.4.4,0,0,0-.1.045h0c-1.838.758-3.6,3.32-5.449,5.671C199.274,99.6,198.595,100.56,199.1,102.41Zm6.061-.056c-.011-.022-.022-.033-.022-.056l-.134-.29h.011l1.192-.49.178,3.644Z" transform="translate(-198.932 -91.472)"/><path class="u" d="M199.2,108.647h0a11.2,11.2,0,0,0,.847,2.084,46.576,46.576,0,0,0,5.671,7.866,1.937,1.937,0,0,0,.657-.323l.546.713a4.058,4.058,0,0,0,.68.1c.045-.045.1-.078.145-.123.914-.78,1.526-1.616,1.437-2.05a15.532,15.532,0,0,0-1.571-3.3,1.223,1.223,0,0,1-.078.189c-.178.4-.646,1.27-1.393.869-.958-.5-3.387-6.741-5.4-6.931A1.361,1.361,0,0,0,199.2,108.647Z" transform="translate(-199.034 -97.709)"/><path class="u" d="M210.656,92.161a3.348,3.348,0,0,1,2.028.836,3.032,3.032,0,0,0,4.245-.49c.134-.134.111-.49-.078-.914l-1.638.212a10.6,10.6,0,0,0-4.457.312C210.723,92.128,210.689,92.15,210.656,92.161Z" transform="translate(-203.428 -91.518)"/><path class="u" d="M209.855,105.783l.178,3.644-1.226-2.8c.524,1.248,1.549,3.577,2.273,5.226l.813,1.838a.969.969,0,0,1-.29.8s-.223,1.37-.323,2.529c0,.045-.011.089-.011.134,1.694.111,4.969-.045,7.4.167,2.93.256,4.446-.78,4.39-1.326-.022-.245-.212-1.6-.423-3.008-1.694,1.827-3.989.111-4.546-1.1s-.958-3.343-3.465-3.933-1.6-.992-1.905-3.22c-.134-1.047-.212-2.507-1.137-2.017a18.826,18.826,0,0,0-3.131,3.086c.011.045.078.223.189.49Z" transform="translate(-202.582 -95.747)"/><path class="u" d="M230.026,108.306a2.865,2.865,0,0,0,3.6,0,13.292,13.292,0,0,0,2.15-2.006,1.644,1.644,0,0,0-.145-.39c-.947-1.85-3.465.279-4.189-.836a2.3,2.3,0,0,1,.29-2.44s-.747-1.3-1.582-2.83c-.6-.312-1.092-.457-1.137-.223C228.89,100.138,230.026,108.306,230.026,108.306Z" transform="translate(-210.464 -94.537)"/><path class="aa" d="M209.752,124.015l1,1.326c1.638,1.348,3.142.368,2.741-.613s-1.382-2.864-1.382-2.864A5.8,5.8,0,0,1,209.752,124.015Z" transform="translate(-203.081 -103.127)"/><path class="f" d="M245.105,100.759c.323-.056,4.557-3.354,4.423-3.7s-1.515-2.2-1.682-2.039c-.067.056-.791.657-1.627,1.348-.657.535-1.37,1.137-1.905,1.571-.468.39-.78.646-.78.646C243.311,98.809,244.771,100.8,245.105,100.759Z" transform="translate(-216.027 -92.829)"/><path class="aa" d="M244.8,98.777a13.259,13.259,0,0,1,1.426-.111.875.875,0,0,0,.468-1.471C246.054,97.741,245.33,98.343,244.8,98.777Z" transform="translate(-216.519 -93.667)"/></g><g transform="translate(10.149)"><path class="aa" d="M217.1,83.974l.089.089a.952.952,0,0,1,.212.323,1.851,1.851,0,0,1-.368,1.682,11.072,11.072,0,0,0,2.006,1.159c.891.345,1.76.256,1.716-.8-.033-.891.267-1.159,1.292-1.4.178-.045.368-.089.591-.123,1.5-.3,1.46-1.215,1.081-3.855a8.5,8.5,0,0,0-1.047-3.488.084.084,0,0,1-.022-.045c-1.07-1.76-5.972-.747-6.942,1.95C214.763,82.079,216.278,83.138,217.1,83.974Z" transform="translate(-215.399 -76.635)"/><path class="ac" d="M218.048,89.736a11.071,11.071,0,0,0,2.006,1.159c.891.345,1.76.256,1.716-.8-.033-.891.267-1.159,1.293-1.4a.635.635,0,0,0-.145-.011c-1.348.011-1.538-2.262-2.429-2.028a1.653,1.653,0,0,1-1.538-.479s-.4.7-.836,1.46l.089.089a.952.952,0,0,1,.212.323A1.878,1.878,0,0,1,218.048,89.736Z" transform="translate(-216.411 -80.292)"/><g transform="translate(0 0.011)"><path class="y" d="M217.186,84.07a.952.952,0,0,1,.212.323,4.1,4.1,0,0,1,1.181.29c.691-.279.858-1.671.858-1.671-.245-.022-1.07.067-1.114-.747s.513-1.059,1.348-1.081c.468-.011.446-.334.39-.669-.045-.256-.1-.535.022-.68.4-.49,1.894-.613,2.318-1.616.067-.167.156-.39.256-.646a.084.084,0,0,1-.022-.045c-1.07-1.76-5.972-.747-6.942,1.95a5.152,5.152,0,0,0-.29,1.259C215.269,82.543,216.528,83.368,217.186,84.07Z" transform="translate(-215.393 -76.653)"/><g transform="translate(0 3.806)"><path class="ad" d="M217.186,86.437a.952.952,0,0,1,.212.323,4.1,4.1,0,0,1,1.181.29c.691-.279.858-1.671.858-1.671-.245-.022-1.07.067-1.114-.747s.513-1.059,1.348-1.081c.468-.011.446-.334.39-.669a2.086,2.086,0,0,0-1.905.524,2.008,2.008,0,0,1-2.752-.3C215.269,84.911,216.528,85.735,217.186,86.437Z" transform="translate(-215.393 -82.827)"/></g></g></g></g></g><g transform="translate(102.708 29.205)"><path class="ae" d="M15.192,0l4.091,20.539L0,21.83,7.771,4.421Z" transform="translate(14.189 25.19)"/><path class="af" d="M18.714,0l7.118,33.454-2.381.746-5.7-17.788L13.27,8.467l-4.023,12.5L1.754,34.031,0,32.52,6.1,15.483,8.071,0Z" transform="translate(10.005 31.193)"/><g transform="translate(0 0)"><path class="ag" d="M3.383,10.021,4.5,7.485s.952.258,1.371-.147a5.047,5.047,0,0,0,.4-1.975q.015-.181.025-.37c.007-.13.531.222.535.088.009-.273-.5-1.037-.51-1.314A4.973,4.973,0,0,0,5.629.785C4.539-.279.722-.436.2,1.419a5.363,5.363,0,0,0,1.5,5.39L.67,9.438Z" transform="translate(21.012 3.412)"/><path class="ah" d="M.922.461A.461.461,0,1,1,.461,0,.461.461,0,0,1,.922.461" transform="translate(23.813 9.075)"/><path class="ag" d="M0,9.036l1.767,1.631S5.139,3.342,5.3,3.159a9.937,9.937,0,0,0,.438-1.923c.016-.152-1.129.028-1.129.028a7.9,7.9,0,0,0-.3-.9c-.058-.115-.437-.6-.471-.208L3.827,1.286l-.279.435a6.263,6.263,0,0,0-.1,1.429Z" transform="translate(32.199 12.196)"/><path class="ai" d="M0,5.007.129,2.224.253,0l.814.116L.674,4.929Z" transform="translate(36.734 9.94)"/><path class="ag" d="M.59,1.084C.654.758.16-.1.063.01S.026.61.026.61L.2.87S-.005.843,0,.913s.008.4.008.4l.105.617Z" transform="translate(37.343 12.348)"/><path class="ae" d="M9.061,1.078,5.533,8c-.152-1.073-.456-.456-.456-.456S2.988,1.269.822.1C-1.627-1.224,2.175,11.155,2.175,11.155s3.3,1.831,4.462,1.326C7.746,12,10.852,5.807,11.993,2.836c-.73-.444-2.174-1.363-2.932-1.759" transform="translate(25.661 14.299)"/><path class="aj" d="M.244,20.534,11.2,22.016l-1.061-5.5s1.026-2.022,1.6-3.207c.363-.749.493-2.108-.912-4.7a37.881,37.881,0,0,1-2.17-4.72L9.1,2.618,4.231,0,3.714,1.856S.684,5.694.167,6.655s.328,9.391.4,10.2Z" transform="translate(17.821 10.504)"/><g transform="translate(17.204)"><path class="c" d="M0,0H12.122V11.262H0Z" transform="translate(0)"/><g class="ak" transform="translate(0)"><path class="b" d="M0,6.084A5.99,5.99,0,0,0,.559,8.438c.621,1.356,1.74,2.919,3.375,2.82A3.511,3.511,0,0,0,5.9,10.232,15.123,15.123,0,0,0,7.965,8.4c.345-.389.611-.824.927-1.227.766-.974,2.42-.712,3.02-1.87.63-1.216-.276-2.489-1.126-3.391a6.129,6.129,0,0,0-8.051-.751,6.456,6.456,0,0,0-2.6,3.7A4.752,4.752,0,0,0,0,6.084" transform="translate(0 0)"/></g></g><path class="ai" d="M1.318,0l.925,3.369s2.853.208,2.934.445L1.072,5.172,0,.436Z" transform="translate(33.407 62.115)"/><g transform="translate(9.019 61.792)"><path class="c" d="M0,0H4.057V5.784H0Z" transform="translate(0 0)"/><g class="al" transform="translate(0 0)"><path class="ai" d="M4.057,5.784H1.706L0,4.192,2.116,0,3.282.859,1.89,3.984l.434,1.25Z"/></g></g><path class="ae" d="M7.363,0S10.259.786,11,2.191s-6.316,32-6.316,32L0,34.508,3.419,18.425l.23-3.821S3,5.879,3.419,4.909C3.933,3.711,7.363,0,7.363,0" transform="translate(14.172 12.36)"/><path class="am" d="M4.647.4a3.613,3.613,0,0,0-3.1-.1A38.841,38.841,0,0,0,0,5.512l.3.073C.266,5.475,1.386.468,2.091.305A5.6,5.6,0,0,1,4.585.664a48.639,48.639,0,0,1,.108,5.361l.454.067S5.085.752,4.647.4" transform="translate(7.02 38.896)"/><path class="af" d="M2.378,0l7.665,1.092L9.074,12.524,0,11.44Z" transform="translate(3.321 43.799)"/><path class="ah" d="M5.128,1.007A3.612,3.612,0,0,0,2.18.056,20.364,20.364,0,0,0,0,3.4l.266.152C.266,3.44,1.976.17,2.7.208A5.609,5.609,0,0,1,5,1.24,29.406,29.406,0,0,1,4.37,5.189l.418.19s.665-3.916.341-4.372" transform="translate(6.535 38.676)"/><path class="ag" d="M1.278,1S.4,3.3.138,3.793s-.152.8.38.646.3.478.76.284.326.5.684.377c.532-.19.494.069.722.065s.19-1.863.19-1.863a.534.534,0,0,0,0-.726C2.57,2.121,4.583,0,4.583,0Z" transform="translate(8.715 35.09)"/><path class="ae" d="M7.6.867C6.292,2.148,0,19.687,0,19.687l2.583,1.122s1.52-3.678,2.508-4.691a3.031,3.031,0,0,0,1.14-3.086c-.152-1.652,4.331-6.511,4.864-8.454S10.41-1.889,7.6.867" transform="translate(9.993 16.401)"/><path class="an" d="M.114,9.831a.112.112,0,0,1-.072-.026.114.114,0,0,1-.016-.161,24.708,24.708,0,0,0,2.3-3.379A4.83,4.83,0,0,0,3.2,3.119,3.684,3.684,0,0,0,1.322.216a.114.114,0,1,1,.1-.2,3.912,3.912,0,0,1,2,3.081,5.019,5.019,0,0,1-.912,3.287A24.934,24.934,0,0,1,.2,9.789a.112.112,0,0,1-.088.042" transform="translate(17.708 16.249)"/><path class="an" d="M.284.938A.114.114,0,0,1,.172.844L.043.135A.114.114,0,1,1,.267.094L.4.8A.115.115,0,0,1,.305.936l-.021,0" transform="translate(29.199 25.133)"/><path class="ao" d="M5.433,0,12.5,2.927,7.675,13.992,0,10.646Z" transform="translate(0 41.127)"/><path class="ao" d="M4.825,0,1.862,11.711l-.822-.646H0l2.583-7.49Z" transform="translate(7.675 44.054)"/><path class="ap" d="M.114,9.986a.112.112,0,0,1-.045-.009.114.114,0,0,1-.06-.15L4.219,0l.213.079L1.85,8.269A.114.114,0,0,1,1.633,8.2l1.892-6L.218,9.917a.113.113,0,0,1-.1.069" transform="translate(7.757 44.679)"/></g></g></g></svg>