<svg xmlns="http://www.w3.org/2000/svg" xmlns:xlink="http://www.w3.org/1999/xlink" width="471" height="284" viewBox="0 0 471 284"><defs><style>.a,.g,.l{fill:#fff;}.a{stroke:#707070;}.b{clip-path:url(#a);}.c{fill:url(#b);}.d{fill:#cff1f9;}.e{fill:#6184f6;}.f{fill:#83c2f5;}.h{fill:#81b5ff;}.ai,.i{fill:#0199fe;}.i{opacity:0.15;}.j{fill:#00c936;}.k{fill:#000d3a;}.l{stroke:#000d3a;stroke-miterlimit:10;stroke-width:0.319px;}.m{fill:#ff7f00;}.n{fill:#f50;}.o{fill:#2845aa;}.p{fill:#fc9d9d;}.q{fill:#ffc1c2;}.r{fill:#ffa7a6;}.s{fill:#005a3d;}.al,.t{fill:#07ae7b;}.u{fill:#000b28;}.v{fill:#9cafe5;}.w{fill:#021449;}.x{fill:#21388a;}.y{fill:#f9ca37;}.z{fill:#24355b;}.aa{fill:#f48771;}.ab{fill:#9f5c57;}.ac{fill:#75433f;}.ad{fill:#101e44;}.ae{fill:#f7b633;}.af{fill:url(#c);}.ag{fill:#2d4177;}.ah{fill:url(#d);}.ai{opacity:0.12;}.aj{fill:#114dbd;opacity:0.5;}.ak{opacity:0.74;}.al{opacity:0.51;}</style><clipPath id="a"><rect class="a" width="471" height="284" transform="translate(1368 287)"/></clipPath><linearGradient id="b" x1="0.538" y1="0.531" x2="0.49" y2="0.696" gradientUnits="objectBoundingBox"><stop offset="0" stop-color="#fff"/><stop offset="1" stop-color="#eaf0ff"/></linearGradient><linearGradient id="c" x1="14.876" y1="27.188" x2="15.437" y2="27.188" gradientUnits="objectBoundingBox"><stop offset="0" stop-color="#3b58a8"/><stop offset="1" stop-color="#3b58a8"/></linearGradient><linearGradient id="d" x1="19.414" y1="28.821" x2="19.95" y2="28.821" xlink:href="#c"/></defs><g class="b" transform="translate(-1368 -287)"><g transform="translate(1337.867 163.365)"><path class="c" d="M258.972,192.8c-68.709,2.9-78.127-49.953-117.143-13.409S117.1,252.9,97.229,278.265s-75.51,56.527-20.437,68.9,20.523,41.675,74.175,57.357S218.418,361.678,282,368.425s122.97,1.366,117.749-70.34S323.116,180.113,258.972,192.8Z"/><path class="d" d="M314.782,145.427v70.206a9.881,9.881,0,0,0,9.882,9.882H455.579a9.882,9.882,0,0,0,9.882-9.882V145.427a9.882,9.882,0,0,0-9.882-9.882H324.661a9.882,9.882,0,0,0-9.878,9.882Z"/><path class="e" d="M387,184.485l31.388,9.89a34.168,34.168,0,0,1-49.719,17.434Z"/><path class="e" d="M384.666,182.067l-18.723,27.91a34.17,34.17,0,0,1,17.831-61.511Z"/><path class="e" d="M393.059,181.218,416.583,160.7a34.182,34.182,0,0,1,6.242,29.893Z"/><path class="e" d="M387.873,179.016l-.813-30.638a34.088,34.088,0,0,1,23.913,10.494Z"/><path class="f" d="M387,181.712,418.39,191.6a34.168,34.168,0,0,1-49.719,17.434Z"/><path class="f" d="M384.666,179.295,365.943,207.2a34.17,34.17,0,0,1,17.831-61.511Z"/><path class="f" d="M393.059,178.445l23.524-20.507a34.18,34.18,0,0,1,6.242,29.892Z"/><path class="f" d="M387.873,176.243l-.813-30.638A34.085,34.085,0,0,1,410.973,156.1Z"/><path class="g" d="M364.073,172.717a.623.623,0,0,0,.333-.095.631.631,0,0,0,.2-.869l-9.988-16.044a.63.63,0,0,0-.531-.3H326.448a.63.63,0,0,0,0,1.26h27.29l9.8,15.749a.628.628,0,0,0,.536.3Z"/><circle class="g" cx="4.659" cy="4.659" r="4.659" transform="translate(320.808 151.381)"/><path class="h" d="M394.338,153.268a.628.628,0,0,0,.531-.3l14.963-24.045h62.663a.631.631,0,0,0,0-1.261H409.486a.628.628,0,0,0-.531.3L393.808,152.3a.63.63,0,0,0,.531.964Z"/><circle class="h" cx="4.659" cy="4.659" r="4.659" transform="translate(468.821 123.635)"/><path class="g" d="M417.156,172.265a.628.628,0,0,0,.531-.3l6.73-10.815h20.252a.631.631,0,1,0,0-1.261h-20.6a.627.627,0,0,0-.531.3L416.618,171.3a.631.631,0,0,0,.531.964Z"/><circle class="g" cx="4.659" cy="4.659" r="4.659" transform="translate(440.993 155.862)"/><path class="g" d="M414.175,213.25h20.6a.631.631,0,1,0,0-1.261H414.52l-6.73-10.817a.631.631,0,0,0-1.071.666l6.915,11.114A.631.631,0,0,0,414.175,213.25Z"/><circle class="g" cx="4.659" cy="4.659" r="4.659" transform="translate(431.091 207.964)"/><path class="i" d="M158.7,160.157V193.1a2.477,2.477,0,0,1-2.543,2.476c-20.443-.531-41.533,3.931-63.173,8.88a2.479,2.479,0,0,1-3.035-2.414V166.995a2.482,2.482,0,0,1,1.922-2.415,250.755,250.755,0,0,1,64.421-6.9A2.48,2.48,0,0,1,158.7,160.157Z"/><path class="j" d="M141.829,167.743V173.7a247.67,247.67,0,0,0-34.677,3.624v-6.1a251.132,251.132,0,0,1,34.677-3.486Z"/><path class="j" d="M141.829,179.395v5.958a250.637,250.637,0,0,0-34.677,3.623v-6.095a250.918,250.918,0,0,1,34.677-3.486Z"/><path class="k" d="M288.927,167.915c26.645.98,34.584,7.939,34.366,13.377s-18.671,6.639-26.429,3.915S288.927,167.915,288.927,167.915Z"/><rect class="l" width="207.363" height="148.779" rx="5.444" transform="translate(160.608 177.334)"/><path class="m" d="M258.972,227.612V192.8a60.083,60.083,0,0,0,0,120.166V278.162a25.276,25.276,0,0,1,0-50.55Z"/><path class="n" d="M305.99,295.853a57.377,57.377,0,0,1-41.811,18.013h-.2V280.536h.2a24.173,24.173,0,0,0,19.75-10.21Z"/><path class="o" d="M312.775,214.667,286.26,241.185A26.538,26.538,0,0,0,262.172,225.8h-.212V189.258h.212A62.98,62.98,0,0,1,312.775,214.667Z"/><path class="f" d="M326.7,252.882a62.864,62.864,0,0,1-17.235,43.329l-24.187-27.987a26.572,26.572,0,0,0,2.432-26.491l26.514-26.518A62.8,62.8,0,0,1,326.7,252.882Z"/><path class="p" d="M300.855,297.2a6.822,6.822,0,0,0,1.7,2.057c2.757,2.143,22.632,11.757,27.193,11.61s3.1-13.707,3.1-13.707c-1.693-.3-3.664-.556-5.781-.8-7.65-.876-17.213-1.556-22.388-3.265l-.325-.106a8.209,8.209,0,0,0-1.579-.329C299.617,292.349,299.651,295,300.855,297.2Z"/><path class="p" d="M300.855,297.2c.31.139.638.269.985.386,4.381,1.473,5.095-.661,5.147-1.985a4.2,4.2,0,0,0-.058-.912,25.45,25.45,0,0,1-2.58-1.7c-.645-.476-1.252-.956-1.828-1.4-2.019-1.594-3.641-2.847-5.03-2.482C295.345,289.667,295.685,294.89,300.855,297.2Z"/><path class="q" d="M241.334,394.722c.01.4,4.816,3.561,10.986,7.013a24.843,24.843,0,0,0,5.893,2.58c1.806.435,3.117.2,3.971-.818A4.446,4.446,0,0,0,263,401.89c.726-2.417,3.553-4.116,8.146-5.6h0q.523-.168,1.078-.333l-3.387-5.3c-.456.257-.844.47-1.153.638a54.981,54.981,0,0,1-5.854,2.754,24.817,24.817,0,0,1-7.438,1.756,14.328,14.328,0,0,1-5.1-.565C242.415,393.107,241.326,394.317,241.334,394.722Z"/><path class="r" d="M253.839,397.057c.25,1.806,4.859,6.281,8.348,6.437a4.446,4.446,0,0,0,.815-1.607c.726-2.417,3.553-4.116,8.146-5.6h0c-.554-1.887-2.372-.815-2.372-.815-3.719,1.243-5.338-.783-6.944-1.434A24.817,24.817,0,0,1,254.4,395.8,1.4,1.4,0,0,0,253.839,397.057Z"/><path class="s" d="M255.264,396.7c4.322-1.686,5.716-1.567,6.7-2.957s-4.008-.927-6.815.939S255.264,396.7,255.264,396.7Z"/><path class="s" d="M260.548,405.935a11.3,11.3,0,0,1-2.709,1.7c-.391-.021-6.144-3.258-9.148-4.814s-9.35-5.928-9.506-6.427a2.819,2.819,0,0,1,.652-2.279Z"/><path class="j" d="M240,395.109l.664.425c4.412,2.805,18.553,11.44,19.88,10.4a21.136,21.136,0,0,0,5.393-5.373c.861-1.18-1.328-.617-2.133-.019-.4.3-2.182-.89-3.926-2.362a21.632,21.632,0,0,1-3.277-3.312c-.259-.362.38-2.038-.037-1.884-.744.271-3.294,2.006-5.95,1.421-4.408-.969-9.2-2.435-10.78-.294a.695.695,0,0,0,.166,1Z"/><path class="s" d="M254.689,393.617c.336.922-.393,1.768-.759,1.185s-.41-1.026-.244-1.206S254.5,393.518,254.689,393.617Z"/><path class="s" d="M252.686,394.205c.336.922-.393,1.769-.759,1.185s-.41-1.025-.244-1.2S252.5,394.107,252.686,394.205Z"/><path class="s" d="M251.033,393.987c.243.951-.564,1.721-.871,1.105s-.308-1.063-.125-1.224S250.853,393.87,251.033,393.987Z"/><path class="t" d="M240.663,395.536c4.412,2.805,18.553,11.44,19.88,10.4a21.135,21.135,0,0,0,5.393-5.373c.861-1.18-1.328-.617-2.133-.019-.4.3-2.182-.89-3.926-2.362-5.161.547-9-.965-12.953-2.562C243.664,394.305,240.585,394.356,240.663,395.536Z"/><path class="q" d="M215.815,384.9c.074.4,5.325,2.741,11.966,5.16a24.735,24.735,0,0,0,6.232,1.6c1.855.139,3.108-.3,3.788-1.444a4.441,4.441,0,0,0,.546-1.717c.329-2.5,2.849-4.632,7.146-6.83h0c.325-.166.664-.334,1.01-.5l-4.194-4.692c-.408.327-.757.6-1.036.81a54.655,54.655,0,0,1-5.336,3.656,24.771,24.771,0,0,1-7.063,2.925,14.344,14.344,0,0,1-5.129.26C216.625,383.129,215.743,384.5,215.815,384.9Z"/><path class="r" d="M228.529,385.2c.531,1.741,5.8,5.419,9.272,5.016a4.441,4.441,0,0,0,.546-1.717c.329-2.5,2.849-4.632,7.146-6.83h0c-.85-1.774-2.471-.425-2.471-.425-3.476,1.823-5.4.082-7.084-.3a24.771,24.771,0,0,1-7.063,2.925A1.419,1.419,0,0,0,228.529,385.2Z"/><path class="s" d="M229.883,384.62c4-2.357,5.39-2.463,6.139-3.992s-4.1-.273-6.577,2.019S229.883,384.62,229.883,384.62Z"/><path class="s" d="M236.577,392.886c-.8.79-2.012,2.07-2.4,2.107s-6.588-2.231-9.8-3.285-10.181-4.356-10.413-4.822a2.815,2.815,0,0,1,.278-2.353Z"/><path class="j" d="M214.564,385.486l.724.319c4.8,2.061,20.147,8.32,21.289,7.079a21.141,21.141,0,0,0,4.463-6.169c.661-1.3-1.409-.4-2.107.319-.349.359-2.3-.531-4.25-1.7a21.726,21.726,0,0,1-3.766-2.745c-.313-.319.049-2.073-.338-1.853-.694.386-2.93,2.507-5.648,2.356-4.506-.251-9.468-.931-10.687,1.437a.693.693,0,0,0,.321.958Z"/><path class="s" d="M228.824,381.661c.479.857-.106,1.806-.559,1.291s-.57-.947-.435-1.151S228.621,381.6,228.824,381.661Z"/><path class="s" d="M226.939,382.568c.478.857-.106,1.806-.56,1.291s-.57-.947-.435-1.151S226.735,382.5,226.939,382.568Z"/><path class="s" d="M225.271,382.617c.392.9-.282,1.789-.683,1.229s-.474-1-.319-1.188S225.075,382.529,225.271,382.617Z"/><path class="t" d="M215.288,385.805c4.8,2.061,20.147,8.32,21.289,7.079a21.141,21.141,0,0,0,4.463-6.169c.661-1.3-1.409-.4-2.107.319-.349.359-2.3-.531-4.25-1.7-5.007,1.366-9.037.489-13.2-.454C218.047,384.105,215.017,384.655,215.288,385.805Z"/><path class="q" d="M289.476,303.6a7.224,7.224,0,0,0,.4.867,6.836,6.836,0,0,0,1.7,2.057c2.763,2.143,22.632,11.756,27.193,11.61s3.1-13.707,3.1-13.707c-.817-.143-1.7-.278-2.631-.406-7.974-1.1-19.622-1.707-25.538-3.66l-.325-.106C289.188,299,288.592,301.309,289.476,303.6Z"/><path class="q" d="M286.816,302.244a8.589,8.589,0,0,0,3.062,2.226c.311.139.638.269.985.386a8.394,8.394,0,0,0,2.465.5c3.333.064,2.623-3.393,2.623-3.393a25.627,25.627,0,0,1-2.58-1.7c-2.91-2.148-5.075-4.356-6.858-3.886C284.919,296.79,284.7,299.787,286.816,302.244Z"/><path class="u" d="M355.24,294.646s-18.5,3.121-26.622.465l-5.707,14.6s24.661,12.75,29.857,1.846S355.24,294.646,355.24,294.646Z"/><path class="e" d="M319.935,361.181c-9.563,15.194-44.434,37.818-48.4,36.244s-7.6-7.431-7.6-7.431c1.2-.218,3.081-1.55,5.355-3.613,7.149-6.481,18.195-20.188,24.207-29.326l.6-.181C298.77,355.508,328.765,347.158,319.935,361.181Z"/><path class="f" d="M294.7,359.365c-.124,13.5-13.154,27.27-25.4,27.013,7.149-6.481,18.195-20.188,24.207-29.326l.6-.181A4.816,4.816,0,0,1,294.7,359.365Z"/><path class="v" d="M302.345,339.054c7.17-9.579,21.881-11.157,21.881-11.157s14.047,1.554,0,8.087S302.345,339.054,302.345,339.054Z"/><path class="f" d="M335.446,356.226c-17.174,15.194-44.754,9.746-60.112,8.754s-30.582,19.886-30.582,19.886-1.254-1.749-2.582-3.766c-1.537-2.328-3.173-5.016-3.081-5.768.166-1.4,14.944-22.738,31.955-30.665s33.688-7.6,44.493-13.047c5.3-3.978,10.641-4.855,15.142-3.719C341.68,330.67,347.634,345.446,335.446,356.226Z"/><path class="e" d="M335.446,356.226c-17.174,15.194-44.754,9.746-60.112,8.754s-30.582,19.886-30.582,19.886-1.254-1.749-2.582-3.766c14.844-17.585,26.59-23.364,43.981-26.049,17.944-2.772,44.4-13.267,44.525-27.155C341.68,330.67,347.634,345.446,335.446,356.226Z"/><path class="k" d="M312.49,331.791c-.239,3.506,20.9,20.294,23.975,22.177s12.135-4.8,20.316-22.175,8.662-31.889,7.663-39.959a30.793,30.793,0,0,0-13.472,2.664c-4.038,1.9-17.521,14.189-27.391,24.213-3,3.047-5.669,5.886-7.633,8.158C313.844,329.306,312.541,331.09,312.49,331.791Z"/><path class="q" d="M348.616,291.484a5.869,5.869,0,0,0,.485,3.754c1.027,2.1,3.483,3.957,8.15,4.181,7.466.359,11.073-5.991,11.073-5.991a15.078,15.078,0,0,0,.548-2.1c.443-2.348.594-6.025-2.287-7.559-4.393-2.338-11.03-3.1-11.03-3.1-.409.46-.823.936-1.231,1.425-.036.04-.069.082-.106.122C351.6,285.341,349.156,288.876,348.616,291.484Z"/><path class="u" d="M315.951,326.87a80.252,80.252,0,0,0,24.47-4.981s-10.169-2.359-16.837-3.177C320.583,321.759,317.916,324.6,315.951,326.87Z"/><path class="p" d="M286.816,302.244a8.589,8.589,0,0,0,3.062,2.226,6.837,6.837,0,0,0,1.7,2.057c2.763,2.143,22.632,11.756,27.193,11.61s3.1-13.707,3.1-13.707c-.817-.143-1.7-.278-2.631-.406-3.218,3.92-3.313,7.824-7.279,7.2-4.155-.655-14.309-3.613-18.627-5.869a10.935,10.935,0,0,1-1.134-.668s-1.259-.439-2.719-1.081a22.075,22.075,0,0,1-2.661-1.363Z"/><path class="u" d="M349.319,304.3c-9.013-1.488-10.471-1.851-10.471-1.851l-2.55,4Z"/><path class="k" d="M312.887,320.177c-.011.625,11.095,2.952,20.459,3.993h0c6.018.669,11.316.806,12.479-.377,1.184-1.2,2.468-4.764,3.584-8.614.015-.042.027-.085.039-.131,1.671-5.787,2.961-12.172,2.961-12.172-13.4,2.478-31.071-2.31-32.074-1a96.772,96.772,0,0,0-4.218,9.563A87.79,87.79,0,0,0,312.887,320.177Z"/><path class="w" d="M312.887,320.177c-.011.625,11.095,2.952,20.459,3.993h0c7.685-.562,14.91-7.787,16.063-8.991.106-.106.161-.171.161-.171l-.122.04c-15.532,5.159-29.19-1.3-33.331-3.605A87.562,87.562,0,0,0,312.887,320.177Z"/><path class="q" d="M302.521,291.584a4.439,4.439,0,0,0,.249,1.074,8.452,8.452,0,0,0,.956,1.557c.425.618,1.615.993,3.259,1.388a46.648,46.648,0,0,1,10.094,3.081c5.407,2.606,7.631.512,9.988-2.322-7.65-.876-17.213-1.556-22.388-3.265l-.325-.106C303.7,292.515,303.1,292.036,302.521,291.584Z"/><path class="p" d="M349.1,295.238c1.027,2.1,3.483,3.957,8.15,4.181,7.466.359,11.073-5.991,11.073-5.991a15.091,15.091,0,0,0,.548-2.1c-1.462-5.551-6.493-9.394-8.1-9.442-1.937-.056-5.738.163-6.445.207l-.113.006a.468.468,0,0,0,.01.116c.336,4.741,4.915,6.351,6.056,9.012,1.146,2.685-1.12,5.265-5.086,5.7A9.4,9.4,0,0,1,349.1,295.238Z"/><path class="x" d="M376.813,273.534c-.615-3.294-7.412-6.135-10.313-3.314,0,0-6.258-2.934-7.814,3.063,0,0-6.183-.744-6.8,3.733-.718,5.2,7.857,10.307,7.845,11.679s2.74-2.852,4.9.373-2.72,4.1-3.652,6.61.159,3.25,3.055,3.556c0,0,1.51,5.142,9.229,4.862s7.447-9.8,7.447-9.8,2.823-1.789,3.026-4.789-2.816-5.17-2.816-5.17S387.211,277.039,376.813,273.534Z"/><path class="o" d="M366.479,271.621a3.556,3.556,0,0,0-1.893-.843,4.133,4.133,0,0,0-2.125.285,3.992,3.992,0,0,0-1.7,1.324,2.821,2.821,0,0,0-.579,2,5.166,5.166,0,0,1,1.188-1.451,5.714,5.714,0,0,1,1.488-.911,5.99,5.99,0,0,1,1.7-.425,9.514,9.514,0,0,1,1.922.019Z"/><path class="o" d="M358.286,275.314c-3.081-1.335-6.275,1.8-3.993,4.929s5.336,6.019,5.533,7.053a13.748,13.748,0,0,0-2.55-6.61C354.8,277.014,356.434,274.953,358.286,275.314Z"/><path class="y" d="M378.431,218.609v26.655a3.387,3.387,0,0,1-3.387,3.388H326.468l-3.1.815-6.214,1.631a1.814,1.814,0,0,1-2.211-2.231l1.694-6.2,1.695-6.2a1.832,1.832,0,0,1,.162-.4V218.609a3.387,3.387,0,0,1,3.386-3.389h53.166A3.388,3.388,0,0,1,378.431,218.609Z"/><rect class="g" width="40.969" height="1.9" rx="0.097" transform="translate(328.351 224.789)"/><rect class="g" width="40.969" height="1.9" rx="0.097" transform="translate(328.351 230.965)"/><rect class="g" width="40.969" height="1.9" rx="0.097" transform="translate(328.351 237.614)"/><path class="f" d="M275.2,133.636H256.8a2.279,2.279,0,0,0-2.279,2.279v9.359a2.278,2.278,0,0,0,2.279,2.278h6.677l2.182,3.782a.956.956,0,0,0,1.649,0l2.182-3.782h5.7a2.278,2.278,0,0,0,2.278-2.278v-9.359A2.278,2.278,0,0,0,275.2,133.636Z"/><circle class="g" cx="1.383" cy="1.383" r="1.383" transform="translate(259.034 139.373)"/><circle class="g" cx="1.383" cy="1.383" r="1.383" transform="translate(264.616 139.373)"/><circle class="g" cx="1.383" cy="1.383" r="1.383" transform="translate(270.196 139.373)"/><path class="m" d="M146.181,204.336l7.721-7.773a.89.89,0,0,1,1.26,0l.8.792a.891.891,0,0,0,1.488-.4l1.744-6.6a.891.891,0,0,0-1.1-1.088l-6.588,1.788a.89.89,0,0,0-.394,1.488l.8.792a.893.893,0,0,1,0,1.261L145.5,201.05a.89.89,0,0,1-.965.2l-9.623-3.872a.889.889,0,0,0-.963.2L119.928,211.59a.89.89,0,0,0,0,1.26l.716.717a.891.891,0,0,0,1.26,0l12.719-12.711a.891.891,0,0,1,.963-.2l9.631,3.877a.891.891,0,0,0,.965-.2Z"/><path class="q" d="M243.583,198.077c-.4,2.975-.834,6.633-.58,8.265s6.417,1.341,6.634.254-1.306-7.36-1.381-8.193S243.583,198.077,243.583,198.077Z"/><path class="p" d="M245.007,203.428a4.785,4.785,0,0,1,3.755-2.639,20.257,20.257,0,0,1,.41,4.2,5.013,5.013,0,0,1-.667,1.949A12.936,12.936,0,0,1,245.007,203.428Z"/><path class="q" d="M242.59,207.346s-.466-2.763,1.074-4.144a5,5,0,0,1,3.748-.95,6.381,6.381,0,0,1,4.767,6.6c-.31,3.326-3.882,2.656-5.321,3.081s2.651,6.341,1.57,7.75c-.932,1.21-3.8-4.3-5.256-9.731C242.935,209.075,242.737,208.2,242.59,207.346Z"/><path class="o" d="M264.023,173.353c-14.427,8.049-15.008,27.333-15.008,27.333h-6.307s-4.569-10.366-1.234-20.881a36.077,36.077,0,0,1,20.046-22.048h0a32.237,32.237,0,0,1,7.141-2.019S278.451,165.305,264.023,173.353Z"/><path class="q" d="M315.541,185.523a8.607,8.607,0,0,0-1.988-3.225q-.353-.372-.764-.731a8.383,8.383,0,0,0-2.09-1.4c-3.058-1.329-3.719,2.138-3.719,2.138a25.8,25.8,0,0,1,1.737,2.558c1.872,3.094,3.032,5.959,4.861,6.205C315.219,191.289,316.562,188.6,315.541,185.523Z"/><path class="o" d="M312.278,180.494l-3.263,5.112c-6.784-2.7-22.384-6.106-32.49-7.106-1.72-.172-3.282-.274-4.614-.29,0,0,2.845-11.093,17.532-9.457a36.059,36.059,0,0,1,15.078,5.258h0A33.384,33.384,0,0,1,312.278,180.494Z"/><path class="x" d="M264.023,173.353c-14.427,8.049-15.008,27.333-15.008,27.333h-1.529c-.941-5.389,2.5-15.237,4.257-22.983,1.971-8.7,4.339-14.462,9.775-19.946h0a32.236,32.236,0,0,1,7.141-2.019S278.451,165.305,264.023,173.353Z"/><path class="z" d="M304.521,174.012a15.806,15.806,0,0,0-6.889-1.637c-4.127-.079-10.223,5.95-15.443,5.509-3.159-.262-4.971-.019-5.662.616-1.72-.172-3.282-.274-4.614-.29,0,0,2.845-11.093,17.532-9.457a36.059,36.059,0,0,1,15.076,5.258Z"/><path class="q" d="M267.7,181.736c-.213.089-.432.174-.657.252-.255.089-.5.166-.731.222h-.008c-6.138,1.56-5.313-7.237-6.084-12.821-.006-.044-.011-.084-.017-.125a1.075,1.075,0,0,0-.02-.129c-.019-.135-.041-.27-.063-.4-.031-.183-.065-.359-.1-.531,1.531-4.644,8.2-3.2,12.559-1.182a18.275,18.275,0,0,1,2.436,1.344,3.72,3.72,0,0,1,1.42,1.356C277.057,171.6,274.636,178.893,267.7,181.736Z"/><path class="p" d="M267.7,181.736c2.893-2.338,4.028-4.542,4.268-6.163a2.881,2.881,0,0,0-.483-2.364,7.793,7.793,0,0,0-1.546-1.234A7.177,7.177,0,0,0,265,170.817a6.2,6.2,0,0,1-4.781-1.423c-.131-.106-.2-.171-.2-.171a2.449,2.449,0,0,1,.1-.483c.368-1.251,2.073-4.331,9.759-1.806,2.052.675,3.751,1.114,5.136,1.433a3.72,3.72,0,0,1,1.42,1.356C277.057,171.6,274.636,178.893,267.7,181.736Z"/><path class="m" d="M326.7,178.21c-7.069,4.675-22.258-8.808-29.545-6.96s-12.615,5.364-19.25,4.639a7.373,7.373,0,0,1-5.555-2.869c-1.159-1.462-1.83-3-3.907-3.4-3.915-.761-9.931,1.381-8.554-.833-2.538-5.294,3.226-4.278,4.639-10.912s14.791-10.55,22.078-5.656,15.878-5.04,22.73-2.192,13.813,5.563,19.9,2.628c1.836-.885,2.975.661,3.483,3.38h0C333.889,162.339,331.639,174.944,326.7,178.21Z"/><path class="n" d="M326.92,178.21c-7.069,4.675-22.258-8.808-29.545-6.96s-12.615,5.364-19.25,4.639a7.371,7.371,0,0,1-5.555-2.869c.837-.8,1.45-1.381,1.45-1.381,3.16,1.111,1.637,3.259,7.891,1.477s13.649-6.423,20.174-4.535,18.652,6.834,22.893,3.953,6.579-6.689,7.233-12.889a19.482,19.482,0,0,1,.728-3.613C334.107,162.339,331.857,174.944,326.92,178.21Z"/><path class="q" d="M272.858,175.339a3.736,3.736,0,0,1-.525.425c-.03.02-.058.039-.088.057-.54.341-1.051.452-1.293.281-.638-.451-1.3-3.9-1.3-3.9.037-.039.077-.075.114-.115h0c.052-.05.106-.1.163-.148a4.421,4.421,0,0,1,.677-.483,3.739,3.739,0,0,1,1.79-.548,2.01,2.01,0,0,1,.638.091h0a1.546,1.546,0,0,1,1,1.575A3.632,3.632,0,0,1,272.858,175.339Z"/><path class="p" d="M272.858,175.339a8,8,0,0,0,.626-1.8c.319-1.471-1.413-2.273-3.54-1.568a.361.361,0,0,1-.018-.038,4.419,4.419,0,0,1,.677-.483,3.739,3.739,0,0,1,1.79-.548,2.009,2.009,0,0,1,.638.091h0a1.546,1.546,0,0,1,1,1.575A3.641,3.641,0,0,1,272.858,175.339Z"/><path class="aa" d="M262.282,168.949c-2.067-.436-2.937-1.9-.544-3.831s2.937-5.844,4.514-8.3-1.36,4.4-1.468,7.53,7.721,3.506,6.851,4.6S265.272,168.4,262.282,168.949Z"/><path class="ab" d="M148.821,243.669c-.4,2.98-4.965,4.825-5.583,6.083s-2.943-.019-2.943-.019q-.015-.119-.026-.239c-.494-4.692.82-7.745,1.818-8.337a3.934,3.934,0,0,0,1.868-2.146c.185-.425.522-1.207.9-2,.592-1.213,1.3-2.437,1.75-2.338.744.175-.625,3.971-.406,5.158s-.367,4.9.6,3.79.608-3.451.825-3.9S149.215,240.69,148.821,243.669Z"/><path class="ac" d="M144.86,237.016c-.367,3.071-.073,5.717-1.524,7.107-1.859,1.784-.8,4.973-1.936,5.542a1.341,1.341,0,0,1-1.131-.171c-.494-4.692.82-7.745,1.818-8.337a3.934,3.934,0,0,0,1.868-2.146C144.141,238.59,144.478,237.8,144.86,237.016Z"/><path class="ab" d="M79.2,332.891c-.927,2.859-2.772,3.545-2.774,3.043a1.209,1.209,0,0,1,.094-.357c.3-.777,1.169-2.338.84-3.522-.275-1-.888.5-1.476,1.812a8.961,8.961,0,0,1-.695,1.353,11.12,11.12,0,0,0-.9,2.793c-.287,1.125-.576,2.118-.956,2.036-.744-.161-.563-3.881-.531-5.048a3.915,3.915,0,0,0-.764-2.742c-.658-.98-.51-4.4,2.08-8.51,0,0,2.647-.148,2.663,1.251a8.389,8.389,0,0,0,1.182,2.669C78.827,329.278,79.749,331.215,79.2,332.891Z"/><path class="ac" d="M73.952,334.612a12.509,12.509,0,0,0,.335,3.4c-.287,1.125-.576,2.118-.956,2.036-.744-.161-.563-3.881-.531-5.048a3.915,3.915,0,0,0-.764-2.742c-.658-.98-.51-4.4,2.08-8.51,0,0,2.647-.148,2.663,1.251a8.389,8.389,0,0,0,1.182,2.669C75.46,328.624,74.165,331.239,73.952,334.612Z"/><path class="o" d="M91.624,286.843c-2.13,6.634-11.1,13.795-11.1,13.795.159,10.535-1.752,25.122-1.752,25.122l-3.194-.319-3.738-.378s-1-16.374,1.864-26.946,13.572-20.649,13.572-20.649S93.754,280.208,91.624,286.843Z"/><path class="x" d="M91.624,286.843c-2.13,6.634-11.1,13.795-11.1,13.795.159,10.535-1.752,25.122-1.752,25.122l-3.194-.319c.167-5.52,1.043-26.012,5.044-29.684,4.631-4.25,1.9-8.2,6.654-18.289C87.273,277.466,93.754,280.208,91.624,286.843Z"/><path class="ad" d="M99.739,309.1l-.191,2.491a4.872,4.872,0,0,0,.379,1.931s.128.247,1.552.019a3.19,3.19,0,0,0,2.168-1.831c.006-.084-1.472-3.913-1.472-3.913Z"/><path class="ae" d="M124.224,300.771s26.914-.514,33.537-.327,6.709,5.374,6.709,5.374l1.148,41.1-6.892.493s-4.413-14.856-5.279-18.323-1.1-13.036-1.1-13.036l-32.375,4.144-6.4-15.712Z"/><path class="ac" d="M111.15,389.82l2.894-9.617,6.866,3.444-2.481,4.2-2.083,3.53-.225.38a5.743,5.743,0,0,1-3.729.525C110.2,391.889,111.15,389.82,111.15,389.82Z"/><path class="af" d="M116.123,391.762c.65-.186-.168,2,.234,2.54a6.427,6.427,0,0,0,1.514,1.338l3.36,2.39a11.742,11.742,0,0,1,2.029,1.688,3.913,3.913,0,0,1,1.063,2.366.517.517,0,0,1-.089.372.541.541,0,0,1-.31.138,10.89,10.89,0,0,1-4.447-.191c-.783-.173-1.554-.394-2.323-.627-.821-.248-1.641-.509-2.459-.769l-.876-.279-5.473-1.747c-.434-.138-.923-.328-1.074-.758a1.408,1.408,0,0,1,.012-.753,13.829,13.829,0,0,1,2.289-5.215,11.79,11.79,0,0,0,1.578-2.435S115.13,392.044,116.123,391.762Z"/><path class="ag" d="M115.816,393.427q-.729.682-1.511,1.3c-.1.075.007.237.106.16q.8-.637,1.548-1.331c.09-.085-.052-.213-.142-.129Z"/><path class="ag" d="M116.69,394.658a8.192,8.192,0,0,0-1.547,1.828c-.066.106.106.192.17.088a8.021,8.021,0,0,1,1.519-1.787C116.925,394.7,116.782,394.574,116.69,394.658Z"/><path class="ag" d="M117.883,395.793a6.248,6.248,0,0,0-.929,1.515c-.049.114.121.2.17.088a6.047,6.047,0,0,1,.9-1.475C118.1,395.826,117.961,395.7,117.883,395.793Z"/><path class="ag" d="M119.06,396.561a4.764,4.764,0,0,0-.638,1.341c-.035.119.153.159.188.041a4.588,4.588,0,0,1,.622-1.294c.07-.1-.106-.188-.17-.088Z"/><path class="ag" d="M123.62,400.124a1.128,1.128,0,0,1-.17.666,1.964,1.964,0,0,1-.91.693,4.017,4.017,0,0,1-2.388.236,13.066,13.066,0,0,1-2.791-1.222c-2.321-1.111-4.93-1.376-7.363-2.193a2.3,2.3,0,0,1-1.35-.895,2.15,2.15,0,0,1-.213-1.107,5.862,5.862,0,0,1,.951-3.04c.319-.487.712-.921,1.016-1.42a2.691,2.691,0,0,0,.435-1.448,20.555,20.555,0,0,1-1.275,1.806,13.829,13.829,0,0,0-2.289,5.215,1.418,1.418,0,0,0-.012.753c.151.425.638.619,1.074.758l5.476,1.746.876.279c.818.26,1.636.522,2.459.77.767.232,1.539.453,2.322.626a10.979,10.979,0,0,0,4.447.191.541.541,0,0,0,.31-.138.515.515,0,0,0,.089-.371A3.57,3.57,0,0,0,123.62,400.124Z"/><path class="ab" d="M116.347,391.381c-.761-1.219-.265-3.631.286-4.038.357-.267,1.154.115,1.8.511Z"/><path class="e" d="M165.617,346.916l-4.287.308-2.605.187s-4.412-14.857-5.279-18.324-1.1-13.037-1.1-13.037l-32.374,4.144-6.4-15.714,10.647-3.71s1.542-.03,3.977-.07c7.742-.135,24.522-.4,29.561-.258,6.623.188,6.709,5.375,6.709,5.375Z"/><path class="f" d="M135.746,353.35c-1.734,4.229-13.552,35.839-13.552,35.839l-7.331-3.1-7.619-3.226s9.4-20.854,11.238-24.651a35.464,35.464,0,0,1,4.618-6.962s-20.613-19.693-21.9-24.951-.638-13.651-.638-13.651l-.946-3.544,15.683-4.281.128-.035.275.557.007.01c.106.212.234.472.39.784v.007c3.308,6.648,17.655,35.489,18.082,36.393C134.672,343.559,137.479,349.121,135.746,353.35Z"/><path class="e" d="M114.866,386.088l-7.619-3.226s9.4-20.854,11.238-24.651a35.464,35.464,0,0,1,4.618-6.962S102.49,331.556,101.2,326.3s-.638-13.651-.638-13.651l-.946-3.544,15.683-4.281a4.777,4.777,0,0,1,.4.522l.007.01a3.021,3.021,0,0,1,.39.784v.007c-6,7.206-7.669,13.521-2.3,22.256s15.619,15.543,16.207,21.023C130.585,354.673,116.109,383.614,114.866,386.088Z"/><path class="o" d="M126.027,299.776c-3.855,5.87-14.228,7.675-20.367,8.727a20.425,20.425,0,0,0-4.506,1.012c-2.141,1.248-1.282,3.847-1.229,4-2.656-4.632-1.258-11.643-3.188-16S87.62,291.2,85.615,286.405s.622-9.449,4.154-10.471a10.225,10.225,0,0,0,5.094-3.062l1.39-.148,5.683-.6a24.032,24.032,0,0,1,5.07-.964c.13-.009.257-.016.385-.02a9.743,9.743,0,0,1,2.369.166,3.468,3.468,0,0,1,2.476,1.613,9.794,9.794,0,0,1,.615,1.488c.715,2.145,1.312,5.375,2.019,8.592a41.64,41.64,0,0,0,2.175,7.456,10.7,10.7,0,0,0,.836,1.577A30.914,30.914,0,0,0,126.027,299.776Z"/><path class="x" d="M105.888,308.5a20.426,20.426,0,0,0-4.505,1.012c-2.141,1.248-1.282,3.847-1.23,4-2.656-4.632-1.257-11.643-3.188-16s-9.119-6.314-11.124-11.111.623-9.449,4.156-10.471a10.218,10.218,0,0,0,5.093-3.062l1.39-.148a2.189,2.189,0,0,1,.162.827c-2.581,5.5-8.371,8.537-7.3,12.638s11.779,4.632,15.88,11.237A12.3,12.3,0,0,1,105.888,308.5Z"/><path class="w" d="M103.006,256.8s-3.43,11.957-6.528,11.232a3.306,3.306,0,0,0-.378-.069h-.012c-.028,0-.054-.009-.08-.011a.244.244,0,0,0-.04,0c-.048,0-.1-.008-.147-.011a1.141,1.141,0,0,0-.134-.007,2.09,2.09,0,0,0-.283,0,1.3,1.3,0,0,0-.146.01l-.141.014a.752.752,0,0,0-.106.016c-.106.016-.213.034-.312.058-.045.01-.09.023-.136.037a1.276,1.276,0,0,0-.135.038c-.084.026-.168.055-.25.087s-.173.07-.26.106-.155.071-.23.106h-.007c-.075.038-.15.078-.223.12a.086.086,0,0,0-.018.012c-.08.044-.157.089-.235.139s-.159.1-.239.152-.157.106-.237.165-.157.106-.237.171-.173.128-.259.2-.173.134-.262.2c-.068.054-.136.106-.207.164-.213.164-.417.333-.629.5-.309.245-.628.5-.966.744-.09.066-.182.132-.275.2s-.185.128-.278.189c-.213.141-.432.277-.66.41-.057.034-.117.066-.173.1-.1.054-.2.106-.3.161-3.287,1.688-8.808.859-13.3-3.941-.327-.351-.638-.658-.92-.924-.143-.135-.279-.257-.414-.371a6.109,6.109,0,0,0-1.324-.9c-.072-.036-.143-.066-.213-.094a2.639,2.639,0,0,0-1.587-.135c-.051.01-.106.023-.153.035a7.975,7.975,0,0,0-1.246.469c-.116.05-.237.106-.362.162l-.347.155c-.463.2-.98.418-1.575.613-.114.036-.233.075-.353.106-.057.018-.114.034-.173.05l-.18.05c-.163.044-.328.085-.5.123-.068.016-.139.032-.213.046-.221.048-.454.088-.695.128a.312.312,0,0,0-.069.012,8.749,8.749,0,0,1-3.76-.258c-4.021-1.157-7.119-5.007-6.94-8.986.237-5.162,6.724-9.519,11.558-5.018s8.944-1.577,13.309-3.588,5.98.137,10.993,2.306,5.8-2.787,8.159-3.012a4.363,4.363,0,0,1,2.633.6,6.767,6.767,0,0,1,2.665,3.125A4.123,4.123,0,0,1,103.006,256.8Z"/><path class="k" d="M96.1,267.963c-.044-.009-.089-.013-.132-.018s-.1-.009-.147-.011l-.134-.007a3.712,3.712,0,0,0-1.26.173,6.676,6.676,0,0,0-1.936,1.069c-.173.128-.346.261-.522.4-.068.054-.136.106-.207.164-.213.164-.417.333-.629.5a15.76,15.76,0,0,1-2.656,1.795c-3.287,1.688-8.808.859-13.3-3.941-4.463-4.781-4.67-1.357-10.254-.482a35.564,35.564,0,0,1,4.569-2.125c6.076-2.16,16.743,3.772,15.422.432-.934-2.366,1.071-5.727,4.556-7.779C94.719,260.911,95.229,266.255,96.1,267.963Z"/><path class="ab" d="M93.52,266.455s1.634,1.913.758,7.667a7.566,7.566,0,0,0,5.249,2.617,4.029,4.029,0,0,0,3.964-3.094s-1.468-1.246-1.778-5.641l-4.569-2.4Z"/><path class="ac" d="M163.378,353.206l-1.968-9.059,7.084-.293-.12,4.505-.106,3.78-.011.408a5.3,5.3,0,0,1-2.776,2.093C163.53,355.3,163.378,353.206,163.378,353.206Z"/><path class="ah" d="M168.261,352.548c.442-.441.759,1.687,1.327,1.947a5.947,5.947,0,0,0,1.82.4l3.783.425a10.735,10.735,0,0,1,2.394.455,3.642,3.642,0,0,1,1.919,1.433.472.472,0,0,1,.094.34.5.5,0,0,1-.189.25,10.019,10.019,0,0,1-3.674,1.836c-.71.212-1.431.377-2.155.531-.776.167-1.552.319-2.33.479l-.832.166-5.206,1.042a1.4,1.4,0,0,1-1.207-.131,1.3,1.3,0,0,1-.327-.613,12.744,12.744,0,0,1-.487-5.235,10.738,10.738,0,0,0,.183-2.672C163.378,353.206,167.587,353.219,168.261,352.548Z"/><path class="ag" d="M168.763,354.026q-.284.877-.638,1.727c-.044.106.113.188.156.082q.364-.87.655-1.768c.035-.106-.137-.148-.172-.04Z"/><path class="ag" d="M170.017,354.631a7.554,7.554,0,0,0-.431,2.168c0,.115.171.106.177-.005a7.444,7.444,0,0,1,.425-2.125c.038-.106-.135-.146-.172-.039Z"/><path class="ag" d="M171.493,355.017a5.769,5.769,0,0,0-.071,1.639c.012.113.188.106.177-.005a5.577,5.577,0,0,1,.066-1.594c.021-.112-.151-.152-.172-.039Z"/><path class="ag" d="M172.781,355.107a4.388,4.388,0,0,0,.084,1.369c.024.112.194.06.17-.051a4.194,4.194,0,0,1-.076-1.323C172.969,354.988,172.792,355,172.781,355.107Z"/><path class="ag" d="M178.057,355.942a1.029,1.029,0,0,1,.161.614,1.8,1.8,0,0,1-.425.967,3.719,3.719,0,0,1-1.822,1.258,11.8,11.8,0,0,1-2.8.262c-2.371.142-4.6,1.1-6.926,1.526a2.107,2.107,0,0,1-1.488-.117,1.954,1.954,0,0,1-.664-.8,5.409,5.409,0,0,1-.593-2.879c.04-.531.162-1.063.184-1.6a2.479,2.479,0,0,0-.3-1.364c-.008.675-.14,1.352-.213,2.025a12.761,12.761,0,0,0,.486,5.235,1.3,1.3,0,0,0,.328.612,1.4,1.4,0,0,0,1.207.132l5.2-1.042.832-.167c.777-.155,1.554-.311,2.329-.479.724-.156,1.446-.319,2.156-.531a10.068,10.068,0,0,0,3.674-1.836.5.5,0,0,0,.189-.251.471.471,0,0,0-.095-.339,3.357,3.357,0,0,0-1.427-1.225Z"/><path class="ab" d="M168.272,352.139a3.879,3.879,0,0,1-1.578-3.389c.169-.375.984-.425,1.68-.391Z"/><path class="ab" d="M105.469,267.084c-1.422,4.829-8.943,3.861-10.538.85-.225-.425-.478-.907-.744-1.415-.357-.676-.744-1.406-1.118-2.125q-.226-.434-.452-.862c-.719-1.375-1.381-2.656-1.785-3.428l-.4-.763,1.458-.655,9.156-4.1.452-.2S106.891,262.253,105.469,267.084Z"/><path class="ab" d="M94.448,266.278a1.594,1.594,0,0,1-.262.241,1.649,1.649,0,0,1-.906.319c-1.488.083-3.264-1.56-2.711-2.913.4-.979,1.319-.769,2.047-.4a5.379,5.379,0,0,1,.675.41c.213.153.349.269.349.269Z"/><path class="ac" d="M102.022,270.308l-.052-.068c-4.292.371-7.544-2.9-7.544-2.9s3.294,5.6,5.738,6.108a3.807,3.807,0,0,0,2.869-.4A8.369,8.369,0,0,1,102.022,270.308Z"/><path class="e" d="M124.3,387.423c-3.335-.412-4.712-14.734-3.206-18.339s-11.294,8.527-11.962,13.649S124.3,387.423,124.3,387.423Z"/><path class="e" d="M121.645,386.566c-1.783-.372-1.044-1.508-2.722-1.733s-1.611-1.04-3.112-.981-1.694-.531-2.707-.85-1.285.014-1.913-.432a24.1,24.1,0,0,0-3.267-1.2c-.738-.308-1.091-.155-1.574-.915-.18-.249-.537.857-.784,1.521-.01.027-.017.051-.024.077a.8.8,0,0,0-.224.319c-.292.645-.818,1.681-.515,1.631.878-.2,1.019.159,1.762.461a23.848,23.848,0,0,0,3.162,1.451c.758.122.715.55,1.66,1.038s1.5.2,2.521,1.3,1.55.475,2.9,1.5,1.625-.3,3.153.69,1.784,1.686,2.485,1.261a7.084,7.084,0,0,1,.85-.6,6.9,6.9,0,0,0,.733-.566c.525-.037.73-.593.446-2.083a8.618,8.618,0,0,1-.177-1.022C124.1,386.627,123.414,386.936,121.645,386.566Z"/><path class="f" d="M171.068,343.75c-1.464.454-1.381-.683-2.711-.164s-1.61-.106-2.69.547-1.465.3-2.338.477-.94.531-1.582.46a20.521,20.521,0,0,0-2.893.451c-.67.074-.866.333-1.531-.031-.234-.106-.046.85.044,1.439a.338.338,0,0,0,.013.067.677.677,0,0,0-.036.319c.048.594.084,1.57.286,1.41.565-.5.815-.3,1.488-.379a19.757,19.757,0,0,0,2.92-.221c.607-.221.751.113,1.645.086s1.186-.462,2.389-.07,1.335-.284,2.745-.082,1.072-.886,2.6-.779,2,.512,2.344-.087a6.778,6.778,0,0,1,.377-.787,5.794,5.794,0,0,0,.308-.716c.371-.241.3-.734-.522-1.714a7.106,7.106,0,0,1-.547-.68C172.9,342.794,172.517,343.3,171.068,343.75Z"/><path class="f" d="M170.841,346.616l-9.512.611c-.85-4.553-.194-18.153-.531-27.612-.367-10.094-2.824-13.635-14.187-11.541-10.691,1.971-20.205-3.294-18.406-7.373,7.742-.135,24.522-.4,29.561-.258,6.623.188,6.709,5.375,6.709,5.375Z"/><path class="o" d="M144.938,249.105s-4.781,25.535-8,29.5c-2.69,3.31-17.334,4.192-22.07,4.391-.93.039-1.479.053-1.479.053l-4.843-9.007L107,271.159l-.028-.05s.146.012.412.03c.462.036,1.292.1,2.369.166,5.585.362,17.831.98,20.114-.373,3.619-2.148,9.751-22.884,9.751-22.884l4.584.911Z"/><path class="ac" d="M77.43,334.77a2.989,2.989,0,0,1-.906.809c.3-.777,1.169-2.338.84-3.522-.275-1-.888.5-1.476,1.812.517-2.019.772-3.285,1.488-2.515A3.042,3.042,0,0,1,77.43,334.77Z"/><path class="x" d="M144.938,249.105s-4.781,25.535-8,29.5c-2.69,3.31-17.334,4.192-22.07,4.391a41.718,41.718,0,0,0,2.173,7.452c-.137-.239-4.474-7.9-5.295-13.707,0,0,11.54,4.662,17.616,2s9.169-13.717,9.169-13.717c2.53-6.125,4.654-13.069,5.672-16.071Z"/><path class="k" d="M92.653,263.528c-2.267-.556-4.972-3.825-6.509-1.893s-.453,5.063-1.36,5.06-2.484-2.869-1.118-5.971,5.444-5.525,6.765-3.688S92.653,263.528,92.653,263.528Z"/><path class="ac" d="M101.159,255.018c-.039,3.228-3.114,2.431-3.495,5.126-.312,2.225-3.392,2.39-4.373,3.794a1.545,1.545,0,0,0-.223.452,1.736,1.736,0,0,0-.073.638,9.282,9.282,0,0,0,.285,1.806c-1.488.083-3.264-1.56-2.711-2.913.4-.979,1.319-.769,2.047-.4-.719-1.375-1.381-2.656-1.785-3.428.327-.483.685-.956,1.063-1.417l9.153-4.1a.465.465,0,0,1,.113.436Z"/><path class="k" d="M102.385,254.888a1.4,1.4,0,0,1-1.313,1.8c-1.762.269-3.574-.356-3.835.919s-.3,3.417-2.186,3.15-.9,2.8-2.4,2.769l-2.45-1.806s-1.337-4.192-1.049-4.25,6.451-2.3,6.451-2.3l5.262-2.1Z"/><path class="ai" d="M162.682,370.439c-31.063,12.681-63.646,11.9-97.495-.048a2.428,2.428,0,0,1-1.621-2.288V327.747a2.422,2.422,0,0,1,3.072-2.338c33.173,9.309,64.75,10.031,94.368.212a2.423,2.423,0,0,1,3.188,2.3v40.27a2.428,2.428,0,0,1-1.511,2.249Z" transform="translate(1.275 -1.381)"/><path class="aj" d="M149.937,348.7c-22.951,9.4-47.036,8.813-72.052-.037a1.645,1.645,0,0,1-1.092-1.55V341.09a1.647,1.647,0,0,1,2.1-1.583c24.58,6.926,47.972,7.462,69.9.148a1.649,1.649,0,0,1,2.176,1.559v5.962a1.651,1.651,0,0,1-1.031,1.527Z"/><path class="aj" d="M119.775,346.883v6.626a1.979,1.979,0,0,1-1.92,1.982c-13.043.356-26.392-2.019-40.018-6.845a1.572,1.572,0,0,1-1.044-1.488V341a1.574,1.574,0,0,1,2-1.517,134.168,134.168,0,0,0,38.956,5.419,1.982,1.982,0,0,1,2.023,1.986Z"/><path class="aj" d="M150,364.484c-22.987,9.429-47.105,8.845-72.16-.029a1.574,1.574,0,0,1-1.046-1.488v-6.163a1.576,1.576,0,0,1,2.006-1.514c24.651,6.96,48.1,7.5,70.087.142a1.577,1.577,0,0,1,2.083,1.488v6.107A1.57,1.57,0,0,1,150,364.484Z"/><path class="aj" d="M101.629,361.783l-.48,6.375a1.971,1.971,0,0,1-2.29,1.795A121.789,121.789,0,0,1,77.8,364.442a1.519,1.519,0,0,1-1.008-1.433v-6.276a1.52,1.52,0,0,1,1.935-1.462,149.957,149.957,0,0,0,21.192,4.416,1.969,1.969,0,0,1,1.71,2.1Z"/><g class="ak" transform="translate(0.106 0.319)"><path class="i" d="M139.155,204.556v50.585s43.741,4.335,43.741,23.124v-59.8S182.9,204.556,139.155,204.556Z"/><path class="al" d="M182.9,218.466v.425A3.393,3.393,0,0,0,182.9,218.466Z"/><path class="al" d="M182.9,218.466v.425A3.393,3.393,0,0,0,182.9,218.466Z"/><path class="i" d="M128.951,245.9v56.5c21.8-3.411,44.351-10.307,53.946-24.13V218.9C182.768,221.829,179.806,238.963,128.951,245.9Z"/><path class="i" d="M179.269,218.654c-.088-.361-.783-2.539-5.1-4.846-4.5-2.408-13.561-5.249-31.385-5.59v43.72a125.527,125.527,0,0,1,19.33,4.259q11.08,3.478,17.157,8.394Z"/><path class="i" d="M132.578,298.113c23.291-4.144,39.35-11.369,46.691-21.024V232q-.963.873-2.1,1.758c-9.113,7.068-24.106,12.2-44.591,15.282Z"/></g><path class="aj" d="M137.385,270.422l.757,16.768a1.169,1.169,0,0,0,1.45.78c11.735.558,28.384-5,34.992-13.094l-.184-.562q-.336.124-.726.265c-1.268.452-2.663-.677-3.671-1.084a2.318,2.318,0,0,0-.24-.084.717.717,0,0,0-1.013.506c-.4,1.142-1.833,1.712-3.312,1.756-.072,0-.142.005-.213,0a5.532,5.532,0,0,1-2.213-.439,4.936,4.936,0,0,0-2.987-.2c-.069.014-.136.028-.2.046A4.672,4.672,0,0,0,157.2,276.6a2.506,2.506,0,0,1-1.653.9c-.066.014-.136.024-.205.032a5.957,5.957,0,0,1-3.961-1,1.71,1.71,0,0,0-1.466-.39,1.2,1.2,0,0,0-.191.076c-.762.38-1.221,1.577-1.806,2.58-.357.609-1.3.518-2.42-.007-.083-.04-.169-.083-.253-.126a12.951,12.951,0,0,1-4.9-4.675,8.6,8.6,0,0,0-1.547-2.008C137.385,271.717,138.145,270.953,137.385,270.422Z"/><rect class="aj" width="5.158" height="34.458" rx="0.611" transform="translate(155.263 249.724) rotate(180)"/><rect class="aj" width="5.158" height="34.458" rx="0.611" transform="translate(166.358 253.787) rotate(180)"/><rect class="aj" width="5.158" height="34.458" rx="0.611" transform="translate(175.267 257.693) rotate(180)"/></g></g></svg>