<svg xmlns="http://www.w3.org/2000/svg" width="61" height="20.856" viewBox="0 0 61 20.856"><defs><style>.a{fill:#fff;}</style></defs><g transform="translate(0 -20.072)"><path class="a" d="M44,22.362,42.88,25.085h2.255Z"/><path class="a" d="M5.227,22.362,4.118,25.085H6.346Z"/><path class="a" d="M30.97,22.747a1.692,1.692,0,0,0-.774-.124H28.184v1.517h1.985a1.537,1.537,0,0,0,.807-.14.7.7,0,0,0,.336-.649A.625.625,0,0,0,30.97,22.747Z"/><path class="a" d="M37.969,34.5a1.6,1.6,0,0,0-.779-.124H35.177v1.534h1.985a1.59,1.59,0,0,0,.81-.139.739.739,0,0,0,.337-.657A.657.657,0,0,0,37.969,34.5Z"/><path class="a" d="M30.016,34.375H27.887v1.741H30c.628,0,1.019-.311,1.019-.9S30.607,34.375,30.016,34.375Z"/><path class="a" d="M60.185,35.4a.422.422,0,0,0-.036-.033,1.129,1.129,0,0,0,.516-.947V32.965a1.129,1.129,0,0,0-1.13-1.13H56.263a3.627,3.627,0,0,0-2.349.754,1.115,1.115,0,0,0-1.052-.754H49.589a3.747,3.747,0,0,0-2.15.59,1.111,1.111,0,0,0-.972-.59h-5.45a1.12,1.12,0,0,0-1,.621c-.078-.055-.135-.118-.216-.167a5.082,5.082,0,0,0-2.5-.455H33.533a1.119,1.119,0,0,0-1,.627,4.521,4.521,0,0,0-2.52-.627H24.8a1.126,1.126,0,0,0-.829.359l-1.237,1.333L21.545,32.21a1.106,1.106,0,0,0-.839-.376H14.138a1.128,1.128,0,0,0-1.128,1.13V39.8a1.128,1.128,0,0,0,1.128,1.13h6.47a1.125,1.125,0,0,0,.828-.363l1.247-1.349,1.183,1.331a1.126,1.126,0,0,0,.844.378h3.175a1.128,1.128,0,0,0,1.13-1.127V38.632h.908a4.781,4.781,0,0,0,2.483-.572V39.8a1.128,1.128,0,0,0,1.13,1.127h1.641a1.128,1.128,0,0,0,1.13-1.127v-1.37h.615c.15,0,.256.005.332.01.005.122.005.269,0,.365V39.8a1.13,1.13,0,0,0,1.13,1.127h1.639a1.075,1.075,0,0,0,.5-.127,1.119,1.119,0,0,0,.5.127h5.452a1.117,1.117,0,0,0,.49-.122,1.1,1.1,0,0,0,.49.122h3.181a4.177,4.177,0,0,0,2.455-.686,1.124,1.124,0,0,0,1.037.686h3.181C59.621,40.926,61,39.7,61,37.64A3.014,3.014,0,0,0,60.185,35.4ZM29.923,37.5H27.886V39.8H24.711L22.7,37.535,20.608,39.8h-6.47V32.96h6.568L22.718,35.2,24.8,32.96h5.219c1.3,0,2.753.363,2.753,2.255S31.352,37.507,29.923,37.5Zm9.032-.88a1.734,1.734,0,0,1,.8.574,1.979,1.979,0,0,1,.271,1.247V39.8H38.384v-.856c0-.41.039-1.02-.266-1.338-.234-.243-.6-.3-1.2-.3H35.177V39.8H33.536V32.964h3.773a4.047,4.047,0,0,1,1.965.321,1.6,1.6,0,0,1,.839,1.517A1.921,1.921,0,0,1,38.956,36.623Zm7.515-2.246H42.645v1.244h3.731v1.4H42.645v1.357l3.825.008V39.8H41.02V32.964h5.45Zm4.165,5.415H47.455V38.323h3.167a.944.944,0,0,0,.666-.169.607.607,0,0,0,.191-.447.577.577,0,0,0-.2-.451A.86.86,0,0,0,50.7,37.1c-1.526-.05-3.44.047-3.44-2.114,0-.995.621-2.035,2.335-2.035h3.273V34.41h-3a1.1,1.1,0,0,0-.655.125.573.573,0,0,0,.11,1,1.893,1.893,0,0,0,.637.078l.877.025a2.648,2.648,0,0,1,1.863.55,1.9,1.9,0,0,1,.49,1.449C53.193,39.112,52.277,39.8,50.636,39.791Zm6.674,0H54.129V38.323H57.3a.938.938,0,0,0,.665-.169.607.607,0,0,0,.191-.447.577.577,0,0,0-.2-.451.856.856,0,0,0-.582-.152c-1.527-.05-3.44.047-3.44-2.114,0-.995.621-2.035,2.335-2.035h3.273V34.41h-3a1.1,1.1,0,0,0-.656.125.574.574,0,0,0,.11,1,1.9,1.9,0,0,0,.637.078l.877.025a2.653,2.653,0,0,1,1.866.55,1.908,1.908,0,0,1,.49,1.449C59.869,39.112,58.951,39.8,57.31,39.791Z"/><path class="a" d="M55.058,20.072H53.386a1.128,1.128,0,0,0-1.13,1.128v.705l-.776-1.287a1.134,1.134,0,0,0-.965-.545h-2.49A1.128,1.128,0,0,0,46.9,21.2v.959l-.6-1.4a1.127,1.127,0,0,0-1.035-.684H42.815a1.118,1.118,0,0,0-.674.224,1.12,1.12,0,0,0-.676-.224H39.888a4.481,4.481,0,0,0-3.066.959,1.114,1.114,0,0,0-1.094-.959H34.059a1.124,1.124,0,0,0-1,.635,2.315,2.315,0,0,0-.2-.158,4.8,4.8,0,0,0-2.544-.478H26.551a1.1,1.1,0,0,0-.567.174,1.088,1.088,0,0,0-.565-.174H19.964a1.1,1.1,0,0,0-.609.2,1.105,1.105,0,0,0-.609-.2H16.024a1.128,1.128,0,0,0-1.037.689l-.97,2.287-1.068-2.32a1.133,1.133,0,0,0-1.025-.656H9.257A1.128,1.128,0,0,0,8.128,21.2v.982l-.613-1.429a1.13,1.13,0,0,0-1.038-.683H4.053a1.131,1.131,0,0,0-1.038.684L.092,27.59a1.127,1.127,0,0,0,1.037,1.573H2.9a1.128,1.128,0,0,0,1.039-.7l.345-.83H6.18l.34.825a1.128,1.128,0,0,0,1.044.7h3.322a1.128,1.128,0,0,0,1.128-1.128v-.027l.214.485a1.13,1.13,0,0,0,1.031.671l1.435,0a1.126,1.126,0,0,0,1.031-.672l.216-.484v.028a1.127,1.127,0,0,0,1.128,1.127h1.675a1.115,1.115,0,0,0,.609-.2,1.108,1.108,0,0,0,.609.2h5.455a1.088,1.088,0,0,0,.565-.174,1.1,1.1,0,0,0,.567.174h1.635a1.128,1.128,0,0,0,1.128-1.128V26.678h.624c.141,0,.242,0,.317.009.008.116.005.253.005.345l0,.15.006.862a1.13,1.13,0,0,0,1.13,1.119h1.648a1.1,1.1,0,0,0,.506-.136,1.11,1.11,0,0,0,.511.136h1.668a1.113,1.113,0,0,0,1.086-.909,4.737,4.737,0,0,0,2.956.909h1.914a1.125,1.125,0,0,0,1.04-.707l.332-.819h1.882l.345.83a1.128,1.128,0,0,0,1.042.694h3.324a1.128,1.128,0,0,0,1.128-1.128V26.956l1,1.662a1.132,1.132,0,0,0,.968.545h2.313a1.128,1.128,0,0,0,1.128-1.128V21.2A1.13,1.13,0,0,0,55.058,20.072ZM18.745,28.033H17.07l-.006-5.352L14.7,28.033H13.26l-2.372-5.357v5.357H7.563l-.628-1.524h-3.4L2.9,28.033H1.126L4.051,21.2H6.475l2.78,6.472V21.2h2.667l2.138,4.637L16.022,21.2h2.723Zm6.673-5.411H21.595v1.231h3.732v1.4H21.595V26.62h3.823v1.414H19.962V21.2h5.455Zm6.542,2.24a1.91,1.91,0,0,1,.809.576,1.956,1.956,0,0,1,.271,1.253v1.341H31.391l-.008-.862a2.055,2.055,0,0,0-.257-1.331,1.6,1.6,0,0,0-1.191-.292H28.185v2.486H26.549V21.2h3.757a3.84,3.84,0,0,1,1.978.327,1.6,1.6,0,0,1,.826,1.514A1.924,1.924,0,0,1,31.959,24.863Zm3.768,3.171H34.059V21.2h1.668Zm19.331,0H52.744l-3.1-5.129v5.129H46.323l-.637-1.524H42.291l-.614,1.524H39.764a3.423,3.423,0,0,1-2.363-.755,3.427,3.427,0,0,1-.876-2.609,3.668,3.668,0,0,1,.875-2.674,3.309,3.309,0,0,1,2.481-.8h1.578v1.464H39.911a1.568,1.568,0,0,0-1.256.4,2.255,2.255,0,0,0-.469,1.548,2.357,2.357,0,0,0,.451,1.6,1.58,1.58,0,0,0,1.138.353h.732L42.815,21.2h2.448l2.763,6.464V21.2h2.49l2.87,4.76V21.2h1.672ZM40.48,23.793l-.709,1.654a1.31,1.31,0,0,1-.321-.033,1.736,1.736,0,0,1-.13-.8,1.658,1.658,0,0,1,.13-.741c.047-.046.087-.085.47-.085Z"/><path class="a" d="M23.751,36.392l2.509,2.786V33.7Z"/><path class="a" d="M19.862,34.378H15.769v1.242h3.585v1.4H15.769v1.36h4.014l1.866-2.008Z"/></g></svg>