<svg xmlns="http://www.w3.org/2000/svg" xmlns:xlink="http://www.w3.org/1999/xlink" width="20" height="20" viewBox="0 0 20 20"><defs><style>.a{fill:#b19a9a;}.b{clip-path:url(#a);}.c{fill:#1976d2;}.d{fill:#fafafa;}</style><clipPath id="a"><rect class="a" width="20" height="20" transform="translate(35 73)"/></clipPath></defs><g class="b" transform="translate(-35 -73)"><g transform="translate(35 73)"><path class="c" d="M17.5,0H2.5A2.5,2.5,0,0,0,0,2.5v15A2.5,2.5,0,0,0,2.5,20h15A2.5,2.5,0,0,0,20,17.5V2.5A2.5,2.5,0,0,0,17.5,0Z"/><path class="d" d="M18.75,10.938H15.625v-2.5c0-.69.56-.625,1.25-.625h1.25V4.688h-2.5a3.75,3.75,0,0,0-3.75,3.75v2.5h-2.5v3.125h2.5v6.875h3.75V14.062H17.5Z" transform="translate(-1.875 -0.938)"/></g></g></svg>