<svg xmlns="http://www.w3.org/2000/svg" width="35" height="35" viewBox="0 0 35 35"><defs><style>.a{fill:#fff;}</style></defs><path class="a" d="M19.16,32.785q-.206.034-.414.062Q18.954,32.819,19.16,32.785Zm0,0" transform="translate(1.151 2)"/><path class="a" d="M19.49,32.729l-.2.034Zm0,0" transform="translate(1.176 2)"/><path class="a" d="M18.378,32.893q-.241.027-.485.048Q18.136,32.92,18.378,32.893Zm0,0" transform="translate(1.101 2)"/><path class="a" d="M18.695,32.854l-.233.029Zm0,0" transform="translate(1.127 2)"/><path class="a" d="M19.94,32.64l-.174.037Zm0,0" transform="translate(1.204 2)"/><path class="a" d="M21.055,32.363l-.14.039Zm0,0" transform="translate(1.273 2)"/><path class="a" d="M20.717,32.455l-.153.04Zm0,0" transform="translate(1.252 2)"/><path class="a" d="M20.276,32.565l-.163.037Zm0,0" transform="translate(1.225 2)"/><path class="a" d="M17.887,32.941l-.261.02Zm0,0" transform="translate(1.077 2)"/><g transform="translate(0)"><path class="a" d="M14.445,19.591,19.812,16.5l-5.367-3.091Zm0,0" transform="translate(1.045 1)"/><path class="a" d="M17.5,0A17.5,17.5,0,1,0,35,17.5,17.5,17.5,0,0,0,17.5,0ZM28.435,17.518a28.883,28.883,0,0,1-.45,5.26,2.74,2.74,0,0,1-1.928,1.927c-1.711.45-8.557.45-8.557.45s-6.828,0-8.557-.468A2.741,2.741,0,0,1,7.015,22.76a28.756,28.756,0,0,1-.45-5.26,28.864,28.864,0,0,1,.45-5.26,2.8,2.8,0,0,1,1.928-1.946c1.711-.45,8.557-.45,8.557-.45s6.846,0,8.557.468a2.741,2.741,0,0,1,1.928,1.928,27.409,27.409,0,0,1,.45,5.278Zm0,0"/></g><path class="a" d="M17.59,32.963q-.258.017-.517.026Q17.332,32.98,17.59,32.963Zm0,0" transform="translate(1.051 2)"/><path class="a" d="M17.064,32.989,16.79,33Zm0,0" transform="translate(1.026 2)"/></svg>