<svg xmlns="http://www.w3.org/2000/svg" xmlns:xlink="http://www.w3.org/1999/xlink" width="80" height="80" viewBox="0 0 80 80">
  <defs>
    <clipPath id="clip-path">
      <rect id="Rectangle_140" data-name="Rectangle 140" width="40" height="40" transform="translate(1576 157)" fill="#f14479"/>
    </clipPath>
  </defs>
  <g id="faturado" transform="translate(-1556 -137)">
    <circle id="Ellipse_7" data-name="Ellipse 7" cx="40" cy="40" r="40" transform="translate(1556 137)" fill="rgba(241,68,121,0.2)"/>
    <g id="Mask_Group_14" data-name="Mask Group 14" clip-path="url(#clip-path)">
      <g id="marketing" transform="translate(1576 157)">
        <g id="Group_205" data-name="Group 205">
          <g id="Group_204" data-name="Group 204">
            <path id="Path_260" data-name="Path 260" d="M29.355,27.1h3.226a1.614,1.614,0,0,1,1.613,1.613h1.29a2.907,2.907,0,0,0-2.9-2.9h-.968v-1.29h-1.29v1.29h-.968a2.9,2.9,0,0,0,0,5.806h3.226a1.613,1.613,0,1,1,0,3.226H29.355a1.614,1.614,0,0,1-1.613-1.613h-1.29a2.907,2.907,0,0,0,2.9,2.9h.968v1.29h1.29v-1.29h.968a2.9,2.9,0,1,0,0-5.806H29.355a1.613,1.613,0,0,1,0-3.226Z" fill="#f14479"/>
            <path id="Path_261" data-name="Path 261" d="M40,20A20,20,0,0,0,0,20a20.21,20.21,0,0,0,.264,3.226H0v5.161H2.581v3.871h1.29v2.581H1.29V40H20.645V36.129h2.581V35.6a9.024,9.024,0,0,0,15.65-8.984A19.936,19.936,0,0,0,40,20Zm-1.307-.645h-7.74a24.741,24.741,0,0,0-1.117-6.912,20.608,20.608,0,0,0,5.988-2.406A18.585,18.585,0,0,1,38.693,19.355Zm-.012,1.29a18.629,18.629,0,0,1-.731,4.6,9.015,9.015,0,0,0-6.983-3.311c-.026,0-.052,0-.078,0q.046-.646.062-1.294ZM35.095,8.963a20.093,20.093,0,0,1-5.687,2.243,22.93,22.93,0,0,0-7.141-9.774A18.72,18.72,0,0,1,35.095,8.963ZM20.645,1.824a21.484,21.484,0,0,1,7.495,9.67,39.9,39.9,0,0,1-7.495.758Zm0,17.531V13.542a41.356,41.356,0,0,0,7.928-.809,23.453,23.453,0,0,1,1.089,6.623H20.645Zm0,2.581v-1.29h1.29v2.581H5.161V20.645h1.29v1.29h1.29v-1.29h1.29v1.29h1.29v-1.29h1.29v1.29H12.9v-1.29h1.29v1.29h1.29v-1.29h1.29v1.29h1.29v-1.29h1.29v1.29ZM6.452,29.677v-1.29h1.29v1.29h1.29v-1.29h1.29v1.29h1.29v-1.29H12.9v1.29h1.29v-1.29h1.29v1.29h1.29v-1.29h1.29v1.29h1.29v-1.29h1.29v2.581H3.871V28.387h1.29v1.29Zm3.886-10.323a23.457,23.457,0,0,1,1.089-6.623,41.293,41.293,0,0,0,7.928.81v5.813Zm9.017-7.1a39.9,39.9,0,0,1-7.495-.757,21.483,21.483,0,0,1,7.495-9.67ZM17.732,1.433a22.94,22.94,0,0,0-7.141,9.774A20.113,20.113,0,0,1,4.9,8.964,18.718,18.718,0,0,1,17.732,1.433Zm-13.557,8.6a20.623,20.623,0,0,0,5.989,2.406,24.774,24.774,0,0,0-1.117,6.912H1.306A18.587,18.587,0,0,1,4.175,10.036Zm-.3,10.609v2.581h-2.3a18.772,18.772,0,0,1-.268-2.581ZM3.226,27.1H1.29V24.516h1.29v1.29h1.29v-1.29h1.29v1.29h1.29v-1.29h1.29v1.29h1.29v-1.29h1.29v1.29h1.29v-1.29H12.9v1.29h1.29v-1.29h1.29v1.29h1.29v-1.29h1.29V27.1ZM19.355,38.71H2.581V36.129h1.29v1.29h1.29v-1.29h1.29v1.29h1.29v-1.29h1.29v1.29h1.29v-1.29h1.29v1.29H12.9v-1.29h1.29v1.29h1.29v-1.29h1.29v1.29h1.29v-1.29h1.29Zm2.581-3.871H5.161V32.258h1.29v1.29h1.29v-1.29h1.29v1.29h1.29v-1.29h1.29v1.29H12.9v-1.29h1.29v1.29h1.29v-1.29h1.29v1.29h1.29v-1.29h1.29v1.29h1.29v-1.29h1.29Zm0-3.871V27.1H19.355V24.516h3.871V20.645h6.435q-.017.705-.074,1.407A9.038,9.038,0,0,0,21.935,30.968Zm9.032,7.742a7.742,7.742,0,1,1,7.742-7.742A7.751,7.751,0,0,1,30.968,38.71Z" fill="#f14479"/>
          </g>
        </g>
      </g>
    </g>
  </g>
</svg>
