<svg xmlns="http://www.w3.org/2000/svg" xmlns:xlink="http://www.w3.org/1999/xlink" width="364" height="284" viewBox="0 0 364 284"><defs><style>.a,.h{fill:#fff;}.a{stroke:#707070;}.b{fill:#293760;}.c{fill:none;}.d{clip-path:url(#a);}.e{fill:url(#b);}.f{fill:#02c97d;}.g{fill:#b2c3fb;}.i{fill:#e1e9ff;}.j{clip-path:url(#c);}.k{fill:#1a2747;}.l{clip-path:url(#d);}.m{fill:#afc6f5;}.n{fill:#f6a091;}.o{fill:#15289e;}.p{fill:#f05831;}.q{fill:#e32710;}.r{fill:#a2b7ea;}.s{fill:url(#e);}.t{fill:#3b58a8;}.u{fill:#fc9d9d;}.v{fill:#ffc1c2;}.w{fill:#d7e0ff;}.x{fill:#a6bbf4;}.y{fill:#2d4177;}.z{fill:#315299;}.aa{fill:#bf5a4d;}.ab{fill:url(#f);}.ac{fill:#000d3a;}.ad{fill:url(#g);}.ae{fill:url(#h);}.af{fill:#7762ef;}.ag{fill:#ff9a15;}.ah{fill:#6469d3;}.ai{fill:#5c37d4;}.aj{fill:#42287c;}.ak{fill:#087f57;}.al{fill:#0d9b68;}.am{fill:#07ae7b;}.an{fill:#114dbd;}.ao{fill:#e4eaf6;}.ap{fill:#d8dfef;}</style><clipPath id="a"><rect class="a" width="364" height="284" transform="translate(1366.351 287.038)"/></clipPath><linearGradient id="b" x1="0.405" y1="-0.09" x2="0.52" y2="0.945" gradientUnits="objectBoundingBox"><stop offset="0" stop-color="#fff"/><stop offset="1" stop-color="#eaf0ff"/></linearGradient><clipPath id="c"><path class="b" d="M334.328,204.791l5.656.182c.195-7.875-5.285-14.381-12.232-14.537l-5.657-.182C329.043,190.41,334.522,196.916,334.328,204.791Z" transform="translate(-322.094 -190.255)"/></clipPath><clipPath id="d"><path class="c" d="M316.6,409.232l5.657.182c6.948.157,12.743-6.1,12.937-13.972l-5.656-.182C329.345,403.13,323.551,409.388,316.6,409.232Z" transform="translate(-316.602 -395.26)"/></clipPath><linearGradient id="e" x1="0.46" y1="-0.15" x2="0.515" y2="1.097" xlink:href="#b"/><linearGradient id="f" y1="0.5" x2="1" y2="0.5" gradientUnits="objectBoundingBox"><stop offset="0" stop-color="#324893"/><stop offset="1" stop-color="#2d4177"/></linearGradient><linearGradient id="g" x1="-21.299" y1="-40.722" x2="-20.757" y2="-40.722" gradientUnits="objectBoundingBox"><stop offset="0" stop-color="#3b58a8"/><stop offset="1" stop-color="#3b58a8"/></linearGradient><linearGradient id="h" x1="-22.165" y1="-41.086" x2="-21.626" y2="-41.086" xlink:href="#g"/></defs><g class="d" transform="translate(-1366.351 -287.038)"><g transform="translate(1366.001 299.787)"><g transform="translate(0 0)"><g transform="translate(0)"><path class="e" d="M168.081,151.579c-9.969,22.027-13.568,17.015-31.08,12.975s-28.139,15.036-22.822,29.127,30.107,22.923,16.557,38.3S98.4,251.707,97.8,266.822s21.167,17.8,17.97,26.258S73,319.633,112.384,326.722s233.48,1.547,266.694-6.055,14.578-45.442.743-63.588,23.566-41.869,5.924-69.6-72.166-5.574-98.81-32.289-40.206-37.422-73.089-31.613S168.081,151.579,168.081,151.579Z" transform="translate(-63.657 -122.042)"/><path class="f" d="M435.473,343.544c.026.439-6.761-.819-12.511,4.143s2.312,10.285,15.4,9.284,49.293-.7,51.328-3.838-6.989-8.731-9.31-8.92,4.74-2.367,4.5-3.943-4.781-4.812-7.127-3.939,3.129-3.741-.042-5.617-5.145,1.274-5.208.518,8.9-5.96,4.769-11.156-13.224-9.045-22.5-2.022S449.544,329.7,448,328.784s-1.1-4.064-4.7-2.949-3.259,7.1-3.682,7.373-3.056-1.4-5.833.249-1.89,5.93-1.207,7.388S436.2,343.353,435.473,343.544Z" transform="translate(-125.907 -158.737)"/><path class="g" d="M425.7,320.8l2.463,46.86A7.373,7.373,0,0,1,421.2,375.4l-85.227,4.48a7.373,7.373,0,0,1-7.747-6.972l-2.463-46.858a7.373,7.373,0,0,1,6.973-7.747l85.227-4.479A7.373,7.373,0,0,1,425.7,320.8Z" transform="translate(-107.705 -158.657)"/><rect class="h" width="100.083" height="10.418" transform="matrix(0.999, -0.053, 0.053, 0.999, 218.112, 168.432)"/><rect class="i" width="65.418" height="9.012" transform="matrix(0.999, -0.053, 0.053, 0.999, 226.138, 184.471)"/><rect class="i" width="17.036" height="9.012" transform="matrix(0.999, -0.053, 0.053, 0.999, 294.744, 180.863)"/><rect class="i" width="40.504" height="5.58" transform="translate(226.934 208.1) rotate(-2.862)"/><rect class="i" width="10.535" height="5.573" transform="matrix(0.999, -0.053, 0.053, 0.999, 269.747, 204.763)"/><path class="i" d="M421.558,381.617a7.794,7.794,0,1,1,7.373-8.192A7.794,7.794,0,0,1,421.558,381.617Zm-.769-14.639a6.868,6.868,0,1,0,7.219,6.5A6.868,6.868,0,0,0,420.789,366.979Z" transform="translate(-124.432 -168.628)"/><path class="i" d="M432.6,381.037a7.794,7.794,0,1,1,7.373-8.192A7.794,7.794,0,0,1,432.6,381.037Zm-.77-14.642a6.868,6.868,0,1,0,7.22,6.5A6.868,6.868,0,0,0,431.827,366.395Z" transform="translate(-126.54 -168.518)"/><g transform="translate(146.481 54.02)"><g transform="translate(68.605 1.169)"><path class="b" d="M334.328,204.791l5.656.182c.195-7.875-5.285-14.381-12.232-14.537l-5.657-.182C329.043,190.41,334.522,196.916,334.328,204.791Z" transform="translate(-322.094 -190.255)"/><g class="j"><path class="k" d="M336.871,206.558l5.656.182a15.644,15.644,0,0,0-1.456-7.052l-5.656-.182a15.668,15.668,0,0,1,1.456,7.052" transform="translate(-324.638 -192.021)"/><path class="k" d="M334.666,198.474l5.656.182a13.915,13.915,0,0,0-3.186-4.369l-5.656-.182a13.915,13.915,0,0,1,3.186,4.369" transform="translate(-323.886 -190.99)"/><path class="k" d="M329.686,193.374l5.656.182a11.594,11.594,0,0,0-7.59-3.119l-5.657-.182a11.6,11.6,0,0,1,7.591,3.119" transform="translate(-322.094 -190.255)"/></g></g><path class="k" d="M332.593,359.549l5.656.185,3.739-151.327-5.656-.185Z" transform="translate(-255.494 -192.516)"/><g transform="translate(64.162 167.033)"><g class="l"><path class="k" d="M316.6,409.232l5.657.182c6.948.157,12.743-6.1,12.937-13.972l-5.656-.182c-.195,7.87-5.989,14.128-12.938,13.972" transform="translate(-316.602 -395.26)"/></g></g><path class="m" d="M254.048,225.673l-.121,4.883,24.151.542.121-4.884Z" transform="translate(-240.474 -195.848)"/><path class="n" d="M292.687,224.052a4.583,4.583,0,0,0-4.369,4.723l-.5,20.352a4.56,4.56,0,0,0,4.135,4.909l21.218.476a4.579,4.579,0,0,0,4.369-4.718l.5-20.352a4.566,4.566,0,0,0-4.135-4.915Z" transform="translate(-246.944 -195.538)"/><path class="h" d="M314.254,215.908l-3.355,146.2L243.6,360.6l3.355-146.2Z" transform="translate(-238.503 -193.695)"/><path class="o" d="M285.415,195.577a1.28,1.28,0,1,0,1.1,1.3A1.209,1.209,0,0,0,285.415,195.577Z" transform="translate(-246.266 -190.102)"/><path class="h" d="M282.77,388.159c-3.1-.069-5.7,2.731-5.784,6.248s2.367,6.425,5.469,6.5,5.7-2.731,5.785-6.242S285.871,388.229,282.77,388.159Z" transform="translate(-244.876 -226.871)"/><ellipse class="k" cx="1.485" cy="1.312" rx="1.485" ry="1.312" transform="matrix(0.03, -1, 1, 0.03, 49.251, 13.526)"/><path class="b" d="M305.9,189.979c6.948.156,12.428,6.662,12.233,14.537L314.4,355.842c-.195,7.87-5.989,14.128-12.938,13.972l-51.924-1.166c-6.948-.156-12.427-6.667-12.232-14.537l3.739-151.327c.195-7.875,5.989-14.128,12.937-13.972ZM241.968,353.233l68.131,1.53,3.379-144.2-68.132-1.531-3.378,136.72m40.368-145.184-12.073-.273a.8.8,0,0,0-.039,1.594l12.073.273a.8.8,0,0,0,.039-1.594m6.148-.6a1.5,1.5,0,1,0,1.274,1.515,1.413,1.413,0,0,0-1.274-1.515" transform="translate(-237.299 -188.81)"/><rect class="g" width="57.054" height="12.951" rx="1.621" transform="matrix(1, 0.023, -0.023, 1, 13.938, 37.15)"/></g><rect class="p" width="48.167" height="16.985" rx="2.261" transform="translate(263.178 37.186)"/><path class="q" d="M403.536,181.371a2.961,2.961,0,0,1-1.86-.526,1.254,1.254,0,0,1-.572-1.009.692.692,0,0,1,.177-.486.629.629,0,0,1,.488-.193.645.645,0,0,1,.614.428q.265.573,1.2.572a3.623,3.623,0,0,0,1.547-.349q.775-.358.776-.786a.744.744,0,0,0-.483-.772,4.788,4.788,0,0,0-1.382-.158,3.706,3.706,0,0,1-1.441-.3,1.186,1.186,0,0,1-.846-1.107,2.17,2.17,0,0,1,.968-1.662,3.306,3.306,0,0,1,2.1-.755,3.919,3.919,0,0,1,1.125.209q.832.261.832.6a.619.619,0,0,1-.167.428.611.611,0,0,1-.479.209,3.448,3.448,0,0,1-.654-.091,3.386,3.386,0,0,0-.657-.091,2.458,2.458,0,0,0-1.14.289q-.558.289-.558.628a.338.338,0,0,0,.17.29,1.229,1.229,0,0,0,.509.16l1.183.066a2.816,2.816,0,0,1,1.632.581,1.921,1.921,0,0,1,.66,1.547,1.969,1.969,0,0,1-1.365,1.82,5.734,5.734,0,0,1-2.378.46Z" transform="translate(-122.093 -132.013)"/><path class="q" d="M414.9,181.213q-.364-.014-.739-.865a7.39,7.39,0,0,1-.423-1.264q-.344.051-1.125.1a11.216,11.216,0,0,0-1.126.121q-.213.511-.744,1.539a.637.637,0,0,1-.567.334.691.691,0,0,1-.461-.174.558.558,0,0,1-.2-.444,7.134,7.134,0,0,1,.679-1.609.558.558,0,0,1-.056-.273q.019-.223.455-.349.661-1.144,1.47-2.371,1.161-1.762,1.432-1.762.512,0,.684.618.091.5.293,1.493.282,1.339.693,3.064a5.862,5.862,0,0,0,.237.614,1.742,1.742,0,0,1,.168.6.582.582,0,0,1-.2.451.63.63,0,0,1-.462.176Zm-1.729-4.77q-.364.623-1,1.7a4.591,4.591,0,0,1,.651-.075q.521-.033.656-.051-.116-.6-.31-1.572Z" transform="translate(-123.698 -132)"/><path class="q" d="M422.51,180.824a7.571,7.571,0,0,1-1.7.432,10.852,10.852,0,0,1-1.725.177q-1.14,0-1.14-1,0,.079.091-1.475.12-2.018.12-4.491a.657.657,0,0,1,1.111-.455.616.616,0,0,1,.182.455q0,2.478-.126,4.566-.042.373-.091,1.14a10.9,10.9,0,0,0,2.827-.54.693.693,0,0,1,.2-.033.594.594,0,0,1,.474.214.645.645,0,0,1,.163.428A.59.59,0,0,1,422.51,180.824Z" transform="translate(-125.309 -131.93)"/><path class="q" d="M429.34,174.975a.722.722,0,0,1-.195-.028,5.606,5.606,0,0,0-1.465-.2,5.408,5.408,0,0,0-.749.056,8.32,8.32,0,0,0-.851.167q0,.619-.042,1.837.26-.019,1.82-.172.888-.091,1.125-.091a.679.679,0,0,1,.47.174.59.59,0,0,1,.195.462.584.584,0,0,1-.59.628q-.372.027-1.111.091-.661.076-1.991.182-.031.592-.032.954a2.551,2.551,0,0,0,.107,1.037,1.353,1.353,0,0,0,.586.06q.288,0,.869-.014c.388-.009.677-.015.869-.015a2.019,2.019,0,0,0,.273-.027,1.879,1.879,0,0,1,.273-.028.711.711,0,0,1,.461.154.58.58,0,0,1,.218.483.587.587,0,0,1-.546.623,12.657,12.657,0,0,1-1.93.091,3.212,3.212,0,0,1-1.976-.41,2.683,2.683,0,0,1-.507-1.952q0-.624.091-1.872t.091-1.867a3.677,3.677,0,0,0-.047-.481,3.639,3.639,0,0,1-.047-.482q0-.707.651-.706a.659.659,0,0,1,.377.116,9.884,9.884,0,0,1,1.026-.2,6.738,6.738,0,0,1,.915-.065,5.278,5.278,0,0,1,1.873.273.593.593,0,0,1,.428.591.619.619,0,0,1-.168.428.6.6,0,0,1-.472.208Z" transform="translate(-126.584 -131.862)"/><path class="h" d="M404.965,181.371a2.961,2.961,0,0,1-1.86-.526,1.254,1.254,0,0,1-.572-1.009.692.692,0,0,1,.177-.486.63.63,0,0,1,.488-.193.644.644,0,0,1,.614.428q.265.573,1.2.572a3.623,3.623,0,0,0,1.547-.349q.776-.358.776-.786a.744.744,0,0,0-.483-.772,4.789,4.789,0,0,0-1.382-.158,3.706,3.706,0,0,1-1.441-.3,1.186,1.186,0,0,1-.846-1.107,2.17,2.17,0,0,1,.968-1.662,3.306,3.306,0,0,1,2.1-.755,3.919,3.919,0,0,1,1.125.209q.831.261.832.6a.619.619,0,0,1-.167.428.611.611,0,0,1-.479.209,3.449,3.449,0,0,1-.654-.091,3.391,3.391,0,0,0-.657-.091,2.457,2.457,0,0,0-1.14.289q-.557.289-.558.628a.338.338,0,0,0,.17.29,1.23,1.23,0,0,0,.509.16l1.183.066a2.816,2.816,0,0,1,1.632.581,1.921,1.921,0,0,1,.66,1.547,1.969,1.969,0,0,1-1.365,1.82A5.734,5.734,0,0,1,404.965,181.371Z" transform="translate(-122.366 -132.013)"/><path class="h" d="M416.329,181.213q-.364-.014-.739-.865a7.39,7.39,0,0,1-.423-1.264q-.344.051-1.125.1a11.274,11.274,0,0,0-1.126.121q-.213.511-.744,1.539a.637.637,0,0,1-.567.334.691.691,0,0,1-.461-.174.557.557,0,0,1-.2-.444,7.143,7.143,0,0,1,.678-1.609.558.558,0,0,1-.056-.273q.019-.223.451-.349.661-1.144,1.47-2.371,1.162-1.762,1.432-1.762.512,0,.684.618.091.5.293,1.493.284,1.339.693,3.064a6.056,6.056,0,0,0,.237.614,1.743,1.743,0,0,1,.167.6.581.581,0,0,1-.2.451.63.63,0,0,1-.458.176Zm-1.729-4.77q-.364.623-1,1.7a4.607,4.607,0,0,1,.651-.075q.521-.033.656-.051Q414.79,177.411,414.6,176.443Z" transform="translate(-123.971 -132)"/><path class="h" d="M423.938,180.824a7.569,7.569,0,0,1-1.7.432,10.849,10.849,0,0,1-1.729.177q-1.139,0-1.139-1,0,.079.091-1.475.12-2.018.12-4.491a.657.657,0,0,1,1.111-.455.616.616,0,0,1,.187.455q0,2.478-.126,4.566-.042.373-.091,1.14a10.911,10.911,0,0,0,2.827-.54.694.694,0,0,1,.2-.033.593.593,0,0,1,.474.214.637.637,0,0,1,.163.428A.591.591,0,0,1,423.938,180.824Z" transform="translate(-125.581 -131.93)"/><path class="h" d="M430.775,174.975a.723.723,0,0,1-.195-.028,5.608,5.608,0,0,0-1.464-.2,5.417,5.417,0,0,0-.749.055,8.379,8.379,0,0,0-.851.167q0,.619-.042,1.837.261-.019,1.82-.172.887-.091,1.125-.091a.679.679,0,0,1,.47.174.59.59,0,0,1,.195.462.584.584,0,0,1-.59.628q-.373.027-1.111.091-.661.075-1.991.182-.032.592-.032.954a2.553,2.553,0,0,0,.107,1.037,1.353,1.353,0,0,0,.586.06q.288,0,.869-.014c.388-.009.677-.015.869-.015a2.028,2.028,0,0,0,.273-.027,1.888,1.888,0,0,1,.273-.028.711.711,0,0,1,.461.154.58.58,0,0,1,.219.483.587.587,0,0,1-.546.623,12.637,12.637,0,0,1-1.93.091,3.213,3.213,0,0,1-1.976-.41,2.677,2.677,0,0,1-.507-1.952q0-.624.091-1.872t.091-1.867a3.657,3.657,0,0,0-.047-.481,3.669,3.669,0,0,1-.047-.482q0-.707.651-.706a.659.659,0,0,1,.377.116,9.875,9.875,0,0,1,1.026-.2,6.733,6.733,0,0,1,.918-.067,5.278,5.278,0,0,1,1.873.273.593.593,0,0,1,.428.591.619.619,0,0,1-.167.428.6.6,0,0,1-.476.211Z" transform="translate(-126.857 -131.861)"/><circle class="q" cx="2.275" cy="2.275" r="2.275" transform="translate(268.803 43.404)"/><path class="q" d="M376.447,196.2a12.355,12.355,0,1,1,10.131-19.431l-.948.662a11.2,11.2,0,1,0,1.884,8.129l1.142.176a12.356,12.356,0,0,1-12.21,10.461Z" transform="translate(-115.026 -131.483)"/><rect class="g" width="32.427" height="32.427" rx="2.268" transform="matrix(1, 0.023, -0.023, 1, 184.075, 114.768)"/><rect class="r" width="42.328" height="25.729" rx="2.625" transform="translate(278.89 100.553)"/><rect class="g" width="42.328" height="25.729" rx="2.625" transform="translate(277.895 99.645)"/><path class="h" d="M416.964,262.828a.349.349,0,0,1-.335-.253l-3.4-11.873h-2.276a.35.35,0,0,1,0-.7H413.5a.349.349,0,0,1,.335.253l3.469,12.127a.348.348,0,0,1-.239.431.352.352,0,0,1-.1.013Z" transform="translate(-123.908 -146.473)"/><path class="h" d="M433.768,263.822H417.941a.349.349,0,0,1-.336-.254l-2.586-9.1a.349.349,0,0,1,.336-.444h20.463a.35.35,0,0,1,.341.426l-2.051,9.1a.349.349,0,0,1-.34.272Zm-15.565-.7h15.285l1.893-8.4H415.818Z" transform="translate(-124.748 -147.241)"/><rect class="h" width="18.862" height="0.35" transform="translate(291.364 109.994)"/><rect class="h" width="9.317" height="0.35" transform="translate(305.395 116.218) rotate(-77.56)"/><rect class="h" width="0.35" height="9.347" transform="translate(293.968 107.149) rotate(-13.24)"/><rect class="h" width="0.35" height="9.098" transform="translate(298.537 107.133)"/><rect class="h" width="0.35" height="9.098" transform="translate(302.906 107.133)"/><rect class="h" width="17.278" height="0.35" transform="translate(292.2 113.068)"/><path class="h" d="M430.346,269.28H417.3a2,2,0,0,1,0-4h1.792a.349.349,0,1,1,0,.7H417.3a1.306,1.306,0,1,0,0,2.611h13.045a.35.35,0,1,1,0,.7Z" transform="translate(-124.803 -149.389)"/><circle class="h" cx="1.858" cy="1.858" r="1.858" transform="translate(292.303 119.631) rotate(-45)"/><path class="h" d="M421.338,269.733a.728.728,0,1,1-.728-.728A.728.728,0,0,1,421.338,269.733Z" transform="translate(-125.678 -150.101)"/><circle class="h" cx="1.858" cy="1.858" r="1.858" transform="translate(299.917 118.726) rotate(-25.43)"/><circle class="h" cx="0.731" cy="0.731" r="0.731" transform="translate(301.658 118.9)"/><rect class="k" width="32.016" height="1.831" rx="0.559" transform="matrix(0.999, 0.032, -0.032, 0.999, 170.137, 224.242)"/><path class="s" d="M105.354,387.669c-46.892,11.094-77.312,35.211-9.938,38.08s154.017,11.115,118.336-9.681S149.614,377.2,105.354,387.669Z" transform="translate(-56.25 -172.173)"/><path class="q" d="M217.155,334.069l2.758-55.166c.055-1.086,1.729-1.928,3.75-1.882l50.476,1.152c2.016.046,3.607.963,3.55,2.048l-2.759,55.166c-.054,1.086-1.729,1.928-3.75,1.882L220.7,336.118C218.692,336.071,217.1,335.154,217.155,334.069Z" transform="translate(-86.972 -151.632)"/><path class="p" d="M214.807,332.289l2.759-55.166c.054-1.085,1.729-1.928,3.75-1.881l50.475,1.151c2.017.046,3.608.963,3.55,2.048l-2.758,55.167c-.055,1.085-1.729,1.928-3.75,1.881l-50.476-1.151C216.344,334.292,214.754,333.375,214.807,332.289Z" transform="translate(-86.523 -151.292)"/><rect class="t" width="71.542" height="23.604" rx="2.612" transform="matrix(1, 0.023, -0.023, 1, 196.315, 82.077)"/><rect class="h" width="14.199" height="14.199" rx="0.163" transform="matrix(-1, -0.023, 0.023, -1, 217.186, 101.478)"/><rect class="h" width="1.44" height="40.932" transform="matrix(0.023, -1, 1, 0.023, 220.612, 95.17)"/><rect class="h" width="1.44" height="23.346" transform="matrix(0.023, -1, 1, 0.023, 238.28, 91.854)"/><rect class="h" width="1.44" height="6.252" transform="matrix(0.023, -1, 1, 0.023, 230.988, 91.682)"/><rect class="h" width="1.44" height="9.25" transform="matrix(0.023, -1, 1, 0.023, 220.699, 91.441)"/><rect class="h" width="1.44" height="15.648" transform="matrix(0.023, -1, 1, 0.023, 245.801, 99.491)"/><rect class="h" width="1.44" height="23.149" transform="matrix(0.023, -1, 1, 0.023, 220.525, 98.9)"/><path class="u" d="M150.875,364.081l-.021.194-4.1,39-.789,7.5-3.319-.254s-5.209-27.265-3.022-40.049a42.381,42.381,0,0,0,.535-6.4Z" transform="translate(-72.067 -168.254)"/><path class="v" d="M151.739,364.17l-4.1,39a9.14,9.14,0,0,1-1.083-1.61c-1.848-3.542-4.347-24.6-1.65-37.587q.046-.227.091-.448s2.251.149,5.034.448Q150.871,364.063,151.739,364.17Z" transform="translate(-72.952 -168.149)"/><path class="u" d="M179.283,410.694l-3.347-.166s-9.193-25.721-8.976-38.555a39.186,39.186,0,0,0-.728-7.891h10.12l.056.9,2.119,33.694Z" transform="translate(-77.249 -168.254)"/><path class="v" d="M180.06,398.885c-3.012-5.073-5.925-20.186-5.769-32.5a11.257,11.257,0,0,1,3.65-1.2Z" transform="translate(-78.787 -168.466)"/><path class="w" d="M171.677,353.93H138.314s-.3-2.966-.685-7.344c-.864-9.863-2.139-26.9-1.3-33.333,1.219-9.293,8.4-19.9,8.4-19.9a83.246,83.246,0,0,0,18.562.243C164.366,297.258,171.677,353.93,171.677,353.93Z" transform="translate(-71.488 -154.751)"/><path class="v" d="M193.916,266.946l-3.4-1.2a15.764,15.764,0,0,0,1.327-2.765c1.281-3.49,2.8-2.54,3.3-1.252h0a2.316,2.316,0,0,1,.168.941,9.439,9.439,0,0,1-.485,1.9C194.6,265.249,194.3,266.061,193.916,266.946Z" transform="translate(-81.885 -148.489)"/><path class="u" d="M193.939,263.368a2.219,2.219,0,0,0,1.536,1.476,9.322,9.322,0,0,0,.485-1.9,2.315,2.315,0,0,0-.168-.94A6.015,6.015,0,0,0,193.939,263.368Z" transform="translate(-82.539 -148.765)"/><path class="v" d="M193.185,260.172a2.364,2.364,0,0,0,.161,1.978,2.331,2.331,0,0,0,1.638.733,2.961,2.961,0,0,0,2.7-2.64c.123-1.547-1.565-1.524-2.184-1.832s1.717-2.689,1.334-3.42c-.33-.628-2.08,1.663-3.178,4.032C193.48,259.409,193.32,259.8,193.185,260.172Z" transform="translate(-82.366 -147.406)"/><path class="x" d="M145.478,313c-2.336,11.474,2.485,31.982,6.026,40.934h-13.19s-3.2-31.384-1.981-40.676,8.4-19.9,8.4-19.9a83.248,83.248,0,0,0,18.562.243C158.287,302.917,148.35,298.883,145.478,313Z" transform="translate(-71.488 -154.751)"/><path class="x" d="M168.478,353.9l-5.137,3.823H138.685s-.3-2.966-.685-7.344c5.309-8.9,13.25-22.517,13.514-24.83.4-3.484-1.3-11.659-5.227-12.246,0,0,2.307-.85,4.187,2.788s2.24,9.757,2.24,9.757Z" transform="translate(-71.859 -158.543)"/><path class="y" d="M155.992,327.715a.224.224,0,0,1-.264-.175l-2.367-11.676a4.783,4.783,0,1,0-9.375,1.9l2.3,11.367a.224.224,0,0,1-.44.091l-2.3-11.367a5.23,5.23,0,1,1,10.252-2.074l2.367,11.675A.224.224,0,0,1,155.992,327.715Z" transform="translate(-72.898 -158.231)"/><path class="y" d="M159.894,325.049l8.443,31.121-26.7,5.387-4.14-31.975" transform="translate(-71.763 -160.802)"/><path class="z" d="M137.5,330.65,138.974,332l-.762,2.476,3.443,28.166Z" transform="translate(-71.763 -161.871)"/><path class="aa" d="M139.142,332.323l.675,3.337-1.441-.867Z" transform="translate(-71.931 -162.191)"/><path class="z" d="M164.979,325.057l-.832,1.82,1.542,2.008,7.789,27.3" transform="translate(-76.851 -160.803)"/><path class="aa" d="M164.019,326.675l.459,2.267.938-.973Z" transform="translate(-76.827 -161.113)"/><path class="t" d="M168.4,356.3l-26.729,5.408-4.092-31.377,22.51-4.555Z" transform="translate(-71.778 -160.941)"/><path class="y" d="M146.622,333.469a.95.95,0,1,1-.533-.5A.95.95,0,0,1,146.622,333.469Z" transform="translate(-73.158 -162.303)"/><path class="y" d="M158.78,331.164a.952.952,0,1,1-1.262-.471A.952.952,0,0,1,158.78,331.164Z" transform="translate(-75.479 -161.863)"/><path class="y" d="M155.254,328.355a.225.225,0,0,1-.265-.175L152.622,316.5a4.783,4.783,0,1,0-9.375,1.9l2.3,11.367a.224.224,0,1,1-.44.091l-2.3-11.367a5.23,5.23,0,1,1,10.252-2.074l2.367,11.675a.224.224,0,0,1-.172.262Z" transform="translate(-72.757 -158.353)"/><path class="y" d="M137.5,330.65l.036,26.754,4.119,5.235Z" transform="translate(-71.763 -161.871)"/><path class="v" d="M165.172,267.845c-.505.9-2.249,1.065-3.749,1.039-.819-.012-1.557-.08-1.992-.119-1.708-.156-4.3-.455-5.709-1.526l-.091-.072a3.37,3.37,0,0,1-.455-4.338,3.243,3.243,0,0,0,.6-1.153,3.023,3.023,0,0,0,.114-.728l.963.07a1.679,1.679,0,0,0,1.214-1.39l.9-6.549.149-1.092,6.007.826-.464,3.384-.182,1.289-.408,2.967a1.674,1.674,0,0,0,.748,1.629l.168.025a4.485,4.485,0,0,1,.91.225C164.389,263.867,165.806,266.719,165.172,267.845Z" transform="translate(-74.643 -146.852)"/><path class="u" d="M161.665,269.142c-.819-.012-1.557-.08-1.992-.119-1.708-.156-4.3-.455-5.709-1.526l-.091-.072c-.026-.478-.031-1.008-.01-1.6.052-1.472.1-2.761.152-3.894a3.026,3.026,0,0,0,.114-.728l.963.07a1.678,1.678,0,0,0,1.214-1.39l.9-6.549c1.763.427,4.428,2.219,5.69,3.118.441.314.711.52.711.52-.306.264-.6.52-.888.769-1.779,1.553-3.139,2.927-3.522,5.242-.444,2.689,2.549,1.767,3.179,1.48C162.971,264.2,163.721,267.638,161.665,269.142Z" transform="translate(-74.885 -147.11)"/><path class="v" d="M145.7,312.595c-.025.015-.048.028-.072.042a1.942,1.942,0,0,1-2.458-.5c-.035-.047-.077-.1-.108-.143h0q-.737-.941-1.445-1.893c-.162-.217-.324-.433-.483-.652a32.285,32.285,0,0,0,3.231-3.172c.657,1.244,1.323,2.479,1.988,3.687l.03.05a.183.183,0,0,1,.024.054h0A1.926,1.926,0,0,1,145.7,312.595Z" transform="translate(-72.457 -157.218)"/><path class="v" d="M147.706,313.217s2.154,3.424,1.83,3.8-2.191-2.2-2.245-2.275c.032.07,1.12,2.478.748,2.876-.051.056-.122.045-.208-.012a11.845,11.845,0,0,1-1.7-2.7c.021.106.53,2.715-.036,2.867s-1.061-3.152-1.061-3.152-.046,1.971-.474,2c-.329.025-.846-2.581-1.069-3.792-.067-.364-.107-.605-.107-.605l1.373-.7,1.645-.844s.171.091.434.225c.89.472,2.834,1.554,2.76,1.973C149.5,313.421,147.706,313.217,147.706,313.217Z" transform="translate(-72.887 -158.058)"/><path class="v" d="M167.567,249.922a5.59,5.59,0,0,1-.2,1.027,5.328,5.328,0,0,1-.745,1.485,8.576,8.576,0,0,1-2.427,2.237,3.277,3.277,0,0,1-2.831.345,7.352,7.352,0,0,1-3.979-2.849,11.465,11.465,0,0,1-1.051-3.022,2.211,2.211,0,0,1-1.365-.774,2.655,2.655,0,0,1-.644-1.08,1.659,1.659,0,0,1,1.194-2.021c.044-.01.086-.012.128-.019a5.942,5.942,0,0,1,11.692-1.688h0q.067.273.111.546c.024.147.042.295.054.446A30.208,30.208,0,0,1,167.567,249.922Z" transform="translate(-74.966 -144.392)"/><path class="u" d="M167.761,244.661c-.1-.045-.209-.091-.312-.131-3.355-1.377-6.292-.815-7.282.754-1.019,1.619-3.06,3.859-4.081,2.515-.716-.945-1.151.078-1.121.993a2.656,2.656,0,0,1-.644-1.079,1.659,1.659,0,0,1,1.194-2.021c.044-.01.086-.012.128-.019a5.892,5.892,0,0,1,1.3-3.914c.858-.431,2.068-.555,4.319-.378,3.695.289,5.379,1.729,6.072,2.608h0a3.032,3.032,0,0,1,.425.673Z" transform="translate(-74.965 -144.812)"/><path class="p" d="M180.081,283.969a24.053,24.053,0,0,1-2.7,4.1,4.388,4.388,0,0,1-5.987.592,22.922,22.922,0,0,1-6.686-8.5c-.04-.084-.08-.167-.119-.253,0,0-1.752,5.409.685,7.847,0,0-7.058,3.563-17.793.348q-.546-.161-1.1-.348s4.081-5.121,1.7-13.016l-.006-.02c-.03-.1-.059-.192-.091-.291,0,0,2.458-3.122,2.214-8.889a20.484,20.484,0,0,0-.233-2.308l4.113-.533s.213.546.546,1.341c.9,2.162,2.652,6.134,3.265,5.744.837-.533,3.429-6.093,3.429-6.093a29.99,29.99,0,0,1,5.1,2.513c1.066.914,7.388,13.939,7.388,13.939l.032-.06,8.348-16.088s1.183.736,2.3,1.467a15.308,15.308,0,0,1,1.888,1.351C186.622,267.1,183.792,277.12,180.081,283.969Z" transform="translate(-73.459 -148.895)"/><path class="q" d="M147.477,290.388q-.546-.161-1.1-.348s4.081-5.121,1.7-13.016l-.006-.02,2.5-2.3S152.106,286.029,147.477,290.388Z" transform="translate(-73.459 -151.19)"/><path class="q" d="M181.643,284.911l-1.371-.761.762,2.056-.168-1.186Z" transform="translate(-79.93 -152.993)"/><path class="q" d="M184.4,284.943a24.049,24.049,0,0,1-2.7,4.1,4.388,4.388,0,0,1-5.987.592,22.921,22.921,0,0,1-6.686-8.5.8.8,0,0,1,.034-.177s2.742-3.046,2.665-5.56c-.073-2.434-1.934-7.3-2.05-7.6.15.33,2.7,6,2.844,8.752.149,2.837,1.606,10.94,5.006,12.321C179.6,289.7,182.474,287.1,184.4,284.943Z" transform="translate(-77.783 -149.869)"/><path class="ab" d="M171.516,262.284c.526,1.542-.575,3.895-1.927,5.083-.686-1.333-1.365-2.622-1.944-3.67a13.272,13.272,0,0,0-1.512-2.394,30.316,30.316,0,0,0-5.1-2.512s-.019.039-.048.107a1.655,1.655,0,0,1-.37-1.282l.387-2.829a3.224,3.224,0,0,0,1.413-.5,8.553,8.553,0,0,0,2.427-2.239,5.208,5.208,0,0,0,.743-1.485,5.613,5.613,0,0,0,.2-1.024c.013-.116.025-.236.035-.36a33.317,33.317,0,0,0-.091-5.006c0-.027-.009-.053-.011-.083a3.078,3.078,0,0,0-2.731-2.22h-.015a11.291,11.291,0,0,0-4.977.807,6.4,6.4,0,0,1-2.438,3.873,2.659,2.659,0,0,0-1.837-1.655,1.659,1.659,0,0,0-1.173,2.012,2.736,2.736,0,0,0,2.014,1.855,14.173,14.173,0,0,0,.8,2.549l-.748,5.476a1.668,1.668,0,0,1-.749,1.179c-.043-.107-.065-.168-.065-.168l-4.114.533s-1.183,0-3.628,1.713a2.921,2.921,0,0,1-1.1-2.731,2.591,2.591,0,0,1,.127-.5c.461-1.274,1.729-2.019,2.725-2.935a8.569,8.569,0,0,0,2.633-4.893c.176-1.08.137-2.185.22-3.269a6.374,6.374,0,0,1,.91-3.113,2.988,2.988,0,0,1,2.776-1.394,2.786,2.786,0,0,1,.89-1.686,8.647,8.647,0,0,1,7.416-2.3,6.922,6.922,0,0,1,3.572,1.713,4.987,4.987,0,0,1,1.6,3.563c0,1.3-.577,2.6-.223,3.847a6.414,6.414,0,0,0,1.285,2.071c.793,1.024,1.474,2.367.994,3.558a2.048,2.048,0,0,0-.273.922c.048.4.419.665.723.924a4.492,4.492,0,0,1,1.284,4.795,5.772,5.772,0,0,0-.62,2.01A5.632,5.632,0,0,0,171.516,262.284Z" transform="translate(-73.18 -144.01)"/><path class="ac" d="M157.987,243.691a6.4,6.4,0,0,1-2.438,3.873,2.659,2.659,0,0,0-1.837-1.655,1.659,1.659,0,0,0-1.173,2.012,2.736,2.736,0,0,0,2.014,1.855,14.172,14.172,0,0,0,.8,2.549l-.748,5.476a1.668,1.668,0,0,1-.749,1.179c-.043-.107-.065-.168-.065-.168l-4.114.533s-1.183,0-3.628,1.713a2.921,2.921,0,0,1-1.1-2.731,5.4,5.4,0,0,1,1.152-.9c2.193-1.291,5-3.535,5.023-6.184s.683-5.682,1.973-5.8a5.016,5.016,0,0,0,3.751-1.968c1.2-1.475,2.487-1.167,6.116-.6A11.345,11.345,0,0,0,157.987,243.691Z" transform="translate(-73.179 -145.023)"/><path class="ac" d="M171.344,266.548a13.271,13.271,0,0,0-1.512-2.394,30.315,30.315,0,0,0-5.1-2.512s-.019.039-.048.107a1.655,1.655,0,0,1-.37-1.282l.387-2.829a3.223,3.223,0,0,0,1.413-.5,8.553,8.553,0,0,0,2.427-2.239,5.207,5.207,0,0,0,.743-1.484,5.609,5.609,0,0,0,.2-1.024c.013-.116.025-.236.035-.359a9.25,9.25,0,0,1,.289,2.275c-.091,3.368-2.217,3.781.78,7.212A4.078,4.078,0,0,1,171.344,266.548Z" transform="translate(-76.879 -146.861)"/><path class="q" d="M190.96,265.752l-9.31,15.366-1.34-.745,8.348-16.088S189.846,265.022,190.96,265.752Z" transform="translate(-79.937 -149.2)"/><path class="u" d="M145.818,314.564c.021.106.53,2.715-.036,2.867s-1.061-3.152-1.061-3.152-.046,1.971-.474,2c-.329.025-.846-2.581-1.069-3.792h0q-.737-.941-1.445-1.893a3.1,3.1,0,0,1,1.721-1.718,8.772,8.772,0,0,0,.991,2.3,20.79,20.79,0,0,0,1.365,1.911,3.29,3.29,0,0,1,.7,1.237c.128.746.72,2.047,1,2.939A12.143,12.143,0,0,1,145.818,314.564Z" transform="translate(-72.571 -157.715)"/><path class="p" d="M147.627,271.493l-3.254,3.358-8.858,9.135s7.847,15.31,7.542,15.843a14.385,14.385,0,0,1-2.385,1.879c-.8.559-1.5,1.018-1.5,1.018s-11.122-17.521-12.112-19.957,7.845-10.74,12.416-15.083,6.779-4.343,6.779-4.343a4.584,4.584,0,0,1,1.049,1.947A18.209,18.209,0,0,1,147.627,271.493Z" transform="translate(-69.755 -149.02)"/><path class="q" d="M135.928,288.583l1.219.077-.99-.838Z" transform="translate(-71.463 -153.694)"/><path class="q" d="M150.913,264.024a19.119,19.119,0,0,0-3.607,1.14q-.41.171-.819.364c-5.691,2.64-11.249,7.758-13.357,12.093-2.689,5.526-.3,9.036,2.764,13.814a52.614,52.614,0,0,1,4.776,10.15c-.8.559-1.5,1.018-1.5,1.018s-11.119-17.524-12.109-19.96,7.845-10.74,12.416-15.083,6.779-4.343,6.779-4.343l4.113-.533S150.581,263.233,150.913,264.024Z" transform="translate(-69.755 -148.894)"/><path class="h" d="M159.317,270.918h-.027c-1.707-.078-4.226-7.431-4.333-7.744l.141-.048c.026.076,2.592,7.569,4.2,7.646h.026c1.6,0,4.065-6.513,4.09-6.579l.14.053C163.447,264.516,161.026,270.918,159.317,270.918Z" transform="translate(-75.096 -148.979)"/><path class="ad" d="M147.149,419.683c.546-.313.29,1.854.776,2.26a6.028,6.028,0,0,0,1.673.881l3.587,1.431a10.916,10.916,0,0,1,2.22,1.087,3.676,3.676,0,0,1,1.493,1.917.486.486,0,0,1,0,.358.5.5,0,0,1-.252.194,10.19,10.19,0,0,1-4.088.811c-.751.016-1.5-.015-2.251-.056-.8-.044-1.606-.1-2.408-.156l-.858-.06-5.37-.375a1.4,1.4,0,0,1-1.145-.455,1.323,1.323,0,0,1-.157-.687,12.946,12.946,0,0,1,.927-5.252,11.052,11.052,0,0,0,.9-2.565S146.309,420.16,147.149,419.683Z" transform="translate(-72.31 -178.743)"/><path class="y" d="M148.6,421.785q-.512.781-1.092,1.517c-.07.091.06.214.132.123q.59-.755,1.114-1.555c.064-.1-.091-.182-.158-.086Z" transform="translate(-73.671 -179.264)"/><path class="y" d="M149.95,422.931a7.68,7.68,0,0,0-1,2c-.036.11.138.151.175.042a7.532,7.532,0,0,1,.986-1.962c.066-.091-.091-.182-.158-.086Z" transform="translate(-73.948 -179.482)"/><path class="y" d="M151.714,423.889a5.858,5.858,0,0,0-.51,1.586c-.019.114.156.156.175.042a5.683,5.683,0,0,1,.493-1.542C151.922,423.871,151.765,423.785,151.714,423.889Z" transform="translate(-74.379 -179.665)"/><path class="y" d="M153.3,424.421a4.451,4.451,0,0,0-.285,1.365c-.005.116.174.111.182,0a4.284,4.284,0,0,1,.279-1.315c.041-.108-.134-.149-.175-.043Z" transform="translate(-74.726 -179.765)"/><path class="y" d="M155.82,425.77a1.053,1.053,0,0,1-.006.644,1.831,1.831,0,0,1-.674.832,3.767,3.767,0,0,1-2.12.743,11.95,11.95,0,0,1-2.81-.494c-2.357-.5-4.79-.159-7.185-.364a2.154,2.154,0,0,1-1.427-.515,1.938,1.938,0,0,1-.435-.961,5.5,5.5,0,0,1,.191-2.976c.182-.513.444-1,.61-1.515a2.518,2.518,0,0,0,.075-1.414,20.085,20.085,0,0,1-.756,1.923,12.94,12.94,0,0,0-.927,5.252,1.323,1.323,0,0,0,.157.687,1.428,1.428,0,0,0,1.146.455l5.37.376.858.059c.8.056,1.6.113,2.408.157.749.041,1.5.071,2.251.056a10.192,10.192,0,0,0,4.088-.811.506.506,0,0,0,.252-.195.485.485,0,0,0,0-.358A3.46,3.46,0,0,0,155.82,425.77Z" transform="translate(-72.307 -178.883)"/><path class="ae" d="M181.256,419.477c.512-.372.5,1.81,1.026,2.159a6.013,6.013,0,0,0,1.761.687l3.725,1.018a10.966,10.966,0,0,1,2.329.83,3.67,3.67,0,0,1,1.7,1.738.478.478,0,0,1,.041.355.5.5,0,0,1-.228.221,10.172,10.172,0,0,1-3.97,1.266c-.745.1-1.494.155-2.244.2-.8.046-1.606.081-2.409.116l-.86.036-5.377.231a1.415,1.415,0,0,1-1.189-.32,1.316,1.316,0,0,1-.233-.666,12.937,12.937,0,0,1,.331-5.322,11.044,11.044,0,0,0,.6-2.651S180.474,420.046,181.256,419.477Z" transform="translate(-78.959 -178.811)"/><path class="y" d="M182.8,421.42q-.421.835-.91,1.63c-.06.1.084.206.145.107q.5-.819.932-1.669c.052-.1-.115-.17-.167-.067Z" transform="translate(-80.237 -179.192)"/><path class="y" d="M184.276,422.411a7.7,7.7,0,0,0-.77,2.106c-.024.113.155.135.182.022a7.515,7.515,0,0,1,.759-2.061c.055-.1-.113-.167-.167-.067Z" transform="translate(-80.547 -179.382)"/><path class="y" d="M186.131,423.173a5.842,5.842,0,0,0-.328,1.632c-.006.115.172.138.182.023a5.669,5.669,0,0,1,.316-1.588c.039-.108-.127-.176-.167-.066Z" transform="translate(-80.986 -179.526)"/><path class="y" d="M187.759,423.53a4.47,4.47,0,0,0-.129,1.385c.007.116.182.091.182-.024a4.278,4.278,0,0,1,.129-1.339C187.97,423.441,187.792,423.42,187.759,423.53Z" transform="translate(-81.333 -179.591)"/><path class="y" d="M190.539,424.555a1.051,1.051,0,0,1,.066.637,1.831,1.831,0,0,1-.576.9,3.77,3.77,0,0,1-2.022.977,12.021,12.021,0,0,1-2.848-.175c-2.4-.228-4.779.38-7.181.447a2.153,2.153,0,0,1-1.476-.351,1.959,1.959,0,0,1-.541-.906,5.5,5.5,0,0,1-.144-2.979c.124-.531.329-1.039.435-1.575a2.546,2.546,0,0,0-.085-1.414,20.451,20.451,0,0,1-.535,2,12.937,12.937,0,0,0-.331,5.322,1.315,1.315,0,0,0,.233.665,1.414,1.414,0,0,0,1.189.32l5.377-.231.86-.036c.8-.035,1.606-.069,2.409-.117.75-.044,1.5-.1,2.244-.2a10.2,10.2,0,0,0,3.97-1.266.5.5,0,0,0,.228-.221.481.481,0,0,0-.041-.356A3.42,3.42,0,0,0,190.539,424.555Z" transform="translate(-78.954 -178.954)"/><path class="k" d="M277.871,203.005a.8.8,0,0,0-.039,1.594l12.073.273a.8.8,0,0,0,.039-1.594Z" transform="translate(-98.426 -137.5)"/><rect class="af" width="50.958" height="15.014" rx="1.671" transform="translate(82.707 88.03) rotate(180)"/><path class="af" d="M151.313,228.02s1.329,9.484,1.33,8.9-6.711-8.1-6.711-8.1Z" transform="translate(-73.373 -142.276)"/><path class="ag" d="M104.96,219.565l2.54.408-1.869,1.769.4,2.541-2.26-1.231-2.294,1.164.472-2.529-1.816-1.822,2.551-.333,1.172-2.289Z" transform="translate(-64.628 -140.218)"/><path class="ag" d="M116.088,219.565l2.54.408-1.869,1.769.4,2.541-2.259-1.231-2.295,1.164.472-2.529-1.816-1.822,2.551-.333,1.172-2.289Z" transform="translate(-66.753 -140.218)"/><path class="ag" d="M127.216,219.565l2.54.408-1.869,1.769.4,2.541-2.26-1.231-2.295,1.164.472-2.529-1.816-1.822,2.551-.333,1.172-2.289Z" transform="translate(-68.878 -140.218)"/><path class="h" d="M139.013,221.739l.4,2.539L137.24,223.1l-.085-.046-2.292,1.161.465-2.531-1.812-1.819,2.548-.333,1.176-2.291,1.108,2.322,2.539.41Z" transform="translate(-71.003 -140.218)"/><path class="h" d="M149.472,219.565l2.54.408-1.869,1.769.4,2.541-2.26-1.231-2.295,1.164.472-2.529-1.816-1.822,2.551-.333,1.172-2.289Z" transform="translate(-73.127 -140.218)"/><path class="ag" d="M137.24,217.242v5.86l-.085-.046-2.292,1.161.465-2.531-1.812-1.819,2.548-.333Z" transform="translate(-71.003 -140.218)"/><path class="ah" d="M334.133,375.711l-2.286,32.009h30.535l-2.1-32.069Z" transform="translate(-108.87 -170.463)"/><path class="ai" d="M342.159,378.992h0a.979.979,0,0,1,1.046-.888h0a.9.9,0,1,1,0,1.772h0A.983.983,0,0,1,342.159,378.992Zm1.046-.546a.565.565,0,1,0,0,1.092h0a.565.565,0,1,0,0-1.092ZM342.324,378.992Z" transform="translate(-110.839 -170.932)"/><path class="ai" d="M355.024,378.963h0a.811.811,0,0,1,.245-.573,1.13,1.13,0,0,1,.8-.315h0a.978.978,0,0,1,1.047.883.819.819,0,0,1-.318.637,1.147,1.147,0,0,1-.728.25h0A.981.981,0,0,1,355.024,378.963Zm1.045-.546a.783.783,0,0,0-.56.216.465.465,0,0,0-.147.332h0a.645.645,0,0,0,.71.546h0a.819.819,0,0,0,.514-.173.492.492,0,0,0,.193-.376.645.645,0,0,0-.709-.546Z" transform="translate(-113.295 -170.926)"/><path class="ai" d="M348.255,385.553c.1,0,.2,0,.3-.005a5.624,5.624,0,0,0,4.335-1.83,6.5,6.5,0,0,0,1.218-4.675.338.338,0,0,0-.669.091,5.938,5.938,0,0,1-1.07,4.15,4.979,4.979,0,0,1-3.836,1.585,4.539,4.539,0,0,1-3.712-1.3c-1.491-1.66-1.124-4.387-1.12-4.415a.339.339,0,0,0-.67-.1c-.017.124-.417,3.061,1.284,4.96A5.029,5.029,0,0,0,348.255,385.553Z" transform="translate(-110.994 -171.057)"/><path class="ag" d="M322.946,389.75l-3.648,23.8,33.151-.078-3.357-23.782Z" transform="translate(-106.474 -173.144)"/><path class="aj" d="M332.316,394.084a1.089,1.089,0,0,1-1.155-1h0a.937.937,0,0,1,.282-.665,1.235,1.235,0,0,1,.87-.347h0a1.09,1.09,0,0,1,1.155,1,.936.936,0,0,1-.282.664,1.226,1.226,0,0,1-.869.347Zm-.6-1.008c0,.247.273.455.6.455h0a.677.677,0,0,0,.479-.182.387.387,0,0,0,.121-.273c0-.247-.273-.455-.6-.455h0a.674.674,0,0,0-.479.182A.388.388,0,0,0,331.714,393.076Z" transform="translate(-108.739 -173.598)"/><path class="aj" d="M345.181,394.056a1.09,1.09,0,0,1-1.155-1h0a.945.945,0,0,1,.354-.728,1.248,1.248,0,0,1,.8-.28h0a1.09,1.09,0,0,1,1.155,1,.94.94,0,0,1-.355.728,1.244,1.244,0,0,1-.8.281Zm-.6-1.009c0,.247.273.455.6.455h0a.7.7,0,0,0,.443-.151.4.4,0,0,0,.156-.306c0-.247-.273-.455-.6-.455h0a.685.685,0,0,0-.443.151.4.4,0,0,0-.157.3Z" transform="translate(-111.195 -173.594)"/><path class="aj" d="M337.406,399.751a4.95,4.95,0,0,1-3.866-1.5c-1.72-1.911-1.32-4.915-1.3-5.046a.276.276,0,1,1,.546.077c0,.029-.38,2.884,1.168,4.6a4.565,4.565,0,0,0,3.732,1.311,5.007,5.007,0,0,0,3.851-1.607,6.2,6.2,0,0,0,1.115-4.33.276.276,0,0,1,.546-.077,6.65,6.65,0,0,1-1.237,4.759,5.531,5.531,0,0,1-4.258,1.808C337.6,399.749,337.5,399.751,337.406,399.751Z" transform="translate(-108.934 -173.765)"/><path class="ak" d="M381.286,396.582h-.553v-3.07a3.408,3.408,0,0,0-6.816,0v2.838h-.553v-2.838a3.961,3.961,0,1,1,7.919,0Z" transform="translate(-116.796 -173.094)"/><path class="al" d="M383.249,394.435l1.548,16.1-20.049-.008,1.682-16.091" transform="translate(-115.152 -174.05)"/><path class="ak" d="M366.432,394.435l.866.81-.911,1.138-1.627,14.152Z" transform="translate(-115.154 -174.05)"/><path class="aa" d="M367.681,395.437v1.7l-.913-.568Z" transform="translate(-115.537 -174.241)"/><path class="ak" d="M387.406,394.439l-.866.809.819,1.138,1.634,14.157Z" transform="translate(-119.313 -174.051)"/><path class="aa" d="M386.54,395.439v1.7l.819-.565Z" transform="translate(-119.313 -174.242)"/><path class="am" d="M384.833,410.641H364.759l1.627-15.648h16.906Z" transform="translate(-115.154 -174.156)"/><path class="ak" d="M372.96,397.831a.7.7,0,1,1-.312-.436A.7.7,0,0,1,372.96,397.831Z" transform="translate(-116.456 -174.595)"/><path class="ak" d="M382.068,397.942a.7.7,0,1,1-.842-.523A.7.7,0,0,1,382.068,397.942Z" transform="translate(-118.194 -174.616)"/><path class="ak" d="M379.981,396.61h-.553v-3.07a3.408,3.408,0,1,0-6.817,0v2.838h-.553V393.54a3.962,3.962,0,1,1,7.924,0Z" transform="translate(-116.547 -173.123)"/><path class="an" d="M303.6,310.671a.262.262,0,1,1,0-.523h.737a.262.262,0,0,1,0,.524H303.6Z" transform="translate(-103.424 -157.957)"/><path class="an" d="M306.361,310.634a.262.262,0,1,1,0-.524l1.491-.006h0a.262.262,0,0,1,0,.524l-1.492.006Zm2.983-.013a.262.262,0,1,1,0-.523l1.492-.006h0a.262.262,0,0,1,0,.524l-1.491.005Zm2.984-.012a.262.262,0,1,1,0-.523l1.492-.006a.263.263,0,1,1,0,.524l-1.492.005Zm2.983-.012a.262.262,0,1,1,0-.524l1.492-.005h0a.262.262,0,1,1,0,.524Zm2.983-.012a.262.262,0,1,1,0-.524l1.492-.005h0a.262.262,0,1,1,0,.523l-1.491.006Zm2.984-.012a.262.262,0,0,1,0-.524l1.491-.005h0a.262.262,0,1,1,0,.523l-1.492.006Zm2.983-.012a.262.262,0,1,1,0-.524l1.492-.006h0a.262.262,0,0,1,0,.524l-1.491.006Zm2.984-.013a.262.262,0,1,1,0-.523l1.492-.006h0a.262.262,0,1,1,0,.524l-1.491.005Zm2.983-.012a.262.262,0,1,1,0-.523l1.492-.006h0a.262.262,0,1,1,0,.524Zm2.983-.012a.262.262,0,0,1,0-.524L334.7,310h0a.262.262,0,0,1,0,.524l-1.491.005Z" transform="translate(-103.954 -157.928)"/><path class="an" d="M343.232,310.344a.262.262,0,0,1,0-.524h.464v-.439a.277.277,0,0,1,.553,0l-.006.958-1.011,0Z" transform="translate(-110.994 -157.758)"/><path class="an" d="M344.155,298.817h0a.273.273,0,0,1-.273-.263l.007-1.423a.273.273,0,0,1,.273-.261h0a.273.273,0,0,1,.273.263l-.007,1.424A.273.273,0,0,1,344.155,298.817Zm.015-2.846h0a.273.273,0,0,1-.273-.263l.007-1.424a.273.273,0,0,1,.273-.26h0a.273.273,0,0,1,.273.263l-.007,1.424A.273.273,0,0,1,344.171,295.971Zm.015-2.846h0a.273.273,0,0,1-.273-.264l.007-1.423a.273.273,0,0,1,.273-.261h0a.273.273,0,0,1,.273.263l-.008,1.424A.273.273,0,0,1,344.185,293.125Zm.015-2.847h0a.273.273,0,0,1-.273-.263l.008-1.423a.273.273,0,0,1,.273-.26h0a.273.273,0,0,1,.273.263l-.008,1.424a.273.273,0,0,1-.273.257Zm.016-2.846h0a.273.273,0,0,1-.273-.264l.007-1.423a.273.273,0,0,1,.273-.261h0a.273.273,0,0,1,.273.264l-.007,1.423A.273.273,0,0,1,344.216,287.431Zm.015-2.847h0a.273.273,0,0,1-.273-.263l.007-1.424a.273.273,0,0,1,.273-.26h0a.273.273,0,0,1,.273.263l-.007,1.424A.273.273,0,0,1,344.232,284.584Zm.015-2.846h0a.273.273,0,0,1-.273-.263l.007-1.424a.273.273,0,0,1,.273-.261h0a.273.273,0,0,1,.273.264l-.007,1.423a.273.273,0,0,1-.273.261Zm.015-2.847h0a.273.273,0,0,1-.273-.263L344,277.2a.273.273,0,0,1,.273-.26h0a.273.273,0,0,1,.273.263l-.008,1.423a.273.273,0,0,1-.272.26Zm.015-2.846h0a.273.273,0,0,1-.273-.263l.008-1.424a.273.273,0,0,1,.273-.26h0a.273.273,0,0,1,.273.263l-.008,1.423A.273.273,0,0,1,344.277,276.045Zm.015-2.847h0a.273.273,0,0,1-.273-.263l.008-1.424a.273.273,0,0,1,.273-.26h0a.273.273,0,0,1,.273.263l-.007,1.423a.273.273,0,0,1-.274.26Zm.015-2.846h0a.273.273,0,0,1-.273-.263l.007-1.424a.273.273,0,0,1,.273-.26h0a.273.273,0,0,1,.273.263l-.007,1.423A.273.273,0,0,1,344.308,270.351Zm.016-2.847h0a.273.273,0,0,1-.273-.263l.007-1.423a.273.273,0,0,1,.273-.261h0a.273.273,0,0,1,.273.264l-.007,1.423A.273.273,0,0,1,344.324,267.5Zm.015-2.846h0a.273.273,0,0,1-.273-.263l.007-1.424a.273.273,0,0,1,.273-.26h0a.273.273,0,0,1,.273.263l-.008,1.424a.273.273,0,0,1-.272.26Zm.015-2.846h0a.273.273,0,0,1-.273-.264l.008-1.423a.273.273,0,0,1,.273-.261h0a.273.273,0,0,1,.273.264l-.008,1.423A.273.273,0,0,1,344.354,261.812Z" transform="translate(-111.168 -148.356)"/><path class="an" d="M344.42,258.462h0a.273.273,0,0,1-.273-.263v-.7a.273.273,0,0,1,.273-.26h0a.273.273,0,0,1,.273.263v.7A.273.273,0,0,1,344.42,258.462Z" transform="translate(-111.218 -147.855)"/><ellipse class="an" cx="2.304" cy="2.182" rx="2.304" ry="2.182" transform="translate(230.901 107.466)"/><ellipse class="an" cx="2.304" cy="2.182" rx="2.304" ry="2.182" transform="translate(195.73 150.271)"/></g></g><g transform="translate(147.978 133.467) rotate(0.974)"><rect class="ao" width="23.305" height="33.682" rx="4.501" transform="translate(0 8.466)"/><rect class="h" width="19.754" height="33.682" rx="4.501" transform="translate(3.55 8.466)"/><rect class="ao" width="16.568" height="33.682" rx="4.501" transform="translate(6.737 8.466)"/><rect class="ap" width="12.107" height="1.639" transform="translate(5.644 6.828)"/><path class="ao" d="M1.821,0h14.11a1.821,1.821,0,0,1,1.821,1.821V7.374H0V1.821A1.821,1.821,0,0,1,1.821,0Z" transform="translate(2.822 0)"/><path class="h" d="M1.821,0H14.2a1.821,1.821,0,0,1,1.821,1.821V7.374H0V1.821A1.821,1.821,0,0,1,1.821,0Z" transform="translate(4.552 0)"/><path class="ao" d="M1.821,0H12.107a1.821,1.821,0,0,1,1.821,1.821V7.374H0V1.821A1.821,1.821,0,0,1,1.821,0Z" transform="translate(6.645 0)"/></g><g transform="translate(206.415 88.832) rotate(0.974)"><rect class="t" width="6.19" height="8.921" rx="0.9" transform="translate(0 2.276)"/><rect class="t" width="5.28" height="8.921" rx="0.9" transform="translate(0.91 2.276)"/><rect class="t" width="4.37" height="8.921" rx="0.9" transform="translate(1.821 2.276)"/><rect class="t" width="3.277" height="0.455" transform="translate(1.457 1.821)"/><path class="t" d="M.455,0H4.279a.455.455,0,0,1,.455.455V2H0V.455A.455.455,0,0,1,.455,0Z" transform="translate(0.728 0)"/><path class="t" d="M.455,0H3.823a.455.455,0,0,1,.455.455V2H0V.455A.455.455,0,0,1,.455,0Z" transform="translate(1.183 0)"/><path class="t" d="M.455,0H3.277a.455.455,0,0,1,.455.455V2H0V.455A.455.455,0,0,1,.455,0Z" transform="translate(1.73 0)"/></g></g></g></svg>