<svg xmlns="http://www.w3.org/2000/svg" xmlns:xlink="http://www.w3.org/1999/xlink" width="24" height="24" viewBox="0 0 24 24"><defs><clipPath id="a"><rect width="24" height="24" transform="translate(1792 21)" fill="#5e5e5e"/></clipPath></defs><g transform="translate(-1792 -21)" clip-path="url(#a)"><g transform="translate(1792 21)"><path d="M6.5,6.422H6.2L5.639,9.234H7.064Z" fill="#5e5e5e"/><path d="M17.877,12.047a7.348,7.348,0,0,0,1.154,2.038,7.422,7.422,0,0,0,1.2-2.038Z" fill="#5e5e5e"/><path d="M21.891,4.266H13.159l1.821,14.61a2.183,2.183,0,0,1-.521,1.6L11.375,24H21.891A2.112,2.112,0,0,0,24,21.891V6.422A2.152,2.152,0,0,0,21.891,4.266Zm0,7.781H21.7a8.922,8.922,0,0,1-1.694,3.08c.517.472,1.069.86,1.618,1.293a.7.7,0,1,1-.879,1.1c-.6-.471-1.157-.865-1.717-1.379-.56.514-1.073.908-1.67,1.379a.7.7,0,0,1-.879-1.1c.549-.434,1.055-.821,1.571-1.293a8.875,8.875,0,0,1-1.647-3.08h-.188a.7.7,0,0,1,0-1.406h2.109v-.7a.7.7,0,0,1,1.406,0v.7h2.156a.7.7,0,0,1,0,1.406Z" fill="#5e5e5e"/><path d="M11.445,1.848A2.112,2.112,0,0,0,9.352,0H2.109A2.112,2.112,0,0,0,0,2.109V17.672a2.112,2.112,0,0,0,2.109,2.109H13.2c.205-.234.377-.381.384-.687C13.584,19.017,11.455,1.924,11.445,1.848ZM8.622,13.439a.7.7,0,0,1-.827-.551l-.449-2.247H5.358l-.449,2.247a.7.7,0,0,1-1.379-.276L4.936,5.581a.7.7,0,0,1,.689-.565H7.078a.7.7,0,0,1,.689.565l1.406,7.031A.7.7,0,0,1,8.622,13.439Z" fill="#5e5e5e"/><path d="M8.215,21.188l.121.965a2.126,2.126,0,0,0,1.216,1.634l2.361-2.6h-3.7Z" fill="#5e5e5e"/></g></g></svg>