<svg xmlns="http://www.w3.org/2000/svg" xmlns:xlink="http://www.w3.org/1999/xlink" width="80" height="80" viewBox="0 0 80 80">
  <defs>
    <clipPath id="clip-path">
      <rect id="Rectangle_139" data-name="Rectangle 139" width="42" height="42" transform="translate(1186 157)" fill="#2fdf46"/>
    </clipPath>
  </defs>
  <g id="saque" transform="translate(-1044 -136)">
    <circle id="Ellipse_6" data-name="Ellipse 6" cx="40" cy="40" r="40" transform="translate(1044 136)" fill="rgba(47,223,70,0.2)"/>
    <g id="Mask_Group_15" data-name="Mask Group 15" transform="translate(-123 -2)" clip-path="url(#clip-path)">
      <g id="money-bag" transform="translate(1186 157.095)">
        <g id="Group_207" data-name="Group 207" transform="translate(3.777 30.046)">
          <g id="Group_206" data-name="Group 206">
            <path id="Path_262" data-name="Path 262" d="M4.805,28.706l-1.208.6A10.41,10.41,0,0,0,7.566,33.6l.694-1.157A9.062,9.062,0,0,1,4.805,28.706Z" transform="translate(-3.597 -28.706)" fill="#2fdf46"/>
          </g>
        </g>
        <g id="Group_209" data-name="Group 209" transform="translate(2.84 27.537)">
          <g id="Group_208" data-name="Group 208">
            <path id="Path_263" data-name="Path 263" d="M4.035,26.316,2.7,26.54a10.3,10.3,0,0,0,.351,1.443l1.284-.412A8.843,8.843,0,0,1,4.035,26.316Z" transform="translate(-2.705 -26.316)" fill="#2fdf46"/>
          </g>
        </g>
        <g id="Group_211" data-name="Group 211" transform="translate(11.464 19.557)">
          <g id="Group_210" data-name="Group 210">
            <path id="Path_264" data-name="Path 264" d="M17.662,23.436V23.1a3.028,3.028,0,0,0-2.7-3V18.715H13.616V20.1a3.026,3.026,0,0,0,.337,6.035h.674a1.686,1.686,0,0,1,0,3.372h-.674a1.688,1.688,0,0,1-1.686-1.686v-.337H10.918v.337a3.028,3.028,0,0,0,2.7,3V32.2h1.349V30.82a3.026,3.026,0,0,0-.337-6.035h-.674a1.686,1.686,0,1,1,0-3.372h.674A1.688,1.688,0,0,1,16.313,23.1v.337Z" transform="translate(-10.918 -18.715)" fill="#2fdf46"/>
          </g>
        </g>
        <g id="Group_213" data-name="Group 213">
          <g id="Group_212" data-name="Group 212">
            <path id="Path_265" data-name="Path 265" d="M42,41.9l-1.686-6.744H35.593l-1.348-5.395H29.153a13.042,13.042,0,0,0-3.31-12.875L23.135,14.18a2,2,0,0,0-.049-2.625A2.011,2.011,0,0,0,22.6,8.469L23.88,6.334a2.787,2.787,0,0,0-2.39-4.221h-.128a2.781,2.781,0,0,0-2.318,1.241l-.287.431a.79.79,0,0,1-1.436-.308l-.248-1.494a2.267,2.267,0,0,0-4.472,0l-.248,1.492a.79.79,0,0,1-1.436.308l-.287-.431A2.783,2.783,0,0,0,8.31,2.113H8.182a2.786,2.786,0,0,0-2.39,4.22L7.073,8.468a2.012,2.012,0,0,0-.487,3.087,2,2,0,0,0-.05,2.626L3.828,16.888a13.061,13.061,0,0,0,8.8,22.292l-.68,2.72ZM13.677,40.552l1.012-4.046h4.342l1.012,4.046Zm5.394-5.395,1.012-4.046h4.342l1.012,4.046Zm4.005,5.395H21.431L20.42,36.506h3.668Zm1.389,0,1.012-4.046H29.82l1.012,4.046ZM39.26,36.506l1.012,4.046H32.221L31.21,36.506Zm-6.069-5.395L34.2,35.157H26.826l-1.012-4.046ZM6.948,5.64A1.439,1.439,0,0,1,8.182,3.462H8.31a1.434,1.434,0,0,1,1.2.641l.287.431A2.139,2.139,0,0,0,13.682,3.7l.248-1.492a.918.918,0,0,1,1.811,0L15.99,3.7a2.138,2.138,0,0,0,3.888.834l.287-.431a1.435,1.435,0,0,1,1.2-.64h.128A1.438,1.438,0,0,1,22.723,5.64L21.2,8.183H8.474ZM21.58,12.229a.674.674,0,0,1,0,1.349H8.092a.674.674,0,1,1,0-1.349h2.023V10.88H8.092a.674.674,0,0,1,0-1.349H21.58a.674.674,0,0,1,0,1.349H11.464v1.349ZM1.349,26.131a11.648,11.648,0,0,1,3.434-8.29L7.734,14.89a2.028,2.028,0,0,0,.359.036H21.58a2.028,2.028,0,0,0,.359-.036l2.951,2.951a11.681,11.681,0,0,1,2.849,11.921H19.03l-1.348,5.395H13.635l-.673,2.692A11.734,11.734,0,0,1,1.349,26.131Z" transform="translate(0 -0.09)" fill="#2fdf46"/>
          </g>
        </g>
      </g>
    </g>
  </g>
</svg>
