<svg xmlns="http://www.w3.org/2000/svg" xmlns:xlink="http://www.w3.org/1999/xlink" width="70" height="70" viewBox="0 0 70 70">
  <defs>
    <clipPath id="clip-path">
      <rect id="Rectangle_39" data-name="Rectangle 39" width="70" height="70" transform="translate(1258 860)" fill="#fff"/>
    </clipPath>
  </defs>
  <g id="Mask_Group_5" data-name="Mask Group 5" transform="translate(-1258 -860)" clip-path="url(#clip-path)">
    <g id="XMLID_913_" transform="translate(1258 860)">
      <g id="XMLID_121_">
        <path id="XMLID_146_" d="M53.849,9.32A23.942,23.942,0,0,0,41.445.9,1.367,1.367,0,0,0,40.7,3.535,21.049,21.049,0,0,1,45.76,41.868a1.366,1.366,0,0,0-.665,1.173V47.57h-3.28V23.619a1.36,1.36,0,0,0-.12-.557h0L36.23,10.837a1.367,1.367,0,0,0-2.495,0L28.269,23.061h0a1.361,1.361,0,0,0-.12.557V47.57H24.87V43.041a1.367,1.367,0,0,0-.665-1.173A21.049,21.049,0,0,1,29.261,3.535,1.367,1.367,0,0,0,28.52.9a23.941,23.941,0,0,0-12.4,8.415A23.788,23.788,0,0,0,14.4,35.7a23.932,23.932,0,0,0,7.736,8.1V47.57H21a2.693,2.693,0,0,0-2.69,2.69v5.553A2.693,2.693,0,0,0,21,58.5H22.21a12.845,12.845,0,0,0,25.545,0h1.209a2.693,2.693,0,0,0,2.69-2.69V50.26a2.693,2.693,0,0,0-2.69-2.69H47.828V43.8A23.759,23.759,0,0,0,58.76,23.793,23.557,23.557,0,0,0,53.849,9.32ZM39.082,24.986V47.57H36.367V24.986Zm-4.1-10.243,3.358,7.51H31.625Zm-4.1,10.243h2.75V47.57h-2.75Zm4.1,42.262A10.126,10.126,0,0,1,24.965,58.5H45A10.126,10.126,0,0,1,34.983,67.248ZM48.921,55.769H21.044V50.3H48.921Z" fill="#fff"/>
        <path id="XMLID_1031_" d="M8.2,23.793a1.367,1.367,0,0,0-1.367-1.367H1.367a1.367,1.367,0,1,0,0,2.733H6.833A1.367,1.367,0,0,0,8.2,23.793Z" fill="#fff"/>
        <path id="XMLID_1032_" d="M9.921,36.684,5.187,39.418a1.366,1.366,0,1,0,1.367,2.367l4.734-2.733a1.366,1.366,0,0,0-1.367-2.367Z" fill="#fff"/>
        <path id="XMLID_1033_" d="M5.187,8.168,9.921,10.9a1.366,1.366,0,1,0,1.367-2.367L6.554,5.8A1.366,1.366,0,1,0,5.187,8.168Z" fill="#fff"/>
        <path id="XMLID_1034_" d="M68.633,22.426H63.167a1.367,1.367,0,0,0,0,2.733h5.466a1.367,1.367,0,1,0,0-2.733Z" fill="#fff"/>
        <path id="XMLID_1038_" d="M64.813,39.418l-4.734-2.733a1.366,1.366,0,0,0-1.367,2.367l4.734,2.733a1.366,1.366,0,1,0,1.367-2.367Z" fill="#fff"/>
        <path id="XMLID_1040_" d="M59.4,11.085a1.36,1.36,0,0,0,.682-.183l4.734-2.733A1.366,1.366,0,1,0,63.446,5.8L58.713,8.535a1.367,1.367,0,0,0,.685,2.55Z" fill="#fff"/>
        <path id="XMLID_1041_" d="M34.983,2.755a1.367,1.367,0,0,0,1.367-1.367V1.382a1.367,1.367,0,1,0-1.367,1.373Z" fill="#fff"/>
      </g>
    </g>
  </g>
</svg>
