<svg xmlns="http://www.w3.org/2000/svg" xmlns:xlink="http://www.w3.org/1999/xlink" width="80" height="80" viewBox="0 0 80 80"><defs><style>.a{fill:#01a3ff;}.b{clip-path:url(#a);}</style><clipPath id="a"><rect class="a" width="80" height="80" transform="translate(643 452)"/></clipPath></defs><g class="b" transform="translate(-643 -452)"><g transform="translate(643 454.149)"><path class="a" d="M26.165,59.473a1.562,1.562,0,1,0-2.134-.572A1.563,1.563,0,0,0,26.165,59.473Zm0,0" transform="translate(-4.764 -11.312)"/><path class="a" d="M15,59.819l7.869,13.63A6.25,6.25,0,1,0,33.691,67.2L29,59.079l4.059-2.344a1.563,1.563,0,0,0,.572-2.134L31.6,51.082l29.928-5.87a4.687,4.687,0,0,0,3.8-7.023l-5.193-8.994,3.318-5.026a1.563,1.563,0,0,0,.049-1.642l-3.125-5.413a1.566,1.566,0,0,0-1.447-.778l-6.011.361L47.158,6.71a4.647,4.647,0,0,0-4-2.343H43.1A4.646,4.646,0,0,0,39.15,6.528l-20.411,26L5.469,40.191A10.937,10.937,0,0,0,15,59.819Zm15.988,8.943a3.125,3.125,0,0,1-5.413,3.124L17.76,58.354l5.413-3.125,7.813,13.534Zm-3.544-12.39-1.562-2.706L28.585,52.1l1.563,2.706ZM58.157,19.512l2.159,3.74-1.926,2.916-3.722-6.447ZM41.764,8.241a1.562,1.562,0,0,1,2.687.031L62.625,39.751a1.562,1.562,0,0,1-1.315,2.343,5.737,5.737,0,0,0-.857.145L41.229,8.941c.4-.519.455-.569.535-.7ZM39.149,11.59,57.211,42.875l-27.26,5.347L21.663,33.865ZM4.172,53.569A7.807,7.807,0,0,1,7.032,42.9L19.21,35.866,27.023,49.4,14.844,56.429a7.822,7.822,0,0,1-10.672-2.86Zm0,0" transform="translate(0 -0.873)"/><path class="a" d="M18.227,61.245a1.563,1.563,0,0,0-2.134-.572l-2.706,1.563a1.564,1.564,0,0,1-2.134-.572,1.562,1.562,0,0,0-2.706,1.563,4.694,4.694,0,0,0,6.4,1.716l2.706-1.563a1.563,1.563,0,0,0,.572-2.134Zm0,0" transform="translate(-1.667 -12.093)"/><path class="a" d="M94.72,8.495,86.013,13.34a1.563,1.563,0,0,0,1.52,2.731l8.706-4.845A1.562,1.562,0,0,0,94.72,8.495Zm0,0" transform="translate(-17.042 -1.659)"/><path class="a" d="M93.955,28.355l-6.037-1.617a1.562,1.562,0,1,0-.809,3.018l6.038,1.617a1.562,1.562,0,1,0,.808-3.018Zm0,0" transform="translate(-17.19 -5.337)"/><path class="a" d="M76.574,1.158,74.955,7.2a1.563,1.563,0,1,0,3.019.809l1.619-6.038a1.562,1.562,0,1,0-3.018-.809Zm0,0" transform="translate(-14.98 0)"/></g></g></svg>