<svg xmlns="http://www.w3.org/2000/svg" xmlns:xlink="http://www.w3.org/1999/xlink" width="24" height="24" viewBox="0 0 24 24"><defs><clipPath id="a"><rect width="24" height="24" transform="translate(1751 21)" fill="#5e5e5e"/></clipPath></defs><g transform="translate(-1751 -21)" clip-path="url(#a)"><g transform="translate(1751 21)"><path d="M8.682,21.835a3.625,3.625,0,0,0,6.637,0Z" fill="#5e5e5e"/><path d="M12,2.293a8.155,8.155,0,0,1,2.785.488V2.674A2.677,2.677,0,0,0,12.111,0h-.222A2.677,2.677,0,0,0,9.216,2.674v.106A8.171,8.171,0,0,1,12,2.293Z" fill="#5e5e5e"/><path d="M20.788,20.426H3.212a.716.716,0,0,1-.706-.55.683.683,0,0,1,.376-.777,3.73,3.73,0,0,0,1.135-1.543A17.828,17.828,0,0,0,5.2,10.5a6.8,6.8,0,0,1,13.6-.027q0,.013,0,.027a17.828,17.828,0,0,0,1.183,7.055A3.729,3.729,0,0,0,21.118,19.1a.683.683,0,0,1,.376.777A.716.716,0,0,1,20.788,20.426Zm.338-1.322h0Z" fill="#5e5e5e"/></g></g></svg>