<svg xmlns="http://www.w3.org/2000/svg" xmlns:xlink="http://www.w3.org/1999/xlink" width="197" height="197" viewBox="0 0 197 197"><defs><style>.a,.e,.i{fill:#fff;}.a{stroke:#707070;}.b{clip-path:url(#a);}.c{fill:#01a3ff;}.d{fill:#ff7f00;}.e{opacity:0.2;}.f{fill:#9655d9;}.g{fill:#af71ef;}.h{fill:url(#b);}.j{fill:url(#c);}.k{fill:#1d164d;}.l{fill:url(#d);}.m{fill:url(#e);}</style><clipPath id="a"><rect class="a" width="197" height="197" transform="translate(837 328)"/></clipPath><linearGradient id="b" x1="-5.739" y1="6.792" x2="-5.739" y2="6.807" gradientUnits="objectBoundingBox"><stop offset="0" stop-color="#1d164d"/><stop offset="1" stop-color="#4a4975"/></linearGradient><linearGradient id="c" x1="-8.182" y1="6.568" x2="-8.183" y2="6.583" gradientUnits="objectBoundingBox"><stop offset="0" stop-color="#ffc0ac"/><stop offset="1" stop-color="#ffd6c7"/></linearGradient><linearGradient id="d" x1="-22.662" y1="11.122" x2="-22.701" y2="11.08" xlink:href="#c"/><linearGradient id="e" x1="-12.6" y1="10.442" x2="-12.623" y2="10.469" xlink:href="#b"/></defs><g class="b" transform="translate(-837 -328)"><g transform="translate(840.899 328)"><g transform="translate(0 20.831)"><path class="c" d="M34.967,202.582A34.967,34.967,0,0,1,0,167.615V61.4A34.967,34.967,0,0,1,34.967,26.435H154.234A35.017,35.017,0,0,1,189.2,61.4V167.637A34.967,34.967,0,0,1,154.234,202.6Z" transform="translate(0 -26.435)"/><path class="d" d="M178.97,65.168V171.4a21.03,21.03,0,0,1-20.964,20.969H38.733A21.036,21.036,0,0,1,17.764,171.4V65.168A21.036,21.036,0,0,1,38.733,44.2H158A21.036,21.036,0,0,1,178.97,65.168Z" transform="translate(-3.766 -30.201)"/><path class="e" d="M178.964,188.515V168.978a95.778,95.778,0,0,0-161.228,0v19.537a21.03,21.03,0,0,0,20.992,20.969H42.7a56.792,56.792,0,0,1,111.357,0h3.963A21.03,21.03,0,0,0,178.964,188.515Z" transform="translate(-3.76 -47.313)"/><path class="e" d="M53.792,47.311A26.054,26.054,0,0,1,17.715,71.35V88.739A42.638,42.638,0,0,0,70.371,47.3c0-1.043-.056-2.081-.128-3.108H53.592a26.493,26.493,0,0,1,.2,3.119Z" transform="translate(-3.756 -30.199)"/></g><path class="f" d="M174.367,209.633l2.853,17.761H134.576Z" transform="translate(-28.53 -44.442)"/><path class="g" d="M144.722,227.422l29.645-17.761-39.791,17.761Z" transform="translate(-28.53 -44.448)"/><circle class="h" cx="22.396" cy="22.396" r="22.396" transform="translate(72.194 30.544)"/><path class="f" d="M194.316,69.234V92.64a12.587,12.587,0,0,1-7.3,11.421L157.04,117.939l6.178,47.639,18.838-5.417,4.107,9.03-61,27.247-11.273,5.04a16.834,16.834,0,0,1-20.181-5.04A16.579,16.579,0,0,1,90.157,185.8l.927-52.618a23.667,23.667,0,0,1,9.869-18.8l20.353-14.575,17.062-8.165,4.807-2.076a26.083,26.083,0,0,1,3.258-1.154l30.938-3.952,11.384-31.637C193.028,58.172,194.316,61.514,194.316,69.234Z" transform="translate(-19.112 -11.199)"/><path class="i" d="M137.274,118.674a18.91,18.91,0,0,0,7.909-1.771c5.09-2.32,6.855-5.761,7.438-8.237a12.615,12.615,0,0,0-1.815-9.436c-.139.056-.289.105-.427.167l-4.807,2.076-17.062,8.165-4.612,3.3.666.66A18.932,18.932,0,0,0,137.274,118.674Z" transform="translate(-26.266 -21.037)"/><path class="j" d="M125.816,101.641,118.19,84.223s-5.245,1.11-6.66-3.785,4.784-6.172,6.66-2.037c0,0,3.142-5.473-1.865-9.669,0,0,13.421.932,17.267-7.277,0,0,9.519,16.424,9.957,21.4a5.391,5.391,0,0,1-3.758,6.033l3.086,4.59s5.362,6.66-2.714,10.335A13.066,13.066,0,0,1,125.816,101.641Z" transform="translate(-23.6 -13.029)"/><path class="k" d="M134.041,97.226s4.357,4.49,12.488,1.9l-1.92-2.858a22.2,22.2,0,0,1-10.568.96Z" transform="translate(-28.417 -20.408)"/><path class="l" d="M219.038,191.537a7.277,7.277,0,0,0,2.22-9.2l-2.22-4.368v2.775a4.512,4.512,0,0,1-3.591,4.44l-2.653.555s2.07-2.442,1.893-4.34-1.665,1.315-3.7,1.488-4.224,3.785-4.224,3.785l4.107,9.03L218,192.158A6.786,6.786,0,0,0,219.038,191.537Z" transform="translate(-43.834 -37.73)"/><path class="g" d="M170.418,186.472l-46.246,8.5,3.963-43.537s.932,25.276,3.841,31.221,6.877-2.331,13.049,1.859,10.135-2,13.954.222A16.667,16.667,0,0,0,170.418,186.472Z" transform="translate(-26.325 -32.105)"/><path class="g" d="M203.384,118.475s-7.216,3.33-12.355,2.775-4.657,3.025-9.78,4.44-8.736-6.222-8.736-6.222l1.976,12.35,28.9-13.365Z" transform="translate(-36.573 -25.112)"/><path class="e" d="M157.206,99.956c0-1.2-.061-2.387-.161-3.563l-9.946,1.26a26.137,26.137,0,0,0-3.258,1.16l-1.31.555v.555a26.786,26.786,0,0,1-40.229,23.2l-.688.5a23.606,23.606,0,0,0-8.425,11.1A41.439,41.439,0,0,0,157.206,99.95Z" transform="translate(-19.756 -20.435)"/><g transform="translate(118.112)"><path class="m" d="M166.579,9.436c0-2.187-1.915-3.569-4.823-3.569a7.565,7.565,0,0,0-6.472,3.33l-5.395-3.169C152.3,2.32,156.494,0,162.521,0c6.694,0,11.345,2.992,11.345,8.259,0,7.143-7.5,7.943-7.5,12.677h-6.744C159.619,14.681,166.579,13.321,166.579,9.436Zm-7.854,18.638a4.3,4.3,0,0,1,8.57,0,4.29,4.29,0,0,1-8.57,0Z" transform="translate(-149.889)"/></g></g></g></svg>