<svg xmlns="http://www.w3.org/2000/svg" xmlns:xlink="http://www.w3.org/1999/xlink" width="80" height="80" viewBox="0 0 80 80"><defs><style>.a{fill:#01a3ff;}.b{clip-path:url(#a);}</style><clipPath id="a"><rect class="a" width="80" height="80" transform="translate(643 452)"/></clipPath></defs><g class="b" transform="translate(-643 -452)"><g transform="translate(643 466.145)"><g transform="translate(0 0)"><path class="a" d="M78.438,31.091A1.563,1.563,0,0,0,80,29.528V19.243a1.563,1.563,0,0,0-1.562-1.562H70a3.13,3.13,0,0,0-2.975,2.17H45.039c-.017-.008-.032-.018-.049-.025a22.142,22.142,0,0,0-13.476-1.582L18.892,20.706H13.12A3.127,3.127,0,0,0,10,17.681H1.563A1.563,1.563,0,0,0,0,19.243V29.288a1.563,1.563,0,0,0,3.125,0V20.806H10V50.429H3.125V42.1A1.563,1.563,0,0,0,0,42.1v9.891a1.563,1.563,0,0,0,1.563,1.563H10a3.129,3.129,0,0,0,3.125-3.125v-.017a5.814,5.814,0,0,1,1.988,1l.73.565a4.959,4.959,0,0,0,4.931,4.415c.112,0,.224-.005.335-.013a4.963,4.963,0,0,0,4.925,4.346c.112,0,.223-.005.335-.013a4.969,4.969,0,0,0,4.921,4.349c.114,0,.228-.005.342-.013a4.964,4.964,0,0,0,4.918,4.346q.242,0,.487-.024A4.937,4.937,0,0,0,40.4,67.581l1.271-1.542a4.944,4.944,0,0,0,.841-1.479,5.142,5.142,0,0,0,2.429.6h.076a5.171,5.171,0,0,0,4.762-3.337l.539.524a5.171,5.171,0,0,0,8.531-2.129,5.174,5.174,0,0,0,5.909-8.343l-1.086-1.058,3.208-1.731v1.34A3.129,3.129,0,0,0,70,53.554h8.438A1.563,1.563,0,0,0,80,51.991V41.632a1.563,1.563,0,0,0-3.125,0v8.8H70V20.806h6.875v8.722A1.563,1.563,0,0,0,78.438,31.091ZM23.473,51.051,22.2,52.594a1.845,1.845,0,1,1-2.848-2.346l1.271-1.542a1.832,1.832,0,0,1,1.247-.663q.091-.009.181-.009a1.845,1.845,0,0,1,1.421,3.018Zm5.26,4.333-1.271,1.543a1.845,1.845,0,1,1-2.848-2.346l1.271-1.543a1.832,1.832,0,0,1,1.247-.663q.091-.009.181-.009a1.845,1.845,0,0,1,1.421,3.019Zm5.26,4.333L32.722,61.26a1.845,1.845,0,1,1-2.848-2.346l1.271-1.542a1.845,1.845,0,0,1,2.848,2.346Zm5.26,4.333-1.271,1.543a1.845,1.845,0,0,1-2.848-2.346L36.4,61.7a1.832,1.832,0,0,1,1.247-.663q.091-.009.181-.009a1.845,1.845,0,0,1,1.421,3.018Zm23.361-7.035a2.052,2.052,0,0,1-2.9.042l-5.18-5.035-.018-.016-5.1-4.96a1.562,1.562,0,1,0-2.178,2.241l8.11,7.881a2.05,2.05,0,0,1-2.857,2.94l-8.11-7.881c-.016-.016-.034-.03-.051-.045l-3.9-3.787a1.562,1.562,0,1,0-2.178,2.241l8.11,7.881a2.049,2.049,0,1,1-2.857,2.94l-2.271-2.207a1.57,1.57,0,0,0-.161-.135c-.029-.025-.057-.051-.087-.075A4.952,4.952,0,0,0,37.5,57.923a4.956,4.956,0,0,0-5.258-4.333,4.965,4.965,0,0,0-5.263-4.335,4.967,4.967,0,0,0-8.763-2.536l-1.271,1.543q-.16.194-.3.4a8.982,8.982,0,0,0-3.52-1.45V23.831h5.918a1.554,1.554,0,0,0,.3-.029l12.77-2.492a19.092,19.092,0,0,1,6.5-.147,15.005,15.005,0,0,0-4.4,3.027L22.374,35.9a5.537,5.537,0,0,0,6.618,8.757l12.4-7h4.28l16.9,16.47a2.049,2.049,0,0,1,.042,2.9Zm4.26-11.478-5.554,3L50.148,37.648h1.1a1.563,1.563,0,0,0,0-3.125H40.979a1.561,1.561,0,0,0-.769.2L27.455,41.932a2.412,2.412,0,0,1-2.883-3.814L36.4,26.412a11.812,11.812,0,0,1,8.359-3.436H66.875Z" transform="translate(0 -17.681)"/></g><g transform="translate(76.875 16.375)"><path class="a" d="M98.761,38.607a1.562,1.562,0,1,0,.458,1.1A1.568,1.568,0,0,0,98.761,38.607Z" transform="translate(-96.094 -38.149)"/></g><g transform="translate(0 16.375)"><path class="a" d="M2.667,38.607A1.563,1.563,0,0,0,0,39.712a1.563,1.563,0,0,0,1.563,1.563,1.562,1.562,0,0,0,1.1-2.667Z" transform="translate(0 -38.149)"/></g></g></g></svg>