<svg xmlns="http://www.w3.org/2000/svg" xmlns:xlink="http://www.w3.org/1999/xlink" width="80" height="80" viewBox="0 0 80 80"><defs><style>.a{fill:#01a3ff;}.b{clip-path:url(#a);}</style><clipPath id="a"><rect class="a" width="80" height="80" transform="translate(643 452)"/></clipPath></defs><g class="b" transform="translate(-643 -452)"><g transform="translate(643 452)"><path class="a" d="M85.333,12.667v40A9.344,9.344,0,0,1,76,62H60.173l1,8H64a4,4,0,0,1,0,8H48V75.333H64a1.333,1.333,0,0,0,0-2.667H48V70H58.493l-1-8H48V59.333H76a6.667,6.667,0,0,0,6.667-6.667V51.333H48V48.667H82.667v-36A6.667,6.667,0,0,0,76,6H22.667A6.667,6.667,0,0,0,16,12.667v28H13.333v-28a9.344,9.344,0,0,1,9.333-9.333H76a9.344,9.344,0,0,1,9.333,9.333Z" transform="translate(-5.333 -3.333)"/><path class="a" d="M90,66.667h2.667v2.667H90Z" transform="translate(-20.667 -16)"/><path class="a" d="M39.333,53.333h-32a4.012,4.012,0,0,0-4,4v32a4.012,4.012,0,0,0,4,4h32a4.012,4.012,0,0,0,4-4v-32a4.012,4.012,0,0,0-4-4Zm1.333,36a1.333,1.333,0,0,1-1.333,1.333h-32A1.333,1.333,0,0,1,6,89.333v-32A1.333,1.333,0,0,1,7.333,56h32a1.333,1.333,0,0,1,1.333,1.333Z" transform="translate(-3.333 -13.333)"/><path class="a" d="M31.743,74.738,27.476,71.9a2.667,2.667,0,0,0-4.143,2.219V79.8a2.667,2.667,0,0,0,4.145,2.224l4.267-2.843a2.667,2.667,0,0,0,0-4.437ZM26,79.807V74.114l4.267,2.843Z" transform="translate(-7.333 -16.957)"/><path class="a" d="M25.333,63.333a12,12,0,1,0,12,12A12,12,0,0,0,25.333,63.333Zm0,21.333a9.333,9.333,0,1,1,9.333-9.333,9.333,9.333,0,0,1-9.333,9.333Z" transform="translate(-5.333 -15.333)"/><path class="a" d="M82.773,30.853l-3.44-1.147v-.413A6.6,6.6,0,0,0,82,24V20a6.667,6.667,0,1,0-13.333,0v4a6.6,6.6,0,0,0,2.667,5.293v.413l-3.44,1.147a6.649,6.649,0,0,0-4.56,6.32V44a1.333,1.333,0,0,0,1.333,1.333H86A1.333,1.333,0,0,0,87.333,44V37.173a6.649,6.649,0,0,0-4.56-6.32ZM71.333,20a4,4,0,0,1,8,0v1.293a1.317,1.317,0,0,1-.88-.693l-.587-1.2a1.344,1.344,0,0,0-2.147-.347l-.32.333a6.639,6.639,0,0,1-4.067,1.88Zm0,3.947a9.12,9.12,0,0,0,4.933-1.8,3.957,3.957,0,0,0,3.067,1.813V24a4,4,0,1,1-8,0Zm5.787,7.707L75.333,33l-1.787-1.347A1.325,1.325,0,0,0,74,30.667v-.133a6.733,6.733,0,0,0,2.667,0v.133a1.325,1.325,0,0,0,.453.987Zm7.547,11.013H66V37.173a3.984,3.984,0,0,1,2.733-3.787l1.853-.627,3.947,2.973a1.333,1.333,0,0,0,1.6,0L80.08,32.76l1.853.627a3.984,3.984,0,0,1,2.733,3.787Z" transform="translate(-15.333 -5.333)"/><path class="a" d="M50,21.969V28h2.667V20a1.333,1.333,0,0,0-.837-1.239L38.5,13.428a1.343,1.343,0,0,0-.992,0L24.17,18.761a1.333,1.333,0,0,0,0,2.477l4.5,1.8v7.631A1.333,1.333,0,0,0,30,32H46a1.333,1.333,0,0,0,1.333-1.333V23.036ZM38,16.1,47.743,20,38,23.9,28.255,20Zm6.667,13.231H31.333V24.1L37.5,26.572a1.347,1.347,0,0,0,.992,0L44.666,24.1Z" transform="translate(-7.333 -5.333)"/><path class="a" d="M30,40h2.667v2.667H30Z" transform="translate(-8.667 -10.667)"/><path class="a" d="M36.667,40H50v2.667H36.667Z" transform="translate(-10 -10.667)"/><path class="a" d="M30,46.667H48.667v2.667H30Z" transform="translate(-8.667 -12)"/></g></g></svg>