<svg xmlns="http://www.w3.org/2000/svg" xmlns:xlink="http://www.w3.org/1999/xlink" width="20" height="20" viewBox="0 0 20 20"><defs><style>.a{fill:#bdbdbd;}.b{clip-path:url(#a);}</style><clipPath id="a"><rect class="a" width="20" height="20" transform="translate(394 399)"/></clipPath></defs><g class="b" transform="translate(-394 -399)"><g transform="translate(394 399)"><path class="a" d="M18.5,4H17V1.5A1.5,1.5,0,0,0,15.5,0H4.5A1.5,1.5,0,0,0,3,1.5V4H1.5A1.5,1.5,0,0,0,0,5.5v9A1.5,1.5,0,0,0,1.5,16H3v2.5A1.5,1.5,0,0,0,4.5,20h11A1.5,1.5,0,0,0,17,18.5V16h1.5A1.5,1.5,0,0,0,20,14.5v-9A1.5,1.5,0,0,0,18.5,4ZM4,1.5A.5.5,0,0,1,4.5,1h11a.5.5,0,0,1,.5.5V4H4ZM15.5,19H4.5a.5.5,0,0,1-.5-.5V12H16v6.5A.5.5,0,0,1,15.5,19ZM19,14.5a.5.5,0,0,1-.5.5H17V12h.5a.5.5,0,0,0,0-1H2.5a.5.5,0,0,0,0,1H3v3H1.5a.5.5,0,0,1-.5-.5v-9A.5.5,0,0,1,1.5,5h17a.5.5,0,0,1,.5.5Z"/><path class="a" d="M17,20.5H8a.5.5,0,0,1,0-1h9a.5.5,0,0,1,0,1Z" transform="translate(-2.5 -6.5)"/><path class="a" d="M17,23.5H8a.5.5,0,0,1,0-1h9a.5.5,0,0,1,0,1Z" transform="translate(-2.5 -7.5)"/><path class="a" d="M17,26.5H8a.5.5,0,0,1,0-1h9a.5.5,0,0,1,0,1Z" transform="translate(-2.5 -8.5)"/><path class="a" d="M24,12a1.5,1.5,0,1,1,1.5-1.5A1.5,1.5,0,0,1,24,12Zm0-2a.5.5,0,1,0,.5.5A.5.5,0,0,0,24,10Z" transform="translate(-7.5 -3)"/></g></g></svg>