<svg xmlns="http://www.w3.org/2000/svg" xmlns:xlink="http://www.w3.org/1999/xlink" width="80" height="80" viewBox="0 0 80 80"><defs><style>.a{fill:#01a3ff;}.b{clip-path:url(#a);}</style><clipPath id="a"><rect class="a" width="80" height="80" transform="translate(643 452)"/></clipPath></defs><g class="b" transform="translate(-643 -452)"><g transform="translate(658.531 452)"><path class="a" d="M68.352,63.3V24.469A6.314,6.314,0,0,0,66.6,20.1l-.028-.031-5.99-6.413V10.109H62a1.172,1.172,0,0,0,1.172-1.172V3.761A3.765,3.765,0,0,0,59.414,0H28.352a3.765,3.765,0,0,0-3.761,3.761V8.938a1.172,1.172,0,0,0,1.172,1.172H27.18v3.543l-5.99,6.413-.025.028a6.314,6.314,0,0,0-1.75,4.375V40a1.172,1.172,0,0,0,2.344,0V35.995h44.25v26.13H21.758V44.667a1.172,1.172,0,0,0-2.344,0V73.651A6.356,6.356,0,0,0,25.763,80H62a6.356,6.356,0,0,0,6.349-6.349V63.3h0ZM26.935,3.761a1.419,1.419,0,0,1,1.417-1.417H59.414a1.418,1.418,0,0,1,1.417,1.417v4H58V6.349a1.172,1.172,0,0,0-2.344,0V7.766H52.82V6.349a1.172,1.172,0,0,0-2.344,0V7.766H47.643V6.349a1.172,1.172,0,1,0-2.344,0V7.766H42.466V6.349a1.172,1.172,0,0,0-2.344,0V7.766H37.289V6.349a1.172,1.172,0,1,0-2.344,0V7.766H32.112V6.349a1.172,1.172,0,0,0-2.344,0V7.766H26.935Zm-4.046,17.92q.027-.028.052-.057l5.92-6.338h4.668a1.172,1.172,0,1,0,0-2.344H29.523V10.109H58.242v2.833H54.237a1.172,1.172,0,1,0,0,2.344h4.668l5.917,6.335c.017.02.035.04.054.06a3.984,3.984,0,0,1,1.131,2.788v4.005H21.758V24.469a3.983,3.983,0,0,1,1.131-2.788Zm-1.131,11.97V30.818h44.25v2.833Zm44.25,30.818V67.3H21.758V64.469ZM62,77.656H25.763a4.01,4.01,0,0,1-4.005-4.005V69.646h44.25v4.005A4.01,4.01,0,0,1,62,77.656Z" transform="translate(-19.414 0)"/><path class="a" d="M47.735,66.381,51.4,62.72l3.661-3.661a5.055,5.055,0,0,0-7.148-7.148l-3.66,3.66h0l-3.66,3.66a5.055,5.055,0,0,0,7.148,7.148Zm1.83-12.813A2.711,2.711,0,1,1,53.4,57.4l-2.832,2.832L46.734,56.4ZM42.244,64.724a2.714,2.714,0,0,1,0-3.834l2.832-2.832,3.834,3.834-2.832,2.832a2.714,2.714,0,0,1-3.834,0Z" transform="translate(-23.353 -10.086)"/><path class="a" d="M64.714,72.357a1.172,1.172,0,0,0,1.172,1.172h5.177a1.172,1.172,0,0,0,0-2.344H65.886A1.172,1.172,0,0,0,64.714,72.357Z" transform="translate(-28.474 -14.237)"/><path class="a" d="M71.71,67.057a1.172,1.172,0,0,0,0-2.344H69.121a1.172,1.172,0,0,0,0,2.344Z" transform="translate(-29.121 -12.943)"/><path class="a" d="M33.406,52.3a3.76,3.76,0,1,0-3.76,3.76A3.765,3.765,0,0,0,33.406,52.3Zm-5.177,0a1.417,1.417,0,1,1,1.417,1.417A1.418,1.418,0,0,1,28.229,52.3Z" transform="translate(-20.708 -9.707)"/></g></g></svg>