<svg xmlns="http://www.w3.org/2000/svg" xmlns:xlink="http://www.w3.org/1999/xlink" width="80" height="80" viewBox="0 0 80 80">
  <defs>
    <clipPath id="clip-path">
      <rect id="Rectangle_177" data-name="Rectangle 177" width="50" height="50" transform="translate(401 152)" fill="#f6b546"/>
    </clipPath>
  </defs>
  <g id="saldo" transform="translate(-206 -136)">
    <circle id="Ellipse_4" data-name="Ellipse 4" cx="40" cy="40" r="40" transform="translate(206 136)" fill="rgba(246,181,70,0.2)"/>
    <g id="Mask_Group_19" data-name="Mask Group 19" transform="translate(-180)" clip-path="url(#clip-path)">
      <g id="coins" transform="translate(399.554 150.554)">
        <path id="Path_276" data-name="Path 276" d="M37.716,29.044a22.8,22.8,0,0,0-8.194-1.364,27.245,27.245,0,0,0-4.31.334V11.192c0-1.474-1.31-2.81-3.688-3.761A22.8,22.8,0,0,0,13.33,6.067a22.8,22.8,0,0,0-8.2,1.364c-2.378.951-3.688,2.287-3.688,3.761V38.223c0,1.474,1.31,2.81,3.688,3.761a22.8,22.8,0,0,0,8.194,1.364,27.046,27.046,0,0,0,4.31-.335v3.308c0,1.474,1.31,2.81,3.688,3.761a22.8,22.8,0,0,0,8.194,1.364,22.8,22.8,0,0,0,8.194-1.364c2.379-.951,3.688-2.287,3.688-3.761V32.806C41.4,31.332,40.095,30,37.716,29.044ZM13.329,7.306c6.272,0,10.643,2.048,10.643,3.885S19.6,15.077,13.329,15.077,2.686,13.029,2.686,11.192,7.057,7.306,13.329,7.306ZM2.686,13.538a8.585,8.585,0,0,0,2.448,1.415,22.8,22.8,0,0,0,8.194,1.364,22.8,22.8,0,0,0,8.194-1.364,8.563,8.563,0,0,0,2.448-1.415V15.7c0,1.838-4.371,3.885-10.643,3.885S2.686,17.534,2.686,15.7Zm0,4.505a8.583,8.583,0,0,0,2.448,1.415,22.8,22.8,0,0,0,8.194,1.364,22.8,22.8,0,0,0,8.194-1.364,8.568,8.568,0,0,0,2.448-1.415V20.2c0,1.838-4.371,3.885-10.643,3.885S2.686,22.04,2.686,20.2Zm0,4.505a8.581,8.581,0,0,0,2.448,1.415,22.8,22.8,0,0,0,8.194,1.364,22.8,22.8,0,0,0,8.194-1.364,8.563,8.563,0,0,0,2.448-1.415v2.159c0,1.838-4.371,3.885-10.643,3.885S2.686,26.545,2.686,24.707Zm0,4.505a8.586,8.586,0,0,0,2.448,1.415,22.8,22.8,0,0,0,8.194,1.364,22.8,22.8,0,0,0,8.194-1.364,8.563,8.563,0,0,0,2.448-1.415v1.2a16.991,16.991,0,0,0-2.645.8c-2.347.939-3.652,2.251-3.687,3.7a25.64,25.64,0,0,1-4.312.351c-6.271,0-10.642-2.048-10.642-3.886Zm0,4.505a8.586,8.586,0,0,0,2.448,1.415,22.8,22.8,0,0,0,8.194,1.364A27.035,27.035,0,0,0,17.639,34v3.249a25.643,25.643,0,0,1-4.31.351c-6.272,0-10.643-2.048-10.643-3.886Zm0,6.665V36.064a8.581,8.581,0,0,0,2.448,1.415,22.8,22.8,0,0,0,8.194,1.364,27.034,27.034,0,0,0,4.31-.335v3.249a25.652,25.652,0,0,1-4.31.351C7.057,42.108,2.686,40.06,2.686,38.223ZM29.522,50.207c-6.272,0-10.643-2.048-10.643-3.885V44.162a8.583,8.583,0,0,0,2.448,1.415,22.8,22.8,0,0,0,8.194,1.364,22.8,22.8,0,0,0,8.194-1.364,8.568,8.568,0,0,0,2.448-1.415v2.159C40.165,48.159,35.794,50.207,29.522,50.207Zm0-4.505c-6.272,0-10.643-2.048-10.643-3.885V39.657a8.586,8.586,0,0,0,2.448,1.415,22.8,22.8,0,0,0,8.194,1.364,22.8,22.8,0,0,0,8.194-1.364,8.563,8.563,0,0,0,2.448-1.415v2.159C40.165,43.654,35.794,45.7,29.522,45.7Zm0-4.505c-6.272,0-10.643-2.048-10.643-3.885V35.152a8.583,8.583,0,0,0,2.448,1.415,22.8,22.8,0,0,0,8.194,1.364,22.8,22.8,0,0,0,8.194-1.364,8.565,8.565,0,0,0,2.448-1.415v2.159c0,1.838-4.37,3.885-10.642,3.885Zm0-4.505c-6.272,0-10.643-2.048-10.643-3.885S23.25,28.92,29.522,28.92s10.643,2.048,10.643,3.885S35.794,36.691,29.522,36.691Z" fill="#f6b546"/>
        <path id="Path_277" data-name="Path 277" d="M40.5,1.446A10.95,10.95,0,1,0,51.446,12.4,10.95,10.95,0,0,0,40.5,1.446Zm0,20.661A9.711,9.711,0,1,1,50.207,12.4,9.711,9.711,0,0,1,40.5,22.107Z" fill="#f6b546"/>
        <path id="Path_278" data-name="Path 278" d="M40.5,7.046a2.335,2.335,0,0,1,2.332,2.332.62.62,0,0,0,1.24,0,3.576,3.576,0,0,0-2.952-3.516V4.8a.62.62,0,0,0-1.24,0V5.861a3.571,3.571,0,0,0,.62,7.088,2.331,2.331,0,1,1,.028,4.663h-.056a2.334,2.334,0,0,1-2.3-2.331.62.62,0,1,0-1.24,0A3.576,3.576,0,0,0,39.876,18.8v1.191a.62.62,0,0,0,1.24,0V18.8a3.571,3.571,0,0,0-.62-7.088,2.332,2.332,0,1,1,0-4.664Z" fill="#f6b546"/>
      </g>
    </g>
  </g>
</svg>
