<svg xmlns="http://www.w3.org/2000/svg" xmlns:xlink="http://www.w3.org/1999/xlink" width="30" height="30" viewBox="0 0 30 30"><defs><style>.a,.c{fill:#bdbdbd;}.a{stroke:#707070;}.b{clip-path:url(#a);}</style><clipPath id="a"><rect class="a" width="30" height="30" transform="translate(776 501)"/></clipPath></defs><g class="b" transform="translate(-776 -501)"><g transform="translate(776 501)"><path class="c" d="M26.44,20.775A12.173,12.173,0,0,0,9.225,3.56,11.936,11.936,0,0,0,7.394,18.251a.512.512,0,0,1-.071.61L1.113,25.072c-1.236,1.236-1.53,2.965-.434,4.061l.189.189c1.1,1.1,2.825.8,4.061-.434l6.2-6.2a.52.52,0,0,1,.623-.084A11.936,11.936,0,0,0,26.44,20.775ZM11.473,18.527a8.995,8.995,0,1,1,12.72,0A9,9,0,0,1,11.473,18.527Z" transform="translate(0 0)"/><g transform="translate(10.993 4.872)"><path class="c" d="M15.914,13.069a1.257,1.257,0,0,1-1.157-1.746,7.918,7.918,0,0,1,10.366-4.2,1.256,1.256,0,1,1-.979,2.314A5.4,5.4,0,0,0,17.072,12.3,1.257,1.257,0,0,1,15.914,13.069Z" transform="translate(-14.658 -6.496)"/></g></g></g></svg>