<svg xmlns="http://www.w3.org/2000/svg" xmlns:xlink="http://www.w3.org/1999/xlink" width="25" height="25" viewBox="0 0 25 25">
  <defs>
    <clipPath id="clip-path">
      <rect id="Rectangle_1957" data-name="Rectangle 1957" width="25" height="25" transform="translate(607 771)" fill="#5e5e5e" stroke="#707070" stroke-width="1"/>
    </clipPath>
  </defs>
  <g id="share" transform="translate(-607 -771)" clip-path="url(#clip-path)">
    <g id="share-2" data-name="share" transform="translate(608.042 771)">
      <path id="Path_6664" data-name="Path 6664" d="M25.208,4.323A3.385,3.385,0,1,1,21.823.938a3.385,3.385,0,0,1,3.385,3.385Zm0,0" transform="translate(-3.073 -0.156)" fill="#5e5e5e"/>
      <path id="Path_6665" data-name="Path 6665" d="M21.667,8.333a4.167,4.167,0,1,1,4.167-4.167A4.171,4.171,0,0,1,21.667,8.333Zm0-6.771a2.6,2.6,0,1,0,2.6,2.6,2.607,2.607,0,0,0-2.6-2.6Zm0,0" transform="translate(-2.917 0)" fill="#5e5e5e"/>
      <path id="Path_6666" data-name="Path 6666" d="M25.208,24.323a3.385,3.385,0,1,1-3.385-3.386A3.385,3.385,0,0,1,25.208,24.323Zm0,0" transform="translate(-3.073 -3.49)" fill="#5e5e5e"/>
      <path id="Path_6667" data-name="Path 6667" d="M21.667,28.333a4.167,4.167,0,1,1,4.167-4.167A4.171,4.171,0,0,1,21.667,28.333Zm0-6.771a2.6,2.6,0,1,0,2.6,2.6A2.607,2.607,0,0,0,21.667,21.562Zm0,0" transform="translate(-2.917 -3.333)" fill="#5e5e5e"/>
      <path id="Path_6668" data-name="Path 6668" d="M7.708,14.323a3.385,3.385,0,1,1-3.386-3.385A3.385,3.385,0,0,1,7.708,14.323Zm0,0" transform="translate(-0.156 -1.823)" fill="#5e5e5e"/>
      <path id="Path_6669" data-name="Path 6669" d="M4.167,18.333a4.167,4.167,0,1,1,4.167-4.167,4.171,4.171,0,0,1-4.167,4.167Zm0-6.771a2.6,2.6,0,1,0,2.6,2.6,2.607,2.607,0,0,0-2.6-2.6Zm0,0" transform="translate(0 -1.667)" fill="#5e5e5e"/>
      <path id="Path_6670" data-name="Path 6670" d="M7.743,12.881a1.042,1.042,0,0,1-.517-1.947l9.665-5.51a1.042,1.042,0,1,1,1.031,1.81l-9.666,5.51a1.035,1.035,0,0,1-.514.137Zm0,0" transform="translate(-1.117 -0.881)" fill="#5e5e5e"/>
      <path id="Path_6671" data-name="Path 6671" d="M17.408,23.194a1.035,1.035,0,0,1-.515-.137l-9.666-5.51a1.042,1.042,0,0,1,1.031-1.81l9.666,5.51a1.042,1.042,0,0,1-.517,1.947Zm0,0" transform="translate(-1.117 -2.6)" fill="#5e5e5e"/>
    </g>
  </g>
</svg>
