<svg xmlns="http://www.w3.org/2000/svg" xmlns:xlink="http://www.w3.org/1999/xlink" width="70" height="70" viewBox="0 0 70 70">
  <defs>
    <clipPath id="clip-path">
      <rect id="Rectangle_38" data-name="Rectangle 38" width="70" height="70" transform="translate(908 860)" fill="#fff"/>
    </clipPath>
  </defs>
  <g id="Mask_Group_4" data-name="Mask Group 4" transform="translate(-908 -860)" clip-path="url(#clip-path)">
    <g id="gift" transform="translate(908 860)">
      <path id="Path_233" data-name="Path 233" d="M63.164,52.773A1.367,1.367,0,1,0,61.8,51.406,1.368,1.368,0,0,0,63.164,52.773Zm0,0" fill="#fff"/>
      <path id="Path_234" data-name="Path 234" d="M63.164,47.3a1.367,1.367,0,0,0,1.367-1.367V35A1.367,1.367,0,0,0,61.8,35V45.938A1.367,1.367,0,0,0,63.164,47.3Zm0,0" fill="#fff"/>
      <path id="Path_235" data-name="Path 235" d="M1.367,50.039H2.734V68.633A1.367,1.367,0,0,0,4.1,70H65.9A4.106,4.106,0,0,0,70,65.9V15.039a1.367,1.367,0,0,0-1.367-1.367H58.242V12.3a12.3,12.3,0,0,0-24.609,0v1.367H23.242a1.367,1.367,0,0,0-1.367,1.367V29.534a6.874,6.874,0,0,0-2.6,4.107,1.325,1.325,0,0,0-.138-.009c-.046,0-.091,0-.137,0A6.836,6.836,0,1,0,6.84,39.1H1.367A1.367,1.367,0,0,0,0,40.469v8.2a1.367,1.367,0,0,0,1.367,1.367Zm4.1,0H12.3V67.266H5.469Zm9.57,0h8.2V67.266h-8.2ZM32.813,67.266H25.977V50.039h6.836ZM25.977,47.3V41.836h9.57V47.3Zm0-8.2c-.047,0-.093,0-.14,0a6.788,6.788,0,0,0-1.227-2.73V31.134A4.1,4.1,0,1,1,25.977,39.1Zm-6.916-2.734,1.183.15A4.116,4.116,0,0,1,23.008,39.1H15.277a4.1,4.1,0,0,1,3.784-2.734Zm4.181,5.468V47.3h-8.2V41.836ZM65.9,67.266H35.547V61.8H67.266v4.1A1.368,1.368,0,0,1,65.9,67.266ZM36.367,12.3a9.57,9.57,0,0,1,19.141,0v1.367H36.367Zm-2.734,4.1V22.7H32.266a1.367,1.367,0,0,0,0,2.734h5.469a1.367,1.367,0,0,0,0-2.734H36.367V16.406H55.508V22.7H54.141a1.367,1.367,0,0,0,0,2.734h5.469a1.367,1.367,0,0,0,0-2.734H58.242V16.406h9.023V59.063H35.547V50.039h1.367a1.367,1.367,0,0,0,1.367-1.367v-8.2A1.367,1.367,0,0,0,36.914,39.1H31.442a6.832,6.832,0,0,0-6.832-10.8v-11.9ZM8.2,35a4.1,4.1,0,0,1,8.131-.763,6.891,6.891,0,0,0-3.888,4.86c-.047,0-.094,0-.142,0A4.106,4.106,0,0,1,8.2,35ZM2.734,41.836H12.3V47.3H2.734Zm0,0" fill="#fff"/>
    </g>
  </g>
</svg>
