<svg xmlns="http://www.w3.org/2000/svg" xmlns:xlink="http://www.w3.org/1999/xlink" width="26" height="26" viewBox="0 0 26 26"><defs><style>.a{fill:#2fdf46;}.b{clip-path:url(#a);}</style><clipPath id="a"><path class="a" d="M0,0H26V26H0Z" transform="translate(31 30)"/></clipPath></defs><g class="b" transform="translate(-31 -30)"><g transform="translate(31 30)"><g transform="translate(6.173 3.267)"><path class="a" d="M25.019,3.429a.98.98,0,0,0-1.386,0L11.878,15.152,7.637,10.545a.98.98,0,1,0-1.442,1.327l4.932,5.356a.979.979,0,0,0,.7.316h.021a.981.981,0,0,0,.692-.286L25.017,4.815A.98.98,0,0,0,25.019,3.429Z" transform="translate(-5.936 -3.141)"/></g><path class="a" d="M25.02,12.02a.98.98,0,0,0-.98.98A11.04,11.04,0,1,1,13,1.96.98.98,0,1,0,13,0,13,13,0,1,0,26,13,.98.98,0,0,0,25.02,12.02Z"/></g></g></svg>