<svg xmlns="http://www.w3.org/2000/svg" xmlns:xlink="http://www.w3.org/1999/xlink" width="80" height="80" viewBox="0 0 80 80"><defs><style>.a{fill:#01a3ff;}.b{clip-path:url(#a);}</style><clipPath id="a"><rect class="a" width="80" height="80" transform="translate(643 452)"/></clipPath></defs><g class="b" transform="translate(-643 -452)"><g transform="translate(643 461.333)"><path class="a" d="M82,65.667H79.333v-44A6.675,6.675,0,0,0,72.667,15H14a6.675,6.675,0,0,0-6.667,6.667v44H4.667A1.333,1.333,0,0,0,3.333,67v5.333a4,4,0,0,0,4,4h72a4,4,0,0,0,4-4V67A1.333,1.333,0,0,0,82,65.667Zm-72-44a4,4,0,0,1,4-4H72.667a4,4,0,0,1,4,4v44H10ZM48.667,68.333a1.333,1.333,0,0,1-1.333,1.333h-8A1.333,1.333,0,0,1,38,68.333Zm32,4a1.333,1.333,0,0,1-1.333,1.333h-72A1.333,1.333,0,0,1,6,72.333v-4H35.333a4,4,0,0,0,4,4h8a4,4,0,0,0,4-4H80.667Z" transform="translate(-3.333 -15)"/><path class="a" d="M66.333,25H29a4,4,0,0,0-4,4V50.333a4,4,0,0,0,4,4h6.667V61a1.333,1.333,0,0,0,2.276.943l7.609-7.609H66.333a4,4,0,0,0,4-4V29A4,4,0,0,0,66.333,25Zm1.333,25.333a1.333,1.333,0,0,1-1.333,1.333H45a1.333,1.333,0,0,0-.942.39l-5.724,5.724V53A1.333,1.333,0,0,0,37,51.667H29a1.333,1.333,0,0,1-1.333-1.333V29A1.333,1.333,0,0,1,29,27.667H66.333A1.333,1.333,0,0,1,67.667,29Z" transform="translate(-7.667 -17)"/><path class="a" d="M35,35H64.333v2.667H35Z" transform="translate(-9.667 -19)"/><path class="a" d="M35,41.667H64.333v2.667H35Z" transform="translate(-9.667 -20.333)"/><path class="a" d="M35,48.333H64.333V51H35Z" transform="translate(-9.667 -21.667)"/></g></g></svg>