<svg xmlns="http://www.w3.org/2000/svg" xmlns:xlink="http://www.w3.org/1999/xlink" width="70" height="70" viewBox="0 0 70 70">
  <defs>
    <clipPath id="clip-path">
      <rect id="Rectangle_40" data-name="Rectangle 40" width="70" height="70" transform="translate(1607 860)" fill="#fff"/>
    </clipPath>
  </defs>
  <g id="Mask_Group_6" data-name="Mask Group 6" transform="translate(-1607 -860)" clip-path="url(#clip-path)">
    <g id="university" transform="translate(1608.426 860)">
      <path id="Path_236" data-name="Path 236" d="M65.751,17.647,34.912.347a2.752,2.752,0,0,0-2.676,0L1.4,17.647a2.735,2.735,0,0,0,0,4.77l7.977,4.475V41.975a2.731,2.731,0,0,0,1.208,2.268l1.631,1.1a5.159,5.159,0,0,0-.69,2.583V68.633A1.367,1.367,0,0,0,12.89,70h7.656a1.367,1.367,0,0,0,1.367-1.367V51.872l10.134,6.823a2.723,2.723,0,0,0,3.054,0L56.567,44.243a2.731,2.731,0,0,0,1.208-2.268V26.892l7.977-4.475a2.734,2.734,0,0,0,0-4.77ZM12.108,28.426l3.242,1.818V42.912a5.182,5.182,0,0,0-1.152.47l-2.09-1.407Zm7.07,20.87v2.228H14.256v-3.6a2.461,2.461,0,1,1,4.922,0ZM14.256,67.265V54.259h4.922V67.265Zm40.783-25.29-20.1,13.53V49.838a1.367,1.367,0,0,0-2.734,0v5.668l-10.294-6.93v-.652a5.2,5.2,0,0,0-3.828-5.012V31.779l14.151,7.939a2.751,2.751,0,0,0,2.676,0L55.039,28.426Zm.84-17.156a1.356,1.356,0,0,0-.265.149L33.574,37.332,19.564,29.473l10.47-5.89a6.044,6.044,0,0,0,3.524,1.1c3.015,0,5.469-2.085,5.469-4.648s-2.453-4.649-5.469-4.649-5.469,2.085-5.469,4.649a4,4,0,0,0,.243,1.371l-11.561,6.5-5.237-2.938a1.358,1.358,0,0,0-.265-.148L2.734,20.033l30.839-17.3,30.84,17.3ZM30.823,20.033c0-1.038,1.252-1.914,2.735-1.914s2.734.876,2.734,1.914-1.252,1.914-2.734,1.914-2.735-.876-2.735-1.914Zm0,0" fill="#fff"/>
      <path id="Path_237" data-name="Path 237" d="M33.574,43a1.365,1.365,0,1,0,.967.4A1.376,1.376,0,0,0,33.574,43Zm0,0" fill="#fff"/>
    </g>
  </g>
</svg>
