<svg xmlns="http://www.w3.org/2000/svg" xmlns:xlink="http://www.w3.org/1999/xlink" width="80" height="80" viewBox="0 0 80 80"><defs><style>.a{fill:#01a3ff;}.b{clip-path:url(#a);}</style><clipPath id="a"><rect class="a" width="80" height="80" transform="translate(643 452)"/></clipPath></defs><g class="b" transform="translate(-643 -452)"><g transform="translate(643 458.263)"><g transform="translate(0 0)"><path class="a" d="M75.07,7.828H4.93A4.935,4.935,0,0,0,0,12.758v47.6a4.935,4.935,0,0,0,4.93,4.929H28.652l-.96,7.676H23.717a1.172,1.172,0,0,0,0,2.344H56.283a1.172,1.172,0,0,0,0-2.344H52.307l-.96-7.676H75.07A4.935,4.935,0,0,0,80,60.353v-47.6A4.935,4.935,0,0,0,75.07,7.828ZM30.055,72.959l.96-7.676h4.313l.423,1.692a4.38,4.38,0,0,0,8.5,0l.423-1.692h4.313l.959,7.676Zm7.688-7.676h4.513l-.281,1.124a2.037,2.037,0,0,1-3.952,0Zm39.913-4.929h0a2.589,2.589,0,0,1-2.586,2.586H4.93a2.589,2.589,0,0,1-2.586-2.586v-47.6A2.589,2.589,0,0,1,4.93,10.172H75.07a2.589,2.589,0,0,1,2.586,2.586v47.6Z" transform="translate(0 -7.828)"/></g><g transform="translate(5.01 5.01)"><path class="a" d="M67.555,14.091H7.434a1.172,1.172,0,0,0-1.172,1.172V60.354a1.172,1.172,0,0,0,1.172,1.172H9.94a1.172,1.172,0,0,0,0-2.344H8.606V16.435H67.555a1.172,1.172,0,0,0,0-2.344Z" transform="translate(-6.262 -14.091)"/></g><g transform="translate(12.525 5.01)"><path class="a" d="M76.949,14.091H74.444a1.172,1.172,0,0,0,0,2.344h1.333V59.182H16.829a1.172,1.172,0,0,0,0,2.344H76.949a1.172,1.172,0,0,0,1.172-1.172V15.263A1.172,1.172,0,0,0,76.949,14.091Z" transform="translate(-15.657 -14.091)"/></g><g transform="translate(21.293 12.525)"><path class="a" d="M61.276,28.944a1.171,1.171,0,0,0-.87-.448L32.852,27.243h-.064a2.428,2.428,0,0,0-.974-1.311l-3.375-2.25a1.172,1.172,0,0,0-1.3,1.95l3.374,2.249a.081.081,0,0,1,.033.045l4.3,15.044a3.69,3.69,0,0,0,.638,1.255L33.909,47.37a2.409,2.409,0,0,0,.106,2.359,2.434,2.434,0,0,0,.6.662,3.677,3.677,0,1,0,6.618.488H51.918a3.677,3.677,0,1,0,6.716-.3,1.171,1.171,0,0,0-.786-2.04H36.077a.081.081,0,0,1-.072-.117l1.449-2.9a3.679,3.679,0,0,0,.916.117,3.779,3.779,0,0,0,.438-.026l16.467-1.937a4.918,4.918,0,0,0,4.258-3.929L61.5,29.9A1.172,1.172,0,0,0,61.276,28.944ZM55.343,50.879a1.333,1.333,0,1,1-1.333,1.333A1.335,1.335,0,0,1,55.343,50.879Zm-17.535,0a1.333,1.333,0,1,1-1.333,1.333A1.335,1.335,0,0,1,37.808,50.879ZM34.935,34.757l-1.469-5.14,4.685.213.812,4.927Zm3.6,8.527a1.327,1.327,0,0,1-1.438-.958L35.6,37.1H39.35l.985,5.971Zm6.869-.808-2.739.322-.939-5.7H45.4Zm0-7.719H41.339l-.794-4.818,4.86.221Zm5.935,7.02-3.591.423V37.1h4.014Zm.635-7.02H47.748V30.267l4.614.21Zm5.26,4.529A2.58,2.58,0,0,1,55,41.347l-1.284.151.4-4.4h3.556Zm.906-4.529H54.328l.378-4.174,4.231.192Z" transform="translate(-26.616 -23.485)"/></g></g></g></svg>