<svg xmlns="http://www.w3.org/2000/svg" xmlns:xlink="http://www.w3.org/1999/xlink" width="80" height="80" viewBox="0 0 80 80"><defs><style>.a{fill:#01a3ff;}.b{clip-path:url(#a);}</style><clipPath id="a"><rect class="a" width="80" height="80" transform="translate(643 452)"/></clipPath></defs><g class="b" transform="translate(-643 -452)"><g transform="translate(649.101 452)"><g transform="translate(24.325)"><path class="a" d="M59.015,9.885A11.526,11.526,0,0,0,38.294,4.734a1.355,1.355,0,1,0,2.189,1.6A8.815,8.815,0,0,1,56.33,10.268a1.357,1.357,0,0,0,1.341,1.165,1.452,1.452,0,0,0,.193-.014A1.356,1.356,0,0,0,59.015,9.885Z" transform="translate(-38.033)"/></g><g transform="translate(2.712 17.627)"><path class="a" d="M73.2,29.471l-4.068-6.78a1.354,1.354,0,0,0-1.163-.658h-3.9a1.356,1.356,0,1,0,0,2.712H67.2l2.441,4.068H14.766l2.441-4.068h1.436a1.356,1.356,0,1,0,0-2.712h-2.2a1.354,1.354,0,0,0-1.163.658l-4.068,6.78a1.356,1.356,0,0,0,1.163,2.054H72.033A1.356,1.356,0,0,0,73.2,29.471Z" transform="translate(-11.016 -22.033)"/></g><g transform="translate(35.746 7.598)"><path class="a" d="M74.7,14.462a1.354,1.354,0,0,0-.843-.605L55.368,9.533a1.355,1.355,0,0,0-1.629,1.011L52.345,16.5a1.356,1.356,0,0,0,2.64.617l1.085-4.638,15.843,3.706-2.49,10.644a1.355,1.355,0,0,0,1.011,1.628,1.371,1.371,0,0,0,.311.036,1.354,1.354,0,0,0,1.318-1.047l2.8-11.964A1.35,1.35,0,0,0,74.7,14.462Z" transform="translate(-52.309 -9.497)"/></g><g transform="translate(7.999 4.121)"><path class="a" d="M44.241,16.8,43.006,6.348A1.357,1.357,0,0,0,41.5,5.16L18.821,7.841a1.356,1.356,0,0,0-1.187,1.506l2.06,17.428a1.356,1.356,0,0,0,1.345,1.2,1.482,1.482,0,0,0,.161-.01,1.357,1.357,0,0,0,1.187-1.506l-1.9-16.083L40.472,8.012l1.076,9.1a1.356,1.356,0,0,0,2.693-.317Z" transform="translate(-17.625 -5.151)"/></g><g transform="translate(18.13 13.018)"><path class="a" d="M57.5,28.5,54.806,17.31a1.355,1.355,0,0,0-1.635-1L31.328,21.562a1.356,1.356,0,0,0-1,1.635l1.345,5.594a1.356,1.356,0,1,0,2.637-.634l-1.028-4.276,19.207-4.618,2.374,9.873A1.356,1.356,0,0,0,57.5,28.5Z" transform="translate(-30.288 -16.272)"/></g><g transform="translate(0 24.407)"><path class="a" d="M72.71,31.8a1.356,1.356,0,0,0-1.355-1.286H11.695A1.356,1.356,0,0,0,10.34,31.8L7.628,84.676A1.356,1.356,0,0,0,8.982,86.1H74.067a1.356,1.356,0,0,0,1.355-1.425ZM10.409,83.39l2.573-50.169H70.067L72.64,83.39Z" transform="translate(-7.626 -30.509)"/></g><g transform="translate(40 29.83)"><path class="a" d="M61.694,37.288a4.068,4.068,0,1,0,4.068,4.068A4.072,4.072,0,0,0,61.694,37.288Zm0,5.424a1.356,1.356,0,1,1,1.356-1.356A1.357,1.357,0,0,1,61.694,42.712Z" transform="translate(-57.626 -37.288)"/></g><g transform="translate(19.661 29.83)"><path class="a" d="M36.27,37.288a4.068,4.068,0,1,0,4.068,4.068A4.072,4.072,0,0,0,36.27,37.288Zm0,5.424a1.356,1.356,0,1,1,1.356-1.356A1.357,1.357,0,0,1,36.27,42.712Z" transform="translate(-32.203 -37.288)"/></g><g transform="translate(22.373 33.898)"><path class="a" d="M57.287,42.373h-.1a1.356,1.356,0,0,0-1.356,1.356,1.341,1.341,0,0,0,.1.523v6.935a8.814,8.814,0,0,1-17.627,0V43.729a1.356,1.356,0,1,0-2.712,0v7.457a11.525,11.525,0,0,0,23.051,0V43.729A1.357,1.357,0,0,0,57.287,42.373Z" transform="translate(-35.593 -42.373)"/></g></g></g></svg>