<svg xmlns="http://www.w3.org/2000/svg" xmlns:xlink="http://www.w3.org/1999/xlink" width="26" height="18" viewBox="0 0 26 18"><defs><style>.a,.c{fill:#ccedff;}.a{stroke:#707070;}.b{clip-path:url(#a);}</style><clipPath id="a"><rect class="a" width="26" height="18" transform="translate(1834 563)"/></clipPath></defs><g class="b" transform="translate(-1834 -563)"><g transform="translate(1834.867 563)"><g transform="translate(0 0)"><path class="c" d="M20.669,4.333H3.626A3.654,3.654,0,0,0,0,7.994V18.672a3.654,3.654,0,0,0,3.626,3.661H20.639a3.654,3.654,0,0,0,3.626-3.661V7.994A3.61,3.61,0,0,0,20.669,4.333Zm-3.687,9.305a.709.709,0,0,1-.212.214L9.73,18.061a.583.583,0,0,1-.816-.214.519.519,0,0,1-.091-.305V9.122a.609.609,0,0,1,.6-.61.579.579,0,0,1,.3.092l7.041,4.21A.608.608,0,0,1,16.982,13.638Z" transform="translate(0 -4.333)"/></g></g></g></svg>