<svg xmlns="http://www.w3.org/2000/svg" xmlns:xlink="http://www.w3.org/1999/xlink" width="420.528" height="340.653" viewBox="0 0 420.528 340.653">
  <defs>
    <linearGradient id="linear-gradient" y1="0.5" x2="1" y2="0.5" gradientUnits="objectBoundingBox">
      <stop offset="0" stop-color="#fff" stop-opacity="0"/>
      <stop offset="1" stop-color="#fff"/>
    </linearGradient>
  </defs>
  <g id="Layer_2" data-name="Layer 2" transform="translate(-1040.001 -366.92)">
    <g id="Layer_1" data-name="Layer 1" transform="translate(1040.001 366.92)">
      <path id="Path_86" data-name="Path 86" d="M1166.963,996.027c-16.883-19.354-31.59-51.009-35.493-76.213C1116.7,824.452,1230.254,765,1307.316,747.773q10.1-2.251,20.353-3.707c26.43-3.72,60.217-5.9,83.528,9.677,14.512,9.7,17.918,24.491,14.177,40.8-4.568,19.909-7.016,41.66,8.341,57.89,16.368,17.3,42.68,15.585,63.322,24.837,16.316,7.312,30.813,20.234,37.066,37.332,13.07,35.745-40.94,72.108-70.628,81.421Z" transform="translate(-1115.579 -680.812)" fill="#f2f5fa"/>
      <path id="Path_217" data-name="Path 217" d="M38.744,0A38.744,38.744,0,1,1,0,38.744,38.744,38.744,0,0,1,38.744,0Z" transform="translate(290.974 113.593)" fill="#cff1f9"/>
      <rect id="Rectangle_22" data-name="Rectangle 22" width="22.058" height="26.901" transform="translate(306.356 141.402)" fill="#9fd7fd"/>
      <rect id="Rectangle_23" data-name="Rectangle 23" width="22.06" height="26.901" transform="translate(332.828 141.402)" fill="#9fd7fd"/>
      <rect id="Rectangle_24" data-name="Rectangle 24" width="4.412" height="26.901" transform="translate(328.416 141.402)" fill="#7789f2"/>
      <path id="Path_87" data-name="Path 87" d="M2963.208,1252.734c-3.1-4.64-22.058-1.258-22.058-1.258v-26.9s17.724-4.563,22.058,1.258Z" transform="translate(-2633.655 -1084.431)" fill="#d3e0f1"/>
      <path id="Path_88" data-name="Path 88" d="M2969.81,1247.68c-3.1-4.64-22.06-3.461-22.06-3.461v-26.9s17.725-2.36,22.06,3.461Z" transform="translate(-2639.188 -1079.377)" fill="#f2f5fa"/>
      <path id="Path_89" data-name="Path 89" d="M2985.57,1239.52c-3.1-4.64-19.81-5.5-19.81-5.5v-26.907s15.476-.324,19.81,5.5Z" transform="translate(-2654.285 -1071.216)" fill="#fff"/>
      <path id="Path_90" data-name="Path 90" d="M3075.35,1229.42v27.029a6,6,0,0,1,2.085,1.779v-26.907A8.132,8.132,0,0,0,3075.35,1229.42Z" transform="translate(-2746.15 -1089.918)" fill="#d3e0f1"/>
      <path id="Path_91" data-name="Path 91" d="M3099,1252.734c3.1-4.64,22.058-1.258,22.058-1.258v-26.9s-17.724-4.563-22.058,1.258Z" transform="translate(-2765.975 -1084.431)" fill="#d3e0f1"/>
      <path id="Path_92" data-name="Path 92" d="M3092.34,1247.68c3.1-4.64,22.06-3.461,22.06-3.461v-26.9s-17.725-2.36-22.06,3.461Z" transform="translate(-2760.392 -1079.377)" fill="#f2f5fa"/>
      <path id="Path_93" data-name="Path 93" d="M3088.24,1239.52c3.1-4.64,19.811-5.5,19.811-5.5v-26.907s-15.475-.324-19.811,5.5Z" transform="translate(-2756.955 -1071.216)" fill="#fff"/>
      <path id="Path_94" data-name="Path 94" d="M3090.042,1230.61a7.85,7.85,0,0,0-1.8,1.708v26.9a5.648,5.648,0,0,1,1.8-1.6Z" transform="translate(-2756.955 -1090.916)" fill="#d3e0f1"/>
      <path id="Path_95" data-name="Path 95" d="M3067.525,1306.144s.115,1.438-3.618,1.438-3.413-1.438-3.413-1.438V1301h7.031Z" transform="translate(-2733.691 -1149.921)" fill="#6184f6"/>
      <path id="Path_96" data-name="Path 96" d="M3032.4,1152.9c-5.766,0-9.63,4.236-9.63,8.88,0,5.823,3.316,7.492,4.48,9.478s.485,5.26,1.711,5.26h6.876c1.234,0,.548-3.274,1.712-5.26s4.48-3.654,4.48-9.478C3042.03,1157.136,3038.276,1152.9,3032.4,1152.9Z" transform="translate(-2702.074 -1025.775)" fill="#9fd7fd"/>
      <path id="Path_97" data-name="Path 97" d="M3031.017,1174.912c-1.164-1.986-4.15-3.958-4.864-9.738a10.979,10.979,0,0,1,2.387-7.914,8.857,8.857,0,0,0-5.771,8.175c0,5.823,3.316,7.492,4.48,9.478s.485,5.26,1.711,5.26h3.767C3031.5,1180.172,3032.188,1176.9,3031.017,1174.912Z" transform="translate(-2702.074 -1029.429)" fill="#6184f6"/>
      <path id="Path_98" data-name="Path 98" d="M3101.79,1180.626c-1.664.323-3.461-1.736-4.014-4.6s.348-5.439,2.01-5.761,3.461,1.735,4.014,4.595S3103.455,1180.3,3101.79,1180.626Z" transform="translate(-2764.812 -1040.306)" fill="#fff"/>
      <line id="Line_3" data-name="Line 3" y1="2.738" transform="translate(327.641 148.005)" fill="none" stroke="#fff" stroke-linecap="round" stroke-linejoin="round" stroke-width="2.15"/>
      <line id="Line_4" data-name="Line 4" y1="1.37" transform="translate(328.873 149.373)" fill="none" stroke="#fff" stroke-linecap="round" stroke-linejoin="round" stroke-width="2.15"/>
      <rect id="Rectangle_25" data-name="Rectangle 25" width="8.356" height="1.438" transform="translate(326.135 150.743)" fill="#d3e0f1"/>
      <rect id="Rectangle_26" data-name="Rectangle 26" width="8.356" height="1.438" transform="translate(326.135 153.061)" fill="#d3e0f1"/>
      <rect id="Rectangle_27" data-name="Rectangle 27" width="8.356" height="1.438" transform="translate(326.135 155.23)" fill="#d3e0f1"/>
      <line id="Line_5" data-name="Line 5" y1="3.075" transform="translate(331.097 122.016)" fill="none" stroke="#6184f6" stroke-linecap="round" stroke-miterlimit="10" stroke-width="4"/>
      <line id="Line_6" data-name="Line 6" y1="1.748" x2="3.49" transform="translate(341.248 127.126)" fill="none" stroke="#6184f6" stroke-linecap="round" stroke-miterlimit="10" stroke-width="4"/>
      <line id="Line_7" data-name="Line 7" x1="1.97" y1="2.908" transform="translate(319.649 125.091)" fill="none" stroke="#6184f6" stroke-linecap="round" stroke-miterlimit="10" stroke-width="4"/>
      <line id="Line_8" data-name="Line 8" y1="2.992" x2="2.161" transform="translate(336.991 123.553)" fill="none" stroke="#6184f6" stroke-linecap="round" stroke-miterlimit="10" stroke-width="4"/>
      <line id="Line_9" data-name="Line 9" x1="0.459" y1="3.075" transform="translate(325.676 122.016)" fill="none" stroke="#6184f6" stroke-linecap="round" stroke-miterlimit="10" stroke-width="4"/>
      <line id="Line_10" data-name="Line 10" x1="3.516" y1="2.129" transform="translate(316.133 128.874)" fill="none" stroke="#6184f6" stroke-linecap="round" stroke-miterlimit="10" stroke-width="4"/>
      <path id="Path_218" data-name="Path 218" d="M53.9,0A53.9,53.9,0,1,1,0,53.9,53.9,53.9,0,0,1,53.9,0Z" transform="translate(211.907 0)" fill="#cff1f9"/>
      <rect id="Rectangle_28" data-name="Rectangle 28" width="70.047" height="48.81" rx="11.55" transform="translate(231.819 23.888)" fill="#d3e0f1"/>
      <rect id="Rectangle_29" data-name="Rectangle 29" width="45.732" height="58.499" transform="translate(236.611 71.16) rotate(-90)" fill="#fff"/>
      <path id="Path_99" data-name="Path 99" d="M2874.875,653.93A1.873,1.873,0,1,1,2873,655.8a1.873,1.873,0,0,1,1.875-1.871Z" transform="translate(-2576.528 -607.509)" fill="#9fd7fd"/>
      <rect id="Rectangle_30" data-name="Rectangle 30" width="14.701" height="0.773" rx="0.387" transform="translate(233.836 55.644) rotate(-90)" fill="#9fd7fd"/>
      <rect id="Rectangle_31" data-name="Rectangle 31" width="18.603" height="1.244" transform="translate(263.292 28.864)" fill="#9fd7fd"/>
      <rect id="Rectangle_32" data-name="Rectangle 32" width="18.603" height="1.244" transform="translate(239.06 50.26)" fill="#9fd7fd"/>
      <path id="Path_100" data-name="Path 100" d="M2691,573.581c0,.045-5.176.081-11.566.081s-11.569-.036-11.569-.081,5.176-.081,11.569-.081S2691,573.54,2691,573.581Z" transform="translate(-2404.567 -540.088)" fill="#7789f2"/>
      <path id="Path_101" data-name="Path 101" d="M2691,590.411c0,.045-5.176.082-11.566.082s-11.569-.037-11.569-.082,5.176-.081,11.569-.081S2691,590.367,2691,590.411Z" transform="translate(-2404.567 -554.195)" fill="#7789f2"/>
      <path id="Path_102" data-name="Path 102" d="M2691,607.211c0,.045-5.176.082-11.566.082s-11.569-.037-11.569-.082,5.176-.081,11.569-.081S2691,607.167,2691,607.211Z" transform="translate(-2404.567 -568.278)" fill="#7789f2"/>
      <path id="Path_103" data-name="Path 103" d="M2691,624.013c0,.044-5.176.081-11.566.081s-11.569-.037-11.569-.081,5.176-.082,11.569-.082S2691,623.967,2691,624.013Z" transform="translate(-2404.567 -582.361)" fill="#7789f2"/>
      <path id="Path_104" data-name="Path 104" d="M2691,640.812c0,.044-5.176.081-11.566.081s-11.569-.037-11.569-.081,5.176-.082,11.569-.082S2691,640.774,2691,640.812Z" transform="translate(-2404.567 -596.444)" fill="#7789f2"/>
      <path id="Path_105" data-name="Path 105" d="M2685.921,657.581c0,.045-4.043.081-9.03.081s-9.032-.035-9.032-.081,4.044-.081,9.032-.081S2685.921,657.542,2685.921,657.581Z" transform="translate(-2404.567 -610.501)" fill="#7789f2"/>
      <path id="Path_106" data-name="Path 106" d="M2549.641,707.573c0,.045-6.793.081-15.174.081s-15.176-.036-15.176-.081,6.793-.083,15.176-.083S2549.641,707.521,2549.641,707.573Z" transform="translate(-2280.028 -652.406)" fill="#7789f2"/>
      <path id="Path_107" data-name="Path 107" d="M2549.641,721.581c0,.045-6.793.083-15.174.083s-15.176-.037-15.176-.083,6.793-.081,15.176-.081S2549.641,721.531,2549.641,721.581Z" transform="translate(-2280.028 -664.15)" fill="#7789f2"/>
      <path id="Path_108" data-name="Path 108" d="M2549.641,735.581c0,.045-6.793.081-15.174.081s-15.176-.036-15.176-.081,6.793-.081,15.176-.081S2549.641,735.531,2549.641,735.581Z" transform="translate(-2280.028 -675.885)" fill="#7789f2"/>
      <path id="Path_109" data-name="Path 109" d="M2549.641,749.573c0,.044-6.793.081-15.174.081s-15.176-.037-15.176-.081,6.793-.082,15.176-.082S2549.641,749.524,2549.641,749.573Z" transform="translate(-2280.028 -687.613)" fill="#7789f2"/>
      <path id="Path_110" data-name="Path 110" d="M2549.641,763.581c0,.045-6.793.082-15.174.082s-15.176-.037-15.176-.082,6.793-.081,15.176-.081S2549.641,763.534,2549.641,763.581Z" transform="translate(-2280.028 -699.357)" fill="#7789f2"/>
      <rect id="Rectangle_33" data-name="Rectangle 33" width="18.65" height="18.044" transform="translate(239.262 28.224)" fill="#9fd7fd"/>
      <path id="Path_111" data-name="Path 111" d="M2528.24,595.316l5.158-9.285,4.22,5.934,2.565-3.151,3.816,6.5Z" transform="translate(-2287.53 -550.591)" fill="#fff"/>
      <path id="Path_112" data-name="Path 112" d="M2583.425,567.9a1.343,1.343,0,1,1-1.343-1.342A1.342,1.342,0,0,1,2583.425,567.9Z" transform="translate(-2331.539 -534.27)" fill="#fff"/>
      <path id="Path_113" data-name="Path 113" d="M2543.452,565.324a.541.541,0,0,1,0-.074v-.21c0-.192,0-.463-.008-.809,0-.716-.011-1.75-.02-3.073-.01-2.635-.024-6.389-.04-10.895l.077.076-15.757.013c-.022.019.161-.162.085-.086v7.925c0,2.528,0,4.917-.01,7.117l-.076-.078,11.393.039,3.214.021.852.008h.3a.308.308,0,0,1-.07,0h-.212l-.838.01-3.205.057-11.443.041h-.078v-.078c0-2.2,0-4.587-.01-7.117v-7.925c-.079.078.107-.112.091-.092l15.757.013h.076v.076c-.017,4.529-.031,8.3-.039,10.943-.01,1.307-.016,2.336-.021,3.047,0,.343,0,.61-.008.8v.2C2543.461,565.289,2543.457,565.307,2543.452,565.324Z" transform="translate(-2286.984 -520.549)" fill="#7789f2"/>
      <rect id="Rectangle_34" data-name="Rectangle 34" width="13.2" height="12.769" transform="translate(273.799 52.655)" fill="#9fd7fd"/>
      <path id="Path_114" data-name="Path 114" d="M2739.15,730.6l3.652-6.572,2.985,4.2L2747.6,726l2.7,4.6Z" transform="translate(-2464.328 -666.271)" fill="#e0e0e0"/>
      <path id="Path_115" data-name="Path 115" d="M2778.2,711.209a.951.951,0,1,1-.95-.949A.951.951,0,0,1,2778.2,711.209Z" transform="translate(-2495.469 -654.728)" fill="#e0e0e0"/>
      <path id="Path_116" data-name="Path 116" d="M2750.143,709.32v-.776c0-.506-.008-1.239-.014-2.167,0-1.867-.017-4.529-.028-7.712l.053.055H2739l.061-.061V709.31l-.055-.055,8.065.027,2.274.015h.82a.239.239,0,0,1-.049,0h-.742l-2.265.015-8.1.027h-.055V698.665l.065-.065,11.15.01h.055v.055c-.011,3.2-.021,5.871-.028,7.746,0,.924-.011,1.653-.014,2.156v.708A.129.129,0,0,1,2750.143,709.32Z" transform="translate(-2464.168 -644.954)" fill="#455a64"/>
      <path id="Path_117" data-name="Path 117" d="M2692.145,689.962l12.144-4.9a.808.808,0,0,0,.454-1.014l-.17-.474a.235.235,0,0,1,.036-.218c2.439-3.193.773-7.44.773-7.44l-2.445-6.253a.178.178,0,0,1-.01-.031c-.047-.214-.731-3.191-2.951-3.191a2.794,2.794,0,0,0-2.366,1.056.238.238,0,0,1-.425-.078c-.154-.647-.66-1.456-2.214-1.629a2.313,2.313,0,0,0-2.683,1.475.233.233,0,0,1-.426.021c-.558-1.156-1.747-2.5-3.248-2a2.707,2.707,0,0,0-1.719,1.512.236.236,0,0,1-.44,0l-2.5-6.423s-1.2-3.854-3.706-2.911-1.146,4.263-1.146,4.263l5.764,15.228a.236.236,0,0,1-.343.286l-2.749-1.663-.03-.021c-.2-.173-3.108-2.648-4.945-.715s.185,4.044.342,4.2l.024.019,13.651,9.915.076.092.228.485A.809.809,0,0,0,2692.145,689.962Z" transform="translate(-2411.419 -610.352)" fill="#6184f6"/>
      <path id="Path_118" data-name="Path 118" d="M2788.149,839.532l-2.736-6.157a.9.9,0,0,0-1.16-.471l-13.4,5.4a.9.9,0,0,0-.485,1.211l2.784,6.043a.9.9,0,0,0,1.148.459l13.353-5.281a.9.9,0,0,0,.5-1.2Z" transform="translate(-2490.427 -757.481)" fill="#6184f6"/>
      <path id="Path_119" data-name="Path 119" d="M2667.7,590.319a1.6,1.6,0,0,0,2.99-1.152l-1.674-4.346a1.6,1.6,0,1,0-2.989,1.152Z" transform="translate(-2402.938 -548.718)" fill="#6184f6"/>
      <path id="Path_120" data-name="Path 120" d="M2627.488,624.907l4.257,1.889a1.6,1.6,0,1,0,1.294-2.927l-4.255-1.891a1.6,1.6,0,0,0-1.294,2.929Z" transform="translate(-2369.983 -580.634)" fill="#6184f6"/>
      <path id="Path_121" data-name="Path 121" d="M2737.355,669.925l-4.258-1.889a1.6,1.6,0,1,0-1.294,2.927l4.255,1.891a1.6,1.6,0,0,0,1.294-2.929Z" transform="translate(-2457.328 -619.2)" fill="#6184f6"/>
      <path id="Path_122" data-name="Path 122" d="M2632.347,667.256a1.6,1.6,0,0,0-2.07-.92l-4.346,1.674a1.6,1.6,0,1,0,1.152,2.989l4.346-1.672A1.6,1.6,0,0,0,2632.347,667.256Z" transform="translate(-2368.56 -617.818)" fill="#6184f6"/>
      <path id="Path_123" data-name="Path 123" d="M2731.946,628.7a1.6,1.6,0,0,0,2.07.92l4.346-1.666a1.6,1.6,0,1,0-1.152-2.989l-4.346,1.672A1.6,1.6,0,0,0,2731.946,628.7Z" transform="translate(-2458.2 -583.136)" fill="#6184f6"/>
      <path id="Path_124" data-name="Path 124" d="M2665.764,696.254l1.889-4.255a1.6,1.6,0,1,0-2.928-1.294l-1.889,4.255a1.6,1.6,0,1,0,2.928,1.294Z" transform="translate(-2400.223 -637.495)" fill="#6184f6"/>
      <path id="Path_125" data-name="Path 125" d="M2710.087,592.671a1.6,1.6,0,0,0,2.114-.809l1.889-4.263a1.6,1.6,0,0,0-2.927-1.294l-1.884,4.252A1.6,1.6,0,0,0,2710.087,592.671Z" transform="translate(-2439.17 -550.061)" fill="#6184f6"/>
      <path id="Path_219" data-name="Path 219" d="M43.487,0A43.487,43.487,0,1,1,0,43.487,43.487,43.487,0,0,1,43.487,0Z" transform="translate(66.16 51.13)" fill="#cff1f9"/>
      <path id="Path_126" data-name="Path 126" d="M1590.213,947.66a21.663,21.663,0,0,0-2.813,1.739,18.117,18.117,0,0,0,4.247,3.22,18.66,18.66,0,0,1-.346-3.693c0-.139.01-.277.013-.416A2.749,2.749,0,0,1,1590.213,947.66Z" transform="translate(-1498.863 -853.73)" fill="#fff"/>
      <path id="Path_127" data-name="Path 127" d="M1564.437,888.67h-4.22a2.728,2.728,0,0,1-2.467,2.124,17.879,17.879,0,0,0,3.872,8.136,23.447,23.447,0,0,1,3.188-1.98,2.617,2.617,0,0,1,.721-2.307A23.855,23.855,0,0,1,1564.437,888.67Z" transform="translate(-1474.009 -804.282)" fill="#fff"/>
      <path id="Path_128" data-name="Path 128" d="M1608.492,893.9a2.635,2.635,0,0,1,.662-.112,18.365,18.365,0,0,1,2.7-5.138h-4.291A22.484,22.484,0,0,0,1608.492,893.9Z" transform="translate(-1515.763 -804.265)" fill="#fff"/>
      <path id="Path_129" data-name="Path 129" d="M1659.738,933.59a10.766,10.766,0,0,0-.658,3.6,10.916,10.916,0,0,0,.658,3.785Z" transform="translate(-1558.949 -841.936)" fill="#fff"/>
      <path id="Path_130" data-name="Path 130" d="M1583.52,776.179a22.182,22.182,0,0,0,4.325,2.683,23.58,23.58,0,0,1,6.193-8.572A18.053,18.053,0,0,0,1583.52,776.179Z" transform="translate(-1495.611 -705.048)" fill="#fff"/>
      <path id="Path_131" data-name="Path 131" d="M1607.29,841.943h5.465a18.52,18.52,0,0,1,3.57-3.041v-2.69a23.618,23.618,0,0,1-7.788-1.653A22.565,22.565,0,0,0,1607.29,841.943Z" transform="translate(-1515.536 -758.923)" fill="#fff"/>
      <path id="Path_132" data-name="Path 132" d="M1556.41,822.14a2.729,2.729,0,0,1,2.614,1.967h4.231a23.882,23.882,0,0,1,1.351-7.925,23.578,23.578,0,0,1-4.691-2.9,17.853,17.853,0,0,0-3.524,8.868Z" transform="translate(-1472.869 -741.085)" fill="#fff"/>
      <path id="Path_133" data-name="Path 133" d="M1684.65,949.9a18.058,18.058,0,0,0,10.375-5.476,21.919,21.919,0,0,0-4.438-2.426A23.217,23.217,0,0,1,1684.65,949.9Z" transform="translate(-1580.384 -848.986)" fill="#fff"/>
      <path id="Path_134" data-name="Path 134" d="M1724.61,896.83a23.234,23.234,0,0,1,4.817,2.635,17.957,17.957,0,0,0,3.345-6.531,10.837,10.837,0,0,0-6.593-3.324A23.739,23.739,0,0,1,1724.61,896.83Z" transform="translate(-1613.88 -805.069)" fill="#fff"/>
      <path id="Path_135" data-name="Path 135" d="M1742.691,821.491a17.954,17.954,0,0,0-2.976-6.531,23.873,23.873,0,0,1-3.073,1.977,2.667,2.667,0,0,1-.432,2.649A18.179,18.179,0,0,1,1742.691,821.491Z" transform="translate(-1623.604 -742.493)" fill="#fff"/>
      <path id="Path_136" data-name="Path 136" d="M1625.3,780.232V769.41a22.254,22.254,0,0,0-7.3,9.258A22.273,22.273,0,0,0,1625.3,780.232Z" transform="translate(-1524.514 -704.311)" fill="#fff"/>
      <path id="Path_137" data-name="Path 137" d="M1671.61,770.37v10.675a22.3,22.3,0,0,0,5.6-.822,2.716,2.716,0,0,1,1-1.849A22.322,22.322,0,0,0,1671.61,770.37Z" transform="translate(-1569.453 -705.115)" fill="#fff"/>
      <path id="Path_138" data-name="Path 138" d="M1690.426,777.555a2.664,2.664,0,0,1,.47-.049,2.719,2.719,0,0,1,1.779.666,22.424,22.424,0,0,0,3.023-1.926,17.982,17.982,0,0,0-11-6.187A23.584,23.584,0,0,1,1690.426,777.555Z" transform="translate(-1580.426 -704.856)" fill="#fff"/>
      <path id="Path_139" data-name="Path 139" d="M1671.61,842.51a18.171,18.171,0,0,1,6.238-2,2.718,2.718,0,0,1-.432-.673,23.637,23.637,0,0,1-5.806.823Z" transform="translate(-1569.453 -763.349)" fill="#fff"/>
      <path id="Path_140" data-name="Path 140" d="M1671.61,941.49a22.321,22.321,0,0,0,6.754-8.322,22.615,22.615,0,0,0-6.754-1.148Z" transform="translate(-1569.453 -840.62)" fill="#fff"/>
      <path id="Path_141" data-name="Path 141" d="M1671.61,893.711v.992a24.019,24.019,0,0,1,7.289,1.25,22.468,22.468,0,0,0,1.49-6.822A10.871,10.871,0,0,0,1671.61,893.711Z" transform="translate(-1569.453 -804.667)" fill="#fff"/>
      <path id="Path_142" data-name="Path 142" d="M1708.808,816.1a2.664,2.664,0,0,0-.47.049,2.742,2.742,0,0,0-2.24,2.416,2.534,2.534,0,0,0-.027.273,2.661,2.661,0,0,0,.663,1.768,18.26,18.26,0,0,1,2.374-.162h.139a16.751,16.751,0,0,1,1.692.094,2.668,2.668,0,0,0,.432-2.649,2.75,2.75,0,0,0-.789-1.132A2.716,2.716,0,0,0,1708.808,816.1Z" transform="translate(-1598.339 -743.449)" fill="#6184f6"/>
      <path id="Path_143" data-name="Path 143" d="M1542.6,868.06h-.021a2.738,2.738,0,0,0,.021,5.475l.2-.019a2.728,2.728,0,0,0,2.465-2.12,2.76,2.76,0,0,0,.07-.6,2.794,2.794,0,0,0-2.739-2.74Z" transform="translate(-1459.064 -787.005)" fill="#6184f6"/>
      <path id="Path_144" data-name="Path 144" d="M1601.16,923.149a2.789,2.789,0,0,0,1.688,2.528,18.2,18.2,0,0,1,.94-5.257,2.628,2.628,0,0,0-.661.112A2.725,2.725,0,0,0,1601.16,923.149Z" transform="translate(-1510.398 -830.896)" fill="#6184f6"/>
      <path id="Path_145" data-name="Path 145" d="M1656.775,883.609l-9.2-9.2a17.722,17.722,0,0,0-14.518-27.726h-.134a17.737,17.737,0,0,0-.129,35.473h.134a17.653,17.653,0,0,0,9.3-2.635l9.219,9.219-.524-.524,5.276-5.2Zm-23.614-7.718h-.089a11.467,11.467,0,1,1,.084-22.934h.086a11.467,11.467,0,1,1-.081,22.934Z" transform="translate(-1522.148 -769.083)" fill="#6184f6"/>
      <path id="Path_146" data-name="Path 146" d="M1845.33,1083.525l1.258,1.276a2,2,0,0,0,1.47.568h0a4.419,4.419,0,0,0,2.929-1.38c1.478-1.456,1.865-3.385.878-4.386l-1.679-1.7h0l.019.019h0l.809.823-5.273,5.2Z" transform="translate(-1715.075 -962.905)" fill="#6184f6"/>
      <path id="Path_147" data-name="Path 147" d="M1843.108,1110.458l-.4-.4h0Z" transform="translate(-1712.879 -989.864)" fill="#82bfab"/>
      <path id="Path_148" data-name="Path 148" d="M1842.454,1072.388l-.48-.479-.589-.589-5.274,5.2.522.522.545.548.4.4.026.026.414.414,5.271-5.2-.81-.823,0,0Z" transform="translate(-1707.346 -957.39)" fill="#fff"/>
      <path id="Path_149" data-name="Path 149" d="M1076.818,1817.93c-9.276-3.057-19.773-4.631-28.563-.375a15.22,15.22,0,0,0-6.992,6.242c-3.781,7.144,1.48,16.242,8.609,20.056s15.527,4.064,23.49,5.5a78.266,78.266,0,0,1,54.313,39.572c1.161,2.175,2.265,4.47,4.129,6.083s4.752,2.352,6.813,1c11.469-7.52-10.584-39.277-15.527-45.479A99.522,99.522,0,0,0,1076.818,1817.93Z" transform="translate(-1040.001 -1580.746)" fill="#9fd7fd"/>
      <path id="Path_150" data-name="Path 150" d="M1178.719,1945.632a99.341,99.341,0,0,0-13.229-27.373,107.434,107.434,0,0,0-20.632-22.388,105.661,105.661,0,0,0-26.113-15.689,100.2,100.2,0,0,0-14.505-4.8c-.62-.15-1.236-.314-1.857-.453l-1.871-.391-.937-.2c-.312-.065-.624-.132-.938-.181l-1.886-.323a22.382,22.382,0,0,0-3.793-.44,7.458,7.458,0,0,0-1.892.228,4.522,4.522,0,0,0-1.687.867,4.505,4.505,0,0,1,1.685-.876,7.466,7.466,0,0,1,1.894-.238,22.39,22.39,0,0,1,3.8.422l1.887.311c.315.047.628.111.94.176l.938.191,1.875.382c.623.136,1.241.3,1.86.445a100.16,100.16,0,0,1,14.545,4.733,105.9,105.9,0,0,1,26.244,15.6A107.856,107.856,0,0,1,1165.863,1918a99.612,99.612,0,0,1,13.424,27.454Z" transform="translate(-1081.393 -1629.722)" fill="#fff"/>
      <path id="Path_151" data-name="Path 151" d="M1385.59,1763.81s42.392,21.146,72.164,53.462" transform="translate(-1329.694 -1537.875)" fill="#4055ec"/>
      <path id="Path_152" data-name="Path 152" d="M1402.228,1606.77s37.488,27.551,32.139,46.858C1434.369,1653.628,1399.043,1639.089,1402.228,1606.77Z" transform="translate(-1343.47 -1406.235)" fill="#4055ec"/>
      <path id="Path_153" data-name="Path 153" d="M1161.721,1591.293s36.29,6.767,46.159,33.137c0,0-19.815,4.044-35.227-17.2S1161.721,1591.293,1161.721,1591.293Z" transform="translate(-1141.526 -1392.769)" fill="#4055ec"/>
      <path id="Path_154" data-name="Path 154" d="M1388.872,1849.512s-21.133-8.791-29.482,6.146c0,0,23.582,10.054,30.789-4.238" transform="translate(-1307.732 -1607.562)" fill="#4055ec"/>
      <path id="Path_155" data-name="Path 155" d="M1290.416,1730.045c-2.963-2.494-5.964-5.268-7.152-8.956s.189-8.478,3.844-9.763c1.708-.6,3.65-.37,5.218-1.441a2.622,2.622,0,0,0,1.2-2.036c.032-1.21-.854-1.74-1.68-2.213l-12.454-7.117c-4.205-2.4-8.7-5.129-10.5-9.629a6.074,6.074,0,0,1-.445-3.518,5.093,5.093,0,0,1,1.472-2.528,9.311,9.311,0,0,0,.692-12.488,118.43,118.43,0,0,1-7.021-9.664,3.724,3.724,0,0,1-.765-1.844,2.708,2.708,0,0,1,1.11-2.066c2.911-2.363,7.278-.333,10.028,2.208s5.488,5.79,9.23,5.915c2.282.076,4.4-1.071,6.557-1.805,3.859-1.312,8.551-1.163,11.519,1.629,6.469,6.08.221,18.647,6.358,25.059,4.483,4.691,15.8.427,21.041,4.244,4.775,3.477,5.839,14.309,6.095,20.218.28,6.481.395,37.377-7.67,38.722-5.121.856-14.647-7.055-18.762-9.7A174.052,174.052,0,0,1,1290.416,1730.045Z" transform="translate(-1226.785 -1447.282)" fill="#fff"/>
      <path id="Path_156" data-name="Path 156" d="M1281.07,1664.53c33.121,24.7,53.019,56.381,62.918,93.259" transform="translate(-1242.079 -1454.653)" fill="none" stroke="#9fd7fd" stroke-linecap="round" stroke-linejoin="round" stroke-width="3"/>
      <path id="Path_157" data-name="Path 157" d="M1357.6,1809.226a2.51,2.51,0,0,1,1.923.184,63,63,0,0,1,25.587,18.322" transform="translate(-1306.231 -1575.836)" fill="none" stroke="#9fd7fd" stroke-linecap="round" stroke-linejoin="round" stroke-width="3"/>
      <path id="Path_158" data-name="Path 158" d="M2816.53,1696.514c-2.47,7.126-6.992,12.957-12.347,18.246-6.9,6.811-15.181,12.727-22.272,19.364-16.012,14.992-20.683,31.5-28.83,50.562h-10.866a73.425,73.425,0,0,1,.694-11.746c4.867-33.429,23.263-65.124,51.143-84.511,3.8-2.643,7.969-5.145,12.59-5.417s9.722,2.412,10.688,6.94A12.409,12.409,0,0,1,2816.53,1696.514Z" transform="translate(-2466.882 -1470.13)" fill="#fff"/>
      <path id="Path_159" data-name="Path 159" d="M2792.75,1881.1a95.625,95.625,0,0,1,48.073-67.547" transform="translate(-2509.258 -1579.57)" fill="none" stroke="#c3d1ff" stroke-linecap="round" stroke-linejoin="round" stroke-width="3"/>
      <path id="Path_160" data-name="Path 160" d="M2879.624,1837.893c-8.583,5.38-19.07,6.426-28.889,8.906a98.261,98.261,0,0,0-55.277,38.135H2771.91c4.92-13.527,13.687-27.907,16.756-32.363a126.462,126.462,0,0,1,40.423-37.563,117.447,117.447,0,0,1,14.608-7.186c11.33-4.622,24.316-7.5,35.672-2.938a19.025,19.025,0,0,1,9.281,7.2C2894,1820.686,2888.2,1832.512,2879.624,1837.893Z" transform="translate(-2491.789 -1570.378)" fill="#cff1f9"/>
      <path id="Path_161" data-name="Path 161" d="M2838.41,1938.518a132.575,132.575,0,0,1,17.079-26.492,135.976,135.976,0,0,1,22.741-21.8,131.412,131.412,0,0,1,27.194-15.851,123.4,123.4,0,0,1,14.84-5.305l.472-.141.477-.126.953-.252,1.905-.506c1.277-.309,2.559-.6,3.838-.9a16.249,16.249,0,0,1,3.9-.485,7.7,7.7,0,0,1,1.95.256,5.289,5.289,0,0,1,1.768.847,5.3,5.3,0,0,0-1.779-.838,7.753,7.753,0,0,0-1.941-.247,18.185,18.185,0,0,0-3.9.506c-1.278.306-2.559.6-3.833.915l-1.9.514-.95.257-.476.129-.472.141a123.818,123.818,0,0,0-14.8,5.371,131.2,131.2,0,0,0-27.071,15.961,135.617,135.617,0,0,0-22.576,21.845,132.138,132.138,0,0,0-16.881,26.464Z" transform="translate(-2547.533 -1624.092)" fill="#fff"/>
      <line id="Line_11" data-name="Line 11" x2="335.508" transform="translate(45.734 315.743)" fill="none" stroke="#18186d" stroke-miterlimit="10" stroke-width="5"/>
      <path id="Path_162" data-name="Path 162" d="M1684.493,1961.97h126.724a4.172,4.172,0,0,0,3.526-2.381,3.711,3.711,0,0,0-3.3-2.379H1684.726a4.18,4.18,0,0,0-3.526,2.379A3.691,3.691,0,0,0,1684.493,1961.97Z" transform="translate(-1577.491 -1699.994)" fill="#0600a0" fill-rule="evenodd"/>
      <path id="Path_163" data-name="Path 163" d="M1918.01,1684.5h0c.553-.1,1.108-.2,1.663-.306l3.741-.694q1.779-.323,3.566-.656l3.073-.569.189-.034,2.854-.527,2.321-.43,1.679-.311a.282.282,0,0,1,.052,0l.995-.186h.239l2.264-.018,1.97-.013,17.893-.115,4.42-.027h.018c.085.023.451.126,1.049.3l.031.01.348.1,3.377.97c.052.013.1.031.152.045l1.973.568c.066.021.135.039.2.058l5.587,1.617,1.8.524,1.858.537c.206.06.412.121.623.179l1.25.362c2.64.76,5.289,1.529,7.731,2.235h0c1.617.469,3.143.909,4.516,1.305l.486.142c.079.02.161.044.238.068l.467.134c.152.045.3.091.451.131l.438.128.42.121.4.116.576.162.534.162.333.1.311.089.292.086.752.219.2.058.265.076.21.062.107.031.083.024.073.021h.015c.21.061.419.127.629.2l.06.018c.126.042.254.083.382.131a20.866,20.866,0,0,1,13.339,14.487s1.014,1.232,2.588,3.254c1.33,1.719,3.065,4.011,4.918,6.594a129.94,129.94,0,0,1,8.634,13.478c3.256,6.056,4.972,11.417,2.316,13.315a1.977,1.977,0,0,1-.191.124c-.233.144-.485.287-.76.427-.134.073-.276.146-.421.213l-.3.146c-.314.147-.647.3-1,.443-.085.039-.176.073-.261.112-.534.22-1.107.44-1.708.657-.2.069-.4.142-.607.213l-.631.215c-.214.073-.414.134-.625.2-.708.231-1.456.455-2.214.679a.492.492,0,0,0-.08.024l-.463.131h-.009l-.537.152-1.286.351c-.241.065-.485.131-.732.192q-1.2.323-2.436.613h0l-.122.031c-.2.045-.393.094-.592.142l-.3.071-.778.183c-.262.06-.521.121-.783.179-.763.176-1.531.344-2.293.51l-.045.011q-1.167.243-2.314.485c-.283.058-.561.113-.841.173q-.728.144-1.436.29h-.028q-.728.149-1.439.281l-.78.149-.537.1-2.56.472c-.162.031-.324.058-.485.086l-1.592.283c-.22.037-.436.074-.647.113l-1.423.241c-.638.107-1.207.2-1.692.278-.183.032-.351.06-.51.084a.17.17,0,0,1-.039,0c-.238.037-.447.068-.626.1l-.135.019c-.393.063-.606.094-.606.094l-.707-16.708-.5,20.226-.013.647v.1h-.225l-30.161-.479-4.923-.085-66.238-1.132-9.557-.162.228-1.312,2.942-17.125,2.033-11.834,4.516-26.265" transform="translate(-1748.983 -1468.132)" fill="#f88329"/>
      <path id="Path_164" data-name="Path 164" d="M2250.393,1522.445c-.617-.18-1-.286-1.081-.309h-.018l-24.284.162c.052-.1.083-.162.083-.162h.127c.531-.827,1.009-2,1.418-2.456,4.01-4.445,2.7-15.542-.585-19.732-2.454-3.128,22.049-8.388,22.049-8.388.128,8.212-1.646,16.7-1.2,24.921a9.427,9.427,0,0,0,3.339,5.661A3.034,3.034,0,0,1,2250.393,1522.445Z" transform="translate(-2033.345 -1309.659)" fill="#fdb2d0"/>
      <path id="Path_165" data-name="Path 165" d="M2182.8,1262.061c-.131.238-.273.476-.424.705-1.747,2.677-4.765,4.9-8.634,6.736-12.92,6.146-35.284,8.047-51.167,8.584-1.7.06-3.338.1-4.87.131-8.066.161-13.527-.02-13.527-.02a60.78,60.78,0,0,1-11.807-8.335,40.779,40.779,0,0,1-7.342-8.572,25.517,25.517,0,0,1-3.167-7.238q-.257-1-.417-2.04c-1.1-7.243-1.132-10.457-.324-13.554a.375.375,0,0,1,.013-.055c.052-.192.1-.388.161-.582h0c1.013-3.469,3.025-7.128,5.661-16.467,5.176-18.259-14.469-35.14,0-57.189s41-15.5,41-15.5a7.359,7.359,0,0,1,.809-.344c7.524-2.717,26.171,3.025,29.159,46.164,3.1,44.786,7.235,24.8,24.116,55.81C2184.567,1254.94,2184.592,1258.818,2182.8,1262.061Z" transform="translate(-1912.261 -1021.46)" fill="#0600a0"/>
      <path id="Path_166" data-name="Path 166" d="M2203.709,1627.522l-.231-5.433a20.482,20.482,0,0,0,4.6.521h.128a21.238,21.238,0,0,0,13.829-5.32c-.255.222-.055,2.185-.048,2.588a12.865,12.865,0,0,0,.323,2.879,8.929,8.929,0,0,0,3.112,4.767c.281.506,6.146,1.834,6.2,2.411.073.914-1.051.971-1.666,1.386a27.288,27.288,0,0,0-2.735,2.2c-3.2,2.85-5.5,6.544-8.856,9.219a20.331,20.331,0,0,1-2.1,1.456c-1.232.75-2.513,1.417-3.749,2.179a25.36,25.36,0,0,1-3.951,2.014,14.263,14.263,0,0,1-8.561.809,10.329,10.329,0,0,1-1.1-.324c-2.265-.809-3.312-2.911-3.474-5.209a21.221,21.221,0,0,1,1.323-7.9c.407-1.253.883-2.486,1.4-3.7.259-.61.717-1.737,1.132-2.727a2.674,2.674,0,0,1,2.219-1.617Z" transform="translate(-2008.517 -1415.053)" fill="#fdb2d0"/>
      <path id="Path_167" data-name="Path 167" d="M2136.06,1459s9.3,28.25,3.1,38.929l61.577,4.422Z" transform="translate(-1958.782 -1282.366)" fill="#01017c"/>
      <path id="Path_168" data-name="Path 168" d="M2136.06,1425.973l44.786-6.373,3.754,2.383a11.455,11.455,0,0,1,5.31,9.219c.411,10.449,2.3,31.674,10.827,38.123Z" transform="translate(-1958.782 -1249.338)" fill="#01017c"/>
      <path id="Path_169" data-name="Path 169" d="M2225.364,1648.495c-2.332,2.491-4.339,5.281-7.024,7.424a20.456,20.456,0,0,1-2.1,1.456c-1.234.75-2.512,1.415-3.749,2.177a25.3,25.3,0,0,1-3.951,2.012,14.3,14.3,0,0,1-8.561.817,10.447,10.447,0,0,1-1.1-.324c-2.264-.809-3.314-2.911-3.473-5.211a21.24,21.24,0,0,1,1.323-7.9c.406-1.253.882-2.486,1.4-3.7.259-.609.717-1.737,1.132-2.728a2.671,2.671,0,0,1,2.219-1.618l2.222-.2-.231-5.433a20.5,20.5,0,0,0,4.595.521h.128A20.847,20.847,0,0,0,2218.44,1633q.033.791.114,1.582a22.262,22.262,0,0,0,1.478,6.146,21.362,21.362,0,0,0,3.3,5.548q.572.7,1.2,1.373C2224.8,1647.929,2225.08,1648.215,2225.364,1648.495Z" transform="translate(-2008.5 -1428.222)" fill="#ffcae1"/>
      <path id="Path_170" data-name="Path 170" d="M2245.39,1629.464c1.4.064,2.769.082,4.126.013.68-.032,1.356-.089,2.024-.162s1.334-.162,1.993-.29a28.953,28.953,0,0,0,3.882-.97c.637-.2,1.261-.44,1.884-.681s1.233-.521,1.838-.809l1.028-.485.037,1.1.031.97c0,.324.01.647.034.97q.058.97.183,1.941c.076.647.186,1.294.307,1.941s.273,1.294.43,1.941a14.608,14.608,0,0,1-1.679-3.678,18.546,18.546,0,0,1-.486-1.983c-.124-.668-.187-1.349-.273-2.028l1.076.59a20.608,20.608,0,0,1-1.9.97,21.25,21.25,0,0,1-2,.772,20.453,20.453,0,0,1-4.181.893,19.244,19.244,0,0,1-2.133.105,18.574,18.574,0,0,1-2.122-.126A16.267,16.267,0,0,1,2245.39,1629.464Z" transform="translate(-2050.429 -1422.422)" fill="#fdb2d0"/>
      <path id="Path_171" data-name="Path 171" d="M2311.836,1237.868s-45.137-4.6-29.3-42C2282.536,1195.87,2314.586,1211.9,2311.836,1237.868Z" transform="translate(-2078.742 -1061.794)" fill="#0600a0"/>
      <path id="Path_172" data-name="Path 172" d="M2175.241,1243.468c-.083.379-.162.75-.256,1.119-.338,1.43-.713,2.8-1.082,4.069-.348,1.2-.729,2.4-1.132,3.61-.314.958-.647,1.915-.971,2.873-1.829,5.337-3.762,10.722-4.516,16.243a32.74,32.74,0,0,0-.293,6.051,20.85,20.85,0,0,1-10.253,2.784h-.128c-11.807,0-21.6-10.073-22.44-22.769-.036-.542-.055-1.085-.058-1.637L2134,1233.5a26.25,26.25,0,0,1,1.456-8.807c3.21-9.2,11.38-15.812,20.918-15.87a21.483,21.483,0,0,1,15.7,6.866,18.416,18.416,0,0,1,3.256,8.454C2175.961,1229.7,2176.486,1237.762,2175.241,1243.468Z" transform="translate(-1957.052 -1072.656)" fill="#ffcae1"/>
      <path id="Path_173" data-name="Path 173" d="M2179.076,1257.385a4.853,4.853,0,0,1-7.081,4.331c-6.769-3.5-13.195-9.161-14.586-18.241a1.807,1.807,0,0,0-3.366-.616c-5.2,9.282-11.761,18.932-18.489,23.488a.926.926,0,0,1-1.444-.755v-.016l-.113-22.3a26.249,26.249,0,0,1,1.456-8.807,29.6,29.6,0,0,1,2.125-2.366c10.189-10.1,27.24-11.62,27.24-11.62s-.878,2.2-2.426,5.661a73.831,73.831,0,0,1,16.263,12.7,26.06,26.06,0,0,1,.348,4.15Z" transform="translate(-1957.052 -1082.424)" fill="#fdb2d0"/>
      <path id="Path_174" data-name="Path 174" d="M2132.966,1167.23s-1.186,2.973-3.217,7.369c-5.273,11.416-16.249,32.423-26.974,35.873-14.859,4.779-3.513-23.69,5.661-32.78S2132.966,1167.23,2132.966,1167.23Z" transform="translate(-1924.854 -1037.787)" fill="#0600a0"/>
      <path id="Path_175" data-name="Path 175" d="M2282.55,1195.87c-9.422,22.256,2.75,32.9,14.149,37.862,1.384.6,2.749,1.122,4.076,1.567a56.031,56.031,0,0,0,11.079,2.567C2314.6,1211.9,2282.55,1195.87,2282.55,1195.87Z" transform="translate(-2078.756 -1061.794)" fill="#0600a0"/>
      <path id="Path_176" data-name="Path 176" d="M2372.537,1279.021c1.239-5.713.713-13.774.079-19.327a18.416,18.416,0,0,0-3.255-8.454,25.31,25.31,0,0,1,6.583,13.387,25.948,25.948,0,0,1,.348,4.15l.066,12.93c-1.32-.445-2.692-.971-4.076-1.567C2372.375,1279.778,2372.461,1279.406,2372.537,1279.021Z" transform="translate(-2154.347 -1108.209)" opacity="0.19"/>
      <path id="Path_177" data-name="Path 177" d="M2349.983,1440.9a24.966,24.966,0,0,1-12.13,21.893,32.662,32.662,0,0,1,.307-6.04c.754-5.522,2.687-10.911,4.516-16.244.323-.958.658-1.915.97-2.873.4-1.207.778-2.408,1.132-3.61.368-1.268.744-2.64,1.082-4.069,1.384.6,2.75,1.123,4.076,1.567l.045,8.744Z" transform="translate(-2127.912 -1258.022)" fill="#fdb2d0"/>
      <path id="Path_178" data-name="Path 178" d="M2349.477,1631.264a26.792,26.792,0,0,0-2.735,2.2c-.647.571-1.247,1.178-1.834,1.8-.284-.28-.564-.566-.833-.856-.421-.447-.82-.906-1.2-1.373a21.355,21.355,0,0,1-3.3-5.548,22.259,22.259,0,0,1-1.478-6.146q-.082-.791-.113-1.582h0c.228-.125.448-.259.668-.4.11-.067.217-.135.323-.207.217-.137.433-.281.646-.434a23.809,23.809,0,0,0,1.941-1.5c-.256.222-.055,2.185-.049,2.588a12.953,12.953,0,0,0,.324,2.879,8.916,8.916,0,0,0,3.112,4.768Z" transform="translate(-2128.043 -1415.003)" fill="#fdb2d0"/>
      <path id="Path_179" data-name="Path 179" d="M2424.552,1309.451l-1.633,4.731-.476,1.378-1.8.682-22.519,8.533-3.652,1.382-3.186,1.208-10.675,4.044a66.4,66.4,0,0,0,7.473-4.2c6.049-4.044,5.871-6.371,9.667-9.413a2.985,2.985,0,0,0,.82-1.656,13.075,13.075,0,0,0,.272-1.96,36.292,36.292,0,0,0-.083-4.985c-.183-2.4-.543-5.165-1.067-8.155h0c-.637-3.613-1.518-7.552-2.619-11.543a101.226,101.226,0,0,0-7.631-20.012c-4.055-7.663-9.023-13.213-14.613-13.527-7.969-.451-15.383-3.881-22.011-8.126a49.063,49.063,0,0,1-7.993-6.118c.587-.625,1.188-1.231,1.834-1.8a26.8,26.8,0,0,1,2.735-2.2l-4.529-3.8a8.921,8.921,0,0,1-3.112-4.768,12.912,12.912,0,0,1-.323-2.879c0-.4-.207-2.363.048-2.588a25.41,25.41,0,0,0,8.552-19.357v-.631l-.112-21.674a26.03,26.03,0,0,0-.348-4.15,25.313,25.313,0,0,0-6.583-13.387,23.947,23.947,0,0,0-3.46-3.942,6.193,6.193,0,0,1,1.143-9.991,37.624,37.624,0,0,0,3.8-2.247c7.524-2.717,26.172,3.025,29.158,46.164,3.1,44.786,7.235,24.8,24.115,55.81,2.528,4.647,2.553,8.526.761,11.769.376.626.751,1.25,1.132,1.866q1.664,2.73,3.369,5.433a129.942,129.942,0,0,1,8.634,13.478c2.426,3.72,6.6,10.449,2.316,13.315a1.99,1.99,0,0,1-.191.124c-.233.144-.485.286-.76.427-.134.072-.276.145-.42.213l-.3.146c-.314.147-.647.3-1,.443-.086.039-.176.073-.262.112-.534.22-1.106.44-1.708.657-.2.069-.4.142-.606.213l-.631.215c-.214.073-.414.134-.624.2-.733.238-1.5.469-2.294.7l1.839,5.873s.466,1.644,1.079,3.8Z" transform="translate(-2125.966 -1021.443)" opacity="0.19"/>
      <path id="Path_180" data-name="Path 180" d="M2175.826,1682.51l1.557,5.2c1.083,3.618,4.865,5.549,8.483,5.188,3.485-.348,6.531-2.337,9.237-4.422,1.362-1.048,2.664-2.172,3.995-3.259.542-.442,3.235-1.892,3.261-2.588-.24,5.74-.391,11.484-.573,17.226l-12.989,5.36-17.583.438-3.955-6.588,2.1-7.644Z" transform="translate(-1984.936 -1469.725)" fill="#fff"/>
      <path id="Path_181" data-name="Path 181" d="M2382.262,2216.6l71.514-43.9H2364.43Z" transform="translate(-2150.215 -1880.63)" fill="#4055ec" fill-rule="evenodd"/>
      <path id="Path_182" data-name="Path 182" d="M2208.931,2232.885l92.34-45.847-110.321-.5Z" transform="translate(-2004.794 -1892.232)" fill="#7789f2" fill-rule="evenodd"/>
      <path id="Path_183" data-name="Path 183" d="M2229.405,2144.645l-5.8,3.427H2093.218a3.779,3.779,0,0,1-3.367-2.381,4.475,4.475,0,0,1,2.96-2.316,3.337,3.337,0,0,1,.4-.055.19.19,0,0,0,.041,0h.2l50.347.485,3.759.037,23.351.235.634.008,18.4.18,5.6.055,14.129.139Z" transform="translate(-1920.046 -1856.003)" fill="#01017c" fill-rule="evenodd"/>
      <path id="Path_184" data-name="Path 184" d="M1668.486,2418.574h126.726c2.213,0,4.132-2.264,4.265-5.048h0c.133-2.777-1.57-5.046-3.783-5.046H1668.968c-2.214,0-4.134,2.264-4.265,5.046h0C1664.57,2416.3,1666.271,2418.574,1668.486,2418.574Z" transform="translate(-1563.656 -2078.275)" fill="#4052f2" fill-rule="evenodd"/>
      <path id="Path_185" data-name="Path 185" d="M2370.659,2299.179l-18.689-.906,15.124-7.183,18.691.905Z" transform="translate(-2139.771 -1979.872)" fill="#97c1ef" fill-rule="evenodd"/>
      <path id="Path_186" data-name="Path 186" d="M2474.941,2245.4l-18.691-.906,15.125-7.183,18.691.905Z" transform="translate(-2227.184 -1934.791)" fill="#97c1ef" fill-rule="evenodd"/>
      <path id="Path_187" data-name="Path 187" d="M2557.411,2207.9l-24.431-1.184,18.484-8.58,25.717.377Z" transform="translate(-2291.504 -1901.956)" fill="#97c1ef" fill-rule="evenodd"/>
      <path id="Path_188" data-name="Path 188" d="M2238.67,2291.029l-18.689-.906,15.125-7.183,18.691.906Z" transform="translate(-2029.129 -1973.041)" fill="#d3e0f1" fill-rule="evenodd"/>
      <path id="Path_189" data-name="Path 189" d="M2248.561,2261.225l-24.431-1.185,19.77-9.389,24.431,1.184Z" transform="translate(-2032.607 -1945.973)" fill="#97c1ef" fill-rule="evenodd"/>
      <path id="Path_190" data-name="Path 190" d="M2384.882,2206.182,2360.45,2205l14.694-6.858,26.75.032Z" transform="translate(-2146.879 -1901.956)" fill="#97c1ef" fill-rule="evenodd"/>
      <path id="Path_191" data-name="Path 191" d="M2344.2,2023.364a9.534,9.534,0,0,1-.162,2c-.676,3.558-3.377,5.7-6.377,7.407-.252.144-.506.287-.762.421l-1.585.768-2.352,1.132a83.015,83.015,0,0,1-10.256,4.055.774.774,0,0,1-.115.036c-.461.15-.927.3-1.391.436q-1.683.518-3.4.971c-2.494.671-5.014,1.253-7.548,1.763q-11.484,2.313-22.967,4.618-2.343.476-4.681.943l-8.75,1.758-5.292,1.064-3.994.809a2.149,2.149,0,0,1-2.528-1.664l-1.6-7.552a2.152,2.152,0,0,1,1.259-2.426l6.975-2.984,10.352-4.43,2.845-1.216,1.618-.692,8.8-3.762,3.9-1.664,4.165-1.779,10.481-4.482.1-.045.123-.052h.008a2.175,2.175,0,0,0,.836-.637,2.139,2.139,0,0,0,.469-1.433l-.089-2.091h0l-.707-16.708-.176-4.173,20.7,4.906.161.039,5.315,1.257,2.75,8.8-.138.042,1.839,5.873s.466,1.643,1.079,3.8c.223.8.472,1.662.719,2.542A9.4,9.4,0,0,1,2344.2,2023.364Z" transform="translate(-2063.009 -1730.625)" fill="#ffcae1"/>
      <path id="Path_192" data-name="Path 192" d="M2035,1741.29a2.245,2.245,0,0,1-.189.125c-.235.144-.485.286-.762.427-.134.073-.276.144-.419.213-.1.05-.2.1-.3.144-.312.149-.647.3-1,.446-.084.037-.173.071-.26.11-.536.218-1.107.44-1.708.657-.2.068-.4.142-.607.213s-.419.142-.632.214-.411.134-.621.2c-.356.116-.716.233-1.089.343s-.8.241-1.206.361c-.15.045-.307.087-.463.133h-.01l-.538.152c-.424.117-.851.235-1.283.351-.243.066-.485.126-.736.192q-1.2.323-2.434.613c-.045.011-.087.021-.125.032l-.594.139-.3.074c-.259.058-.516.118-.778.181s-.521.121-.783.18c-.763.176-1.533.346-2.292.509l-.045.01c-.78.162-1.553.333-2.316.485l-.841.171c-.485.1-.97.193-1.436.291h-.027c-.485.1-.971.189-1.441.285-.26.047-.522.1-.778.147l-.537.1c-.888.161-1.747.323-2.559.472-.162.031-.323.057-.485.086l-1.594.283-.647.113c-.5.087-.98.162-1.422.242-.647.1-1.2.2-1.693.276-.181.031-.349.06-.508.084a.135.135,0,0,1-.037,0c-.24.042-.448.075-.627.1l-.135.021c-.393.066-.606.1-.606.1l.091,2.091a2.156,2.156,0,0,1-1.307,2.07h0l-.123.053-30.278-.5-4.918-.084-66.178-1.1-9.609-.162.227-1.312,2.944-17.127,1.391-22.723c.995-16.2,10.675-23.178,22.671-27.076,7.646-2.488,16.224-3.72,24.083-5.3h.053c.323-.066.665-.118,1-.162l.228-.029c.839-.11,1.682-.178,2.523-.239l.97-.068c.754-.053,1.524-.133,2.287-.133l.011.27-1.558.139-.665.063a2.666,2.666,0,0,0-2.219,1.617c-.092.222-.189.448-.281.675v.013c-.191.39-.323.809-.5,1.189-.013.032-.026.062-.035.089-.112.251-.22.5-.323.749a.059.059,0,0,1-.011.02q-.535,1.294-1.009,2.606c-.016.053-.034.1-.05.162-.11.307-.219.621-.323.935-.084.256-.162.511-.239.77-.013.039-.029.082-.04.124-.023.071-.042.147-.068.223s-.045.151-.063.227c-.141.485-.269.987-.385,1.481a19.61,19.61,0,0,0-.545,3.895v.848c0,.126.011.257.021.383s.021.25.037.377a7.533,7.533,0,0,0,.406,1.8,4.931,4.931,0,0,0,1.9,2.436c.105.068.217.134.323.193a1.8,1.8,0,0,0,.189.1,1.855,1.855,0,0,0,.189.092,3.349,3.349,0,0,0,.417.162c.11.042.222.076.331.11,4.94,1.545,10.1-1.528,14.316-3.752a24.92,24.92,0,0,0,10.253-9.324c.272-.472.527-.954.762-1.444.2-.409.382-.825.548-1.249a13.714,13.714,0,0,0,.543-1.74,7.934,7.934,0,0,0,.244-1.96c0-.2-.337-1.49-.35-1.692,0-.032,0-.037.022,0a.36.36,0,0,1-.042-.205h0c.162-.54,3.466,1.17,5.894,1.918.066.021.134.037.2.058l5.586,1.618,1.8.524c.612.176,1.234.356,1.855.539.209.056.414.121.625.178l1.25.363,4.289,1.239h.011c1.173.337,2.324.67,3.433.99,1.617.471,3.144.91,4.519,1.308l.485.139c.079.021.162.045.238.068l.469.136.45.131.438.129.422.118c.136.042.27.079.4.12l.577.162.532.162.335.1.312.089.291.087c.283.079.536.151.752.217l.2.058c.1.029.188.052.267.076l.209.06.107.032.082.024.074.021h.013c.21.063.418.13.629.2a.529.529,0,0,1,.058.016c.129.042.255.084.382.133a23.136,23.136,0,0,1,10.424,8.017,86.033,86.033,0,0,1,5.921,9.019q.563.941,1.132,1.865,1.665,2.732,3.369,5.434c2.6,4.127,5.243,8.225,7.883,12.328.215.336.471.721.75,1.148C2035.114,1731.7,2039.288,1738.425,2035,1741.29Z" transform="translate(-1749.016 -1466.589)" fill="#ff7f00"/>
      <path id="Path_193" data-name="Path 193" d="M2389.922,2189s9.048-1.234,7.8,4.206c-.809,3.529-3.584,5.574-6.643,7.168q-.388.2-.778.393c-.576.256-1.118.485-1.617.71-1.22.534-2.125.93-2.391,1.043a83.676,83.676,0,0,1-10.394,3.686.722.722,0,0,1-.113.027c-.469.135-.937.262-1.409.39q-1.7.453-3.421.851c-2.519.579-5.061,1.068-7.6,1.485l-23.129,3.778q-2.357.389-4.713.773l-8.815,1.43-5.326.872-4.021.656a2.151,2.151,0,0,1-2.466-1.757l-.092-.537,4.665-.936q4.367-.88,8.75-1.758l4.681-.943q11.484-2.3,22.967-4.618c2.533-.509,5.055-1.092,7.548-1.763q1.707-.46,3.4-.97c.464-.141.93-.286,1.391-.437a.865.865,0,0,0,.115-.035,83.074,83.074,0,0,0,10.256-4.055c.262-.123,1.15-.55,2.352-1.132l1.585-.768c.255-.135.51-.277.762-.421,3-1.706,5.7-3.848,6.377-7.408" transform="translate(-2108.604 -1894.191)" opacity="0.19"/>
      <path id="Path_194" data-name="Path 194" d="M2381.634,1681.262a.264.264,0,0,1-.019-.143h0a.182.182,0,0,0,0,.08A.249.249,0,0,0,2381.634,1681.262Z" transform="translate(-2164.616 -1468.559)" fill="#fcaa23"/>
      <path id="Path_195" data-name="Path 195" d="M2126.928,1699.187l-3.641,19.97a11.086,11.086,0,0,1-10.908,9.093h-26.593l-.016-26.744a48.9,48.9,0,0,1-.742,5.887l-.88,6.968-1.779,14.154h-26.351l-1.03-36.767c-.069-2.525.045-5.459,2.063-6.977a7.93,7.93,0,0,1,3.127-1.179q7.763-1.718,15.59-3.169a48.682,48.682,0,0,1,10.267-1.122c-.982.571-2.327.112-3.295.705a3.268,3.268,0,0,0-1.077,1.338c-3.246,5.967-5.562,16.318,3.029,19.086,3.9,1.257,7.558-.809,10.8-2.787,4.108-2.5,8.149-5.525,10.588-9.763.271-.472.527-.954.762-1.444.269.29.548.577.833.856a49.292,49.292,0,0,0,7.993,6.119A59.73,59.73,0,0,0,2126.928,1699.187Z" transform="translate(-1890.81 -1467.025)" fill="#fcaa23"/>
      <path id="Path_196" data-name="Path 196" d="M1537.715,1910.536h127.129a6.146,6.146,0,0,0,6.187-6.605l-19.173-82.868a7.155,7.155,0,0,0-7.021-6.6H1517.708a6.146,6.146,0,0,0-6.187,6.6l19.173,82.868A7.157,7.157,0,0,0,1537.715,1910.536Z" transform="translate(-1435.243 -1580.332)" fill="#4055ec" fill-rule="evenodd"/>
      <path id="Path_197" data-name="Path 197" d="M1537.715,1910.536H1661.09a6.146,6.146,0,0,0,6.185-6.605l-19.172-82.868a7.155,7.155,0,0,0-7.021-6.6H1517.708a6.146,6.146,0,0,0-6.187,6.6l19.173,82.868A7.157,7.157,0,0,0,1537.715,1910.536Z" transform="translate(-1435.243 -1580.332)" fill="#9fd7fd" fill-rule="evenodd"/>
      <path id="Path_198" data-name="Path 198" d="M1705.505,1814.21l-.05.042-.825.7-10.819,9.116-80.562,67.885-.01.011,2.635,11.86a10.66,10.66,0,0,0,.406,1.517.1.1,0,0,0,0,.032,10.546,10.546,0,0,0,.543,1.244c.015.034.031.068.05.105h0l73.478-62.56,21.114-17.978,14.01-11.928.05-.042Zm27.917,6.588a6.164,6.164,0,0,0-.351-1.588c-.016-.053-.034-.1-.053-.153a8.771,8.771,0,0,0-.519-1.147,9.282,9.282,0,0,0-.885-1.372l-.069.057-6.863,5.881h0l-10.788,9.24-25.091,21.494-64.616,55.353h12.7l49.671-42.252,32.956-28.035,12.7-10.806,1-.852,1.26-1.069h0Z" transform="translate(-1520.524 -1580.123)" fill-rule="evenodd" fill="url(#linear-gradient)"/>
      <path id="Path_199" data-name="Path 199" d="M2445.65,1742.746a1.985,1.985,0,0,1-.19.125c-.233.144-.485.286-.76.427-.134.073-.276.146-.42.214l-.3.146c-.314.147-.647.3-1,.443-.086.039-.176.073-.262.112-.534.22-1.106.44-1.708.657-.2.069-.4.142-.606.213l-.631.215c-.213.073-.414.134-.624.2q-.532.173-1.089.341c-.348.107-.705.214-1.067.324l-.138.042,1.839,5.873s.465,1.643,1.079,3.8c.223.8.472,1.663.72,2.543a9.434,9.434,0,0,1,.359,2.369,9.579,9.579,0,0,1-.162,2c-.677,3.558-3.377,5.7-6.378,7.408-.252.144-.506.286-.762.42l-1.585.768-2.352,1.132a82.948,82.948,0,0,1-10.256,4.055.767.767,0,0,1-.115.036q-2.338.728-4.716,1.33c5.671-1.941,11.091-4.155,15.2-8.719,5.192-5.771,2.873-14.7,1.664-21.564-.637-3.613-1.517-7.552-2.618-11.543a.367.367,0,0,0-.011-.039,101.232,101.232,0,0,0-7.619-19.974c-4.055-7.663-9.024-13.213-14.614-13.526-7.969-.451-15.383-3.882-22.011-8.126a49.086,49.086,0,0,1-7.993-6.119c-.285-.28-.565-.566-.833-.855.2-.409.382-.827.549-1.25a13.4,13.4,0,0,0,.543-1.739,7.947,7.947,0,0,0,.245-1.96c0-.2-.337-1.488-.351-1.692,0-.039,0-.039.031.01a.353.353,0,0,1-.044-.227c.162-.542,3.464,1.171,5.894,1.919.066.021.134.039.2.058l5.586,1.617,1.8.524q.922.265,1.858.537c.206.06.412.121.623.179l1.25.362c2.64.76,5.289,1.528,7.735,2.235,1.617.469,3.142.909,4.516,1.305l.486.142c.079.019.161.044.237.068l.468.134c.152.045.3.09.451.131l.438.128.421.121.4.116.576.162.534.162.333.1.31.089.293.086q.425.12.752.218l.2.058.265.076.21.061.107.031.083.024.073.021h.014c.21.061.419.128.629.2l.06.018c.126.042.254.082.382.131a23.124,23.124,0,0,1,10.421,8.016,86.244,86.244,0,0,1,5.923,9.02c.375.626.75,1.25,1.132,1.867q1.664,2.73,3.369,5.433a129.912,129.912,0,0,1,8.637,13.484C2445.76,1733.153,2449.934,1739.88,2445.65,1742.746Z" transform="translate(-2159.662 -1468.045)" opacity="0.19"/>
      <path id="Path_200" data-name="Path 200" d="M2381.644,1681.223a.142.142,0,0,1,0-.073h0A.132.132,0,0,0,2381.644,1681.223Z" transform="translate(-2164.64 -1468.585)" fill="#ff7f00"/>
      <path id="Path_201" data-name="Path 201" d="M2398.147,1687.045l-2.4,13.164a60.119,60.119,0,0,1-11.26-5.771,49.232,49.232,0,0,1-7.993-6.119c-.285-.278-.564-.566-.833-.855.2-.409.382-.825.548-1.249a13.638,13.638,0,0,0,.543-1.74,7.933,7.933,0,0,0,.244-1.96c0-.2-.336-1.49-.349-1.692,0-.032,0-.037.022,0,0-.008-.008-.018-.01-.026a.117.117,0,0,1-.013-.037.219.219,0,0,1-.015-.068.161.161,0,0,1,0-.079c.162-.54,3.466,1.169,5.894,1.918.066.021.134.037.2.058l5.586,1.618,1.8.524c.612.176,1.234.356,1.855.539.209.056.414.121.625.177l1.25.362C2395.286,1686.217,2396.741,1686.634,2398.147,1687.045Z" transform="translate(-2159.628 -1468.047)" fill="#ff7f00"/>
      <path id="Path_202" data-name="Path 202" d="M2549.736,1776.631a2.156,2.156,0,0,1-.189.125c-.235.144-.485.286-.762.427-.134.073-.277.144-.419.213-.1.05-.2.1-.3.144-.312.149-.647.3-1,.447-.084.037-.173.071-.26.11-.535.219-1.106.44-1.708.657-.2.068-.4.142-.607.213s-.419.143-.632.214-.411.134-.622.2c-.356.117-.716.23-1.089.343l-1.067.323c-.046.016-.1.029-.139.042-.15.045-.308.087-.462.133h-.01l-.539.152c-.424.116-.851.235-1.283.351-.242.067-.485.126-.736.193q-1.2.323-2.434.613h0c-.637-3.613-1.516-7.55-2.62-11.543a.134.134,0,0,0-.01-.039,101.464,101.464,0,0,0-7.62-19.975c-4.053-7.662-9.021-13.209-14.615-13.523a36.659,36.659,0,0,1-10.749-2.357l2.4-13.164,3.434.99c1.617.47,3.143.91,4.518,1.308l.485.139c.08.021.162.045.238.068l.469.136.45.131.438.129.422.118c.136.042.27.079.4.12l.577.162.532.162.335.1.312.089.291.087c.282.079.535.15.751.217l.2.058c.1.029.188.052.267.076l.208.06.107.032.082.024.075.021h.013c.21.063.419.129.629.2a.492.492,0,0,1,.058.016c.129.042.256.084.382.133a23.132,23.132,0,0,1,10.424,8.017,86.128,86.128,0,0,1,5.922,9.019q.563.942,1.132,1.865,1.664,2.732,3.369,5.434c2.6,4.127,5.243,8.225,7.883,12.328.215.336.47.72.748,1.145v.011C2549.846,1767.038,2554.021,1773.766,2549.736,1776.631Z" transform="translate(-2263.748 -1501.931)" fill="#f50"/>
      <path id="Path_203" data-name="Path 203" d="M2641.756,2098.927a9.391,9.391,0,0,1,.359,2.37,9.529,9.529,0,0,1-.161,2c-.676,3.558-3.377,5.7-6.377,7.408-.252.144-.506.286-.762.42l-1.585.768-2.352,1.132a83.008,83.008,0,0,1-10.256,4.055.807.807,0,0,1-.115.035q-2.339.728-4.716,1.33c5.67-1.941,11.09-4.155,15.2-8.719,5.192-5.771,2.872-14.7,1.664-21.563h0q1.236-.3,2.436-.613l.733-.192,1.285-.351.537-.152h.009l.463-.131,1.839,5.873s.466,1.643,1.079,3.8C2641.26,2097.18,2641.509,2098.047,2641.756,2098.927Z" transform="translate(-2360.921 -1808.557)" fill="#fdb2d0"/>
      <path id="Path_204" data-name="Path 204" d="M2749.09,1913.095c-.275-.428-.53-.808-.747-1.148-2.64-4.1-5.286-8.2-7.883-12.326A129.673,129.673,0,0,1,2749.09,1913.095Z" transform="translate(-2465.426 -1651.719)" opacity="0.19"/>
      <path id="Path_205" data-name="Path 205" d="M2557.989,2029.117a2.157,2.157,0,0,1-1.3,2.07h0l-.125.052-.1.045-.809.348-2.067-23.082,4.3,17.873.024.6h0Z" transform="translate(-2308.772 -1743.031)" opacity="0.19"/>
      <path id="Path_206" data-name="Path 206" d="M2524.884,2151.485a5.145,5.145,0,0,0-3.224,1.132l-77.1,40.953c-1.994,1.063-2.662,3.989-1.478,6.5a4.92,4.92,0,0,0,4.205,3.034,3.321,3.321,0,0,0,1.569-.388l77.535-41.188a5.14,5.14,0,0,0-1.515-10.05Z" transform="translate(-2215.655 -1862.843)" fill="#01017c" fill-rule="evenodd"/>
      <path id="Path_207" data-name="Path 207" d="M1657.5,2397.918h129.781a2.693,2.693,0,0,0,2.625-2.523h0a2.338,2.338,0,0,0-2.329-2.525H1657.8a2.7,2.7,0,0,0-2.625,2.525h0a2.337,2.337,0,0,0,2.328,2.523Z" transform="translate(-1555.667 -2065.19)" fill="#342dec" fill-rule="evenodd"/>
      <path id="Path_208" data-name="Path 208" d="M2889.047,1701.762c2.728-2.279,5.5-4.813,6.6-8.194s-.144-7.783-3.493-8.975c-1.566-.558-3.35-.354-4.784-1.342a2.4,2.4,0,0,1-1.092-1.875c-.026-1.11.789-1.593,1.551-2.023l11.455-6.487c3.871-2.19,8.006-4.676,9.671-8.8a5.66,5.66,0,0,0,.422-3.235,4.679,4.679,0,0,0-1.344-2.326,8.55,8.55,0,0,1-.589-11.466,109.274,109.274,0,0,0,6.481-8.844,3.421,3.421,0,0,0,.707-1.69,2.468,2.468,0,0,0-1.011-1.9c-2.657-2.179-6.682-.333-9.219,1.991s-5.06,5.3-8.495,5.4c-2.1.062-4.031-1-6.012-1.682-3.539-1.218-7.844-1.1-10.58,1.456-5.957,5.556-.271,17.116-5.927,22.979-4.132,4.283-14.5.333-19.33,3.819-4.395,3.175-5.41,13.114-5.661,18.529-.281,5.945-.5,34.305,6.9,35.572,4.69.809,13.47-6.424,17.256-8.837A159.825,159.825,0,0,0,2889.047,1701.762Z" transform="translate(-2555.816 -1428.752)" fill="#4055ec"/>
      <path id="Path_209" data-name="Path 209" d="M2945.129,1648.08c-30.407,22.9-48.739,52.339-57.929,86.661" transform="translate(-2588.431 -1440.864)" fill="none" stroke="#9fd7fd" stroke-linecap="round" stroke-linejoin="round" stroke-width="2"/>
      <path id="Path_210" data-name="Path 210" d="M3045.711,1786.53a2.276,2.276,0,0,0-1.764.081,57.216,57.216,0,0,0-24.146,15.734" transform="translate(-2699.585 -1556.794)" fill="none" stroke="#9fd7fd" stroke-linecap="round" stroke-linejoin="round" stroke-width="2"/>
      <path id="Path_211" data-name="Path 211" d="M2692.775,1897.334c-1.84-1.494-3.707-3.158-4.473-5.4s.023-5.19,2.245-6.017c1.04-.385,2.23-.267,3.178-.938a1.6,1.6,0,0,0,.711-1.26c0-.739-.542-1.055-1.053-1.334q-3.847-2.111-7.7-4.22c-2.6-1.427-5.379-3.046-6.527-5.779a3.725,3.725,0,0,1-.311-2.148,3.111,3.111,0,0,1,.875-1.562,5.7,5.7,0,0,0,.287-7.65,72.609,72.609,0,0,1-4.4-5.837,2.261,2.261,0,0,1-.485-1.119,1.646,1.646,0,0,1,.656-1.278c1.752-1.477,4.451-.281,6.162,1.244s3.422,3.484,5.713,3.52a11.746,11.746,0,0,0,3.994-1.176c2.347-.844,5.219-.809,7.066.872,4.021,3.651.337,11.409,4.162,15.265,2.795,2.819,9.672.091,12.921,2.369,2.96,2.077,3.728,8.693,3.948,12.3.241,3.961.647,22.867-4.274,23.776-3.124.579-9.039-4.158-11.585-5.734A106.288,106.288,0,0,1,2692.775,1897.334Z" transform="translate(-2410.655 -1611.898)" fill="#fff"/>
      <path id="Path_212" data-name="Path 212" d="M2683.81,1861.82c20.483,14.989,32.973,34.451,39.415,57.247" transform="translate(-2417.938 -1620.033)" fill="none" stroke="#77b9f2" stroke-linecap="round" stroke-linejoin="round" stroke-width="2"/>
      <path id="Path_213" data-name="Path 213" d="M2728.67,1953.449a1.512,1.512,0,0,1,1.175.039,38.135,38.135,0,0,1,16.242,10.269" transform="translate(-2455.543 -1696.753)" fill="none" stroke="#77b9f2" stroke-linecap="round" stroke-linejoin="round" stroke-width="2"/>
      <path id="Path_214" data-name="Path 214" d="M2776.644,2185.14l-.123.7-6.258,34.95a11.621,11.621,0,0,1-11.44,9.574h-17.911a11.778,11.778,0,0,1-1.516-.1,11.621,11.621,0,0,1-9.926-9.476l-6.26-34.969-.121-.676Z" transform="translate(-2450.865 -1891.059)" fill="#9fd7fd"/>
      <path id="Path_215" data-name="Path 215" d="M2768.425,2160.892a2.512,2.512,0,0,1-2.515,2.512h-53.168a2.451,2.451,0,0,1-.305-.019,2.512,2.512,0,0,1,.305-5h53.169A2.514,2.514,0,0,1,2768.425,2160.892Z" transform="translate(-2440.09 -1868.627)" fill="#83c2f5"/>
      <path id="Path_216" data-name="Path 216" d="M2863.71,2160.892a2.511,2.511,0,0,1-2.515,2.512h-.162l-6.258,34.949a11.622,11.622,0,0,1-11.44,9.575h-17.913a11.739,11.739,0,0,1-1.516-.1c18.085-3.424,23.612-32.539,25.127-44.426q.049-.361.087-.7c.324-2.687.43-4.328.43-4.328H2861.2A2.513,2.513,0,0,1,2863.71,2160.892Z" transform="translate(-2535.375 -1868.627)" fill="#77b9f2" opacity="0.68"/>
    </g>
  </g>
</svg>
