<svg xmlns="http://www.w3.org/2000/svg" xmlns:xlink="http://www.w3.org/1999/xlink" width="20" height="20" viewBox="0 0 20 20"><defs><style>.a{fill:#b19a9a;}.b{clip-path:url(#a);}.c{fill:#4caf50;}.d{fill:#fafafa;}</style><clipPath id="a"><rect class="a" width="20" height="20" transform="translate(35 35)"/></clipPath></defs><g class="b" transform="translate(-35 -35)"><g transform="translate(35 35)"><path class="c" d="M10,0H10A9.994,9.994,0,0,0,1.9,15.861L.657,19.576,4.5,18.347A10,10,0,1,0,10,0Z" transform="translate(0)"/><path class="d" d="M16.869,15.265a2.822,2.822,0,0,1-1.963,1.411c-.522.111-1.2.2-3.5-.753a12.527,12.527,0,0,1-4.979-4.4A5.711,5.711,0,0,1,5.238,8.51,3.192,3.192,0,0,1,6.26,6.076a1.453,1.453,0,0,1,1.022-.359c.124,0,.235.006.335.011.294.013.441.03.635.494.241.581.829,2.016.9,2.164a.6.6,0,0,1,.043.541,1.728,1.728,0,0,1-.324.459c-.148.17-.288.3-.435.483-.135.159-.288.329-.118.623A8.876,8.876,0,0,0,9.94,12.507a7.352,7.352,0,0,0,2.345,1.446.632.632,0,0,0,.7-.111,12.1,12.1,0,0,0,.781-1.035.558.558,0,0,1,.718-.217c.27.094,1.7.8,1.993.946s.487.218.559.341A2.49,2.49,0,0,1,16.869,15.265Z" transform="translate(-1.047 -1.143)"/></g></g></svg>