<svg xmlns="http://www.w3.org/2000/svg" xmlns:xlink="http://www.w3.org/1999/xlink" width="25" height="25" viewBox="0 0 25 25"><defs><style>.a,.c{fill:#fff;}.b{clip-path:url(#a);}.c{fill-rule:evenodd;}</style><clipPath id="a"><rect class="a" width="25" height="25" transform="translate(1349 508)"/></clipPath></defs><g class="b" transform="translate(-1349 -508)"><path class="c" d="M21.265,3.633a12.391,12.391,0,0,0-19.5,14.948L.01,25l6.567-1.723a12.375,12.375,0,0,0,5.92,1.508H12.5A12.393,12.393,0,0,0,21.265,3.633ZM12.5,22.693h0a10.284,10.284,0,0,1-5.241-1.435l-.376-.223-3.9,1.022,1.04-3.8-.245-.39A10.3,10.3,0,1,1,12.5,22.693Zm5.648-7.712c-.309-.155-1.831-.9-2.115-1.007s-.49-.155-.7.155-.8,1.007-.98,1.214-.361.233-.671.078A8.455,8.455,0,0,1,11.2,13.884,9.337,9.337,0,0,1,9.476,11.74c-.18-.31,0-.461.136-.632a8.756,8.756,0,0,0,.774-1.059.569.569,0,0,0-.026-.542c-.077-.155-.7-1.678-.954-2.3-.251-.6-.506-.522-.7-.531s-.387-.011-.593-.011a1.137,1.137,0,0,0-.826.387A3.472,3.472,0,0,0,6.207,9.636a6.021,6.021,0,0,0,1.264,3.2,13.8,13.8,0,0,0,5.288,4.674,17.718,17.718,0,0,0,1.765.652,4.243,4.243,0,0,0,1.95.123,3.189,3.189,0,0,0,2.089-1.472,2.586,2.586,0,0,0,.18-1.472c-.077-.129-.284-.206-.593-.361Zm0,0" transform="translate(1349.05 508)"/></g></svg>