<svg xmlns="http://www.w3.org/2000/svg" width="51" height="30.537" viewBox="0 0 51 30.537"><defs><style>.a{fill:#fff;}</style></defs><g transform="translate(0 -10.232)"><path class="a" d="M35.735,10.232A15.2,15.2,0,0,0,25.5,14.179a15.209,15.209,0,0,0-10.233-3.944h-.1A15.264,15.264,0,1,0,25.5,36.82a15.1,15.1,0,0,1-1.561-1.668h3.152a15.263,15.263,0,0,1-1.55,1.635h0c-.013.014-.026.022-.039.034A15.261,15.261,0,0,0,51,25.5v-.007A15.26,15.26,0,0,0,35.735,10.232ZM24.11,15.756h2.9A15.908,15.908,0,0,1,28.2,17.39H23.02C23.354,16.844,23.72,16.283,24.11,15.756Zm-1.991,3.237h6.958a16.307,16.307,0,0,1,.658,1.635H21.294C21.378,20.47,21.673,19.834,22.118,18.993ZM6.231,29.388l.926-5.836L5.069,29.388H3.949L3.8,23.552l-.989,5.836H1.247l1.3-7.74H4.918L5,26.4l1.6-4.75H9.176l-1.282,7.74Zm5.545-.013.054-.618a2.108,2.108,0,0,1-1.667.747,1.543,1.543,0,0,1-1.569-1.751c0-1.81,1.476-2.411,2.882-2.411.221,0,.7.04.7.04a1.053,1.053,0,0,0,.054-.41c0-.492-.442-.559-1.048-.559a5.145,5.145,0,0,0-1.771.285l.236-1.4a5.62,5.62,0,0,1,1.968-.358,1.922,1.922,0,0,1,2.233,1.96l-.638,4.476ZM17.824,27.4c0,2.16-2.093,2.067-2.458,2.067a5.225,5.225,0,0,1-1.824-.2l.217-1.422A5.314,5.314,0,0,0,15.2,28.1c.438,0,1.007-.043,1.007-.567,0-.784-2.035-.6-2.035-2.457,0-1.642,1.22-2.122,2.422-2.122a7.581,7.581,0,0,1,1.5.127l-.205,1.434s-.881-.073-1.11-.073c-.578,0-.893.126-.893.531C15.887,25.785,17.824,25.387,17.824,27.4Zm2.513.567c.144,0,.308-.049.419-.049l-.2,1.381a4.188,4.188,0,0,1-1.218.214,1.206,1.206,0,0,1-1.3-1.377c0-.645.924-5.955.959-5.99h1.625l-.165.95h.811l-.207,1.53H20.2l-.457,2.819C19.709,27.672,19.771,27.971,20.337,27.971Zm3.574-5.052A2.18,2.18,0,0,1,26.229,25.3a11.614,11.614,0,0,1-.215,1.482h-3.3s-.305,1.3,1.44,1.3a5.061,5.061,0,0,0,1.726-.4l-.286,1.566a4.122,4.122,0,0,1-1.717.267,2.551,2.551,0,0,1-2.808-2.842C21.067,24.68,22.276,22.919,23.911,22.919Zm4.3,10.661H22.8a15.1,15.1,0,0,1-.9-1.634H29.1A15.676,15.676,0,0,1,28.215,33.579Zm-.363-4.18H26.183L27.2,23.1h1.513l-.145.913s.539-.993,1.267-.993a1.741,1.741,0,0,1,.314.021,6.251,6.251,0,0,0-.6,1.885C28.413,24.526,28.327,26.709,27.852,29.4Zm6.356-.1a7.5,7.5,0,0,1-1.422.223c-1.94,0-2.924-1.339-2.924-3.366,0-3.057,1.825-4.685,3.7-4.685a5.819,5.819,0,0,1,1.83.4l-.265,1.722a2.894,2.894,0,0,0-1.491-.464c-1.106,0-2.1,1.055-2.1,2.973a1.609,1.609,0,0,0,1.617,1.825,3.9,3.9,0,0,0,1.344-.4Zm3.912.077.055-.622a2.113,2.113,0,0,1-1.667.747,1.543,1.543,0,0,1-1.569-1.751c0-1.81,1.476-2.411,2.881-2.411.221,0,.7.04.7.04a1.025,1.025,0,0,0,.055-.409c0-.492-.442-.559-1.049-.559a5.134,5.134,0,0,0-1.77.285l.236-1.4a5.622,5.622,0,0,1,1.969-.358,1.921,1.921,0,0,1,2.232,1.96l-.638,4.476S38.119,29.379,38.119,29.379ZM41.5,29.4H39.829l1.014-6.3h1.514l-.145.913s.54-.993,1.268-.993a1.72,1.72,0,0,1,.313.021,6.251,6.251,0,0,0-.6,1.885C42.058,24.526,41.972,26.709,41.5,29.4Zm4.98-.017.071-.58a2.03,2.03,0,0,1-1.514.68c-1.351,0-2.014-1.3-2.014-2.638,0-2.062,1.241-3.86,2.73-3.86a2.154,2.154,0,0,1,1.57.848l.352-2.175,1.629,0-1.243,7.728Zm3.214-.218a.486.486,0,0,1-.182.184.49.49,0,0,1-.489,0,.5.5,0,0,1-.247-.429.5.5,0,0,1,.065-.246.467.467,0,0,1,.184-.183.5.5,0,0,1,.241-.065.492.492,0,0,1,.242.065.45.45,0,0,1,.185.183.494.494,0,0,1,0,.491Z"/><path class="a" d="M49.56,33.823a.15.15,0,0,0-.037-.025.257.257,0,0,0-.084-.009h-.1v.158h.105a.148.148,0,0,0,.1-.022.069.069,0,0,0,.026-.058A.079.079,0,0,0,49.56,33.823Z"/><path class="a" d="M49.9,33.728a.453.453,0,0,0-.186-.183.5.5,0,0,0-.241-.065.492.492,0,0,0-.242.065.457.457,0,0,0-.185.183.478.478,0,0,0-.065.244.5.5,0,0,0,.065.244.489.489,0,0,0,.183.184.5.5,0,0,0,.246.065.493.493,0,0,0,.243-.065.472.472,0,0,0,.182-.184.483.483,0,0,0,.065-.244A.494.494,0,0,0,49.9,33.728Zm-.3.518h0l-.046-.083a.441.441,0,0,0-.091-.125.117.117,0,0,0-.067-.019h-.049v.226h-.086v-.532h.183a.392.392,0,0,1,.134.016.119.119,0,0,1,.067.052.134.134,0,0,1,.024.078.152.152,0,0,1-.041.1.171.171,0,0,1-.111.048.115.115,0,0,1,.045.028.622.622,0,0,1,.079.1l.065.1Z"/><path class="a" d="M11.607,26.55c-1.191,0-1.432.535-1.432.98a.591.591,0,0,0,.636.613c.978,0,1.182-1.283,1.15-1.555A.988.988,0,0,0,11.607,26.55Z"/><path class="a" d="M23.917,24.373c-.886,0-1.056,1.008-1.056,1.114h1.8C24.665,25.406,24.834,24.373,23.917,24.373Z"/><path class="a" d="M46.03,24.549c-.715,0-1.281.83-1.28,2.09,0,.769.274,1.262.859,1.262.88,0,1.3-1.149,1.3-2.005C46.915,24.951,46.615,24.549,46.03,24.549Z"/><path class="a" d="M49.617,28.716a.4.4,0,0,0-.154-.153.4.4,0,0,0-.2-.055.419.419,0,0,0-.2.055.37.37,0,0,0-.154.153.424.424,0,0,0-.056.205.41.41,0,0,0,.207.358.42.42,0,0,0,.2.057.414.414,0,0,0,.2-.057.4.4,0,0,0,.154-.154.409.409,0,0,0,.054-.2A.421.421,0,0,0,49.617,28.716Zm-.229.476-.047-.082a.425.425,0,0,0-.088-.124.107.107,0,0,0-.07-.02h-.048v.225h-.088V28.66h.184a.376.376,0,0,1,.135.017.151.151,0,0,1,.067.051.122.122,0,0,1,.024.078.144.144,0,0,1-.042.1.165.165,0,0,1-.11.048.146.146,0,0,1,.045.027.537.537,0,0,1,.078.1l.065.105Z"/><path class="a" d="M37.953,26.55c-1.191,0-1.432.535-1.432.98a.591.591,0,0,0,.636.613c.978,0,1.181-1.283,1.15-1.555A1,1,0,0,0,37.953,26.55Z"/><path class="a" d="M49.353,28.769a.1.1,0,0,0-.036-.026.3.3,0,0,0-.086-.011h-.1v.16h.1a.167.167,0,0,0,.1-.022.082.082,0,0,0,.025-.059A.07.07,0,0,0,49.353,28.769Z"/></g></svg>