<svg xmlns="http://www.w3.org/2000/svg" width="43" height="35.519" viewBox="0 0 43 35.519"><defs><style>.a{fill:#fff;}</style></defs><g transform="translate(0 -3.741)"><path class="a" d="M4.913,38.171l0,.006v0Z"/><path class="a" d="M5.091,35.749c-.227,0-.447-.019-.67-.022v.1h.088a.434.434,0,0,1,.452.489l-.008,1.87-.01.01-.017.017-2.2-2.488c-.147,0-.291.021-.441.021-.18,0-.366-.019-.546-.021v.1h.043a.465.465,0,0,1,.47.468v2.085c0,.393-.11.649-.466.65l-.047,0v.106c.213,0,.434-.021.651-.021s.412.019.616.021v-.1H2.945c-.39,0-.487-.172-.487-.6v-2.1l2.569,2.874H5.19a3.431,3.431,0,0,1-.025-.477V36.483c0-.592.248-.65.463-.65h.051v-.1C5.484,35.729,5.288,35.749,5.091,35.749Z"/><path class="a" d="M5.7,35.689c-.2,0-.407.014-.608.014-.231,0-.46-.02-.693-.02H4.377v.191h.131c.143,0,.407.052.409.445v1.819L2.743,35.693c-.167-.008-.31.01-.458.01-.185,0-.379-.019-.568-.019H1.7v.19h.086a.424.424,0,0,1,.428.425v2.084c0,.392-.1.6-.424.605H1.7v.191h.022c.224,0,.452-.02.673-.02s.425.02.638.02H3.05v-.189H2.943c-.373,0-.437-.127-.444-.557V36.453l2.511,2.8.2.009h.024l0-.026a3.426,3.426,0,0,1-.028-.495V36.487c0-.586.214-.6.42-.607H5.72v-.191Zm0,.167H5.627c-.208,0-.441.04-.441.631v2.251a3.145,3.145,0,0,0,.029.5H5.027L2.479,36.4v2.039c0,.431.084.579.466.579h.083v.149c-.212,0-.425-.02-.637-.02s-.45.02-.673.02v-.149h.068c.341,0,.447-.232.447-.627V36.3a.445.445,0,0,0-.451-.445H1.719v-.148c.188,0,.38.021.569.021.148,0,.291-.021.441-.021l2.2,2.479.009-.01V36.325a.409.409,0,0,0-.429-.468H4.4V35.71c.233,0,.46.021.693.021.2,0,.406-.021.609-.021v.147Z"/><path class="a" d="M12.126,38.363c-.148.557-.435.606-1.02.6-.312,0-.624,0-.624-.344V37.447H11.1c.344,0,.381.2.4.487l.107-.023c-.01-.182-.015-.365-.015-.547s0-.371.015-.558H11.5c-.027.255-.108.438-.41.435h-.609V35.9h.708c.515,0,.6.261.623.572l.107-.026c-.01-.139-.015-.321-.015-.485,0-.084,0-.164,0-.234-.336,0-.837.021-1.243.021s-.907-.019-1.211-.021v.1H9.5c.176,0,.387.031.387.305v2.592c0,.273-.211.3-.387.305H9.456v.1c.289,0,.86-.02,1.294-.02s1,.02,1.315.02c.042-.248.1-.5.159-.75Z"/><path class="a" d="M9.161,35.537l-.022-.008,0,.022c-.008.13-.109.132-.246.135H6.314c-.126,0-.218,0-.252-.129l0-.016H5.9v.021a2.675,2.675,0,0,1-.03.418c-.015.143-.039.283-.061.42v.027H6l0-.018c.081-.367.074-.428.439-.433h.79V38.6c-.006.384-.116.387-.387.393H6.73v.191H6.75c.194,0,.541-.021.836-.021.265,0,.611.021.807.021h.021V38.99H8.3c-.236-.006-.384-.03-.388-.4V35.975H8.7c.313,0,.333.269.346.455v.028l.175-.064.014-.006v-.015c0-.134,0-.266.009-.4s.034-.265.055-.4l0-.021Zm.061.438c-.009.135-.009.267-.009.4l-.15.057c-.011-.183-.034-.474-.366-.474H7.887v2.631c0,.383.173.427.409.427h.1v.148c-.193,0-.54-.021-.806-.021-.3,0-.644.021-.836.021v-.148h.093c.273,0,.411-.023.411-.416V35.956H6.441c-.371,0-.385.09-.46.451H5.833c.021-.141.045-.277.06-.424a2.978,2.978,0,0,0,.029-.421h.12c.04.148.163.143.3.143H8.891c.134,0,.257,0,.268-.153l.117.021C9.256,35.709,9.238,35.839,9.222,35.975Z"/><path class="a" d="M9.175,35.579c-.022.144-.16.152-.285.15H6.315c-.116,0-.245,0-.289-.142H5.945a3.009,3.009,0,0,1-.03.4c-.014.134-.036.264-.056.4h.107c.065-.344.109-.457.476-.451h.833V38.6c0,.4-.16.438-.431.439H6.77v.1c.2,0,.53-.019.816-.019.258,0,.588.019.784.019v-.1H8.3c-.239,0-.433-.062-.433-.449V35.933H8.7c.334,0,.376.285.387.469l.106-.04c0-.127,0-.257.01-.387s.033-.254.052-.382Z"/><path class="a" d="M1.53,35.684c-.234,0-.53.019-.776.019s-.538-.02-.734-.02H0v.191H.09c.179,0,.343.021.344.263v2.591c0,.243-.165.258-.344.261H0v.19H.021c.2,0,.487-.021.728-.021s.543.021.782.021h.022v-.19H1.461c-.18,0-.345-.018-.345-.26V36.137c0-.243.165-.26.345-.262h.091v-.191Zm0,.172H1.46c-.178,0-.367.022-.367.283v2.59c0,.26.189.283.367.283h.068v.149c-.238,0-.534-.02-.782-.02s-.534.02-.728.02v-.149H.089c.178,0,.366-.022.366-.283v-2.59c0-.26-.188-.283-.366-.283H.02V35.71c.194,0,.49.02.734.02s.543-.02.776-.02Z"/><path class="a" d="M23.8,3.741H18.807a10.468,10.468,0,0,0-10.7,10.7,10.632,10.632,0,0,0,10.7,10.52H23.8c5.8.027,11.1-4.731,11.1-10.52A10.837,10.837,0,0,0,23.8,3.741ZM18.831,24.052a9.717,9.717,0,1,1,9.714-9.717A9.719,9.719,0,0,1,18.831,24.052Z"/><path class="a" d="M33.4,33.489c-.255,0-.456,0-.456-.3V26.9c0-.074-.016-.13-.073-.13a.986.986,0,0,0-.2.1,5.42,5.42,0,0,1-.936.39v.145c.346.1.483.118.483.71v5.065c0,.3-.182.3-.438.3H31.6v.235c.338-.008.665-.019.992-.019s.649.019.955.019v-.234Z"/><path class="a" d="M21.033,8.586v11.5a6.155,6.155,0,0,0,0-11.5Z"/><path class="a" d="M40.6,29.568a2.3,2.3,0,0,0-1.353.654V26.9c0-.074-.021-.129-.074-.129a.867.867,0,0,0-.2.1,5.486,5.486,0,0,1-.938.391v.146c.347.1.484.119.484.711v3.911a10.6,10.6,0,0,1-.128,1.62l.19.1.273-.21a2.644,2.644,0,0,0,1.263.32,2.3,2.3,0,0,0,2.174-2.384A1.77,1.77,0,0,0,40.6,29.568Zm-.417,4.058a.978.978,0,0,1-.936-.927V30.488a1.389,1.389,0,0,1,.864-.428,1.734,1.734,0,0,1,1.454,1.8C41.567,32.67,41.16,33.626,40.186,33.626Z"/><path class="a" d="M37.694,33.4c-.153,0-.254-.008-.254-.172V29.87c0-.1,0-.163-.072-.163-.09,0-.6.071-1.417.126V30c.327.092.764.191.764.375v2.447a2.058,2.058,0,0,1-1.1.551c-.791,0-.791-.784-.792-1.055V29.972c0-.2,0-.263-.1-.263-.118,0-.846.054-1.173.062v.174c.51.043.546.271.546.51v2.327a.981.981,0,0,0,1,1.081A2.466,2.466,0,0,0,36.7,33.1v.738l.046.026a9.231,9.231,0,0,1,1.313-.283v-.189C37.941,33.392,37.8,33.4,37.694,33.4Z"/><path class="a" d="M20.952,30.459a.639.639,0,0,1,.708-.6.935.935,0,0,1,.994.9h.21l-.063-.926a2.392,2.392,0,0,0-1.038-.265,1.25,1.25,0,0,0-1.409,1.164c0,1.462,1.98,1.114,1.98,2.19a.648.648,0,0,1-.739.65,1.2,1.2,0,0,1-1.146-1.111l-.163.047.1,1.046a2.41,2.41,0,0,0,1.109.308c1.082,0,1.565-.638,1.565-1.239C23.062,31.2,20.952,31.525,20.952,30.459Z"/><path class="a" d="M2.676,27.376c-.673,0-1.191.021-1.574.021-.355,0-.717,0-1.072-.021v.236c.409.01.836-.046.836.772h0V32.8c-.025.618-.291.634-.835.692v.233c.409-.008.81-.018,1.219-.018.426,0,.855.018,1.319.018,3.219,0,3.745-2.262,3.745-3.162A3.312,3.312,0,0,0,2.676,27.376ZM2.7,33.432c-.445,0-.946-.082-.946-.782V27.7a6.873,6.873,0,0,1,.71-.036A2.733,2.733,0,0,1,5.313,30.6,2.532,2.532,0,0,1,2.7,33.432Z"/><path class="a" d="M1.46,35.833h.048v-.1c-.228,0-.515.021-.754.021s-.52-.019-.712-.021v.1H.09c.176,0,.387.031.387.305v2.59c0,.276-.211.305-.387.305H.042v.1c.192,0,.471-.021.705-.021s.527.019.761.021v-.1H1.46c-.177,0-.388-.03-.388-.305v-2.59C1.072,35.863,1.283,35.833,1.46,35.833Z"/><path class="a" d="M8.424,33.492c-.254,0-.455,0-.455-.3V29.7c0-.072-.019-.128-.064-.128a.327.327,0,0,0-.165.045c-.035.027-.544.2-.971.328v.145c.336.179.473.235.473.635v2.465c0,.3-.184.3-.437.3H6.632v.235c.336-.01.664-.019.991-.019s.646.014.956.02v-.235H8.424Z"/><path class="a" d="M19.537,29.57c-.554,0-.936.583-1.163.936h-.02v-.82c0-.09-.027-.116-.081-.116-.082,0-.446.235-1.11.517v.137c.137.071.472.128.472.41v2.552c0,.3-.182.3-.435.3h-.246v.235c.328-.008.708-.019,1.082-.019.391,0,.772.011,1.272.019v-.234H18.8c-.254,0-.436,0-.436-.3V31.051a.761.761,0,0,1,.665-.753c.318,0,.318.219.6.219a.444.444,0,0,0,.427-.466A.5.5,0,0,0,19.537,29.57Z"/><path class="a" d="M7.6,27.277a.464.464,0,0,0-.444.437.468.468,0,0,0,.444.457.457.457,0,0,0,.447-.457A.445.445,0,0,0,7.6,27.277Z"/><path class="a" d="M16.66,32.7a1.744,1.744,0,0,1-1.228.607A1.517,1.517,0,0,1,14.1,31.74a2.034,2.034,0,0,1,0-.527l2.555,0,.082-.057a1.136,1.136,0,0,0,.008-.164,1.444,1.444,0,0,0-1.537-1.427c-.636,0-1.837.527-1.837,2.309a1.827,1.827,0,0,0,1.737,1.983,2.131,2.131,0,0,0,1.681-1.028ZM15.169,29.86a.771.771,0,0,1,.792.835c0,.108-.026.227-.254.227H14.125C14.234,30.267,14.616,29.86,15.169,29.86Z"/><path class="a" d="M12.675,14.334a6.161,6.161,0,0,0,3.951,5.746V8.586A6.168,6.168,0,0,0,12.675,14.334Z"/><path class="a" d="M35.529,35.749c-.226,0-.445-.019-.665-.02v.1h.088a.435.435,0,0,1,.451.489l0,1.87-.012.01-.018.018-2.2-2.489c-.147,0-.292.021-.441.021-.182,0-.367-.019-.549-.021v.1h.044a.468.468,0,0,1,.47.469v2.085c0,.393-.112.649-.468.65h-.05v.1c.214,0,.433-.02.653-.02s.411.02.615.02v-.1h-.062c-.388,0-.487-.172-.487-.6v-2.1l2.569,2.874h.162a3.769,3.769,0,0,1-.023-.477V36.483c0-.595.248-.65.461-.651h.054v-.1C35.922,35.729,35.725,35.749,35.529,35.749Z"/><path class="a" d="M12.117,38.314H12.1v0l0,.02c-.149.556-.388.585-.983.589-.323,0-.583,0-.583-.3V37.49H11.1c.329,0,.331.169.365.47l0,.023.171-.033.019-.006v-.018c-.009-.189-.016-.377-.016-.564s.007-.387.016-.578v-.021h-.19l0,.02c-.033.265-.084.414-.37.417h-.567V35.946h.666c.511.006.553.237.582.559l0,.023.174-.044.016-.006v-.02c-.011-.142-.016-.327-.016-.5,0-.095,0-.183,0-.257v-.021h-.022c-.336,0-.849.019-1.266.019s-.929-.019-1.231-.019H9.415v.19h.091c.18,0,.342.021.343.264v2.59c0,.243-.163.259-.343.262H9.415v.189h.022c.282,0,.871-.02,1.315-.02s1.014.02,1.331.02H12.1l0-.018c.045-.262.1-.523.167-.785l0-.021Zm-.035.848c-.318,0-.886-.021-1.33-.021s-1.035.021-1.317.021v-.147H9.5c.179,0,.366-.023.366-.283V36.14c0-.26-.187-.283-.366-.283H9.435v-.149c.3,0,.817.021,1.232.021s.928-.021,1.265-.021c-.008.214,0,.541.013.757l-.151.039c-.024-.321-.083-.579-.6-.579H10.5v1.3h.59c.294,0,.36-.168.388-.437h.149c-.01.195-.015.387-.015.581s0,.376.015.564l-.149.029c-.029-.3-.043-.489-.385-.489H10.5v1.15c0,.323.286.323.6.323.594,0,.855-.04,1-.6l.139.033C12.186,38.637,12.126,38.9,12.082,39.162Z"/><path class="a" d="M36.14,35.688c-.206,0-.409.02-.611.02-.229,0-.457-.02-.692-.02h-.022v.19h.132a.389.389,0,0,1,.411.445v1.819L33.181,35.7c-.168-.008-.309.011-.459.011-.185,0-.379-.019-.567-.019h-.022v.19h.086a.422.422,0,0,1,.428.424v2.085c0,.393-.1.6-.425.605h-.089v.191h.022c.224,0,.451-.021.673-.021s.424.021.636.021h.021v-.191h-.1c-.373-.006-.437-.126-.443-.557V36.453l2.508,2.8.2.006h.024l0-.022a3.368,3.368,0,0,1-.027-.5V36.485c0-.583.216-.6.419-.607h.1v-.189Zm.006.169h-.075c-.213,0-.447.038-.447.627v2.253a3.025,3.025,0,0,0,.03.5h-.189L32.918,36.4v2.039c0,.431.084.58.467.58h.084v.148c-.212,0-.426-.021-.636-.021s-.451.021-.673.021v-.148h.067c.343,0,.445-.232.445-.628V36.3a.441.441,0,0,0-.449-.445H32.16v-.149c.186,0,.381.021.567.021.15,0,.292-.021.44-.021l2.2,2.48.007-.007,0,0V36.323a.407.407,0,0,0-.43-.466h-.1V35.71c.231,0,.459.021.692.021.2,0,.4-.021.608-.021v.148Z"/><path class="a" d="M30.125,35.851c-.866,0-1.121.774-1.121,1.435,0,.885.4,1.732,1.206,1.732.961,0,1.127-.847,1.127-1.569S30.95,35.851,30.125,35.851ZM30.212,39c-.784,0-1.185-.83-1.187-1.712,0-.659.253-1.411,1.1-1.412.806,0,1.193.86,1.193,1.576S31.154,39,30.212,39Z"/><path class="a" d="M30.138,35.654a1.782,1.782,0,0,0-1.807,1.808,1.73,1.73,0,0,0,1.832,1.754,1.8,1.8,0,0,0,1.851-1.874A1.72,1.72,0,0,0,30.138,35.654Zm.073,3.385c-.822,0-1.227-.863-1.229-1.754,0-.667.263-1.454,1.142-1.454.842,0,1.233.891,1.235,1.618S31.191,39.039,30.212,39.039Z"/><path class="a" d="M37.655,36.261h-.008l0,0-.459,1.4h.925Zm0,.053.428,1.324h-.864Z"/><path class="a" d="M30.138,35.612a1.827,1.827,0,0,0-1.849,1.85,1.774,1.774,0,0,0,1.872,1.8,1.843,1.843,0,0,0,1.893-1.918A1.76,1.76,0,0,0,30.138,35.612Zm.023,3.624a1.748,1.748,0,0,1-1.851-1.775,1.8,1.8,0,0,1,1.824-1.826,1.736,1.736,0,0,1,1.9,1.706A1.812,1.812,0,0,1,30.162,39.236Z"/><path class="a" d="M42.395,38.3l-.015,0-.006.019a1.026,1.026,0,0,1-.147.348.692.692,0,0,1-.463.257,3.048,3.048,0,0,1-.375.021c-.1,0-.185,0-.273-.01-.155-.022-.275-.07-.277-.257V36.125c0-.25.124-.241.315-.246H41.3v-.191h-.021c-.254,0-.5.02-.753.02s-.521-.02-.784-.02h-.021v.19h.09c.182,0,.349.021.351.261v2.546c0,.292-.173.305-.351.307h-.089v.191h.021c.435,0,.874-.021,1.307-.021s.872.021,1.3.021h.018l0-.018c.061-.282.129-.556.185-.84l0-.024h-.17Zm-.04.861c-.432,0-.87-.021-1.3-.021s-.872.021-1.307.021v-.147h.067c.18,0,.375-.023.375-.334V36.138c0-.261-.195-.283-.375-.283h-.067v-.148c.263,0,.519.02.783.02s.5-.02.753-.02v.148h-.126c-.185,0-.335,0-.335.266v2.552c0,.2.138.258.3.278a3.591,3.591,0,0,0,.653-.011.7.7,0,0,0,.473-.266,1.116,1.116,0,0,0,.152-.356h.143C42.485,38.6,42.416,38.879,42.354,39.162Z"/><path class="a" d="M39.542,39.036a.34.34,0,0,1-.347-.212c-.063-.151-.124-.336-.183-.51L38.1,35.726c-.017-.038-.028-.085-.042-.117,0-.008,0-.008-.009-.008h-.008a.094.094,0,0,0-.028.008,1.9,1.9,0,0,1-.44.2,4.233,4.233,0,0,1-.184.617L36.595,38.7a.469.469,0,0,1-.449.338h-.009v.1c.171-.011.341-.021.514-.021.191,0,.387.011.577.021v-.1h-.034c-.16,0-.386-.021-.39-.2a2.078,2.078,0,0,1,.108-.391l.162-.531h1.155l.2.591a1.6,1.6,0,0,1,.1.363c-.009.151-.217.163-.329.167h-.033v.1h0c.245-.01.485-.021.719-.021s.445.011.662.021v-.1Zm-2.386-1.353.473-1.444h.045l.469,1.444Z"/><path class="a" d="M42.482,35.568a.519.519,0,1,0,.518.521A.51.51,0,0,0,42.482,35.568Zm0,.944a.425.425,0,1,1,.411-.425A.423.423,0,0,1,42.482,36.512Z"/><path class="a" d="M42.631,36.222l-.089-.117a.163.163,0,0,0,.122-.157c0-.095-.082-.138-.176-.138h-.265v.025c.067,0,.074.017.074.068v.386c0,.04-.014.038-.076.049v.023h.252v-.023c-.065-.011-.078-.009-.078-.041v-.176h.06c.1.14.141.241.187.241h.1v-.017A.512.512,0,0,1,42.631,36.222Zm-.173-.133H42.4v-.246h.06c.057,0,.1.03.1.114S42.526,36.089,42.458,36.089Z"/><path class="a" d="M39.541,38.987h0a.289.289,0,0,1-.306-.181c-.063-.147-.122-.329-.184-.5l-.91-2.588c-.018-.042-.03-.086-.046-.126a.062.062,0,0,0-.054-.028.1.1,0,0,0-.046.013,2.848,2.848,0,0,1-.452.214c-.044.2-.134.441-.194.626l-.794,2.271a.426.426,0,0,1-.411.305H36.1v.191h.021c.181-.01.357-.021.534-.021.2,0,.4.011.6.021h.021V38.99h-.074c-.164,0-.346-.029-.346-.152a2.029,2.029,0,0,1,.106-.38l.153-.5H38.2l.187.56a1.52,1.52,0,0,1,.1.347c0,.1-.172.122-.287.122h-.072v.193h.022c.25-.009.5-.021.741-.021s.459.012.68.021l.022,0v-.193h-.051Zm.032.175c-.224-.01-.447-.021-.684-.021s-.489.011-.741.021v-.147H38.2c.112,0,.307-.021.307-.144a1.6,1.6,0,0,0-.1-.355l-.193-.574H37.094l-.16.515a2.051,2.051,0,0,0-.107.385c0,.15.208.173.371.173h.057v.149c-.2-.01-.4-.02-.6-.02-.179,0-.355.009-.534.02v-.149h.028a.449.449,0,0,0,.43-.323l.792-2.268a4.087,4.087,0,0,0,.183-.615,2.475,2.475,0,0,0,.451-.213.16.16,0,0,1,.04-.01.032.032,0,0,1,.034.016c.016.04.031.085.046.122l.91,2.588c.06.174.118.355.185.507a.309.309,0,0,0,.324.2h.03Z"/><path class="a" d="M42.412,38.342a1.128,1.128,0,0,1-.153.349.756.756,0,0,1-.487.275,3.745,3.745,0,0,1-.381.021c-.1,0-.188-.007-.279-.013-.159-.018-.316-.086-.316-.3V36.124c0-.274.174-.291.358-.291h.1v-.1c-.245,0-.485.021-.73.021s-.507-.019-.762-.021v.1h.049c.174,0,.392.033.392.305v2.546c0,.318-.214.351-.392.351h-.049v.1c.429,0,.856-.021,1.285-.021s.859.021,1.287.021c.058-.268.124-.531.176-.8h-.1Z"/><path class="a" d="M28.095,38.99c-.181,0-.343-.018-.346-.26V36.137c0-.242.164-.26.346-.262h.088v-.192h-.021c-.231,0-.529.021-.776.021s-.539-.02-.732-.02h-.021v.191h.092c.179,0,.343.021.345.263v2.591c0,.243-.166.259-.345.261h-.092v.19h.021c.193,0,.487-.021.73-.021s.541.021.78.021h.021V38.99Zm.068.17c-.237,0-.533-.02-.78-.02s-.536.02-.73.02v-.149h.069c.179,0,.365-.022.365-.283v-2.59c0-.26-.186-.283-.365-.283h-.068v-.147c.193,0,.489.02.732.02s.549-.02.778-.02v.147H28.1c-.179,0-.367.022-.367.283v2.59c0,.26.188.283.367.283h.067v.149Z"/><path class="a" d="M19.987,35.687c-.2,0-.406.021-.608.021-.231,0-.459-.021-.693-.021h-.022v.191h.13c.144,0,.408.053.409.445v1.819l-2.175-2.449c-.164-.007-.309.013-.454.013-.187,0-.38-.02-.568-.02h-.022v.191h.085a.422.422,0,0,1,.428.424v2.083c0,.4-.1.606-.423.607h-.091v.191h.022c.222,0,.451-.021.672-.021s.424.021.638.021h.022v-.191h-.1c-.374-.006-.44-.126-.445-.557V36.453l2.511,2.8.2.008h.024l0-.022a3.012,3.012,0,0,1-.03-.5V36.487c0-.585.215-.6.42-.607h.095v-.193h-.022Zm0,.168h-.074c-.208,0-.441.04-.441.629v2.253a3.263,3.263,0,0,0,.028.5h-.189l-2.547-2.842v2.039c0,.431.084.581.467.581h.082v.147c-.211,0-.425-.021-.637-.021s-.451.021-.673.021v-.147h.068c.342,0,.445-.233.445-.629V36.3a.443.443,0,0,0-.45-.445h-.063v-.148c.186,0,.381.02.568.02.147,0,.292-.02.44-.02l2.2,2.479h0l0-.007,0,0V36.322a.408.408,0,0,0-.429-.467h-.108v-.147c.233,0,.46.02.693.02.2,0,.4-.02.609-.02v.147Z"/><path class="a" d="M19.378,35.749c-.227,0-.446-.019-.671-.021v.1h.087a.435.435,0,0,1,.453.489l-.007,1.87-.009.01-.016.018-2.2-2.489c-.148,0-.291.021-.44.021-.183,0-.368-.019-.549-.021v.1h.043a.467.467,0,0,1,.471.469v2.083c0,.4-.112.65-.467.652h-.049v.1c.214,0,.434-.021.652-.021s.413.021.617.021v-.1h-.061c-.391,0-.487-.172-.489-.6V36.339l2.57,2.874h.163a3.287,3.287,0,0,1-.025-.477V36.483c0-.592.248-.65.462-.651h.052v-.1C19.77,35.729,19.575,35.749,19.378,35.749Z"/><path class="a" d="M15.359,38.729,14.5,37.44l.024-.01a.91.91,0,0,0,.674-.852c0-.686-.534-.846-1.156-.849-.261,0-.5.021-.8.021s-.585-.019-.746-.021v.106h.067c.155,0,.373.024.373.4v2.514c0,.2-.185.291-.373.291H12.5v.1c.238,0,.464-.021.7-.021.278,0,.557.021.829.021v-.1h-.067c-.225,0-.428-.027-.428-.422v-1.08h.361l0,.012a15.305,15.305,0,0,0,1.013,1.593c.151,0,.308-.021.463-.021s.31.017.465.021v-.107A.57.57,0,0,1,15.359,38.729ZM13.793,37.4h-.265V35.885l.021,0a2.22,2.22,0,0,1,.284-.02.7.7,0,0,1,.744.743C14.575,37.2,14.291,37.4,13.793,37.4Z"/><path class="a" d="M15.858,38.987a.514.514,0,0,1-.464-.283l-.831-1.243a.95.95,0,0,0,.677-.882c0-.718-.575-.889-1.2-.891-.264,0-.5.021-.8.021s-.607-.021-.767-.021h-.022v.192h.11c.155,0,.326,0,.33.352v2.514c0,.167-.15.245-.33.245h-.11v.191h.022c.247,0,.479-.021.716-.021.281,0,.569.021.851.021h.022V38.99h-.111c-.229-.007-.379,0-.384-.376V37.576h.292a13.923,13.923,0,0,0,1.024,1.6c.172.008.331-.013.481-.013s.321.021.486.021h.021v-.19Zm0,.175c-.162,0-.322-.021-.484-.021s-.313.021-.467.021a13.857,13.857,0,0,1-1.029-1.607H13.55v1.06c0,.383.177.4.406.4h.089v.148c-.284,0-.569-.021-.851-.021-.238,0-.47.021-.717.021v-.148h.088c.185,0,.352-.084.352-.266V36.232c0-.358-.2-.376-.352-.376h-.088V35.71c.158,0,.465.02.767.02s.534-.02.8-.02c.623,0,1.179.168,1.179.872a.935.935,0,0,1-.689.871l.845,1.266a.55.55,0,0,0,.48.3Z"/><path class="a" d="M28.095,35.833h.046v-.1c-.227,0-.514.021-.754.021s-.519-.019-.709-.021v.1h.046c.177,0,.387.031.387.305v2.59c0,.274-.209.305-.387.305h-.046v.1c.19,0,.469-.02.705-.02s.525.02.758.02v-.1h-.046c-.179,0-.387-.032-.387-.305v-2.59C27.707,35.863,27.914,35.833,28.095,35.833Z"/><path class="a" d="M13.408,33.489h-.164c-.255,0-.454,0-.454-.3V30.84c0-.709-.273-1.273-1.046-1.273a2.667,2.667,0,0,0-1.575.682v-.591c0-.073-.027-.092-.053-.092a12.726,12.726,0,0,1-1.2.437v.172c.426.171.528.262.528.6h0v2.409c0,.3-.181.3-.435.3H8.844v.234c.327-.01.654-.019.981-.019s.647.019.964.019v-.234h-.163c-.254,0-.457,0-.457-.3V30.493a2.462,2.462,0,0,1,1.055-.437c.519,0,.836.257.836.776v2.353c0,.3-.181.3-.435.3h-.163v.233c.325-.008.653-.018.981-.018s.645.018.964.018C13.408,33.721,13.408,33.489,13.408,33.489Z"/><path class="a" d="M13.832,35.884a2.656,2.656,0,0,0-.282.021v1.475h.243c.495,0,.761-.187.761-.772A.676.676,0,0,0,13.832,35.884Zm-.039,1.474h-.221V35.923a1.959,1.959,0,0,1,.26-.02.658.658,0,0,1,.7.7C14.531,37.182,14.282,37.351,13.793,37.358Z"/><path class="a" d="M26.36,35.537l-.026-.008,0,.022c-.008.13-.106.132-.245.135H23.511c-.128,0-.218,0-.252-.129l-.006-.016H23.1v.021a3.254,3.254,0,0,1-.029.418c-.017.143-.04.282-.061.422l0,.024H23.2l0-.018c.082-.367.072-.428.439-.433h.79l0,2.621c-.009.384-.116.387-.389.393h-.116v.191h.022c.193,0,.541-.021.835-.021.265,0,.611.021.806.021h.019v-.19h-.116c-.235-.006-.385-.03-.387-.4V35.975H25.9c.311,0,.333.269.345.455l0,.028.174-.064.015-.006v-.015c0-.132,0-.266.01-.4s.034-.265.054-.4l.006-.021Zm.058.438c-.01.135-.01.267-.01.4l-.148.057c-.011-.183-.034-.474-.365-.474h-.814v2.631c0,.383.174.427.411.427h.092v.148c-.189,0-.537-.021-.8-.021-.3,0-.644.021-.835.021v-.148h.094c.273,0,.412-.023.412-.416V35.956h-.812c-.371,0-.387.09-.462.451h-.148c.021-.141.046-.277.061-.424a2.839,2.839,0,0,0,.029-.421h.12c.038.148.162.143.3.143h2.553c.135,0,.257,0,.266-.153l.118.021C26.451,35.709,26.435,35.839,26.417,35.975Z"/><path class="a" d="M26.371,35.579c-.022.144-.162.153-.29.153H23.505c-.115,0-.243,0-.289-.143h-.08a2.854,2.854,0,0,1-.029.4c-.013.134-.038.267-.057.4h.1c.065-.344.109-.457.477-.451h.83V38.6c0,.4-.158.435-.431.436H23.96v.1c.2,0,.529-.021.816-.021.259,0,.59.019.784.021v-.1h-.071c-.237,0-.429-.061-.429-.448V35.933h.833c.333,0,.377.285.384.469l.109-.04c0-.128,0-.258.01-.387s.032-.254.053-.382Z"/><path class="a" d="M31.075,32a1.85,1.85,0,0,1-1.826,1.572,2.964,2.964,0,0,1-2.71-3.157A2.591,2.591,0,0,1,29.1,27.532a1.727,1.727,0,0,1,1.945,1.492h.225l-.09-1.3a6.6,6.6,0,0,0-2.147-.483,3.342,3.342,0,0,0-3.445,3.2,3.238,3.238,0,0,0,3.473,3.421,5.089,5.089,0,0,0,2.012-.481l.208-1.326Z"/><path class="a" d="M23.387,38.986a.28.28,0,0,1-.3-.178c-.063-.147-.122-.329-.183-.5l-.913-2.588c-.017-.042-.029-.086-.044-.126a.066.066,0,0,0-.055-.028.132.132,0,0,0-.048.013,2.545,2.545,0,0,1-.449.212,5.716,5.716,0,0,1-.2.628L20.4,38.684a.421.421,0,0,1-.409.305h-.05v.191h.023c.177-.01.354-.021.533-.021.2,0,.4.011.6.021h.022V38.99h-.075c-.164,0-.348-.029-.35-.151a2.167,2.167,0,0,1,.11-.381l.153-.5h1.091l.189.56a1.378,1.378,0,0,1,.1.347c0,.1-.168.122-.285.122h-.076v.193l.022,0c.254-.009.5-.021.741-.021s.461.012.68.021l.022,0v-.194Zm.032.176h0c-.223-.01-.443-.021-.68-.021s-.491.011-.743.021v-.147h.056c.114,0,.305-.021.305-.144a1.6,1.6,0,0,0-.1-.355l-.194-.574H20.941l-.157.515a1.962,1.962,0,0,0-.11.385c0,.15.208.173.371.173H21.1v.149c-.2-.01-.4-.02-.6-.02-.178,0-.355.009-.533.02v-.149H20a.446.446,0,0,0,.429-.323l.792-2.268a3.981,3.981,0,0,0,.184-.615,2.408,2.408,0,0,0,.448-.213.134.134,0,0,1,.04-.01.033.033,0,0,1,.035.016c.015.04.029.085.045.122l.912,2.588c.06.174.116.355.184.507a.311.311,0,0,0,.327.2h.026v.146Z"/><path class="a" d="M23.392,39.036a.338.338,0,0,1-.347-.212c-.065-.151-.124-.336-.184-.51l-.911-2.588c-.017-.038-.029-.085-.044-.119,0-.006,0-.006-.008-.006h-.007a.081.081,0,0,0-.027.008,1.947,1.947,0,0,1-.441.2,4.237,4.237,0,0,1-.185.617L20.447,38.7a.472.472,0,0,1-.45.338h-.008v.1c.169-.011.34-.021.514-.021.192,0,.386.011.575.021v-.1h-.032c-.16,0-.386-.021-.392-.2a1.954,1.954,0,0,1,.111-.392l.162-.531h1.151l.2.591a1.514,1.514,0,0,1,.1.363c-.006.151-.216.163-.329.167h-.032v.1c.245-.01.485-.021.72-.021s.445.011.661.021v-.1Zm-2.387-1.353.473-1.444h.041l.471,1.444Z"/><path class="a" d="M21.506,36.261H21.5v0l-.459,1.4h.924Zm-.006.053.429,1.324h-.865Z"/></g></svg>