<svg xmlns="http://www.w3.org/2000/svg" width="35" height="13.411" viewBox="0 0 35 13.411"><defs><style>.a{fill:#fff;}</style></defs><g transform="translate(-2.981 -2.965)"><path class="a" d="M8.436,5.927a3.953,3.953,0,0,1,5.118,2.956l2.706-.552a6.711,6.711,0,0,0-8.7-5.021Z"/><path class="a" d="M5.244,14.694l1.83-2.068a3.945,3.945,0,0,1,0-5.909l-1.83-2.07a6.708,6.708,0,0,0,0,10.048"/><path class="a" d="M13.554,10.461a3.946,3.946,0,0,1-3.865,3.154,3.894,3.894,0,0,1-1.252-.2l-.876,2.62a6.718,6.718,0,0,0,8.7-5.016Z"/><path class="a" d="M18.626,12.712a4.784,4.784,0,0,1-.282-.543A4.112,4.112,0,0,1,20.4,6.82a4.119,4.119,0,0,1,3.783.275,4.039,4.039,0,0,1,1.688,2.039c.051.121.1.249.142.359Zm2.466-4.293a2.034,2.034,0,0,0-1.235,2.163l3.713-1.6A1.972,1.972,0,0,0,21.092,8.419ZM24.033,11.9a0,0,0,0,0,0,0l-.077-.053a2.184,2.184,0,0,1-1,.841A1.951,1.951,0,0,1,20.8,12.47l-.051.077a0,0,0,0,0,0,0l-.942,1.41a4.082,4.082,0,0,0,.748.41,4.085,4.085,0,0,0,4.914-1.51Z"/><path class="a" d="M28.59,4.746v7.836l1.219.494-.692,1.615-1.345-.56a1.522,1.522,0,0,1-.662-.557,1.749,1.749,0,0,1-.259-.97V4.746Z"/><path class="a" d="M31.746,10.587a2.215,2.215,0,0,1,.762-1.673l-1.25-1.394a4.093,4.093,0,0,0,0,6.13L32.5,12.256A2.215,2.215,0,0,1,31.746,10.587Z"/><path class="a" d="M33.967,12.81a2.23,2.23,0,0,1-.7-.116l-.6,1.774a4.1,4.1,0,0,0,5.314-3.056l-1.835-.375A2.219,2.219,0,0,1,33.967,12.81Z"/><path class="a" d="M33.972,6.494a4.128,4.128,0,0,0-1.3.208l.592,1.776a2.221,2.221,0,0,1,2.879,1.667l1.835-.371A4.1,4.1,0,0,0,33.972,6.494Z"/></g></svg>