<svg xmlns="http://www.w3.org/2000/svg" width="35" height="35" viewBox="0 0 35 35"><defs><style>.a{fill:#fff;}</style></defs><path class="a" d="M19.16,32.785q-.206.034-.414.062Q18.954,32.819,19.16,32.785Zm0,0" transform="translate(1.151 2)"/><path class="a" d="M19.49,32.729l-.2.034Zm0,0" transform="translate(1.176 2)"/><path class="a" d="M18.378,32.893q-.241.027-.485.048Q18.136,32.92,18.378,32.893Zm0,0" transform="translate(1.101 2)"/><path class="a" d="M18.695,32.854l-.233.029Zm0,0" transform="translate(1.127 2)"/><path class="a" d="M19.94,32.64l-.174.037Zm0,0" transform="translate(1.204 2)"/><path class="a" d="M21.055,32.363l-.14.039Zm0,0" transform="translate(1.273 2)"/><path class="a" d="M20.717,32.455l-.153.04Zm0,0" transform="translate(1.252 2)"/><path class="a" d="M20.276,32.565l-.163.037Zm0,0" transform="translate(1.225 2)"/><path class="a" d="M17.887,32.941l-.261.02Zm0,0" transform="translate(1.077 2)"/><path class="a" d="M35,17.5A17.5,17.5,0,1,0,17.5,35c.1,0,.205,0,.308,0V21.373h-3.76V16.991h3.76V13.767c0-3.739,2.283-5.775,5.619-5.775a30.95,30.95,0,0,1,3.371.172v3.908H24.5c-1.815,0-2.166.863-2.166,2.128v2.791H26.67L26.1,21.373H22.331V34.324A17.509,17.509,0,0,0,35,17.5Zm0,0"/><path class="a" d="M17.59,32.963q-.258.017-.517.026Q17.332,32.98,17.59,32.963Zm0,0" transform="translate(1.051 2)"/><path class="a" d="M17.064,32.989,16.79,33Zm0,0" transform="translate(1.026 2)"/></svg>