<svg xmlns="http://www.w3.org/2000/svg" xmlns:xlink="http://www.w3.org/1999/xlink" width="40" height="40" viewBox="0 0 40 40"><defs><style>.a{fill:#fff;}.b{clip-path:url(#a);}</style><clipPath id="a"><rect class="a" width="40" height="40" transform="translate(1612 287)"/></clipPath></defs><g class="b" transform="translate(-1612 -287)"><g transform="translate(1612.809 287)"><g transform="translate(0)"><path class="a" d="M37.644,20.518a1.172,1.172,0,0,1,0-1.036l1.492-3.052a3.472,3.472,0,0,0-1.5-4.611l-3-1.592a1.172,1.172,0,0,1-.609-.838L33.44,6.042a3.473,3.473,0,0,0-3.922-2.85l-3.363.476a1.172,1.172,0,0,1-.985-.32L22.728.986a3.472,3.472,0,0,0-4.848,0L15.438,3.348a1.173,1.173,0,0,1-.985.32l-3.363-.476a3.472,3.472,0,0,0-3.922,2.85L6.58,9.388a1.172,1.172,0,0,1-.609.838l-3,1.592a3.472,3.472,0,0,0-1.5,4.611l1.492,3.052a1.172,1.172,0,0,1,0,1.036L1.471,23.57a3.472,3.472,0,0,0,1.5,4.611l3,1.592a1.172,1.172,0,0,1,.609.838l.587,3.346a3.47,3.47,0,0,0,3.423,2.885,3.567,3.567,0,0,0,.5-.035l3.363-.476a1.172,1.172,0,0,1,.985.32l2.441,2.362a3.472,3.472,0,0,0,4.848,0l2.442-2.362a1.173,1.173,0,0,1,.985-.32l3.363.476a3.472,3.472,0,0,0,3.922-2.85l.587-3.346a1.172,1.172,0,0,1,.609-.838l3-1.592a3.472,3.472,0,0,0,1.5-4.611Zm-1.088,5.625-3,1.592a3.465,3.465,0,0,0-1.8,2.478l-.587,3.346a1.175,1.175,0,0,1-1.327.964l-3.363-.476a3.464,3.464,0,0,0-2.913.946l-2.442,2.362a1.175,1.175,0,0,1-1.64,0l-2.441-2.362a3.461,3.461,0,0,0-2.416-.981,3.541,3.541,0,0,0-.5.035l-3.363.476a1.175,1.175,0,0,1-1.327-.964l-.587-3.346a3.464,3.464,0,0,0-1.8-2.477l-3-1.592a1.175,1.175,0,0,1-.507-1.56l1.492-3.052a3.465,3.465,0,0,0,0-3.062L3.544,15.417a1.175,1.175,0,0,1,.507-1.56l3-1.592a3.465,3.465,0,0,0,1.8-2.478l.587-3.346a1.175,1.175,0,0,1,1.327-.964l3.363.476a3.464,3.464,0,0,0,2.913-.946l2.442-2.362a1.175,1.175,0,0,1,1.64,0l2.441,2.362a3.464,3.464,0,0,0,2.913.946l3.363-.476a1.175,1.175,0,0,1,1.327.964l.587,3.346a3.464,3.464,0,0,0,1.8,2.477l3,1.592a1.175,1.175,0,0,1,.507,1.56l-1.492,3.052a3.465,3.465,0,0,0,0,3.062l1.492,3.052A1.175,1.175,0,0,1,36.556,26.143Z" transform="translate(-1.113 0)"/></g><g transform="translate(10.424 11.234)"><path class="a" d="M32.641,15.784a1.154,1.154,0,0,0-1.631,0L15.784,31.01a1.153,1.153,0,1,0,1.631,1.631L32.641,17.415A1.153,1.153,0,0,0,32.641,15.784Z" transform="translate(-15.446 -15.446)"/></g><g transform="translate(10.347 9.618)"><path class="a" d="M19.569,13.225a4.23,4.23,0,1,0,4.23,4.23A4.234,4.234,0,0,0,19.569,13.225Zm0,6.152a1.923,1.923,0,1,1,1.923-1.923A1.925,1.925,0,0,1,19.569,19.377Z" transform="translate(-15.34 -13.225)"/></g><g transform="translate(19.575 21.923)"><path class="a" d="M32.258,30.143a4.23,4.23,0,1,0,4.23,4.23A4.234,4.234,0,0,0,32.258,30.143Zm0,6.152a1.922,1.922,0,1,1,1.922-1.922A1.925,1.925,0,0,1,32.258,36.3Z" transform="translate(-28.028 -30.143)"/></g></g></g></svg>