<svg xmlns="http://www.w3.org/2000/svg" width="35" height="35" viewBox="0 0 35 35"><defs><style>.a{fill:#fff;}</style></defs><path class="a" d="M17.5,0A17.5,17.5,0,1,0,35,17.5,17.5,17.5,0,0,0,17.5,0Zm.371,27.689h0a10.47,10.47,0,0,1-5.005-1.275L7.309,27.871l1.486-5.426a10.475,10.475,0,1,1,9.076,5.244Zm0,0"/><path class="a" d="M16.853,8.022c-4.528,0-8.21,4.129-8.212,9.2a10.024,10.024,0,0,0,1.255,4.9l.2.348-.829,3.4,3.107-.914.3.2a7.532,7.532,0,0,0,4.178,1.283h0c4.524,0,8.206-4.129,8.208-9.205a9.744,9.744,0,0,0-2.4-6.512,7.734,7.734,0,0,0-5.8-2.7Zm4.828,13.162A2.567,2.567,0,0,1,20.015,22.5a3.033,3.033,0,0,1-1.554-.11,13.292,13.292,0,0,1-1.407-.583,11.622,11.622,0,0,1-4.215-4.178,5.739,5.739,0,0,1-1.008-2.863,3.272,3.272,0,0,1,.864-2.308.866.866,0,0,1,.658-.346c.164,0,.329,0,.473.01s.355-.065.555.475.7,1.916.761,2.054a.565.565,0,0,1,.021.485,7.926,7.926,0,0,1-.617.946c-.11.152-.252.288-.108.565a8.28,8.28,0,0,0,1.373,1.917,6.634,6.634,0,0,0,1.984,1.374c.246.138.39.115.535-.069s.617-.808.781-1.085.329-.231.555-.138,1.439.762,1.686.9.411.208.473.323a2.571,2.571,0,0,1-.144,1.316Zm0,0" transform="translate(1.042 0)"/></svg>