<svg xmlns="http://www.w3.org/2000/svg" width="35" height="35" viewBox="0 0 35 35"><defs><style>.a{fill:#fff;}</style></defs><path class="a" d="M14.445,19.591,19.812,16.5l-5.367-3.091Zm0,0" transform="translate(1.045 1)"/><path class="a" d="M17.5,0A17.5,17.5,0,1,0,35,17.5,17.5,17.5,0,0,0,17.5,0ZM28.435,17.518a28.883,28.883,0,0,1-.45,5.26,2.74,2.74,0,0,1-1.928,1.927c-1.711.45-8.557.45-8.557.45s-6.828,0-8.557-.468A2.741,2.741,0,0,1,7.015,22.76a28.756,28.756,0,0,1-.45-5.26,28.864,28.864,0,0,1,.45-5.26,2.8,2.8,0,0,1,1.928-1.946c1.711-.45,8.557-.45,8.557-.45s6.846,0,8.557.468a2.741,2.741,0,0,1,1.928,1.928,27.409,27.409,0,0,1,.45,5.278Zm0,0"/></svg>