<svg xmlns="http://www.w3.org/2000/svg" width="35" height="35" viewBox="0 0 35 35"><defs><style>.a{fill:#fff;}</style></defs><path class="a" d="M19.658,16.5A3.158,3.158,0,1,1,16.5,13.342,3.158,3.158,0,0,1,19.658,16.5Zm0,0" transform="translate(1 1)"/><path class="a" d="M23.886,10.912a3.138,3.138,0,0,0-1.8-1.8,5.242,5.242,0,0,0-1.759-.326c-1-.046-1.3-.055-3.829-.055s-2.83.01-3.829.055a5.245,5.245,0,0,0-1.759.326,3.139,3.139,0,0,0-1.8,1.8,5.244,5.244,0,0,0-.326,1.759c-.046,1-.055,1.3-.055,3.829s.01,2.829.055,3.829a5.242,5.242,0,0,0,.326,1.759,3.138,3.138,0,0,0,1.8,1.8,5.236,5.236,0,0,0,1.759.326c1,.046,1.3.055,3.828.055s2.83-.01,3.829-.055a5.236,5.236,0,0,0,1.759-.326,3.138,3.138,0,0,0,1.8-1.8,5.247,5.247,0,0,0,.326-1.759c.046-1,.055-1.3.055-3.829s-.01-2.83-.055-3.829a5.236,5.236,0,0,0-.326-1.759ZM16.5,21.365A4.865,4.865,0,1,1,21.365,16.5,4.865,4.865,0,0,1,16.5,21.365Zm5.058-8.786a1.137,1.137,0,1,1,1.137-1.137A1.137,1.137,0,0,1,21.558,12.579Zm0,0" transform="translate(1 1)"/><path class="a" d="M17.5,0A17.5,17.5,0,1,0,35,17.5,17.5,17.5,0,0,0,17.5,0Zm9.988,21.643a7.373,7.373,0,0,1-.467,2.439,5.138,5.138,0,0,1-2.939,2.939,7.378,7.378,0,0,1-2.439.467c-1.072.049-1.414.061-4.143.061s-3.071-.012-4.143-.061a7.378,7.378,0,0,1-2.439-.467,5.138,5.138,0,0,1-2.939-2.939,7.371,7.371,0,0,1-.467-2.439c-.049-1.072-.061-1.414-.061-4.143s.011-3.071.061-4.143a7.373,7.373,0,0,1,.467-2.439,5.142,5.142,0,0,1,2.939-2.939,7.379,7.379,0,0,1,2.439-.467c1.072-.049,1.414-.061,4.143-.061s3.071.012,4.143.061a7.381,7.381,0,0,1,2.439.466,5.14,5.14,0,0,1,2.939,2.939,7.372,7.372,0,0,1,.467,2.439c.049,1.072.06,1.414.06,4.143S27.537,20.571,27.488,21.643Zm0,0"/></svg>