<svg xmlns="http://www.w3.org/2000/svg" width="57" height="17.546" viewBox="0 0 57 17.546"><defs><style>.a{fill:#fff;}</style></defs><g transform="translate(0 -19.727)"><path class="a" d="M22.823,20.018l-2.9,17h4.633l2.9-17Z"/><path class="a" d="M16.042,20.037,11.5,31.63l-.484-1.75A18.189,18.189,0,0,0,4.6,22.833L8.751,37.009l4.9-.008,7.3-16.967Z"/><path class="a" d="M9.261,21.254a1.864,1.864,0,0,0-2.019-1.381H.06L0,20.211c5.59,1.356,9.289,4.623,10.823,8.552Z"/><path class="a" d="M36.848,23.277a8.553,8.553,0,0,1,3.468.651l.418.2.627-3.684a11.959,11.959,0,0,0-4.15-.714c-4.578,0-7.805,2.306-7.83,5.61-.03,2.442,2.3,3.8,4.057,4.619,1.805.834,2.411,1.364,2.4,2.109-.014,1.138-1.439,1.66-2.771,1.66a9.725,9.725,0,0,1-4.363-.89l-.6-.272-.652,3.8a14.673,14.673,0,0,0,5.162.906c4.87,0,8.035-2.278,8.068-5.809.02-1.932-1.215-3.406-3.893-4.615-1.621-.789-2.612-1.313-2.6-2.109C34.194,24.033,35.035,23.277,36.848,23.277Z"/><path class="a" d="M53.251,20.037h-3.58a2.305,2.305,0,0,0-2.427,1.411L40.365,37.027H45.23s.794-2.095.974-2.554l5.933.007c.138.593.565,2.546.565,2.546H57ZM47.537,30.994c.381-.976,1.846-4.751,1.846-4.751-.025.046.378-.983.617-1.623l.312,1.466,1.074,4.908Z"/></g></svg>